<?xml version="1.0" encoding="UTF-8" standalone="no"?>
<!DOCTYPE svg PUBLIC "-//W3C//DTD SVG 1.1//EN"
 "http://www.w3.org/Graphics/SVG/1.1/DTD/svg11.dtd">
<!-- Generated by graphviz version 2.43.0 (0)
 -->
<!-- Title: src/cksum/blake2b.c Pages: 1 -->
<!--zoomable 252 -->
<svg id="main" version="1.1" xmlns="http://www.w3.org/2000/svg" xmlns:xlink="http://www.w3.org/1999/xlink" xml:space="preserve" onload="init(evt)">
<style type="text/css"><![CDATA[
.edge:hover path { stroke: red; }
.edge:hover polygon { stroke: red; fill: red; }
]]></style>
<script type="text/javascript"><![CDATA[
var edges = document.getElementsByTagName('g');
if (edges && edges.length) {
  for (var i=0;i<edges.length;i++) {
    if (edges[i].id.substr(0,4)=='edge') {
      edges[i].setAttribute('class','edge');
    }
  }
}
]]></script>
        <defs>
                <circle id="rim" cx="0" cy="0" r="7"/>
                <circle id="rim2" cx="0" cy="0" r="3.5"/>
                <g id="zoomPlus">
                        <use xlink:href="#rim" fill="#404040">
                                <set attributeName="fill" to="#808080" begin="zoomplus.mouseover" end="zoomplus.mouseout"/>
                        </use>
                        <path d="M-4,0h8M0,-4v8" fill="none" stroke="white" stroke-width="1.5" pointer-events="none"/>
                </g>
                <g id="zoomMin">
                        <use xlink:href="#rim" fill="#404040">
                                <set attributeName="fill" to="#808080" begin="zoomminus.mouseover" end="zoomminus.mouseout"/>
                        </use>
                        <path d="M-4,0h8" fill="none" stroke="white" stroke-width="1.5" pointer-events="none"/>
                </g>
                <g id="dirArrow">
                        <path fill="none" stroke="white" stroke-width="1.5" d="M0,-3.0v7 M-2.5,-0.5L0,-3.0L2.5,-0.5"/>
                </g>
               <g id="resetDef">
                       <use xlink:href="#rim2" fill="#404040">
                               <set attributeName="fill" to="#808080" begin="reset.mouseover" end="reset.mouseout"/>
                       </use>
               </g>
        </defs>

<script type="text/javascript">
var viewWidth = 1327;
var viewHeight = 252;
var sectionId = 'dynsection-0';
</script>
<script xlink:href="svgpan.js"/>
<svg id="graph" class="graph">
<g id="viewport">
<title>src/cksum/blake2b.c</title>
<polygon fill="white" stroke="transparent" points="-4,4 -4,-248 1322.5,-248 1322.5,4 -4,4"/>
<!-- Node1 -->
<g id="node1" class="node">
<title>Node1</title>
<g id="a_node1"><a xlink:title="RFC 7693 compliant BLAKE implementation.">
<polygon fill="#bfbfbf" stroke="black" points="535,-224.5 535,-243.5 651,-243.5 651,-224.5 535,-224.5"/>
<text text-anchor="middle" x="593" y="-231.5" font-family="Helvetica,sans-Serif" font-size="10.00">src/cksum/blake2b.c</text>
</a>
</g>
</g>
<!-- Node2 -->
<g id="node2" class="node">
<title>Node2</title>
<g id="a_node2"><a xlink:href="blake2b_8h.html" target="_top" xlink:title="RFC 7693 compliant BLAKE implementation.">
<polygon fill="white" stroke="black" points="0,-112.5 0,-131.5 108,-131.5 108,-112.5 0,-112.5"/>
<text text-anchor="middle" x="54" y="-119.5" font-family="Helvetica,sans-Serif" font-size="10.00">a/cksum/blake2b.h</text>
</a>
</g>
</g>
<!-- Node1&#45;&gt;Node2 -->
<g id="edge1" class="edge">
<title>Node1&#45;&gt;Node2</title>
<path fill="none" stroke="midnightblue" d="M551.15,-224.46C453.75,-204.58 212.08,-155.26 105.68,-133.55"/>
<polygon fill="midnightblue" stroke="midnightblue" points="106.32,-130.1 95.82,-131.53 104.92,-136.96 106.32,-130.1"/>
</g>
<!-- Node6 -->
<g id="node6" class="node">
<title>Node6</title>
<g id="a_node6"><a xlink:href="hash_8h.html" target="_top" xlink:title="hash library">
<polygon fill="white" stroke="black" points="546.5,-168.5 546.5,-187.5 639.5,-187.5 639.5,-168.5 546.5,-168.5"/>
<text text-anchor="middle" x="593" y="-175.5" font-family="Helvetica,sans-Serif" font-size="10.00">a/cksum/hash.h</text>
</a>
</g>
</g>
<!-- Node1&#45;&gt;Node6 -->
<g id="edge5" class="edge">
<title>Node1&#45;&gt;Node6</title>
<path fill="none" stroke="midnightblue" d="M593,-224.08C593,-217.01 593,-206.86 593,-197.99"/>
<polygon fill="midnightblue" stroke="midnightblue" points="596.5,-197.75 593,-187.75 589.5,-197.75 596.5,-197.75"/>
</g>
<!-- Node21 -->
<g id="node21" class="node">
<title>Node21</title>
<g id="a_node21"><a xlink:href="hash_____8h.html" target="_top" xlink:title="private macros for hash library">
<polygon fill="white" stroke="black" points="1189.5,-168.5 1189.5,-187.5 1248.5,-187.5 1248.5,-168.5 1189.5,-168.5"/>
<text text-anchor="middle" x="1219" y="-175.5" font-family="Helvetica,sans-Serif" font-size="10.00">hash__.h</text>
</a>
</g>
</g>
<!-- Node1&#45;&gt;Node21 -->
<g id="edge36" class="edge">
<title>Node1&#45;&gt;Node21</title>
<path fill="none" stroke="midnightblue" d="M651.05,-227.99C776.89,-217.14 1072.1,-191.67 1179.25,-182.43"/>
<polygon fill="midnightblue" stroke="midnightblue" points="1179.65,-185.91 1189.31,-181.56 1179.05,-178.93 1179.65,-185.91"/>
</g>
<!-- Node3 -->
<g id="node3" class="node">
<title>Node3</title>
<g id="a_node3"><a xlink:href="def_8h.html" target="_top" xlink:title="algorithm library definition">
<polygon fill="white" stroke="black" points="568,-56.5 568,-75.5 618,-75.5 618,-56.5 568,-56.5"/>
<text text-anchor="middle" x="593" y="-63.5" font-family="Helvetica,sans-Serif" font-size="10.00">../def.h</text>
</a>
</g>
</g>
<!-- Node2&#45;&gt;Node3 -->
<g id="edge2" class="edge">
<title>Node2&#45;&gt;Node3</title>
<path fill="none" stroke="midnightblue" d="M108.17,-113.65C112.84,-113.07 117.5,-112.51 122,-112 284.52,-93.49 479.19,-76.55 557.66,-69.93"/>
<polygon fill="midnightblue" stroke="midnightblue" points="558.27,-73.4 567.95,-69.07 557.69,-66.42 558.27,-73.4"/>
</g>
<!-- Node4 -->
<g id="node4" class="node">
<title>Node4</title>
<g id="a_node4"><a xlink:title=" ">
<polygon fill="white" stroke="#bfbfbf" points="529,-0.5 529,-19.5 585,-19.5 585,-0.5 529,-0.5"/>
<text text-anchor="middle" x="557" y="-7.5" font-family="Helvetica,sans-Serif" font-size="10.00">stddef.h</text>
</a>
</g>
</g>
<!-- Node3&#45;&gt;Node4 -->
<g id="edge3" class="edge">
<title>Node3&#45;&gt;Node4</title>
<path fill="none" stroke="midnightblue" d="M587.06,-56.08C582.02,-48.53 574.66,-37.49 568.49,-28.23"/>
<polygon fill="midnightblue" stroke="midnightblue" points="571.29,-26.13 562.83,-19.75 565.47,-30.01 571.29,-26.13"/>
</g>
<!-- Node5 -->
<g id="node5" class="node">
<title>Node5</title>
<g id="a_node5"><a xlink:title=" ">
<polygon fill="white" stroke="#bfbfbf" points="603.5,-0.5 603.5,-19.5 656.5,-19.5 656.5,-0.5 603.5,-0.5"/>
<text text-anchor="middle" x="630" y="-7.5" font-family="Helvetica,sans-Serif" font-size="10.00">stdint.h</text>
</a>
</g>
</g>
<!-- Node3&#45;&gt;Node5 -->
<g id="edge4" class="edge">
<title>Node3&#45;&gt;Node5</title>
<path fill="none" stroke="midnightblue" d="M599.11,-56.08C604.28,-48.53 611.85,-37.49 618.19,-28.23"/>
<polygon fill="midnightblue" stroke="midnightblue" points="621.24,-29.98 624,-19.75 615.46,-26.02 621.24,-29.98"/>
</g>
<!-- Node6&#45;&gt;Node2 -->
<g id="edge35" class="edge">
<title>Node6&#45;&gt;Node2</title>
<path fill="none" stroke="midnightblue" d="M546.48,-173.12C461.89,-165.94 277.27,-149.69 122,-132 120.74,-131.86 119.46,-131.71 118.17,-131.56"/>
<polygon fill="midnightblue" stroke="midnightblue" points="118.52,-128.07 108.17,-130.35 117.68,-135.02 118.52,-128.07"/>
</g>
<!-- Node6&#45;&gt;Node3 -->
<g id="edge6" class="edge">
<title>Node6&#45;&gt;Node3</title>
<path fill="none" stroke="midnightblue" d="M546.21,-175.66C438.62,-172.11 180.86,-160.66 155,-132 99.8,-70.84 444.07,-66.53 557.59,-66.74"/>
<polygon fill="midnightblue" stroke="midnightblue" points="557.82,-70.25 567.83,-66.78 557.84,-63.25 557.82,-70.25"/>
</g>
<!-- Node7 -->
<g id="node7" class="node">
<title>Node7</title>
<g id="a_node7"><a xlink:href="md2_8h.html" target="_top" xlink:title="RFC 1319 compliant MD2 implementation.">
<polygon fill="white" stroke="black" points="164.5,-112.5 164.5,-131.5 211.5,-131.5 211.5,-112.5 164.5,-112.5"/>
<text text-anchor="middle" x="188" y="-119.5" font-family="Helvetica,sans-Serif" font-size="10.00">md2.h</text>
</a>
</g>
</g>
<!-- Node6&#45;&gt;Node7 -->
<g id="edge7" class="edge">
<title>Node6&#45;&gt;Node7</title>
<path fill="none" stroke="midnightblue" d="M546.41,-173.7C477.32,-168.3 343.55,-155.89 221.55,-132.06"/>
<polygon fill="midnightblue" stroke="midnightblue" points="222.16,-128.61 211.67,-130.1 220.79,-135.48 222.16,-128.61"/>
</g>
<!-- Node8 -->
<g id="node8" class="node">
<title>Node8</title>
<g id="a_node8"><a xlink:href="md4_8h.html" target="_top" xlink:title="RFC 1320 compliant MD4 implementation.">
<polygon fill="white" stroke="black" points="229.5,-112.5 229.5,-131.5 276.5,-131.5 276.5,-112.5 229.5,-112.5"/>
<text text-anchor="middle" x="253" y="-119.5" font-family="Helvetica,sans-Serif" font-size="10.00">md4.h</text>
</a>
</g>
</g>
<!-- Node6&#45;&gt;Node8 -->
<g id="edge9" class="edge">
<title>Node6&#45;&gt;Node8</title>
<path fill="none" stroke="midnightblue" d="M546.49,-172.1C487.91,-165.51 384.03,-152.44 286.68,-132.14"/>
<polygon fill="midnightblue" stroke="midnightblue" points="287.19,-128.67 276.68,-130.03 285.74,-135.52 287.19,-128.67"/>
</g>
<!-- Node9 -->
<g id="node9" class="node">
<title>Node9</title>
<g id="a_node9"><a xlink:href="md5_8h.html" target="_top" xlink:title="RFC 1321 compliant MD5 implementation.">
<polygon fill="white" stroke="black" points="294.5,-112.5 294.5,-131.5 341.5,-131.5 341.5,-112.5 294.5,-112.5"/>
<text text-anchor="middle" x="318" y="-119.5" font-family="Helvetica,sans-Serif" font-size="10.00">md5.h</text>
</a>
</g>
</g>
<!-- Node6&#45;&gt;Node9 -->
<g id="edge11" class="edge">
<title>Node6&#45;&gt;Node9</title>
<path fill="none" stroke="midnightblue" d="M546.15,-169.63C499.14,-161.93 424.46,-148.93 351.52,-132.2"/>
<polygon fill="midnightblue" stroke="midnightblue" points="352.24,-128.78 341.7,-129.93 350.65,-135.6 352.24,-128.78"/>
</g>
<!-- Node10 -->
<g id="node10" class="node">
<title>Node10</title>
<g id="a_node10"><a xlink:href="rmd128_8h.html" target="_top" xlink:title="ripemd implementation">
<polygon fill="white" stroke="black" points="359.5,-112.5 359.5,-131.5 422.5,-131.5 422.5,-112.5 359.5,-112.5"/>
<text text-anchor="middle" x="391" y="-119.5" font-family="Helvetica,sans-Serif" font-size="10.00">rmd128.h</text>
</a>
</g>
</g>
<!-- Node6&#45;&gt;Node10 -->
<g id="edge13" class="edge">
<title>Node6&#45;&gt;Node10</title>
<path fill="none" stroke="midnightblue" d="M560.99,-168.44C526.17,-159.13 470.39,-144.22 432.29,-134.04"/>
<polygon fill="midnightblue" stroke="midnightblue" points="433.09,-130.63 422.53,-131.43 431.28,-137.39 433.09,-130.63"/>
</g>
<!-- Node11 -->
<g id="node11" class="node">
<title>Node11</title>
<g id="a_node11"><a xlink:href="rmd160_8h.html" target="_top" xlink:title="ripemd implementation">
<polygon fill="white" stroke="black" points="440.5,-112.5 440.5,-131.5 503.5,-131.5 503.5,-112.5 440.5,-112.5"/>
<text text-anchor="middle" x="472" y="-119.5" font-family="Helvetica,sans-Serif" font-size="10.00">rmd160.h</text>
</a>
</g>
</g>
<!-- Node6&#45;&gt;Node11 -->
<g id="edge15" class="edge">
<title>Node6&#45;&gt;Node11</title>
<path fill="none" stroke="midnightblue" d="M573.83,-168.44C554.09,-159.64 523.11,-145.81 500.51,-135.72"/>
<polygon fill="midnightblue" stroke="midnightblue" points="501.64,-132.4 491.08,-131.52 498.79,-138.79 501.64,-132.4"/>
</g>
<!-- Node12 -->
<g id="node12" class="node">
<title>Node12</title>
<g id="a_node12"><a xlink:href="rmd256_8h.html" target="_top" xlink:title="ripemd implementation">
<polygon fill="white" stroke="black" points="521.5,-112.5 521.5,-131.5 584.5,-131.5 584.5,-112.5 521.5,-112.5"/>
<text text-anchor="middle" x="553" y="-119.5" font-family="Helvetica,sans-Serif" font-size="10.00">rmd256.h</text>
</a>
</g>
</g>
<!-- Node6&#45;&gt;Node12 -->
<g id="edge17" class="edge">
<title>Node6&#45;&gt;Node12</title>
<path fill="none" stroke="midnightblue" d="M586.39,-168.08C580.74,-160.46 572.46,-149.26 565.55,-139.94"/>
<polygon fill="midnightblue" stroke="midnightblue" points="568.25,-137.7 559.48,-131.75 562.62,-141.87 568.25,-137.7"/>
</g>
<!-- Node13 -->
<g id="node13" class="node">
<title>Node13</title>
<g id="a_node13"><a xlink:href="rmd320_8h.html" target="_top" xlink:title="ripemd implementation">
<polygon fill="white" stroke="black" points="602.5,-112.5 602.5,-131.5 665.5,-131.5 665.5,-112.5 602.5,-112.5"/>
<text text-anchor="middle" x="634" y="-119.5" font-family="Helvetica,sans-Serif" font-size="10.00">rmd320.h</text>
</a>
</g>
</g>
<!-- Node6&#45;&gt;Node13 -->
<g id="edge19" class="edge">
<title>Node6&#45;&gt;Node13</title>
<path fill="none" stroke="midnightblue" d="M599.77,-168.08C605.56,-160.46 614.06,-149.26 621.14,-139.94"/>
<polygon fill="midnightblue" stroke="midnightblue" points="624.1,-141.83 627.36,-131.75 618.52,-137.6 624.1,-141.83"/>
</g>
<!-- Node14 -->
<g id="node14" class="node">
<title>Node14</title>
<g id="a_node14"><a xlink:href="sha1_8h.html" target="_top" xlink:title="RFC 3174 compliant SHA1 implementation.">
<polygon fill="white" stroke="black" points="683.5,-112.5 683.5,-131.5 732.5,-131.5 732.5,-112.5 683.5,-112.5"/>
<text text-anchor="middle" x="708" y="-119.5" font-family="Helvetica,sans-Serif" font-size="10.00">sha1.h</text>
</a>
</g>
</g>
<!-- Node6&#45;&gt;Node14 -->
<g id="edge21" class="edge">
<title>Node6&#45;&gt;Node14</title>
<path fill="none" stroke="midnightblue" d="M611.22,-168.44C629.9,-159.68 659.16,-145.94 680.62,-135.86"/>
<polygon fill="midnightblue" stroke="midnightblue" points="682.3,-138.93 689.86,-131.52 679.32,-132.6 682.3,-138.93"/>
</g>
<!-- Node15 -->
<g id="node15" class="node">
<title>Node15</title>
<g id="a_node15"><a xlink:href="sha256_8h.html" target="_top" xlink:title="RFC 5754 compliant SHA2 implementation.">
<polygon fill="white" stroke="black" points="750.5,-112.5 750.5,-131.5 811.5,-131.5 811.5,-112.5 750.5,-112.5"/>
<text text-anchor="middle" x="781" y="-119.5" font-family="Helvetica,sans-Serif" font-size="10.00">sha256.h</text>
</a>
</g>
</g>
<!-- Node6&#45;&gt;Node15 -->
<g id="edge23" class="edge">
<title>Node6&#45;&gt;Node15</title>
<path fill="none" stroke="midnightblue" d="M622.79,-168.44C654.83,-159.24 705.93,-144.56 741.35,-134.39"/>
<polygon fill="midnightblue" stroke="midnightblue" points="742.71,-137.64 751.35,-131.52 740.77,-130.91 742.71,-137.64"/>
</g>
<!-- Node16 -->
<g id="node16" class="node">
<title>Node16</title>
<g id="a_node16"><a xlink:href="sha512_8h.html" target="_top" xlink:title="RFC 5754 compliant SHA2 implementation.">
<polygon fill="white" stroke="black" points="829.5,-112.5 829.5,-131.5 890.5,-131.5 890.5,-112.5 829.5,-112.5"/>
<text text-anchor="middle" x="860" y="-119.5" font-family="Helvetica,sans-Serif" font-size="10.00">sha512.h</text>
</a>
</g>
</g>
<!-- Node6&#45;&gt;Node16 -->
<g id="edge25" class="edge">
<title>Node6&#45;&gt;Node16</title>
<path fill="none" stroke="midnightblue" d="M637.86,-168.46C681.56,-160.06 750.11,-146.68 819.24,-132.12"/>
<polygon fill="midnightblue" stroke="midnightblue" points="820.38,-135.45 829.44,-129.96 818.94,-128.6 820.38,-135.45"/>
</g>
<!-- Node17 -->
<g id="node17" class="node">
<title>Node17</title>
<g id="a_node17"><a xlink:href="sha3_8h.html" target="_top" xlink:title="SHA3 implementation.">
<polygon fill="white" stroke="black" points="908.5,-112.5 908.5,-131.5 957.5,-131.5 957.5,-112.5 908.5,-112.5"/>
<text text-anchor="middle" x="933" y="-119.5" font-family="Helvetica,sans-Serif" font-size="10.00">sha3.h</text>
</a>
</g>
</g>
<!-- Node6&#45;&gt;Node17 -->
<g id="edge27" class="edge">
<title>Node6&#45;&gt;Node17</title>
<path fill="none" stroke="midnightblue" d="M639.68,-171.8C697.94,-164.93 800.76,-151.62 898.18,-131.96"/>
<polygon fill="midnightblue" stroke="midnightblue" points="899.1,-135.34 908.19,-129.91 897.7,-128.49 899.1,-135.34"/>
</g>
<!-- Node18 -->
<g id="node18" class="node">
<title>Node18</title>
<g id="a_node18"><a xlink:href="tiger_8h.html" target="_top" xlink:title="tiger implementation">
<polygon fill="white" stroke="black" points="975.5,-112.5 975.5,-131.5 1022.5,-131.5 1022.5,-112.5 975.5,-112.5"/>
<text text-anchor="middle" x="999" y="-119.5" font-family="Helvetica,sans-Serif" font-size="10.00">tiger.h</text>
</a>
</g>
</g>
<!-- Node6&#45;&gt;Node18 -->
<g id="edge29" class="edge">
<title>Node6&#45;&gt;Node18</title>
<path fill="none" stroke="midnightblue" d="M639.57,-173.58C708.63,-168.03 842.36,-155.44 965.34,-131.85"/>
<polygon fill="midnightblue" stroke="midnightblue" points="966.16,-135.26 975.3,-129.91 964.82,-128.38 966.16,-135.26"/>
</g>
<!-- Node19 -->
<g id="node19" class="node">
<title>Node19</title>
<g id="a_node19"><a xlink:href="whirl_8h.html" target="_top" xlink:title="whirlpool implementation">
<polygon fill="white" stroke="black" points="1041,-112.5 1041,-131.5 1091,-131.5 1091,-112.5 1041,-112.5"/>
<text text-anchor="middle" x="1066" y="-119.5" font-family="Helvetica,sans-Serif" font-size="10.00">whirl.h</text>
</a>
</g>
</g>
<!-- Node6&#45;&gt;Node19 -->
<g id="edge31" class="edge">
<title>Node6&#45;&gt;Node19</title>
<path fill="none" stroke="midnightblue" d="M639.67,-174.5C720.08,-169.68 889.72,-157.28 1031,-132 1031.1,-131.98 1031.2,-131.96 1031.3,-131.95"/>
<polygon fill="midnightblue" stroke="midnightblue" points="1031.79,-135.42 1040.86,-129.94 1030.36,-128.57 1031.79,-135.42"/>
</g>
<!-- Node20 -->
<g id="node20" class="node">
<title>Node20</title>
<g id="a_node20"><a xlink:href="blake2s_8h.html" target="_top" xlink:title="RFC 7693 compliant BLAKE implementation.">
<polygon fill="white" stroke="black" points="1109.5,-112.5 1109.5,-131.5 1172.5,-131.5 1172.5,-112.5 1109.5,-112.5"/>
<text text-anchor="middle" x="1141" y="-119.5" font-family="Helvetica,sans-Serif" font-size="10.00">blake2s.h</text>
</a>
</g>
</g>
<!-- Node6&#45;&gt;Node20 -->
<g id="edge33" class="edge">
<title>Node6&#45;&gt;Node20</title>
<path fill="none" stroke="midnightblue" d="M639.72,-174.85C727.73,-170.36 924.18,-158.3 1099.38,-131.89"/>
<polygon fill="midnightblue" stroke="midnightblue" points="1099.93,-135.35 1109.29,-130.38 1098.88,-128.43 1099.93,-135.35"/>
</g>
<!-- Node7&#45;&gt;Node3 -->
<g id="edge8" class="edge">
<title>Node7&#45;&gt;Node3</title>
<path fill="none" stroke="midnightblue" d="M211.67,-113.9C214.46,-113.2 217.28,-112.54 220,-112 342.7,-87.5 490.94,-74.45 557.56,-69.45"/>
<polygon fill="midnightblue" stroke="midnightblue" points="558.19,-72.91 567.91,-68.69 557.68,-65.93 558.19,-72.91"/>
</g>
<!-- Node8&#45;&gt;Node3 -->
<g id="edge10" class="edge">
<title>Node8&#45;&gt;Node3</title>
<path fill="none" stroke="midnightblue" d="M276.68,-113.97C279.47,-113.25 282.29,-112.58 285,-112 382.78,-91.2 500.07,-76.96 557.62,-70.66"/>
<polygon fill="midnightblue" stroke="midnightblue" points="558.09,-74.14 567.65,-69.58 557.33,-67.18 558.09,-74.14"/>
</g>
<!-- Node9&#45;&gt;Node3 -->
<g id="edge12" class="edge">
<title>Node9&#45;&gt;Node3</title>
<path fill="none" stroke="midnightblue" d="M341.7,-114.07C344.49,-113.34 347.3,-112.63 350,-112 423.23,-94.96 510.08,-80.16 557.58,-72.52"/>
<polygon fill="midnightblue" stroke="midnightblue" points="558.33,-75.94 567.66,-70.91 557.23,-69.03 558.33,-75.94"/>
</g>
<!-- Node10&#45;&gt;Node3 -->
<g id="edge14" class="edge">
<title>Node10&#45;&gt;Node3</title>
<path fill="none" stroke="midnightblue" d="M422.56,-112.56C459.18,-102.77 519.39,-86.68 557.57,-76.47"/>
<polygon fill="midnightblue" stroke="midnightblue" points="558.97,-79.72 567.72,-73.76 557.16,-72.96 558.97,-79.72"/>
</g>
<!-- Node11&#45;&gt;Node3 -->
<g id="edge16" class="edge">
<title>Node11&#45;&gt;Node3</title>
<path fill="none" stroke="midnightblue" d="M491.17,-112.44C510.91,-103.64 541.89,-89.81 564.49,-79.72"/>
<polygon fill="midnightblue" stroke="midnightblue" points="566.21,-82.79 573.92,-75.52 563.36,-76.4 566.21,-82.79"/>
</g>
<!-- Node12&#45;&gt;Node3 -->
<g id="edge18" class="edge">
<title>Node12&#45;&gt;Node3</title>
<path fill="none" stroke="midnightblue" d="M559.61,-112.08C565.26,-104.46 573.54,-93.26 580.45,-83.94"/>
<polygon fill="midnightblue" stroke="midnightblue" points="583.38,-85.87 586.52,-75.75 577.75,-81.7 583.38,-85.87"/>
</g>
<!-- Node13&#45;&gt;Node3 -->
<g id="edge20" class="edge">
<title>Node13&#45;&gt;Node3</title>
<path fill="none" stroke="midnightblue" d="M627.23,-112.08C621.44,-104.46 612.94,-93.26 605.86,-83.94"/>
<polygon fill="midnightblue" stroke="midnightblue" points="608.48,-81.6 599.64,-75.75 602.9,-85.83 608.48,-81.6"/>
</g>
<!-- Node14&#45;&gt;Node3 -->
<g id="edge22" class="edge">
<title>Node14&#45;&gt;Node3</title>
<path fill="none" stroke="midnightblue" d="M689.78,-112.44C671.1,-103.68 641.84,-89.94 620.38,-79.86"/>
<polygon fill="midnightblue" stroke="midnightblue" points="621.68,-76.6 611.14,-75.52 618.7,-82.93 621.68,-76.6"/>
</g>
<!-- Node15&#45;&gt;Node3 -->
<g id="edge24" class="edge">
<title>Node15&#45;&gt;Node3</title>
<path fill="none" stroke="midnightblue" d="M751.21,-112.44C717.76,-102.83 663.52,-87.26 628.05,-77.07"/>
<polygon fill="midnightblue" stroke="midnightblue" points="628.72,-73.62 618.14,-74.22 626.78,-80.35 628.72,-73.62"/>
</g>
<!-- Node16&#45;&gt;Node3 -->
<g id="edge26" class="edge">
<title>Node16&#45;&gt;Node3</title>
<path fill="none" stroke="midnightblue" d="M829.44,-114.04C826.26,-113.34 823.06,-112.65 820,-112 752.32,-97.68 672.98,-82.26 628.29,-73.71"/>
<polygon fill="midnightblue" stroke="midnightblue" points="628.72,-70.22 618.24,-71.78 627.4,-77.1 628.72,-70.22"/>
</g>
<!-- Node17&#45;&gt;Node3 -->
<g id="edge28" class="edge">
<title>Node17&#45;&gt;Node3</title>
<path fill="none" stroke="midnightblue" d="M908.19,-114.09C905.11,-113.33 901.99,-112.61 899,-112 801.7,-92.03 685.24,-77.43 628.11,-70.86"/>
<polygon fill="midnightblue" stroke="midnightblue" points="628.49,-67.38 618.16,-69.73 627.7,-74.33 628.49,-67.38"/>
</g>
<!-- Node18&#45;&gt;Node3 -->
<g id="edge30" class="edge">
<title>Node18&#45;&gt;Node3</title>
<path fill="none" stroke="midnightblue" d="M975.3,-114.09C972.19,-113.32 969.03,-112.59 966,-112 843.21,-87.98 695.01,-74.69 628.42,-69.54"/>
<polygon fill="midnightblue" stroke="midnightblue" points="628.31,-66.02 618.08,-68.75 627.78,-73 628.31,-66.02"/>
</g>
<!-- Node19&#45;&gt;Node3 -->
<g id="edge32" class="edge">
<title>Node19&#45;&gt;Node3</title>
<path fill="none" stroke="midnightblue" d="M1040.86,-114.06C1037.56,-113.29 1034.21,-112.57 1031,-112 882.9,-85.5 703.63,-73.15 628.65,-68.85"/>
<polygon fill="midnightblue" stroke="midnightblue" points="628.55,-65.34 618.37,-68.28 628.15,-72.33 628.55,-65.34"/>
</g>
<!-- Node20&#45;&gt;Node3 -->
<g id="edge34" class="edge">
<title>Node20&#45;&gt;Node3</title>
<path fill="none" stroke="midnightblue" d="M1109.29,-113.62C1106.16,-113.02 1103.03,-112.46 1100,-112 924.07,-85 711.12,-72.63 628.32,-68.58"/>
<polygon fill="midnightblue" stroke="midnightblue" points="628.35,-65.08 618.19,-68.1 628.02,-72.07 628.35,-65.08"/>
</g>
<!-- Node22 -->
<g id="node22" class="node">
<title>Node22</title>
<g id="a_node22"><a xlink:title=" ">
<polygon fill="white" stroke="#bfbfbf" points="1191,-112.5 1191,-131.5 1247,-131.5 1247,-112.5 1191,-112.5"/>
<text text-anchor="middle" x="1219" y="-119.5" font-family="Helvetica,sans-Serif" font-size="10.00">assert.h</text>
</a>
</g>
</g>
<!-- Node21&#45;&gt;Node22 -->
<g id="edge37" class="edge">
<title>Node21&#45;&gt;Node22</title>
<path fill="none" stroke="midnightblue" d="M1219,-168.08C1219,-161.01 1219,-150.86 1219,-141.99"/>
<polygon fill="midnightblue" stroke="midnightblue" points="1222.5,-141.75 1219,-131.75 1215.5,-141.75 1222.5,-141.75"/>
</g>
<!-- Node23 -->
<g id="node23" class="node">
<title>Node23</title>
<g id="a_node23"><a xlink:title=" ">
<polygon fill="white" stroke="#bfbfbf" points="1265.5,-112.5 1265.5,-131.5 1318.5,-131.5 1318.5,-112.5 1265.5,-112.5"/>
<text text-anchor="middle" x="1292" y="-119.5" font-family="Helvetica,sans-Serif" font-size="10.00">string.h</text>
</a>
</g>
</g>
<!-- Node21&#45;&gt;Node23 -->
<g id="edge38" class="edge">
<title>Node21&#45;&gt;Node23</title>
<path fill="none" stroke="midnightblue" d="M1230.73,-168.32C1241.84,-160.11 1258.74,-147.6 1271.98,-137.81"/>
<polygon fill="midnightblue" stroke="midnightblue" points="1274.1,-140.59 1280.06,-131.83 1269.94,-134.97 1274.1,-140.59"/>
</g>
</g>
</svg>
        <g id="navigator" transform="translate(0 0)" fill="#404254">
                <rect fill="#f2f5e9" fill-opacity="0.5" stroke="#606060" stroke-width=".5" x="0" y="0" width="60" height="60"/>
                <use id="zoomplus" xlink:href="#zoomPlus" x="17" y="9" onmousedown="handleZoom(evt,'in')"/>
                <use id="zoomminus" xlink:href="#zoomMin" x="42" y="9" onmousedown="handleZoom(evt,'out')"/>
                <use id="reset" xlink:href="#resetDef" x="30" y="36" onmousedown="handleReset()"/>
                <g id="arrowUp" xlink:href="#dirArrow" transform="translate(30 24)" onmousedown="handlePan(0,-1)">
                  <use xlink:href="#rim" fill="#404040">
                        <set attributeName="fill" to="#808080" begin="arrowUp.mouseover" end="arrowUp.mouseout"/>
                  </use>
                  <path fill="none" stroke="white" stroke-width="1.5" d="M0,-3.0v7 M-2.5,-0.5L0,-3.0L2.5,-0.5"/>
                </g>
                <g id="arrowRight" xlink:href="#dirArrow" transform="rotate(90) translate(36 -43)" onmousedown="handlePan(1,0)">
                  <use xlink:href="#rim" fill="#404040">
                        <set attributeName="fill" to="#808080" begin="arrowRight.mouseover" end="arrowRight.mouseout"/>
                  </use>
                  <path fill="none" stroke="white" stroke-width="1.5" d="M0,-3.0v7 M-2.5,-0.5L0,-3.0L2.5,-0.5"/>
                </g>
                <g id="arrowDown" xlink:href="#dirArrow" transform="rotate(180) translate(-30 -48)" onmousedown="handlePan(0,1)">
                  <use xlink:href="#rim" fill="#404040">
                        <set attributeName="fill" to="#808080" begin="arrowDown.mouseover" end="arrowDown.mouseout"/>
                  </use>
                  <path fill="none" stroke="white" stroke-width="1.5" d="M0,-3.0v7 M-2.5,-0.5L0,-3.0L2.5,-0.5"/>
                </g>
                <g id="arrowLeft" xlink:href="#dirArrow" transform="rotate(270) translate(-36 17)" onmousedown="handlePan(-1,0)">
                  <use xlink:href="#rim" fill="#404040">
                        <set attributeName="fill" to="#808080" begin="arrowLeft.mouseover" end="arrowLeft.mouseout"/>
                  </use>
                  <path fill="none" stroke="white" stroke-width="1.5" d="M0,-3.0v7 M-2.5,-0.5L0,-3.0L2.5,-0.5"/>
                </g>
        </g>
        <svg viewBox="0 0 15 15" width="100%" height="30px" preserveAspectRatio="xMaxYMin meet">
         <g id="arrow_out" transform="scale(0.3 0.3)">
          <a xlink:href="blake2b_8c__incl_org.svg" target="_base">
           <rect id="button" ry="5" rx="5" y="6" x="6" height="38" width="38"
                fill="#f2f5e9" fill-opacity="0.5" stroke="#606060" stroke-width="1.0"/>
           <path id="arrow"
             d="M 11.500037,31.436501 C 11.940474,20.09759 22.043105,11.32322 32.158766,21.979434 L 37.068811,17.246167 C 37.068811,17.246167 37.088388,32 37.088388,32 L 22.160133,31.978069 C 22.160133,31.978069 26.997745,27.140456 26.997745,27.140456 C 18.528582,18.264221 13.291696,25.230495 11.500037,31.436501 z"
             style="fill:#404040;"/>
          </a>
         </g>
        </svg>
</svg>
