<?xml version="1.0" encoding="UTF-8" standalone="no"?>
<!DOCTYPE svg PUBLIC "-//W3C//DTD SVG 1.1//EN"
 "http://www.w3.org/Graphics/SVG/1.1/DTD/svg11.dtd">
<!-- Generated by graphviz version 2.43.0 (0)
 -->
<!-- Title: src/cksum/blake2s.c Pages: 1 -->
<!--zoomable 252 -->
<svg id="main" version="1.1" xmlns="http://www.w3.org/2000/svg" xmlns:xlink="http://www.w3.org/1999/xlink" xml:space="preserve" onload="init(evt)">
<style type="text/css"><![CDATA[
.edge:hover path { stroke: red; }
.edge:hover polygon { stroke: red; fill: red; }
]]></style>
<script type="text/javascript"><![CDATA[
var edges = document.getElementsByTagName('g');
if (edges && edges.length) {
  for (var i=0;i<edges.length;i++) {
    if (edges[i].id.substr(0,4)=='edge') {
      edges[i].setAttribute('class','edge');
    }
  }
}
]]></script>
        <defs>
                <circle id="rim" cx="0" cy="0" r="7"/>
                <circle id="rim2" cx="0" cy="0" r="3.5"/>
                <g id="zoomPlus">
                        <use xlink:href="#rim" fill="#404040">
                                <set attributeName="fill" to="#808080" begin="zoomplus.mouseover" end="zoomplus.mouseout"/>
                        </use>
                        <path d="M-4,0h8M0,-4v8" fill="none" stroke="white" stroke-width="1.5" pointer-events="none"/>
                </g>
                <g id="zoomMin">
                        <use xlink:href="#rim" fill="#404040">
                                <set attributeName="fill" to="#808080" begin="zoomminus.mouseover" end="zoomminus.mouseout"/>
                        </use>
                        <path d="M-4,0h8" fill="none" stroke="white" stroke-width="1.5" pointer-events="none"/>
                </g>
                <g id="dirArrow">
                        <path fill="none" stroke="white" stroke-width="1.5" d="M0,-3.0v7 M-2.5,-0.5L0,-3.0L2.5,-0.5"/>
                </g>
               <g id="resetDef">
                       <use xlink:href="#rim2" fill="#404040">
                               <set attributeName="fill" to="#808080" begin="reset.mouseover" end="reset.mouseout"/>
                       </use>
               </g>
        </defs>

<script type="text/javascript">
var viewWidth = 1326;
var viewHeight = 252;
var sectionId = 'dynsection-0';
</script>
<script xlink:href="svgpan.js"/>
<svg id="graph" class="graph">
<g id="viewport">
<title>src/cksum/blake2s.c</title>
<polygon fill="white" stroke="transparent" points="-4,4 -4,-248 1322,-248 1322,4 -4,4"/>
<!-- Node1 -->
<g id="node1" class="node">
<title>Node1</title>
<g id="a_node1"><a xlink:title="RFC 7693 compliant BLAKE implementation.">
<polygon fill="#bfbfbf" stroke="black" points="535,-224.5 535,-243.5 650,-243.5 650,-224.5 535,-224.5"/>
<text text-anchor="middle" x="592.5" y="-231.5" font-family="Helvetica,sans-Serif" font-size="10.00">src/cksum/blake2s.c</text>
</a>
</g>
</g>
<!-- Node2 -->
<g id="node2" class="node">
<title>Node2</title>
<g id="a_node2"><a xlink:href="blake2s_8h.html" target="_top" xlink:title="RFC 7693 compliant BLAKE implementation.">
<polygon fill="white" stroke="black" points="0,-112.5 0,-131.5 107,-131.5 107,-112.5 0,-112.5"/>
<text text-anchor="middle" x="53.5" y="-119.5" font-family="Helvetica,sans-Serif" font-size="10.00">a/cksum/blake2s.h</text>
</a>
</g>
</g>
<!-- Node1&#45;&gt;Node2 -->
<g id="edge1" class="edge">
<title>Node1&#45;&gt;Node2</title>
<path fill="none" stroke="midnightblue" d="M550.65,-224.46C453.25,-204.58 211.58,-155.26 105.18,-133.55"/>
<polygon fill="midnightblue" stroke="midnightblue" points="105.82,-130.1 95.32,-131.53 104.42,-136.96 105.82,-130.1"/>
</g>
<!-- Node6 -->
<g id="node6" class="node">
<title>Node6</title>
<g id="a_node6"><a xlink:href="hash_8h.html" target="_top" xlink:title="hash library">
<polygon fill="white" stroke="black" points="546,-168.5 546,-187.5 639,-187.5 639,-168.5 546,-168.5"/>
<text text-anchor="middle" x="592.5" y="-175.5" font-family="Helvetica,sans-Serif" font-size="10.00">a/cksum/hash.h</text>
</a>
</g>
</g>
<!-- Node1&#45;&gt;Node6 -->
<g id="edge5" class="edge">
<title>Node1&#45;&gt;Node6</title>
<path fill="none" stroke="midnightblue" d="M592.5,-224.08C592.5,-217.01 592.5,-206.86 592.5,-197.99"/>
<polygon fill="midnightblue" stroke="midnightblue" points="596,-197.75 592.5,-187.75 589,-197.75 596,-197.75"/>
</g>
<!-- Node21 -->
<g id="node21" class="node">
<title>Node21</title>
<g id="a_node21"><a xlink:href="hash_____8h.html" target="_top" xlink:title="private macros for hash library">
<polygon fill="white" stroke="black" points="1189,-168.5 1189,-187.5 1248,-187.5 1248,-168.5 1189,-168.5"/>
<text text-anchor="middle" x="1218.5" y="-175.5" font-family="Helvetica,sans-Serif" font-size="10.00">hash__.h</text>
</a>
</g>
</g>
<!-- Node1&#45;&gt;Node21 -->
<g id="edge36" class="edge">
<title>Node1&#45;&gt;Node21</title>
<path fill="none" stroke="midnightblue" d="M650.27,-228.02C775.94,-217.18 1071.43,-191.69 1178.7,-182.43"/>
<polygon fill="midnightblue" stroke="midnightblue" points="1179.12,-185.91 1188.78,-181.56 1178.52,-178.94 1179.12,-185.91"/>
</g>
<!-- Node3 -->
<g id="node3" class="node">
<title>Node3</title>
<g id="a_node3"><a xlink:href="def_8h.html" target="_top" xlink:title="algorithm library definition">
<polygon fill="white" stroke="black" points="567.5,-56.5 567.5,-75.5 617.5,-75.5 617.5,-56.5 567.5,-56.5"/>
<text text-anchor="middle" x="592.5" y="-63.5" font-family="Helvetica,sans-Serif" font-size="10.00">../def.h</text>
</a>
</g>
</g>
<!-- Node2&#45;&gt;Node3 -->
<g id="edge2" class="edge">
<title>Node2&#45;&gt;Node3</title>
<path fill="none" stroke="midnightblue" d="M107.3,-113.7C112.1,-113.1 116.89,-112.53 121.5,-112 284.02,-93.49 478.69,-76.55 557.16,-69.93"/>
<polygon fill="midnightblue" stroke="midnightblue" points="557.77,-73.4 567.45,-69.07 557.19,-66.42 557.77,-73.4"/>
</g>
<!-- Node4 -->
<g id="node4" class="node">
<title>Node4</title>
<g id="a_node4"><a xlink:title=" ">
<polygon fill="white" stroke="#bfbfbf" points="528.5,-0.5 528.5,-19.5 584.5,-19.5 584.5,-0.5 528.5,-0.5"/>
<text text-anchor="middle" x="556.5" y="-7.5" font-family="Helvetica,sans-Serif" font-size="10.00">stddef.h</text>
</a>
</g>
</g>
<!-- Node3&#45;&gt;Node4 -->
<g id="edge3" class="edge">
<title>Node3&#45;&gt;Node4</title>
<path fill="none" stroke="midnightblue" d="M586.56,-56.08C581.52,-48.53 574.16,-37.49 567.99,-28.23"/>
<polygon fill="midnightblue" stroke="midnightblue" points="570.79,-26.13 562.33,-19.75 564.97,-30.01 570.79,-26.13"/>
</g>
<!-- Node5 -->
<g id="node5" class="node">
<title>Node5</title>
<g id="a_node5"><a xlink:title=" ">
<polygon fill="white" stroke="#bfbfbf" points="603,-0.5 603,-19.5 656,-19.5 656,-0.5 603,-0.5"/>
<text text-anchor="middle" x="629.5" y="-7.5" font-family="Helvetica,sans-Serif" font-size="10.00">stdint.h</text>
</a>
</g>
</g>
<!-- Node3&#45;&gt;Node5 -->
<g id="edge4" class="edge">
<title>Node3&#45;&gt;Node5</title>
<path fill="none" stroke="midnightblue" d="M598.61,-56.08C603.78,-48.53 611.35,-37.49 617.69,-28.23"/>
<polygon fill="midnightblue" stroke="midnightblue" points="620.74,-29.98 623.5,-19.75 614.96,-26.02 620.74,-29.98"/>
</g>
<!-- Node6&#45;&gt;Node2 -->
<g id="edge33" class="edge">
<title>Node6&#45;&gt;Node2</title>
<path fill="none" stroke="midnightblue" d="M545.98,-173.12C461.39,-165.94 276.77,-149.69 121.5,-132 120.2,-131.85 118.89,-131.7 117.57,-131.55"/>
<polygon fill="midnightblue" stroke="midnightblue" points="117.65,-128.03 107.3,-130.3 116.81,-134.98 117.65,-128.03"/>
</g>
<!-- Node6&#45;&gt;Node3 -->
<g id="edge6" class="edge">
<title>Node6&#45;&gt;Node3</title>
<path fill="none" stroke="midnightblue" d="M545.71,-175.66C438.12,-172.11 180.36,-160.66 154.5,-132 99.3,-70.84 443.57,-66.53 557.09,-66.74"/>
<polygon fill="midnightblue" stroke="midnightblue" points="557.32,-70.25 567.33,-66.78 557.34,-63.25 557.32,-70.25"/>
</g>
<!-- Node7 -->
<g id="node7" class="node">
<title>Node7</title>
<g id="a_node7"><a xlink:href="md2_8h.html" target="_top" xlink:title="RFC 1319 compliant MD2 implementation.">
<polygon fill="white" stroke="black" points="164,-112.5 164,-131.5 211,-131.5 211,-112.5 164,-112.5"/>
<text text-anchor="middle" x="187.5" y="-119.5" font-family="Helvetica,sans-Serif" font-size="10.00">md2.h</text>
</a>
</g>
</g>
<!-- Node6&#45;&gt;Node7 -->
<g id="edge7" class="edge">
<title>Node6&#45;&gt;Node7</title>
<path fill="none" stroke="midnightblue" d="M545.91,-173.7C476.82,-168.3 343.05,-155.89 221.05,-132.06"/>
<polygon fill="midnightblue" stroke="midnightblue" points="221.66,-128.61 211.17,-130.1 220.29,-135.48 221.66,-128.61"/>
</g>
<!-- Node8 -->
<g id="node8" class="node">
<title>Node8</title>
<g id="a_node8"><a xlink:href="md4_8h.html" target="_top" xlink:title="RFC 1320 compliant MD4 implementation.">
<polygon fill="white" stroke="black" points="229,-112.5 229,-131.5 276,-131.5 276,-112.5 229,-112.5"/>
<text text-anchor="middle" x="252.5" y="-119.5" font-family="Helvetica,sans-Serif" font-size="10.00">md4.h</text>
</a>
</g>
</g>
<!-- Node6&#45;&gt;Node8 -->
<g id="edge9" class="edge">
<title>Node6&#45;&gt;Node8</title>
<path fill="none" stroke="midnightblue" d="M545.99,-172.1C487.41,-165.51 383.53,-152.44 286.18,-132.14"/>
<polygon fill="midnightblue" stroke="midnightblue" points="286.69,-128.67 276.18,-130.03 285.24,-135.52 286.69,-128.67"/>
</g>
<!-- Node9 -->
<g id="node9" class="node">
<title>Node9</title>
<g id="a_node9"><a xlink:href="md5_8h.html" target="_top" xlink:title="RFC 1321 compliant MD5 implementation.">
<polygon fill="white" stroke="black" points="294,-112.5 294,-131.5 341,-131.5 341,-112.5 294,-112.5"/>
<text text-anchor="middle" x="317.5" y="-119.5" font-family="Helvetica,sans-Serif" font-size="10.00">md5.h</text>
</a>
</g>
</g>
<!-- Node6&#45;&gt;Node9 -->
<g id="edge11" class="edge">
<title>Node6&#45;&gt;Node9</title>
<path fill="none" stroke="midnightblue" d="M545.65,-169.63C498.64,-161.93 423.96,-148.93 351.02,-132.2"/>
<polygon fill="midnightblue" stroke="midnightblue" points="351.74,-128.78 341.2,-129.93 350.15,-135.6 351.74,-128.78"/>
</g>
<!-- Node10 -->
<g id="node10" class="node">
<title>Node10</title>
<g id="a_node10"><a xlink:href="rmd128_8h.html" target="_top" xlink:title="ripemd implementation">
<polygon fill="white" stroke="black" points="359,-112.5 359,-131.5 422,-131.5 422,-112.5 359,-112.5"/>
<text text-anchor="middle" x="390.5" y="-119.5" font-family="Helvetica,sans-Serif" font-size="10.00">rmd128.h</text>
</a>
</g>
</g>
<!-- Node6&#45;&gt;Node10 -->
<g id="edge13" class="edge">
<title>Node6&#45;&gt;Node10</title>
<path fill="none" stroke="midnightblue" d="M560.49,-168.44C525.67,-159.13 469.89,-144.22 431.79,-134.04"/>
<polygon fill="midnightblue" stroke="midnightblue" points="432.59,-130.63 422.03,-131.43 430.78,-137.39 432.59,-130.63"/>
</g>
<!-- Node11 -->
<g id="node11" class="node">
<title>Node11</title>
<g id="a_node11"><a xlink:href="rmd160_8h.html" target="_top" xlink:title="ripemd implementation">
<polygon fill="white" stroke="black" points="440,-112.5 440,-131.5 503,-131.5 503,-112.5 440,-112.5"/>
<text text-anchor="middle" x="471.5" y="-119.5" font-family="Helvetica,sans-Serif" font-size="10.00">rmd160.h</text>
</a>
</g>
</g>
<!-- Node6&#45;&gt;Node11 -->
<g id="edge15" class="edge">
<title>Node6&#45;&gt;Node11</title>
<path fill="none" stroke="midnightblue" d="M573.33,-168.44C553.59,-159.64 522.61,-145.81 500.01,-135.72"/>
<polygon fill="midnightblue" stroke="midnightblue" points="501.14,-132.4 490.58,-131.52 498.29,-138.79 501.14,-132.4"/>
</g>
<!-- Node12 -->
<g id="node12" class="node">
<title>Node12</title>
<g id="a_node12"><a xlink:href="rmd256_8h.html" target="_top" xlink:title="ripemd implementation">
<polygon fill="white" stroke="black" points="521,-112.5 521,-131.5 584,-131.5 584,-112.5 521,-112.5"/>
<text text-anchor="middle" x="552.5" y="-119.5" font-family="Helvetica,sans-Serif" font-size="10.00">rmd256.h</text>
</a>
</g>
</g>
<!-- Node6&#45;&gt;Node12 -->
<g id="edge17" class="edge">
<title>Node6&#45;&gt;Node12</title>
<path fill="none" stroke="midnightblue" d="M585.89,-168.08C580.24,-160.46 571.96,-149.26 565.05,-139.94"/>
<polygon fill="midnightblue" stroke="midnightblue" points="567.75,-137.7 558.98,-131.75 562.12,-141.87 567.75,-137.7"/>
</g>
<!-- Node13 -->
<g id="node13" class="node">
<title>Node13</title>
<g id="a_node13"><a xlink:href="rmd320_8h.html" target="_top" xlink:title="ripemd implementation">
<polygon fill="white" stroke="black" points="602,-112.5 602,-131.5 665,-131.5 665,-112.5 602,-112.5"/>
<text text-anchor="middle" x="633.5" y="-119.5" font-family="Helvetica,sans-Serif" font-size="10.00">rmd320.h</text>
</a>
</g>
</g>
<!-- Node6&#45;&gt;Node13 -->
<g id="edge19" class="edge">
<title>Node6&#45;&gt;Node13</title>
<path fill="none" stroke="midnightblue" d="M599.27,-168.08C605.06,-160.46 613.56,-149.26 620.64,-139.94"/>
<polygon fill="midnightblue" stroke="midnightblue" points="623.6,-141.83 626.86,-131.75 618.02,-137.6 623.6,-141.83"/>
</g>
<!-- Node14 -->
<g id="node14" class="node">
<title>Node14</title>
<g id="a_node14"><a xlink:href="sha1_8h.html" target="_top" xlink:title="RFC 3174 compliant SHA1 implementation.">
<polygon fill="white" stroke="black" points="683,-112.5 683,-131.5 732,-131.5 732,-112.5 683,-112.5"/>
<text text-anchor="middle" x="707.5" y="-119.5" font-family="Helvetica,sans-Serif" font-size="10.00">sha1.h</text>
</a>
</g>
</g>
<!-- Node6&#45;&gt;Node14 -->
<g id="edge21" class="edge">
<title>Node6&#45;&gt;Node14</title>
<path fill="none" stroke="midnightblue" d="M610.72,-168.44C629.4,-159.68 658.66,-145.94 680.12,-135.86"/>
<polygon fill="midnightblue" stroke="midnightblue" points="681.8,-138.93 689.36,-131.52 678.82,-132.6 681.8,-138.93"/>
</g>
<!-- Node15 -->
<g id="node15" class="node">
<title>Node15</title>
<g id="a_node15"><a xlink:href="sha256_8h.html" target="_top" xlink:title="RFC 5754 compliant SHA2 implementation.">
<polygon fill="white" stroke="black" points="750,-112.5 750,-131.5 811,-131.5 811,-112.5 750,-112.5"/>
<text text-anchor="middle" x="780.5" y="-119.5" font-family="Helvetica,sans-Serif" font-size="10.00">sha256.h</text>
</a>
</g>
</g>
<!-- Node6&#45;&gt;Node15 -->
<g id="edge23" class="edge">
<title>Node6&#45;&gt;Node15</title>
<path fill="none" stroke="midnightblue" d="M622.29,-168.44C654.33,-159.24 705.43,-144.56 740.85,-134.39"/>
<polygon fill="midnightblue" stroke="midnightblue" points="742.21,-137.64 750.85,-131.52 740.27,-130.91 742.21,-137.64"/>
</g>
<!-- Node16 -->
<g id="node16" class="node">
<title>Node16</title>
<g id="a_node16"><a xlink:href="sha512_8h.html" target="_top" xlink:title="RFC 5754 compliant SHA2 implementation.">
<polygon fill="white" stroke="black" points="829,-112.5 829,-131.5 890,-131.5 890,-112.5 829,-112.5"/>
<text text-anchor="middle" x="859.5" y="-119.5" font-family="Helvetica,sans-Serif" font-size="10.00">sha512.h</text>
</a>
</g>
</g>
<!-- Node6&#45;&gt;Node16 -->
<g id="edge25" class="edge">
<title>Node6&#45;&gt;Node16</title>
<path fill="none" stroke="midnightblue" d="M637.36,-168.46C681.06,-160.06 749.61,-146.68 818.74,-132.12"/>
<polygon fill="midnightblue" stroke="midnightblue" points="819.88,-135.45 828.94,-129.96 818.44,-128.6 819.88,-135.45"/>
</g>
<!-- Node17 -->
<g id="node17" class="node">
<title>Node17</title>
<g id="a_node17"><a xlink:href="sha3_8h.html" target="_top" xlink:title="SHA3 implementation.">
<polygon fill="white" stroke="black" points="908,-112.5 908,-131.5 957,-131.5 957,-112.5 908,-112.5"/>
<text text-anchor="middle" x="932.5" y="-119.5" font-family="Helvetica,sans-Serif" font-size="10.00">sha3.h</text>
</a>
</g>
</g>
<!-- Node6&#45;&gt;Node17 -->
<g id="edge27" class="edge">
<title>Node6&#45;&gt;Node17</title>
<path fill="none" stroke="midnightblue" d="M639.18,-171.8C697.44,-164.93 800.26,-151.62 897.68,-131.96"/>
<polygon fill="midnightblue" stroke="midnightblue" points="898.6,-135.34 907.69,-129.91 897.2,-128.49 898.6,-135.34"/>
</g>
<!-- Node18 -->
<g id="node18" class="node">
<title>Node18</title>
<g id="a_node18"><a xlink:href="tiger_8h.html" target="_top" xlink:title="tiger implementation">
<polygon fill="white" stroke="black" points="975,-112.5 975,-131.5 1022,-131.5 1022,-112.5 975,-112.5"/>
<text text-anchor="middle" x="998.5" y="-119.5" font-family="Helvetica,sans-Serif" font-size="10.00">tiger.h</text>
</a>
</g>
</g>
<!-- Node6&#45;&gt;Node18 -->
<g id="edge29" class="edge">
<title>Node6&#45;&gt;Node18</title>
<path fill="none" stroke="midnightblue" d="M639.07,-173.58C708.13,-168.03 841.86,-155.44 964.84,-131.85"/>
<polygon fill="midnightblue" stroke="midnightblue" points="965.66,-135.26 974.8,-129.91 964.32,-128.38 965.66,-135.26"/>
</g>
<!-- Node19 -->
<g id="node19" class="node">
<title>Node19</title>
<g id="a_node19"><a xlink:href="whirl_8h.html" target="_top" xlink:title="whirlpool implementation">
<polygon fill="white" stroke="black" points="1040.5,-112.5 1040.5,-131.5 1090.5,-131.5 1090.5,-112.5 1040.5,-112.5"/>
<text text-anchor="middle" x="1065.5" y="-119.5" font-family="Helvetica,sans-Serif" font-size="10.00">whirl.h</text>
</a>
</g>
</g>
<!-- Node6&#45;&gt;Node19 -->
<g id="edge31" class="edge">
<title>Node6&#45;&gt;Node19</title>
<path fill="none" stroke="midnightblue" d="M639.17,-174.5C719.58,-169.68 889.22,-157.28 1030.5,-132 1030.6,-131.98 1030.7,-131.96 1030.8,-131.95"/>
<polygon fill="midnightblue" stroke="midnightblue" points="1031.29,-135.42 1040.36,-129.94 1029.86,-128.57 1031.29,-135.42"/>
</g>
<!-- Node20 -->
<g id="node20" class="node">
<title>Node20</title>
<g id="a_node20"><a xlink:href="blake2b_8h.html" target="_top" xlink:title="RFC 7693 compliant BLAKE implementation.">
<polygon fill="white" stroke="black" points="1108.5,-112.5 1108.5,-131.5 1172.5,-131.5 1172.5,-112.5 1108.5,-112.5"/>
<text text-anchor="middle" x="1140.5" y="-119.5" font-family="Helvetica,sans-Serif" font-size="10.00">blake2b.h</text>
</a>
</g>
</g>
<!-- Node6&#45;&gt;Node20 -->
<g id="edge34" class="edge">
<title>Node6&#45;&gt;Node20</title>
<path fill="none" stroke="midnightblue" d="M639.22,-174.85C727.23,-170.36 923.68,-158.3 1098.46,-131.97"/>
<polygon fill="midnightblue" stroke="midnightblue" points="1098.99,-135.43 1108.34,-130.46 1097.93,-128.51 1098.99,-135.43"/>
</g>
<!-- Node7&#45;&gt;Node3 -->
<g id="edge8" class="edge">
<title>Node7&#45;&gt;Node3</title>
<path fill="none" stroke="midnightblue" d="M211.17,-113.9C213.96,-113.2 216.78,-112.54 219.5,-112 342.2,-87.5 490.44,-74.45 557.06,-69.45"/>
<polygon fill="midnightblue" stroke="midnightblue" points="557.69,-72.91 567.41,-68.69 557.18,-65.93 557.69,-72.91"/>
</g>
<!-- Node8&#45;&gt;Node3 -->
<g id="edge10" class="edge">
<title>Node8&#45;&gt;Node3</title>
<path fill="none" stroke="midnightblue" d="M276.18,-113.97C278.97,-113.25 281.79,-112.58 284.5,-112 382.28,-91.2 499.57,-76.96 557.12,-70.66"/>
<polygon fill="midnightblue" stroke="midnightblue" points="557.59,-74.14 567.15,-69.58 556.83,-67.18 557.59,-74.14"/>
</g>
<!-- Node9&#45;&gt;Node3 -->
<g id="edge12" class="edge">
<title>Node9&#45;&gt;Node3</title>
<path fill="none" stroke="midnightblue" d="M341.2,-114.07C343.99,-113.34 346.8,-112.63 349.5,-112 422.73,-94.96 509.58,-80.16 557.08,-72.52"/>
<polygon fill="midnightblue" stroke="midnightblue" points="557.83,-75.94 567.16,-70.91 556.73,-69.03 557.83,-75.94"/>
</g>
<!-- Node10&#45;&gt;Node3 -->
<g id="edge14" class="edge">
<title>Node10&#45;&gt;Node3</title>
<path fill="none" stroke="midnightblue" d="M422.06,-112.56C458.68,-102.77 518.89,-86.68 557.07,-76.47"/>
<polygon fill="midnightblue" stroke="midnightblue" points="558.47,-79.72 567.22,-73.76 556.66,-72.96 558.47,-79.72"/>
</g>
<!-- Node11&#45;&gt;Node3 -->
<g id="edge16" class="edge">
<title>Node11&#45;&gt;Node3</title>
<path fill="none" stroke="midnightblue" d="M490.67,-112.44C510.41,-103.64 541.39,-89.81 563.99,-79.72"/>
<polygon fill="midnightblue" stroke="midnightblue" points="565.71,-82.79 573.42,-75.52 562.86,-76.4 565.71,-82.79"/>
</g>
<!-- Node12&#45;&gt;Node3 -->
<g id="edge18" class="edge">
<title>Node12&#45;&gt;Node3</title>
<path fill="none" stroke="midnightblue" d="M559.11,-112.08C564.76,-104.46 573.04,-93.26 579.95,-83.94"/>
<polygon fill="midnightblue" stroke="midnightblue" points="582.88,-85.87 586.02,-75.75 577.25,-81.7 582.88,-85.87"/>
</g>
<!-- Node13&#45;&gt;Node3 -->
<g id="edge20" class="edge">
<title>Node13&#45;&gt;Node3</title>
<path fill="none" stroke="midnightblue" d="M626.73,-112.08C620.94,-104.46 612.44,-93.26 605.36,-83.94"/>
<polygon fill="midnightblue" stroke="midnightblue" points="607.98,-81.6 599.14,-75.75 602.4,-85.83 607.98,-81.6"/>
</g>
<!-- Node14&#45;&gt;Node3 -->
<g id="edge22" class="edge">
<title>Node14&#45;&gt;Node3</title>
<path fill="none" stroke="midnightblue" d="M689.28,-112.44C670.6,-103.68 641.34,-89.94 619.88,-79.86"/>
<polygon fill="midnightblue" stroke="midnightblue" points="621.18,-76.6 610.64,-75.52 618.2,-82.93 621.18,-76.6"/>
</g>
<!-- Node15&#45;&gt;Node3 -->
<g id="edge24" class="edge">
<title>Node15&#45;&gt;Node3</title>
<path fill="none" stroke="midnightblue" d="M750.71,-112.44C717.26,-102.83 663.02,-87.26 627.55,-77.07"/>
<polygon fill="midnightblue" stroke="midnightblue" points="628.22,-73.62 617.64,-74.22 626.28,-80.35 628.22,-73.62"/>
</g>
<!-- Node16&#45;&gt;Node3 -->
<g id="edge26" class="edge">
<title>Node16&#45;&gt;Node3</title>
<path fill="none" stroke="midnightblue" d="M828.94,-114.04C825.76,-113.34 822.56,-112.65 819.5,-112 751.82,-97.68 672.48,-82.26 627.79,-73.71"/>
<polygon fill="midnightblue" stroke="midnightblue" points="628.22,-70.22 617.74,-71.78 626.9,-77.1 628.22,-70.22"/>
</g>
<!-- Node17&#45;&gt;Node3 -->
<g id="edge28" class="edge">
<title>Node17&#45;&gt;Node3</title>
<path fill="none" stroke="midnightblue" d="M907.69,-114.09C904.61,-113.33 901.49,-112.61 898.5,-112 801.2,-92.03 684.74,-77.43 627.61,-70.86"/>
<polygon fill="midnightblue" stroke="midnightblue" points="627.99,-67.38 617.66,-69.73 627.2,-74.33 627.99,-67.38"/>
</g>
<!-- Node18&#45;&gt;Node3 -->
<g id="edge30" class="edge">
<title>Node18&#45;&gt;Node3</title>
<path fill="none" stroke="midnightblue" d="M974.8,-114.09C971.69,-113.32 968.53,-112.59 965.5,-112 842.71,-87.98 694.51,-74.69 627.92,-69.54"/>
<polygon fill="midnightblue" stroke="midnightblue" points="627.81,-66.02 617.58,-68.75 627.28,-73 627.81,-66.02"/>
</g>
<!-- Node19&#45;&gt;Node3 -->
<g id="edge32" class="edge">
<title>Node19&#45;&gt;Node3</title>
<path fill="none" stroke="midnightblue" d="M1040.36,-114.06C1037.06,-113.29 1033.71,-112.57 1030.5,-112 882.4,-85.5 703.13,-73.15 628.15,-68.85"/>
<polygon fill="midnightblue" stroke="midnightblue" points="628.05,-65.34 617.87,-68.28 627.65,-72.33 628.05,-65.34"/>
</g>
<!-- Node20&#45;&gt;Node3 -->
<g id="edge35" class="edge">
<title>Node20&#45;&gt;Node3</title>
<path fill="none" stroke="midnightblue" d="M1108.34,-113.54C1105.36,-112.97 1102.38,-112.44 1099.5,-112 923.57,-85 710.62,-72.63 627.82,-68.58"/>
<polygon fill="midnightblue" stroke="midnightblue" points="627.85,-65.08 617.69,-68.1 627.52,-72.07 627.85,-65.08"/>
</g>
<!-- Node22 -->
<g id="node22" class="node">
<title>Node22</title>
<g id="a_node22"><a xlink:title=" ">
<polygon fill="white" stroke="#bfbfbf" points="1190.5,-112.5 1190.5,-131.5 1246.5,-131.5 1246.5,-112.5 1190.5,-112.5"/>
<text text-anchor="middle" x="1218.5" y="-119.5" font-family="Helvetica,sans-Serif" font-size="10.00">assert.h</text>
</a>
</g>
</g>
<!-- Node21&#45;&gt;Node22 -->
<g id="edge37" class="edge">
<title>Node21&#45;&gt;Node22</title>
<path fill="none" stroke="midnightblue" d="M1218.5,-168.08C1218.5,-161.01 1218.5,-150.86 1218.5,-141.99"/>
<polygon fill="midnightblue" stroke="midnightblue" points="1222,-141.75 1218.5,-131.75 1215,-141.75 1222,-141.75"/>
</g>
<!-- Node23 -->
<g id="node23" class="node">
<title>Node23</title>
<g id="a_node23"><a xlink:title=" ">
<polygon fill="white" stroke="#bfbfbf" points="1265,-112.5 1265,-131.5 1318,-131.5 1318,-112.5 1265,-112.5"/>
<text text-anchor="middle" x="1291.5" y="-119.5" font-family="Helvetica,sans-Serif" font-size="10.00">string.h</text>
</a>
</g>
</g>
<!-- Node21&#45;&gt;Node23 -->
<g id="edge38" class="edge">
<title>Node21&#45;&gt;Node23</title>
<path fill="none" stroke="midnightblue" d="M1230.23,-168.32C1241.34,-160.11 1258.24,-147.6 1271.48,-137.81"/>
<polygon fill="midnightblue" stroke="midnightblue" points="1273.6,-140.59 1279.56,-131.83 1269.44,-134.97 1273.6,-140.59"/>
</g>
</g>
</svg>
        <g id="navigator" transform="translate(0 0)" fill="#404254">
                <rect fill="#f2f5e9" fill-opacity="0.5" stroke="#606060" stroke-width=".5" x="0" y="0" width="60" height="60"/>
                <use id="zoomplus" xlink:href="#zoomPlus" x="17" y="9" onmousedown="handleZoom(evt,'in')"/>
                <use id="zoomminus" xlink:href="#zoomMin" x="42" y="9" onmousedown="handleZoom(evt,'out')"/>
                <use id="reset" xlink:href="#resetDef" x="30" y="36" onmousedown="handleReset()"/>
                <g id="arrowUp" xlink:href="#dirArrow" transform="translate(30 24)" onmousedown="handlePan(0,-1)">
                  <use xlink:href="#rim" fill="#404040">
                        <set attributeName="fill" to="#808080" begin="arrowUp.mouseover" end="arrowUp.mouseout"/>
                  </use>
                  <path fill="none" stroke="white" stroke-width="1.5" d="M0,-3.0v7 M-2.5,-0.5L0,-3.0L2.5,-0.5"/>
                </g>
                <g id="arrowRight" xlink:href="#dirArrow" transform="rotate(90) translate(36 -43)" onmousedown="handlePan(1,0)">
                  <use xlink:href="#rim" fill="#404040">
                        <set attributeName="fill" to="#808080" begin="arrowRight.mouseover" end="arrowRight.mouseout"/>
                  </use>
                  <path fill="none" stroke="white" stroke-width="1.5" d="M0,-3.0v7 M-2.5,-0.5L0,-3.0L2.5,-0.5"/>
                </g>
                <g id="arrowDown" xlink:href="#dirArrow" transform="rotate(180) translate(-30 -48)" onmousedown="handlePan(0,1)">
                  <use xlink:href="#rim" fill="#404040">
                        <set attributeName="fill" to="#808080" begin="arrowDown.mouseover" end="arrowDown.mouseout"/>
                  </use>
                  <path fill="none" stroke="white" stroke-width="1.5" d="M0,-3.0v7 M-2.5,-0.5L0,-3.0L2.5,-0.5"/>
                </g>
                <g id="arrowLeft" xlink:href="#dirArrow" transform="rotate(270) translate(-36 17)" onmousedown="handlePan(-1,0)">
                  <use xlink:href="#rim" fill="#404040">
                        <set attributeName="fill" to="#808080" begin="arrowLeft.mouseover" end="arrowLeft.mouseout"/>
                  </use>
                  <path fill="none" stroke="white" stroke-width="1.5" d="M0,-3.0v7 M-2.5,-0.5L0,-3.0L2.5,-0.5"/>
                </g>
        </g>
        <svg viewBox="0 0 15 15" width="100%" height="30px" preserveAspectRatio="xMaxYMin meet">
         <g id="arrow_out" transform="scale(0.3 0.3)">
          <a xlink:href="blake2s_8c__incl_org.svg" target="_base">
           <rect id="button" ry="5" rx="5" y="6" x="6" height="38" width="38"
                fill="#f2f5e9" fill-opacity="0.5" stroke="#606060" stroke-width="1.0"/>
           <path id="arrow"
             d="M 11.500037,31.436501 C 11.940474,20.09759 22.043105,11.32322 32.158766,21.979434 L 37.068811,17.246167 C 37.068811,17.246167 37.088388,32 37.088388,32 L 22.160133,31.978069 C 22.160133,31.978069 26.997745,27.140456 26.997745,27.140456 C 18.528582,18.264221 13.291696,25.230495 11.500037,31.436501 z"
             style="fill:#404040;"/>
          </a>
         </g>
        </svg>
</svg>
