<?xml version="1.0" encoding="UTF-8" standalone="no"?>
<!DOCTYPE svg PUBLIC "-//W3C//DTD SVG 1.1//EN"
 "http://www.w3.org/Graphics/SVG/1.1/DTD/svg11.dtd">
<!-- Generated by graphviz version 2.43.0 (0)
 -->
<!-- Title: include/a/cksum/blake2b.h Pages: 1 -->
<svg width="2289pt" height="274pt"
 viewBox="0.00 0.00 2288.50 274.00" xmlns="http://www.w3.org/2000/svg" xmlns:xlink="http://www.w3.org/1999/xlink">
<g id="graph0" class="graph" transform="scale(1 1) rotate(0) translate(4 270)">
<title>include/a/cksum/blake2b.h</title>
<polygon fill="white" stroke="transparent" points="-4,4 -4,-270 2284.5,-270 2284.5,4 -4,4"/>
<!-- Node1 -->
<g id="node1" class="node">
<title>Node1</title>
<g id="a_node1"><a xlink:title="RFC 7693 compliant BLAKE implementation.">
<polygon fill="#bfbfbf" stroke="black" points="500,-246.5 500,-265.5 646,-265.5 646,-246.5 500,-246.5"/>
<text text-anchor="middle" x="573" y="-253.5" font-family="Helvetica,sans-Serif" font-size="10.00">include/a/cksum/blake2b.h</text>
</a>
</g>
</g>
<!-- Node2 -->
<g id="node2" class="node">
<title>Node2</title>
<g id="a_node2"><a xlink:href="hash_8h.html" target="_top" xlink:title="hash library">
<polygon fill="white" stroke="black" points="1022.5,-190.5 1022.5,-209.5 1153.5,-209.5 1153.5,-190.5 1022.5,-190.5"/>
<text text-anchor="middle" x="1088" y="-197.5" font-family="Helvetica,sans-Serif" font-size="10.00">include/a/cksum/hash.h</text>
</a>
</g>
</g>
<!-- Node1&#45;&gt;Node2 -->
<g id="edge1" class="edge">
<title>Node1&#45;&gt;Node2</title>
<path fill="none" stroke="midnightblue" d="M656.2,-246.28C758.23,-235.58 929.08,-217.66 1022.35,-207.88"/>
<polygon fill="midnightblue" stroke="midnightblue" points="655.82,-242.8 646.24,-247.32 656.55,-249.76 655.82,-242.8"/>
</g>
<!-- Node9 -->
<g id="node9" class="node">
<title>Node9</title>
<g id="a_node9"><a xlink:href="blake2b_8c.html" target="_top" xlink:title="RFC 7693 compliant BLAKE implementation.">
<polygon fill="white" stroke="black" points="0,-129 0,-148 116,-148 116,-129 0,-129"/>
<text text-anchor="middle" x="58" y="-136" font-family="Helvetica,sans-Serif" font-size="10.00">src/cksum/blake2b.c</text>
</a>
</g>
</g>
<!-- Node1&#45;&gt;Node9 -->
<g id="edge24" class="edge">
<title>Node1&#45;&gt;Node9</title>
<path fill="none" stroke="midnightblue" d="M524.71,-244.17C422.97,-221.35 188.38,-168.74 96.19,-148.06"/>
<polygon fill="midnightblue" stroke="midnightblue" points="524.19,-247.64 534.71,-246.41 525.72,-240.81 524.19,-247.64"/>
</g>
<!-- Node3 -->
<g id="node3" class="node">
<title>Node3</title>
<g id="a_node3"><a xlink:href="hash__util_8h.html" target="_top" xlink:title="hash library utils">
<polygon fill="white" stroke="black" points="134,-123.5 134,-153.5 256,-153.5 256,-123.5 134,-123.5"/>
<text text-anchor="start" x="142" y="-141.5" font-family="Helvetica,sans-Serif" font-size="10.00">include/a/cksum/hash</text>
<text text-anchor="middle" x="195" y="-130.5" font-family="Helvetica,sans-Serif" font-size="10.00">_util.h</text>
</a>
</g>
</g>
<!-- Node2&#45;&gt;Node3 -->
<g id="edge2" class="edge">
<title>Node2&#45;&gt;Node3</title>
<path fill="none" stroke="midnightblue" d="M1012.3,-198.56C867,-196.9 539.22,-189.19 266,-154 262.76,-153.58 259.44,-153.1 256.1,-152.57"/>
<polygon fill="midnightblue" stroke="midnightblue" points="1012.4,-202.06 1022.44,-198.67 1012.48,-195.06 1012.4,-202.06"/>
</g>
<!-- Node5 -->
<g id="node5" class="node">
<title>Node5</title>
<g id="a_node5"><a xlink:href="hmac_8h.html" target="_top" xlink:title="RFC 2104 compliant HMAC implementation.">
<polygon fill="white" stroke="black" points="274.5,-129 274.5,-148 409.5,-148 409.5,-129 274.5,-129"/>
<text text-anchor="middle" x="342" y="-136" font-family="Helvetica,sans-Serif" font-size="10.00">include/a/cksum/hmac.h</text>
</a>
</g>
</g>
<!-- Node2&#45;&gt;Node5 -->
<g id="edge4" class="edge">
<title>Node2&#45;&gt;Node5</title>
<path fill="none" stroke="midnightblue" d="M1012.05,-196.83C887.67,-192.62 632.97,-181.24 419,-154 406.99,-152.47 394.02,-150.25 382.22,-148.01"/>
<polygon fill="midnightblue" stroke="midnightblue" points="1012.12,-200.34 1022.23,-197.17 1012.35,-193.34 1012.12,-200.34"/>
</g>
<!-- Node2&#45;&gt;Node9 -->
<g id="edge8" class="edge">
<title>Node2&#45;&gt;Node9</title>
<path fill="none" stroke="midnightblue" d="M1011.87,-199.73C848.61,-200.36 453.04,-196.86 125,-154 114.26,-152.6 102.69,-150.36 92.24,-148.06"/>
<polygon fill="midnightblue" stroke="midnightblue" points="1012.3,-203.23 1022.28,-199.68 1012.26,-196.23 1012.3,-203.23"/>
</g>
<!-- Node10 -->
<g id="node10" class="node">
<title>Node10</title>
<g id="a_node10"><a xlink:href="blake2s_8c.html" target="_top" xlink:title="RFC 7693 compliant BLAKE implementation.">
<polygon fill="white" stroke="black" points="427.5,-129 427.5,-148 542.5,-148 542.5,-129 427.5,-129"/>
<text text-anchor="middle" x="485" y="-136" font-family="Helvetica,sans-Serif" font-size="10.00">src/cksum/blake2s.c</text>
</a>
</g>
</g>
<!-- Node2&#45;&gt;Node10 -->
<g id="edge9" class="edge">
<title>Node2&#45;&gt;Node10</title>
<path fill="none" stroke="midnightblue" d="M1011.97,-195.72C907.76,-190.51 714.89,-178.36 552,-154 541.64,-152.45 530.49,-150.25 520.31,-148.04"/>
<polygon fill="midnightblue" stroke="midnightblue" points="1011.93,-199.22 1022.09,-196.21 1012.27,-192.23 1011.93,-199.22"/>
</g>
<!-- Node11 -->
<g id="node11" class="node">
<title>Node11</title>
<g id="a_node11"><a xlink:href="hash_8c.html" target="_top" xlink:title="hash library">
<polygon fill="white" stroke="black" points="560.5,-129 560.5,-148 661.5,-148 661.5,-129 560.5,-129"/>
<text text-anchor="middle" x="611" y="-136" font-family="Helvetica,sans-Serif" font-size="10.00">src/cksum/hash.c</text>
</a>
</g>
</g>
<!-- Node2&#45;&gt;Node11 -->
<g id="edge10" class="edge">
<title>Node2&#45;&gt;Node11</title>
<path fill="none" stroke="midnightblue" d="M1012.06,-193.78C928.17,-187.32 789.28,-174.58 671,-154 661.81,-152.4 651.94,-150.21 642.91,-148.02"/>
<polygon fill="midnightblue" stroke="midnightblue" points="1012.03,-197.29 1022.27,-194.55 1012.56,-190.31 1012.03,-197.29"/>
</g>
<!-- Node12 -->
<g id="node12" class="node">
<title>Node12</title>
<g id="a_node12"><a xlink:href="md2_8c.html" target="_top" xlink:title="RFC 1319 compliant MD2 implementation.">
<polygon fill="white" stroke="black" points="679.5,-129 679.5,-148 778.5,-148 778.5,-129 679.5,-129"/>
<text text-anchor="middle" x="729" y="-136" font-family="Helvetica,sans-Serif" font-size="10.00">src/cksum/md2.c</text>
</a>
</g>
</g>
<!-- Node2&#45;&gt;Node12 -->
<g id="edge11" class="edge">
<title>Node2&#45;&gt;Node12</title>
<path fill="none" stroke="midnightblue" d="M1012.16,-189.59C951.31,-181.57 863.83,-168.97 788,-154 779.31,-152.28 769.97,-150.13 761.34,-148.02"/>
<polygon fill="midnightblue" stroke="midnightblue" points="1012.08,-193.11 1022.45,-190.94 1012.99,-186.17 1012.08,-193.11"/>
</g>
<!-- Node13 -->
<g id="node13" class="node">
<title>Node13</title>
<g id="a_node13"><a xlink:href="md4_8c.html" target="_top" xlink:title="RFC 1320 compliant MD4 implementation.">
<polygon fill="white" stroke="black" points="796.5,-129 796.5,-148 895.5,-148 895.5,-129 796.5,-129"/>
<text text-anchor="middle" x="846" y="-136" font-family="Helvetica,sans-Serif" font-size="10.00">src/cksum/md4.c</text>
</a>
</g>
</g>
<!-- Node2&#45;&gt;Node13 -->
<g id="edge12" class="edge">
<title>Node2&#45;&gt;Node13</title>
<path fill="none" stroke="midnightblue" d="M1043.43,-188.04C996.45,-176.49 923.44,-158.54 880.61,-148.01"/>
<polygon fill="midnightblue" stroke="midnightblue" points="1042.78,-191.49 1053.33,-190.48 1044.45,-184.69 1042.78,-191.49"/>
</g>
<!-- Node14 -->
<g id="node14" class="node">
<title>Node14</title>
<g id="a_node14"><a xlink:href="md5_8c.html" target="_top" xlink:title="RFC 1321 compliant MD5 implementation.">
<polygon fill="white" stroke="black" points="913.5,-129 913.5,-148 1012.5,-148 1012.5,-129 913.5,-129"/>
<text text-anchor="middle" x="963" y="-136" font-family="Helvetica,sans-Serif" font-size="10.00">src/cksum/md5.c</text>
</a>
</g>
</g>
<!-- Node2&#45;&gt;Node14 -->
<g id="edge13" class="edge">
<title>Node2&#45;&gt;Node14</title>
<path fill="none" stroke="midnightblue" d="M1061.06,-186.17C1036.8,-174.63 1001.84,-157.99 980.88,-148.01"/>
<polygon fill="midnightblue" stroke="midnightblue" points="1059.56,-189.34 1070.09,-190.48 1062.57,-183.02 1059.56,-189.34"/>
</g>
<!-- Node15 -->
<g id="node15" class="node">
<title>Node15</title>
<g id="a_node15"><a xlink:href="rmd128_8c.html" target="_top" xlink:title="ripemd implementation">
<polygon fill="white" stroke="black" points="1030.5,-129 1030.5,-148 1145.5,-148 1145.5,-129 1030.5,-129"/>
<text text-anchor="middle" x="1088" y="-136" font-family="Helvetica,sans-Serif" font-size="10.00">src/cksum/rmd128.c</text>
</a>
</g>
</g>
<!-- Node2&#45;&gt;Node15 -->
<g id="edge14" class="edge">
<title>Node2&#45;&gt;Node15</title>
<path fill="none" stroke="midnightblue" d="M1088,-180.32C1088,-169.5 1088,-156.4 1088,-148.01"/>
<polygon fill="midnightblue" stroke="midnightblue" points="1084.5,-180.48 1088,-190.48 1091.5,-180.48 1084.5,-180.48"/>
</g>
<!-- Node16 -->
<g id="node16" class="node">
<title>Node16</title>
<g id="a_node16"><a xlink:href="rmd160_8c.html" target="_top" xlink:title="ripemd implementation">
<polygon fill="white" stroke="black" points="1163.5,-129 1163.5,-148 1278.5,-148 1278.5,-129 1163.5,-129"/>
<text text-anchor="middle" x="1221" y="-136" font-family="Helvetica,sans-Serif" font-size="10.00">src/cksum/rmd160.c</text>
</a>
</g>
</g>
<!-- Node2&#45;&gt;Node16 -->
<g id="edge15" class="edge">
<title>Node2&#45;&gt;Node16</title>
<path fill="none" stroke="midnightblue" d="M1116.33,-186.33C1142.15,-174.78 1179.58,-158.03 1201.98,-148.01"/>
<polygon fill="midnightblue" stroke="midnightblue" points="1114.75,-183.2 1107.06,-190.48 1117.61,-189.59 1114.75,-183.2"/>
</g>
<!-- Node17 -->
<g id="node17" class="node">
<title>Node17</title>
<g id="a_node17"><a xlink:href="rmd256_8c.html" target="_top" xlink:title="ripemd implementation">
<polygon fill="white" stroke="black" points="1296.5,-129 1296.5,-148 1411.5,-148 1411.5,-129 1296.5,-129"/>
<text text-anchor="middle" x="1354" y="-136" font-family="Helvetica,sans-Serif" font-size="10.00">src/cksum/rmd256.c</text>
</a>
</g>
</g>
<!-- Node2&#45;&gt;Node17 -->
<g id="edge16" class="edge">
<title>Node2&#45;&gt;Node17</title>
<path fill="none" stroke="midnightblue" d="M1136.02,-188.26C1187.62,-176.72 1268.59,-158.61 1315.96,-148.01"/>
<polygon fill="midnightblue" stroke="midnightblue" points="1135.11,-184.88 1126.11,-190.48 1136.63,-191.71 1135.11,-184.88"/>
</g>
<!-- Node18 -->
<g id="node18" class="node">
<title>Node18</title>
<g id="a_node18"><a xlink:href="rmd320_8c.html" target="_top" xlink:title="ripemd implementation">
<polygon fill="white" stroke="black" points="1429.5,-129 1429.5,-148 1544.5,-148 1544.5,-129 1429.5,-129"/>
<text text-anchor="middle" x="1487" y="-136" font-family="Helvetica,sans-Serif" font-size="10.00">src/cksum/rmd320.c</text>
</a>
</g>
</g>
<!-- Node2&#45;&gt;Node18 -->
<g id="edge17" class="edge">
<title>Node2&#45;&gt;Node18</title>
<path fill="none" stroke="midnightblue" d="M1163.79,-190.55C1231.46,-182.58 1333.17,-169.56 1421,-154 1430.7,-152.28 1441.15,-150.13 1450.8,-148.01"/>
<polygon fill="midnightblue" stroke="midnightblue" points="1163.17,-187.1 1153.64,-191.74 1163.98,-194.05 1163.17,-187.1"/>
</g>
<!-- Node19 -->
<g id="node19" class="node">
<title>Node19</title>
<g id="a_node19"><a xlink:href="sha1_8c.html" target="_top" xlink:title="RFC 3174 compliant SHA1 implementation.">
<polygon fill="white" stroke="black" points="1562.5,-129 1562.5,-148 1663.5,-148 1663.5,-129 1562.5,-129"/>
<text text-anchor="middle" x="1613" y="-136" font-family="Helvetica,sans-Serif" font-size="10.00">src/cksum/sha1.c</text>
</a>
</g>
</g>
<!-- Node2&#45;&gt;Node19 -->
<g id="edge18" class="edge">
<title>Node2&#45;&gt;Node19</title>
<path fill="none" stroke="midnightblue" d="M1163.73,-195.06C1256.3,-189.48 1417.49,-177.24 1554,-154 1563.15,-152.44 1572.98,-150.24 1581.94,-148.03"/>
<polygon fill="midnightblue" stroke="midnightblue" points="1163.38,-191.58 1153.61,-195.66 1163.8,-198.57 1163.38,-191.58"/>
</g>
<!-- Node20 -->
<g id="node20" class="node">
<title>Node20</title>
<g id="a_node20"><a xlink:href="sha256_8c.html" target="_top" xlink:title="RFC 5754 compliant SHA2 implementation.">
<polygon fill="white" stroke="black" points="1681.5,-129 1681.5,-148 1794.5,-148 1794.5,-129 1681.5,-129"/>
<text text-anchor="middle" x="1738" y="-136" font-family="Helvetica,sans-Serif" font-size="10.00">src/cksum/sha256.c</text>
</a>
</g>
</g>
<!-- Node2&#45;&gt;Node20 -->
<g id="edge19" class="edge">
<title>Node2&#45;&gt;Node20</title>
<path fill="none" stroke="midnightblue" d="M1163.88,-196.62C1275.81,-192.33 1491.53,-181.08 1673,-154 1683.18,-152.48 1694.13,-150.27 1704.1,-148.02"/>
<polygon fill="midnightblue" stroke="midnightblue" points="1163.57,-193.13 1153.7,-197 1163.83,-200.12 1163.57,-193.13"/>
</g>
<!-- Node21 -->
<g id="node21" class="node">
<title>Node21</title>
<g id="a_node21"><a xlink:href="sha3_8c.html" target="_top" xlink:title="SHA3 implementation.">
<polygon fill="white" stroke="black" points="1812.5,-129 1812.5,-148 1913.5,-148 1913.5,-129 1812.5,-129"/>
<text text-anchor="middle" x="1863" y="-136" font-family="Helvetica,sans-Serif" font-size="10.00">src/cksum/sha3.c</text>
</a>
</g>
</g>
<!-- Node2&#45;&gt;Node21 -->
<g id="edge20" class="edge">
<title>Node2&#45;&gt;Node21</title>
<path fill="none" stroke="midnightblue" d="M1163.91,-198.66C1295.16,-197.08 1572.65,-189.41 1804,-154 1813.38,-152.56 1823.46,-150.35 1832.59,-148.07"/>
<polygon fill="midnightblue" stroke="midnightblue" points="1163.53,-195.16 1153.57,-198.77 1163.61,-202.16 1163.53,-195.16"/>
</g>
<!-- Node22 -->
<g id="node22" class="node">
<title>Node22</title>
<g id="a_node22"><a xlink:href="sha512_8c.html" target="_top" xlink:title="RFC 5754 compliant SHA2 implementation.">
<polygon fill="white" stroke="black" points="1931.5,-129 1931.5,-148 2044.5,-148 2044.5,-129 1931.5,-129"/>
<text text-anchor="middle" x="1988" y="-136" font-family="Helvetica,sans-Serif" font-size="10.00">src/cksum/sha512.c</text>
</a>
</g>
</g>
<!-- Node2&#45;&gt;Node22 -->
<g id="edge21" class="edge">
<title>Node2&#45;&gt;Node22</title>
<path fill="none" stroke="midnightblue" d="M1163.84,-199.1C1310.97,-198.38 1645.08,-192.22 1923,-154 1933.42,-152.57 1944.65,-150.32 1954.79,-148.02"/>
<polygon fill="midnightblue" stroke="midnightblue" points="1163.56,-195.6 1153.58,-199.15 1163.59,-202.6 1163.56,-195.6"/>
</g>
<!-- Node23 -->
<g id="node23" class="node">
<title>Node23</title>
<g id="a_node23"><a xlink:href="tiger_8c.html" target="_top" xlink:title="TIGER implementation.">
<polygon fill="white" stroke="black" points="2062.5,-129 2062.5,-148 2161.5,-148 2161.5,-129 2062.5,-129"/>
<text text-anchor="middle" x="2112" y="-136" font-family="Helvetica,sans-Serif" font-size="10.00">src/cksum/tiger.c</text>
</a>
</g>
</g>
<!-- Node2&#45;&gt;Node23 -->
<g id="edge22" class="edge">
<title>Node2&#45;&gt;Node23</title>
<path fill="none" stroke="midnightblue" d="M1164.04,-197.41C1360.72,-192.97 1882.75,-179.14 2054,-154 2063.45,-152.61 2073.6,-150.35 2082.72,-148.02"/>
<polygon fill="midnightblue" stroke="midnightblue" points="1163.72,-193.91 1153.8,-197.64 1163.88,-200.91 1163.72,-193.91"/>
</g>
<!-- Node24 -->
<g id="node24" class="node">
<title>Node24</title>
<g id="a_node24"><a xlink:href="whirl_8c.html" target="_top" xlink:title="whirlpool implementation">
<polygon fill="white" stroke="black" points="2179.5,-129 2179.5,-148 2280.5,-148 2280.5,-129 2179.5,-129"/>
<text text-anchor="middle" x="2230" y="-136" font-family="Helvetica,sans-Serif" font-size="10.00">src/cksum/whirl.c</text>
</a>
</g>
</g>
<!-- Node2&#45;&gt;Node24 -->
<g id="edge23" class="edge">
<title>Node2&#45;&gt;Node24</title>
<path fill="none" stroke="midnightblue" d="M1163.81,-197.82C1376.53,-194.18 1976.12,-181.71 2171,-154 2180.61,-152.63 2190.93,-150.38 2200.21,-148.05"/>
<polygon fill="midnightblue" stroke="midnightblue" points="1163.62,-194.32 1153.68,-197.99 1163.74,-201.32 1163.62,-194.32"/>
</g>
<!-- Node4 -->
<g id="node4" class="node">
<title>Node4</title>
<g id="a_node4"><a xlink:href="hash__util_8c.html" target="_top" xlink:title="hash library utils">
<polygon fill="white" stroke="black" points="134,-62 134,-81 256,-81 256,-62 134,-62"/>
<text text-anchor="middle" x="195" y="-69" font-family="Helvetica,sans-Serif" font-size="10.00">src/cksum/hash_util.c</text>
</a>
</g>
</g>
<!-- Node3&#45;&gt;Node4 -->
<g id="edge3" class="edge">
<title>Node3&#45;&gt;Node4</title>
<path fill="none" stroke="midnightblue" d="M195,-113.25C195,-102.02 195,-89.38 195,-81.19"/>
<polygon fill="midnightblue" stroke="midnightblue" points="191.5,-113.4 195,-123.4 198.5,-113.4 191.5,-113.4"/>
</g>
<!-- Node6 -->
<g id="node6" class="node">
<title>Node6</title>
<g id="a_node6"><a xlink:href="hmac__util_8h.html" target="_top" xlink:title="hmac library utils">
<polygon fill="white" stroke="black" points="276,-56.5 276,-86.5 402,-86.5 402,-56.5 276,-56.5"/>
<text text-anchor="start" x="284" y="-74.5" font-family="Helvetica,sans-Serif" font-size="10.00">include/a/cksum/hmac</text>
<text text-anchor="middle" x="339" y="-63.5" font-family="Helvetica,sans-Serif" font-size="10.00">_util.h</text>
</a>
</g>
</g>
<!-- Node5&#45;&gt;Node6 -->
<g id="edge5" class="edge">
<title>Node5&#45;&gt;Node6</title>
<path fill="none" stroke="midnightblue" d="M341.13,-118.74C340.66,-108.49 340.08,-96 339.65,-86.59"/>
<polygon fill="midnightblue" stroke="midnightblue" points="337.64,-118.91 341.6,-128.73 344.63,-118.58 337.64,-118.91"/>
</g>
<!-- Node8 -->
<g id="node8" class="node">
<title>Node8</title>
<g id="a_node8"><a xlink:href="hmac_8c.html" target="_top" xlink:title="RFC 2104 compliant HMAC implementation.">
<polygon fill="white" stroke="black" points="420,-62 420,-81 524,-81 524,-62 420,-62"/>
<text text-anchor="middle" x="472" y="-69" font-family="Helvetica,sans-Serif" font-size="10.00">src/cksum/hmac.c</text>
</a>
</g>
</g>
<!-- Node5&#45;&gt;Node8 -->
<g id="edge7" class="edge">
<title>Node5&#45;&gt;Node8</title>
<path fill="none" stroke="midnightblue" d="M368.45,-124.27C394.2,-111.4 432.58,-92.21 454.67,-81.17"/>
<polygon fill="midnightblue" stroke="midnightblue" points="366.64,-121.27 359.26,-128.87 369.77,-127.53 366.64,-121.27"/>
</g>
<!-- Node7 -->
<g id="node7" class="node">
<title>Node7</title>
<g id="a_node7"><a xlink:href="hmac__util_8c.html" target="_top" xlink:title="hmac library utils">
<polygon fill="white" stroke="black" points="276.5,-0.5 276.5,-19.5 401.5,-19.5 401.5,-0.5 276.5,-0.5"/>
<text text-anchor="middle" x="339" y="-7.5" font-family="Helvetica,sans-Serif" font-size="10.00">src/cksum/hmac_util.c</text>
</a>
</g>
</g>
<!-- Node6&#45;&gt;Node7 -->
<g id="edge6" class="edge">
<title>Node6&#45;&gt;Node7</title>
<path fill="none" stroke="midnightblue" d="M339,-46.29C339,-36.86 339,-26.65 339,-19.66"/>
<polygon fill="midnightblue" stroke="midnightblue" points="335.5,-46.4 339,-56.4 342.5,-46.4 335.5,-46.4"/>
</g>
</g>
</svg>
