<?xml version="1.0" encoding="UTF-8" standalone="no"?>
<!DOCTYPE svg PUBLIC "-//W3C//DTD SVG 1.1//EN"
 "http://www.w3.org/Graphics/SVG/1.1/DTD/svg11.dtd">
<!-- Generated by graphviz version 2.43.0 (0)
 -->
<!-- Title: include/a/cksum/blake2s.h Pages: 1 -->
<svg width="2290pt" height="274pt"
 viewBox="0.00 0.00 2290.00 274.00" xmlns="http://www.w3.org/2000/svg" xmlns:xlink="http://www.w3.org/1999/xlink">
<g id="graph0" class="graph" transform="scale(1 1) rotate(0) translate(4 270)">
<title>include/a/cksum/blake2s.h</title>
<polygon fill="white" stroke="transparent" points="-4,4 -4,-270 2286,-270 2286,4 -4,4"/>
<!-- Node1 -->
<g id="node1" class="node">
<title>Node1</title>
<g id="a_node1"><a xlink:title="RFC 7693 compliant BLAKE implementation.">
<polygon fill="#bfbfbf" stroke="black" points="500.5,-246.5 500.5,-265.5 646.5,-265.5 646.5,-246.5 500.5,-246.5"/>
<text text-anchor="middle" x="573.5" y="-253.5" font-family="Helvetica,sans-Serif" font-size="10.00">include/a/cksum/blake2s.h</text>
</a>
</g>
</g>
<!-- Node2 -->
<g id="node2" class="node">
<title>Node2</title>
<g id="a_node2"><a xlink:href="hash_8h.html" target="_top" xlink:title="hash library">
<polygon fill="white" stroke="black" points="1024,-190.5 1024,-209.5 1155,-209.5 1155,-190.5 1024,-190.5"/>
<text text-anchor="middle" x="1089.5" y="-197.5" font-family="Helvetica,sans-Serif" font-size="10.00">include/a/cksum/hash.h</text>
</a>
</g>
</g>
<!-- Node1&#45;&gt;Node2 -->
<g id="edge1" class="edge">
<title>Node1&#45;&gt;Node2</title>
<path fill="none" stroke="midnightblue" d="M656.58,-246.31C758.75,-235.61 930.09,-217.68 1023.65,-207.89"/>
<polygon fill="midnightblue" stroke="midnightblue" points="656.19,-242.83 646.61,-247.35 656.92,-249.79 656.19,-242.83"/>
</g>
<!-- Node10 -->
<g id="node10" class="node">
<title>Node10</title>
<g id="a_node10"><a xlink:href="blake2s_8c.html" target="_top" xlink:title="RFC 7693 compliant BLAKE implementation.">
<polygon fill="white" stroke="black" points="0,-129 0,-148 115,-148 115,-129 0,-129"/>
<text text-anchor="middle" x="57.5" y="-136" font-family="Helvetica,sans-Serif" font-size="10.00">src/cksum/blake2s.c</text>
</a>
</g>
</g>
<!-- Node1&#45;&gt;Node10 -->
<g id="edge24" class="edge">
<title>Node1&#45;&gt;Node10</title>
<path fill="none" stroke="midnightblue" d="M525.12,-244.17C423.18,-221.35 188.13,-168.74 95.76,-148.06"/>
<polygon fill="midnightblue" stroke="midnightblue" points="524.61,-247.64 535.14,-246.41 526.14,-240.81 524.61,-247.64"/>
</g>
<!-- Node3 -->
<g id="node3" class="node">
<title>Node3</title>
<g id="a_node3"><a xlink:href="hash__util_8h.html" target="_top" xlink:title="hash library utils">
<polygon fill="white" stroke="black" points="133.5,-123.5 133.5,-153.5 255.5,-153.5 255.5,-123.5 133.5,-123.5"/>
<text text-anchor="start" x="141.5" y="-141.5" font-family="Helvetica,sans-Serif" font-size="10.00">include/a/cksum/hash</text>
<text text-anchor="middle" x="194.5" y="-130.5" font-family="Helvetica,sans-Serif" font-size="10.00">_util.h</text>
</a>
</g>
</g>
<!-- Node2&#45;&gt;Node3 -->
<g id="edge2" class="edge">
<title>Node2&#45;&gt;Node3</title>
<path fill="none" stroke="midnightblue" d="M1013.61,-198.57C867.97,-196.93 539.39,-189.25 265.5,-154 262.26,-153.58 258.94,-153.1 255.6,-152.57"/>
<polygon fill="midnightblue" stroke="midnightblue" points="1013.74,-202.07 1023.78,-198.68 1013.82,-195.07 1013.74,-202.07"/>
</g>
<!-- Node5 -->
<g id="node5" class="node">
<title>Node5</title>
<g id="a_node5"><a xlink:href="hmac_8h.html" target="_top" xlink:title="RFC 2104 compliant HMAC implementation.">
<polygon fill="white" stroke="black" points="274,-129 274,-148 409,-148 409,-129 274,-129"/>
<text text-anchor="middle" x="341.5" y="-136" font-family="Helvetica,sans-Serif" font-size="10.00">include/a/cksum/hmac.h</text>
</a>
</g>
</g>
<!-- Node2&#45;&gt;Node5 -->
<g id="edge4" class="edge">
<title>Node2&#45;&gt;Node5</title>
<path fill="none" stroke="midnightblue" d="M1013.32,-196.85C888.57,-192.66 633.11,-181.3 418.5,-154 406.49,-152.47 393.52,-150.25 381.72,-148.01"/>
<polygon fill="midnightblue" stroke="midnightblue" points="1013.42,-200.35 1023.53,-197.18 1013.65,-193.36 1013.42,-200.35"/>
</g>
<!-- Node9 -->
<g id="node9" class="node">
<title>Node9</title>
<g id="a_node9"><a xlink:href="blake2b_8c.html" target="_top" xlink:title="RFC 7693 compliant BLAKE implementation.">
<polygon fill="white" stroke="black" points="427.5,-129 427.5,-148 543.5,-148 543.5,-129 427.5,-129"/>
<text text-anchor="middle" x="485.5" y="-136" font-family="Helvetica,sans-Serif" font-size="10.00">src/cksum/blake2b.c</text>
</a>
</g>
</g>
<!-- Node2&#45;&gt;Node9 -->
<g id="edge8" class="edge">
<title>Node2&#45;&gt;Node9</title>
<path fill="none" stroke="midnightblue" d="M1013.48,-195.65C909.28,-190.36 716.43,-178.11 553.5,-154 542.99,-152.44 531.67,-150.25 521.34,-148.03"/>
<polygon fill="midnightblue" stroke="midnightblue" points="1013.43,-199.15 1023.59,-196.15 1013.78,-192.16 1013.43,-199.15"/>
</g>
<!-- Node2&#45;&gt;Node10 -->
<g id="edge9" class="edge">
<title>Node2&#45;&gt;Node10</title>
<path fill="none" stroke="midnightblue" d="M1013.51,-199.74C850.1,-200.4 453.42,-196.96 124.5,-154 113.76,-152.6 102.19,-150.36 91.74,-148.06"/>
<polygon fill="midnightblue" stroke="midnightblue" points="1013.95,-203.24 1023.93,-199.69 1013.92,-196.24 1013.95,-203.24"/>
</g>
<!-- Node11 -->
<g id="node11" class="node">
<title>Node11</title>
<g id="a_node11"><a xlink:href="hash_8c.html" target="_top" xlink:title="hash library">
<polygon fill="white" stroke="black" points="562,-129 562,-148 663,-148 663,-129 562,-129"/>
<text text-anchor="middle" x="612.5" y="-136" font-family="Helvetica,sans-Serif" font-size="10.00">src/cksum/hash.c</text>
</a>
</g>
</g>
<!-- Node2&#45;&gt;Node11 -->
<g id="edge10" class="edge">
<title>Node2&#45;&gt;Node11</title>
<path fill="none" stroke="midnightblue" d="M1013.56,-193.78C929.67,-187.32 790.78,-174.58 672.5,-154 663.31,-152.4 653.44,-150.21 644.41,-148.02"/>
<polygon fill="midnightblue" stroke="midnightblue" points="1013.53,-197.29 1023.77,-194.55 1014.06,-190.31 1013.53,-197.29"/>
</g>
<!-- Node12 -->
<g id="node12" class="node">
<title>Node12</title>
<g id="a_node12"><a xlink:href="md2_8c.html" target="_top" xlink:title="RFC 1319 compliant MD2 implementation.">
<polygon fill="white" stroke="black" points="681,-129 681,-148 780,-148 780,-129 681,-129"/>
<text text-anchor="middle" x="730.5" y="-136" font-family="Helvetica,sans-Serif" font-size="10.00">src/cksum/md2.c</text>
</a>
</g>
</g>
<!-- Node2&#45;&gt;Node12 -->
<g id="edge11" class="edge">
<title>Node2&#45;&gt;Node12</title>
<path fill="none" stroke="midnightblue" d="M1013.66,-189.59C952.81,-181.57 865.33,-168.97 789.5,-154 780.81,-152.28 771.47,-150.13 762.84,-148.02"/>
<polygon fill="midnightblue" stroke="midnightblue" points="1013.58,-193.11 1023.95,-190.94 1014.49,-186.17 1013.58,-193.11"/>
</g>
<!-- Node13 -->
<g id="node13" class="node">
<title>Node13</title>
<g id="a_node13"><a xlink:href="md4_8c.html" target="_top" xlink:title="RFC 1320 compliant MD4 implementation.">
<polygon fill="white" stroke="black" points="798,-129 798,-148 897,-148 897,-129 798,-129"/>
<text text-anchor="middle" x="847.5" y="-136" font-family="Helvetica,sans-Serif" font-size="10.00">src/cksum/md4.c</text>
</a>
</g>
</g>
<!-- Node2&#45;&gt;Node13 -->
<g id="edge12" class="edge">
<title>Node2&#45;&gt;Node13</title>
<path fill="none" stroke="midnightblue" d="M1044.93,-188.04C997.95,-176.49 924.94,-158.54 882.11,-148.01"/>
<polygon fill="midnightblue" stroke="midnightblue" points="1044.28,-191.49 1054.83,-190.48 1045.95,-184.69 1044.28,-191.49"/>
</g>
<!-- Node14 -->
<g id="node14" class="node">
<title>Node14</title>
<g id="a_node14"><a xlink:href="md5_8c.html" target="_top" xlink:title="RFC 1321 compliant MD5 implementation.">
<polygon fill="white" stroke="black" points="915,-129 915,-148 1014,-148 1014,-129 915,-129"/>
<text text-anchor="middle" x="964.5" y="-136" font-family="Helvetica,sans-Serif" font-size="10.00">src/cksum/md5.c</text>
</a>
</g>
</g>
<!-- Node2&#45;&gt;Node14 -->
<g id="edge13" class="edge">
<title>Node2&#45;&gt;Node14</title>
<path fill="none" stroke="midnightblue" d="M1062.56,-186.17C1038.3,-174.63 1003.34,-157.99 982.38,-148.01"/>
<polygon fill="midnightblue" stroke="midnightblue" points="1061.06,-189.34 1071.59,-190.48 1064.07,-183.02 1061.06,-189.34"/>
</g>
<!-- Node15 -->
<g id="node15" class="node">
<title>Node15</title>
<g id="a_node15"><a xlink:href="rmd128_8c.html" target="_top" xlink:title="ripemd implementation">
<polygon fill="white" stroke="black" points="1032,-129 1032,-148 1147,-148 1147,-129 1032,-129"/>
<text text-anchor="middle" x="1089.5" y="-136" font-family="Helvetica,sans-Serif" font-size="10.00">src/cksum/rmd128.c</text>
</a>
</g>
</g>
<!-- Node2&#45;&gt;Node15 -->
<g id="edge14" class="edge">
<title>Node2&#45;&gt;Node15</title>
<path fill="none" stroke="midnightblue" d="M1089.5,-180.32C1089.5,-169.5 1089.5,-156.4 1089.5,-148.01"/>
<polygon fill="midnightblue" stroke="midnightblue" points="1086,-180.48 1089.5,-190.48 1093,-180.48 1086,-180.48"/>
</g>
<!-- Node16 -->
<g id="node16" class="node">
<title>Node16</title>
<g id="a_node16"><a xlink:href="rmd160_8c.html" target="_top" xlink:title="ripemd implementation">
<polygon fill="white" stroke="black" points="1165,-129 1165,-148 1280,-148 1280,-129 1165,-129"/>
<text text-anchor="middle" x="1222.5" y="-136" font-family="Helvetica,sans-Serif" font-size="10.00">src/cksum/rmd160.c</text>
</a>
</g>
</g>
<!-- Node2&#45;&gt;Node16 -->
<g id="edge15" class="edge">
<title>Node2&#45;&gt;Node16</title>
<path fill="none" stroke="midnightblue" d="M1117.83,-186.33C1143.65,-174.78 1181.08,-158.03 1203.48,-148.01"/>
<polygon fill="midnightblue" stroke="midnightblue" points="1116.25,-183.2 1108.56,-190.48 1119.11,-189.59 1116.25,-183.2"/>
</g>
<!-- Node17 -->
<g id="node17" class="node">
<title>Node17</title>
<g id="a_node17"><a xlink:href="rmd256_8c.html" target="_top" xlink:title="ripemd implementation">
<polygon fill="white" stroke="black" points="1298,-129 1298,-148 1413,-148 1413,-129 1298,-129"/>
<text text-anchor="middle" x="1355.5" y="-136" font-family="Helvetica,sans-Serif" font-size="10.00">src/cksum/rmd256.c</text>
</a>
</g>
</g>
<!-- Node2&#45;&gt;Node17 -->
<g id="edge16" class="edge">
<title>Node2&#45;&gt;Node17</title>
<path fill="none" stroke="midnightblue" d="M1137.52,-188.26C1189.12,-176.72 1270.09,-158.61 1317.46,-148.01"/>
<polygon fill="midnightblue" stroke="midnightblue" points="1136.61,-184.88 1127.61,-190.48 1138.13,-191.71 1136.61,-184.88"/>
</g>
<!-- Node18 -->
<g id="node18" class="node">
<title>Node18</title>
<g id="a_node18"><a xlink:href="rmd320_8c.html" target="_top" xlink:title="ripemd implementation">
<polygon fill="white" stroke="black" points="1431,-129 1431,-148 1546,-148 1546,-129 1431,-129"/>
<text text-anchor="middle" x="1488.5" y="-136" font-family="Helvetica,sans-Serif" font-size="10.00">src/cksum/rmd320.c</text>
</a>
</g>
</g>
<!-- Node2&#45;&gt;Node18 -->
<g id="edge17" class="edge">
<title>Node2&#45;&gt;Node18</title>
<path fill="none" stroke="midnightblue" d="M1165.29,-190.55C1232.96,-182.58 1334.67,-169.56 1422.5,-154 1432.2,-152.28 1442.65,-150.13 1452.3,-148.01"/>
<polygon fill="midnightblue" stroke="midnightblue" points="1164.67,-187.1 1155.14,-191.74 1165.48,-194.05 1164.67,-187.1"/>
</g>
<!-- Node19 -->
<g id="node19" class="node">
<title>Node19</title>
<g id="a_node19"><a xlink:href="sha1_8c.html" target="_top" xlink:title="RFC 3174 compliant SHA1 implementation.">
<polygon fill="white" stroke="black" points="1564,-129 1564,-148 1665,-148 1665,-129 1564,-129"/>
<text text-anchor="middle" x="1614.5" y="-136" font-family="Helvetica,sans-Serif" font-size="10.00">src/cksum/sha1.c</text>
</a>
</g>
</g>
<!-- Node2&#45;&gt;Node19 -->
<g id="edge18" class="edge">
<title>Node2&#45;&gt;Node19</title>
<path fill="none" stroke="midnightblue" d="M1165.23,-195.06C1257.8,-189.48 1418.99,-177.24 1555.5,-154 1564.65,-152.44 1574.48,-150.24 1583.44,-148.03"/>
<polygon fill="midnightblue" stroke="midnightblue" points="1164.88,-191.58 1155.11,-195.66 1165.3,-198.57 1164.88,-191.58"/>
</g>
<!-- Node20 -->
<g id="node20" class="node">
<title>Node20</title>
<g id="a_node20"><a xlink:href="sha256_8c.html" target="_top" xlink:title="RFC 5754 compliant SHA2 implementation.">
<polygon fill="white" stroke="black" points="1683,-129 1683,-148 1796,-148 1796,-129 1683,-129"/>
<text text-anchor="middle" x="1739.5" y="-136" font-family="Helvetica,sans-Serif" font-size="10.00">src/cksum/sha256.c</text>
</a>
</g>
</g>
<!-- Node2&#45;&gt;Node20 -->
<g id="edge19" class="edge">
<title>Node2&#45;&gt;Node20</title>
<path fill="none" stroke="midnightblue" d="M1165.38,-196.62C1277.31,-192.33 1493.03,-181.08 1674.5,-154 1684.68,-152.48 1695.63,-150.27 1705.6,-148.02"/>
<polygon fill="midnightblue" stroke="midnightblue" points="1165.07,-193.13 1155.2,-197 1165.33,-200.12 1165.07,-193.13"/>
</g>
<!-- Node21 -->
<g id="node21" class="node">
<title>Node21</title>
<g id="a_node21"><a xlink:href="sha3_8c.html" target="_top" xlink:title="SHA3 implementation.">
<polygon fill="white" stroke="black" points="1814,-129 1814,-148 1915,-148 1915,-129 1814,-129"/>
<text text-anchor="middle" x="1864.5" y="-136" font-family="Helvetica,sans-Serif" font-size="10.00">src/cksum/sha3.c</text>
</a>
</g>
</g>
<!-- Node2&#45;&gt;Node21 -->
<g id="edge20" class="edge">
<title>Node2&#45;&gt;Node21</title>
<path fill="none" stroke="midnightblue" d="M1165.41,-198.66C1296.66,-197.08 1574.15,-189.41 1805.5,-154 1814.88,-152.56 1824.96,-150.35 1834.09,-148.07"/>
<polygon fill="midnightblue" stroke="midnightblue" points="1165.03,-195.16 1155.07,-198.77 1165.11,-202.16 1165.03,-195.16"/>
</g>
<!-- Node22 -->
<g id="node22" class="node">
<title>Node22</title>
<g id="a_node22"><a xlink:href="sha512_8c.html" target="_top" xlink:title="RFC 5754 compliant SHA2 implementation.">
<polygon fill="white" stroke="black" points="1933,-129 1933,-148 2046,-148 2046,-129 1933,-129"/>
<text text-anchor="middle" x="1989.5" y="-136" font-family="Helvetica,sans-Serif" font-size="10.00">src/cksum/sha512.c</text>
</a>
</g>
</g>
<!-- Node2&#45;&gt;Node22 -->
<g id="edge21" class="edge">
<title>Node2&#45;&gt;Node22</title>
<path fill="none" stroke="midnightblue" d="M1165.34,-199.1C1312.47,-198.38 1646.58,-192.22 1924.5,-154 1934.92,-152.57 1946.15,-150.32 1956.29,-148.02"/>
<polygon fill="midnightblue" stroke="midnightblue" points="1165.06,-195.6 1155.08,-199.15 1165.09,-202.6 1165.06,-195.6"/>
</g>
<!-- Node23 -->
<g id="node23" class="node">
<title>Node23</title>
<g id="a_node23"><a xlink:href="tiger_8c.html" target="_top" xlink:title="TIGER implementation.">
<polygon fill="white" stroke="black" points="2064,-129 2064,-148 2163,-148 2163,-129 2064,-129"/>
<text text-anchor="middle" x="2113.5" y="-136" font-family="Helvetica,sans-Serif" font-size="10.00">src/cksum/tiger.c</text>
</a>
</g>
</g>
<!-- Node2&#45;&gt;Node23 -->
<g id="edge22" class="edge">
<title>Node2&#45;&gt;Node23</title>
<path fill="none" stroke="midnightblue" d="M1165.54,-197.41C1362.22,-192.97 1884.25,-179.14 2055.5,-154 2064.95,-152.61 2075.1,-150.35 2084.22,-148.02"/>
<polygon fill="midnightblue" stroke="midnightblue" points="1165.22,-193.91 1155.3,-197.64 1165.38,-200.91 1165.22,-193.91"/>
</g>
<!-- Node24 -->
<g id="node24" class="node">
<title>Node24</title>
<g id="a_node24"><a xlink:href="whirl_8c.html" target="_top" xlink:title="whirlpool implementation">
<polygon fill="white" stroke="black" points="2181,-129 2181,-148 2282,-148 2282,-129 2181,-129"/>
<text text-anchor="middle" x="2231.5" y="-136" font-family="Helvetica,sans-Serif" font-size="10.00">src/cksum/whirl.c</text>
</a>
</g>
</g>
<!-- Node2&#45;&gt;Node24 -->
<g id="edge23" class="edge">
<title>Node2&#45;&gt;Node24</title>
<path fill="none" stroke="midnightblue" d="M1165.31,-197.82C1378.03,-194.18 1977.62,-181.71 2172.5,-154 2182.11,-152.63 2192.43,-150.38 2201.71,-148.05"/>
<polygon fill="midnightblue" stroke="midnightblue" points="1165.12,-194.32 1155.18,-197.99 1165.24,-201.32 1165.12,-194.32"/>
</g>
<!-- Node4 -->
<g id="node4" class="node">
<title>Node4</title>
<g id="a_node4"><a xlink:href="hash__util_8c.html" target="_top" xlink:title="hash library utils">
<polygon fill="white" stroke="black" points="133.5,-62 133.5,-81 255.5,-81 255.5,-62 133.5,-62"/>
<text text-anchor="middle" x="194.5" y="-69" font-family="Helvetica,sans-Serif" font-size="10.00">src/cksum/hash_util.c</text>
</a>
</g>
</g>
<!-- Node3&#45;&gt;Node4 -->
<g id="edge3" class="edge">
<title>Node3&#45;&gt;Node4</title>
<path fill="none" stroke="midnightblue" d="M194.5,-113.25C194.5,-102.02 194.5,-89.38 194.5,-81.19"/>
<polygon fill="midnightblue" stroke="midnightblue" points="191,-113.4 194.5,-123.4 198,-113.4 191,-113.4"/>
</g>
<!-- Node6 -->
<g id="node6" class="node">
<title>Node6</title>
<g id="a_node6"><a xlink:href="hmac__util_8h.html" target="_top" xlink:title="hmac library utils">
<polygon fill="white" stroke="black" points="275.5,-56.5 275.5,-86.5 401.5,-86.5 401.5,-56.5 275.5,-56.5"/>
<text text-anchor="start" x="283.5" y="-74.5" font-family="Helvetica,sans-Serif" font-size="10.00">include/a/cksum/hmac</text>
<text text-anchor="middle" x="338.5" y="-63.5" font-family="Helvetica,sans-Serif" font-size="10.00">_util.h</text>
</a>
</g>
</g>
<!-- Node5&#45;&gt;Node6 -->
<g id="edge5" class="edge">
<title>Node5&#45;&gt;Node6</title>
<path fill="none" stroke="midnightblue" d="M340.63,-118.74C340.16,-108.49 339.58,-96 339.15,-86.59"/>
<polygon fill="midnightblue" stroke="midnightblue" points="337.14,-118.91 341.1,-128.73 344.13,-118.58 337.14,-118.91"/>
</g>
<!-- Node8 -->
<g id="node8" class="node">
<title>Node8</title>
<g id="a_node8"><a xlink:href="hmac_8c.html" target="_top" xlink:title="RFC 2104 compliant HMAC implementation.">
<polygon fill="white" stroke="black" points="419.5,-62 419.5,-81 523.5,-81 523.5,-62 419.5,-62"/>
<text text-anchor="middle" x="471.5" y="-69" font-family="Helvetica,sans-Serif" font-size="10.00">src/cksum/hmac.c</text>
</a>
</g>
</g>
<!-- Node5&#45;&gt;Node8 -->
<g id="edge7" class="edge">
<title>Node5&#45;&gt;Node8</title>
<path fill="none" stroke="midnightblue" d="M367.95,-124.27C393.7,-111.4 432.08,-92.21 454.17,-81.17"/>
<polygon fill="midnightblue" stroke="midnightblue" points="366.14,-121.27 358.76,-128.87 369.27,-127.53 366.14,-121.27"/>
</g>
<!-- Node7 -->
<g id="node7" class="node">
<title>Node7</title>
<g id="a_node7"><a xlink:href="hmac__util_8c.html" target="_top" xlink:title="hmac library utils">
<polygon fill="white" stroke="black" points="276,-0.5 276,-19.5 401,-19.5 401,-0.5 276,-0.5"/>
<text text-anchor="middle" x="338.5" y="-7.5" font-family="Helvetica,sans-Serif" font-size="10.00">src/cksum/hmac_util.c</text>
</a>
</g>
</g>
<!-- Node6&#45;&gt;Node7 -->
<g id="edge6" class="edge">
<title>Node6&#45;&gt;Node7</title>
<path fill="none" stroke="midnightblue" d="M338.5,-46.29C338.5,-36.86 338.5,-26.65 338.5,-19.66"/>
<polygon fill="midnightblue" stroke="midnightblue" points="335,-46.4 338.5,-56.4 342,-46.4 335,-46.4"/>
</g>
</g>
</svg>
