<?xml version="1.0" encoding="UTF-8" standalone="no"?>
<!DOCTYPE svg PUBLIC "-//W3C//DTD SVG 1.1//EN"
 "http://www.w3.org/Graphics/SVG/1.1/DTD/svg11.dtd">
<!-- Generated by graphviz version 2.43.0 (0)
 -->
<!-- Title: include/a/def.hpp Pages: 1 -->
<svg width="314pt" height="140pt"
 viewBox="0.00 0.00 314.00 140.00" xmlns="http://www.w3.org/2000/svg" xmlns:xlink="http://www.w3.org/1999/xlink">
<g id="graph0" class="graph" transform="scale(1 1) rotate(0) translate(4 136)">
<title>include/a/def.hpp</title>
<polygon fill="white" stroke="transparent" points="-4,4 -4,-136 310,-136 310,4 -4,4"/>
<!-- Node1 -->
<g id="node1" class="node">
<title>Node1</title>
<g id="a_node1"><a xlink:title="algorithm library definition">
<polygon fill="#bfbfbf" stroke="black" points="112,-112.5 112,-131.5 212,-131.5 212,-112.5 112,-112.5"/>
<text text-anchor="middle" x="162" y="-119.5" font-family="Helvetica,sans-Serif" font-size="10.00">include/a/def.hpp</text>
</a>
</g>
</g>
<!-- Node2 -->
<g id="node2" class="node">
<title>Node2</title>
<g id="a_node2"><a xlink:href="dev_8hpp.html" target="_top" xlink:title="algorithm library development">
<polygon fill="white" stroke="black" points="0,-56.5 0,-75.5 102,-75.5 102,-56.5 0,-56.5"/>
<text text-anchor="middle" x="51" y="-63.5" font-family="Helvetica,sans-Serif" font-size="10.00">include/a/dev.hpp</text>
</a>
</g>
</g>
<!-- Node1&#45;&gt;Node2 -->
<g id="edge1" class="edge">
<title>Node1&#45;&gt;Node2</title>
<path fill="none" stroke="midnightblue" d="M134.99,-107.86C114.41,-97.85 86.66,-84.35 68.79,-75.65"/>
<polygon fill="midnightblue" stroke="midnightblue" points="133.64,-111.1 144.17,-112.32 136.7,-104.8 133.64,-111.1"/>
</g>
<!-- Node4 -->
<g id="node4" class="node">
<title>Node4</title>
<g id="a_node4"><a xlink:href="config_8cpp.html" target="_top" xlink:title="algorithm library configuration">
<polygon fill="white" stroke="black" points="120.5,-56.5 120.5,-75.5 203.5,-75.5 203.5,-56.5 120.5,-56.5"/>
<text text-anchor="middle" x="162" y="-63.5" font-family="Helvetica,sans-Serif" font-size="10.00">src/config.cpp</text>
</a>
</g>
</g>
<!-- Node1&#45;&gt;Node4 -->
<g id="edge3" class="edge">
<title>Node1&#45;&gt;Node4</title>
<path fill="none" stroke="midnightblue" d="M162,-101.8C162,-92.91 162,-82.78 162,-75.75"/>
<polygon fill="midnightblue" stroke="midnightblue" points="158.5,-102.08 162,-112.08 165.5,-102.08 158.5,-102.08"/>
</g>
<!-- Node5 -->
<g id="node5" class="node">
<title>Node5</title>
<g id="a_node5"><a xlink:href="config_8hpp.html" target="_top" xlink:title="algorithm library configuration">
<polygon fill="white" stroke="black" points="222,-56.5 222,-75.5 306,-75.5 306,-56.5 222,-56.5"/>
<text text-anchor="middle" x="264" y="-63.5" font-family="Helvetica,sans-Serif" font-size="10.00">src/config.hpp</text>
</a>
</g>
</g>
<!-- Node1&#45;&gt;Node5 -->
<g id="edge4" class="edge">
<title>Node1&#45;&gt;Node5</title>
<path fill="none" stroke="midnightblue" d="M187.33,-107.59C206.19,-97.61 231.38,-84.27 247.65,-75.65"/>
<polygon fill="midnightblue" stroke="midnightblue" points="185.59,-104.55 178.39,-112.32 188.86,-110.74 185.59,-104.55"/>
</g>
<!-- Node3 -->
<g id="node3" class="node">
<title>Node3</title>
<g id="a_node3"><a xlink:href="dev_8cpp.html" target="_top" xlink:title="algorithm library development">
<polygon fill="white" stroke="black" points="15.5,-0.5 15.5,-19.5 86.5,-19.5 86.5,-0.5 15.5,-0.5"/>
<text text-anchor="middle" x="51" y="-7.5" font-family="Helvetica,sans-Serif" font-size="10.00">src/dev.cpp</text>
</a>
</g>
</g>
<!-- Node2&#45;&gt;Node3 -->
<g id="edge2" class="edge">
<title>Node2&#45;&gt;Node3</title>
<path fill="none" stroke="midnightblue" d="M51,-45.8C51,-36.91 51,-26.78 51,-19.75"/>
<polygon fill="midnightblue" stroke="midnightblue" points="47.5,-46.08 51,-56.08 54.5,-46.08 47.5,-46.08"/>
</g>
</g>
</svg>
