<?xml version="1.0" encoding="UTF-8" standalone="no"?>
<!DOCTYPE svg PUBLIC "-//W3C//DTD SVG 1.1//EN"
 "http://www.w3.org/Graphics/SVG/1.1/DTD/svg11.dtd">
<!-- Generated by graphviz version 2.43.0 (0)
 -->
<!-- Title: src/dev.cpp Pages: 1 -->
<svg width="130pt" height="196pt"
 viewBox="0.00 0.00 129.50 196.00" xmlns="http://www.w3.org/2000/svg" xmlns:xlink="http://www.w3.org/1999/xlink">
<g id="graph0" class="graph" transform="scale(1 1) rotate(0) translate(4 192)">
<title>src/dev.cpp</title>
<polygon fill="white" stroke="transparent" points="-4,4 -4,-192 125.5,-192 125.5,4 -4,4"/>
<!-- Node1 -->
<g id="node1" class="node">
<title>Node1</title>
<g id="a_node1"><a xlink:title="algorithm library development">
<polygon fill="#bfbfbf" stroke="black" points="26,-168.5 26,-187.5 97,-187.5 97,-168.5 26,-168.5"/>
<text text-anchor="middle" x="61.5" y="-175.5" font-family="Helvetica,sans-Serif" font-size="10.00">src/dev.cpp</text>
</a>
</g>
</g>
<!-- Node2 -->
<g id="node2" class="node">
<title>Node2</title>
<g id="a_node2"><a xlink:href="dev_8hpp.html" target="_top" xlink:title="algorithm library development">
<polygon fill="white" stroke="black" points="29.5,-112.5 29.5,-131.5 93.5,-131.5 93.5,-112.5 29.5,-112.5"/>
<text text-anchor="middle" x="61.5" y="-119.5" font-family="Helvetica,sans-Serif" font-size="10.00">a/dev.hpp</text>
</a>
</g>
</g>
<!-- Node1&#45;&gt;Node2 -->
<g id="edge1" class="edge">
<title>Node1&#45;&gt;Node2</title>
<path fill="none" stroke="midnightblue" d="M61.5,-168.08C61.5,-161.01 61.5,-150.86 61.5,-141.99"/>
<polygon fill="midnightblue" stroke="midnightblue" points="65,-141.75 61.5,-131.75 58,-141.75 65,-141.75"/>
</g>
<!-- Node3 -->
<g id="node3" class="node">
<title>Node3</title>
<g id="a_node3"><a xlink:href="def_8hpp.html" target="_top" xlink:title="algorithm library definition">
<polygon fill="white" stroke="black" points="35,-56.5 35,-75.5 88,-75.5 88,-56.5 35,-56.5"/>
<text text-anchor="middle" x="61.5" y="-63.5" font-family="Helvetica,sans-Serif" font-size="10.00">def.hpp</text>
</a>
</g>
</g>
<!-- Node2&#45;&gt;Node3 -->
<g id="edge2" class="edge">
<title>Node2&#45;&gt;Node3</title>
<path fill="none" stroke="midnightblue" d="M61.5,-112.08C61.5,-105.01 61.5,-94.86 61.5,-85.99"/>
<polygon fill="midnightblue" stroke="midnightblue" points="65,-85.75 61.5,-75.75 58,-85.75 65,-85.75"/>
</g>
<!-- Node4 -->
<g id="node4" class="node">
<title>Node4</title>
<g id="a_node4"><a xlink:title=" ">
<polygon fill="white" stroke="#bfbfbf" points="0,-0.5 0,-19.5 53,-19.5 53,-0.5 0,-0.5"/>
<text text-anchor="middle" x="26.5" y="-7.5" font-family="Helvetica,sans-Serif" font-size="10.00">cstddef</text>
</a>
</g>
</g>
<!-- Node3&#45;&gt;Node4 -->
<g id="edge3" class="edge">
<title>Node3&#45;&gt;Node4</title>
<path fill="none" stroke="midnightblue" d="M55.72,-56.08C50.83,-48.53 43.67,-37.49 37.67,-28.23"/>
<polygon fill="midnightblue" stroke="midnightblue" points="40.55,-26.24 32.17,-19.75 34.67,-30.05 40.55,-26.24"/>
</g>
<!-- Node5 -->
<g id="node5" class="node">
<title>Node5</title>
<g id="a_node5"><a xlink:title=" ">
<polygon fill="white" stroke="#bfbfbf" points="71.5,-0.5 71.5,-19.5 121.5,-19.5 121.5,-0.5 71.5,-0.5"/>
<text text-anchor="middle" x="96.5" y="-7.5" font-family="Helvetica,sans-Serif" font-size="10.00">cstdint</text>
</a>
</g>
</g>
<!-- Node3&#45;&gt;Node5 -->
<g id="edge4" class="edge">
<title>Node3&#45;&gt;Node5</title>
<path fill="none" stroke="midnightblue" d="M67.28,-56.08C72.17,-48.53 79.33,-37.49 85.33,-28.23"/>
<polygon fill="midnightblue" stroke="midnightblue" points="88.33,-30.05 90.83,-19.75 82.45,-26.24 88.33,-30.05"/>
</g>
</g>
</svg>
