<?xml version="1.0" encoding="UTF-8" standalone="no"?>
<!DOCTYPE svg PUBLIC "-//W3C//DTD SVG 1.1//EN"
 "http://www.w3.org/Graphics/SVG/1.1/DTD/svg11.dtd">
<!-- Generated by graphviz version 2.43.0 (0)
 -->
<!-- Title: include/a/controller Pages: 1 -->
<svg width="104pt" height="151pt"
 viewBox="0.00 0.00 104.00 151.00" xmlns="http://www.w3.org/2000/svg" xmlns:xlink="http://www.w3.org/1999/xlink">
<g id="graph0" class="graph" transform="scale(1 1) rotate(0) translate(4 147)">
<title>include/a/controller</title>
<polygon fill="white" stroke="transparent" points="-4,4 -4,-147 100,-147 100,4 -4,4"/>
<g id="clust1" class="cluster">
<title>clusterdir_755f0d2039dcbad844014f016ea14e59</title>
<g id="a_clust1"><a xlink:href="dir_755f0d2039dcbad844014f016ea14e59.html" target="_top" xlink:title="a">
<polygon fill="#ddddee" stroke="black" points="8,-64 8,-135 88,-135 88,-64 8,-64"/>
<text text-anchor="middle" x="48" y="-123" font-family="Helvetica,sans-Serif" font-size="10.00">a</text>
</a>
</g>
</g>
<!-- dir_367b10a9f3b1d26dc64aa130d46c81a2 -->
<g id="node1" class="node">
<title>dir_367b10a9f3b1d26dc64aa130d46c81a2</title>
<g id="a_node1"><a xlink:href="dir_367b10a9f3b1d26dc64aa130d46c81a2.html" target="_top" xlink:title="controller">
<polygon fill="#eeeeff" stroke="black" points="79.5,-108 16.5,-108 16.5,-72 79.5,-72 79.5,-108"/>
<text text-anchor="middle" x="48" y="-87.5" font-family="Helvetica,sans-Serif" font-size="10.00">controller</text>
</a>
</g>
</g>
<!-- dir_5528c71ef94cf94b2a74bf9b54d6e04b -->
<g id="node2" class="node">
<title>dir_5528c71ef94cf94b2a74bf9b54d6e04b</title>
<g id="a_node2"><a xlink:href="dir_5528c71ef94cf94b2a74bf9b54d6e04b.html" target="_top" xlink:title="misc">
<polygon fill="none" stroke="black" points="75,-36 21,-36 21,0 75,0 75,-36"/>
<text text-anchor="middle" x="48" y="-15.5" font-family="Helvetica,sans-Serif" font-size="10.00">misc</text>
</a>
</g>
</g>
<!-- dir_367b10a9f3b1d26dc64aa130d46c81a2&#45;&gt;dir_5528c71ef94cf94b2a74bf9b54d6e04b -->
<g id="edge1" class="edge">
<title>dir_367b10a9f3b1d26dc64aa130d46c81a2&#45;&gt;dir_5528c71ef94cf94b2a74bf9b54d6e04b</title>
<path fill="none" stroke="black" d="M48,-71.7C48,-63.98 48,-54.71 48,-46.11"/>
<polygon fill="black" stroke="black" points="51.5,-46.1 48,-36.1 44.5,-46.1 51.5,-46.1"/>
<g id="a_edge1&#45;headlabel"><a xlink:href="dir_000003_000005.html" target="_top" xlink:title="2">
<text text-anchor="middle" x="54.34" y="-47.2" font-family="Helvetica,sans-Serif" font-size="10.00">2</text>
</a>
</g>
</g>
</g>
</svg>
