<?xml version="1.0" encoding="UTF-8" standalone="no"?>
<!DOCTYPE svg PUBLIC "-//W3C//DTD SVG 1.1//EN"
 "http://www.w3.org/Graphics/SVG/1.1/DTD/svg11.dtd">
<!-- Generated by graphviz version 2.43.0 (0)
 -->
<!-- Title: include/a Pages: 1 -->
<svg width="408pt" height="183pt"
 viewBox="0.00 0.00 408.00 183.00" xmlns="http://www.w3.org/2000/svg" xmlns:xlink="http://www.w3.org/1999/xlink">
<g id="graph0" class="graph" transform="scale(1 1) rotate(0) translate(4 179)">
<title>include/a</title>
<polygon fill="white" stroke="transparent" points="-4,4 -4,-179 404,-179 404,4 -4,4"/>
<g id="clust1" class="cluster">
<title>clusterdir_d44c64559bbebec7f509842c48db8b23</title>
<g id="a_clust1"><a xlink:href="dir_d44c64559bbebec7f509842c48db8b23.html" target="_top" xlink:title="include">
<polygon fill="#ddddee" stroke="black" points="8,-8 8,-167 392,-167 392,-8 8,-8"/>
<text text-anchor="middle" x="200" y="-155" font-family="Helvetica,sans-Serif" font-size="10.00">include</text>
</a>
</g>
</g>
<g id="clust2" class="cluster">
<title>clusterdir_755f0d2039dcbad844014f016ea14e59</title>
<g id="a_clust2"><a xlink:href="dir_755f0d2039dcbad844014f016ea14e59.html" target="_top">
<polygon fill="#eeeeff" stroke="black" points="16,-16 16,-140 384,-140 384,-16 16,-16"/>
</a>
</g>
</g>
<!-- dir_755f0d2039dcbad844014f016ea14e59 -->
<g id="node1" class="node">
<title>dir_755f0d2039dcbad844014f016ea14e59</title>
<text text-anchor="middle" x="349" y="-111.5" font-family="Helvetica,sans-Serif" font-size="10.00">a</text>
</g>
<!-- dir_5528c71ef94cf94b2a74bf9b54d6e04b -->
<g id="node5" class="node">
<title>dir_5528c71ef94cf94b2a74bf9b54d6e04b</title>
<g id="a_node5"><a xlink:href="dir_5528c71ef94cf94b2a74bf9b54d6e04b.html" target="_top" xlink:title="misc">
<polygon fill="white" stroke="black" points="301,-60 247,-60 247,-24 301,-24 301,-60"/>
<text text-anchor="middle" x="274" y="-39.5" font-family="Helvetica,sans-Serif" font-size="10.00">misc</text>
</a>
</g>
</g>
<!-- dir_755f0d2039dcbad844014f016ea14e59&#45;&gt;dir_5528c71ef94cf94b2a74bf9b54d6e04b -->
<g id="edge2" class="edge">
<title>dir_755f0d2039dcbad844014f016ea14e59&#45;&gt;dir_5528c71ef94cf94b2a74bf9b54d6e04b</title>
<path fill="none" stroke="black" d="M330.46,-95.7C321.2,-87.05 309.84,-76.45 299.74,-67.03"/>
<polygon fill="black" stroke="black" points="302.02,-64.37 292.33,-60.1 297.25,-69.49 302.02,-64.37"/>
<g id="a_edge2&#45;headlabel"><a xlink:href="dir_000001_000005.html" target="_top" xlink:title="3">
<text text-anchor="middle" x="306.59" y="-62.25" font-family="Helvetica,sans-Serif" font-size="10.00">3</text>
</a>
</g>
</g>
<!-- dir_cc06d68b78bb5217ae58b97065219712 -->
<g id="node2" class="node">
<title>dir_cc06d68b78bb5217ae58b97065219712</title>
<g id="a_node2"><a xlink:href="dir_cc06d68b78bb5217ae58b97065219712.html" target="_top" xlink:title="cksum">
<polygon fill="white" stroke="black" points="304,-132 250,-132 250,-96 304,-96 304,-132"/>
<text text-anchor="middle" x="277" y="-111.5" font-family="Helvetica,sans-Serif" font-size="10.00">cksum</text>
</a>
</g>
</g>
<!-- dir_367b10a9f3b1d26dc64aa130d46c81a2 -->
<g id="node3" class="node">
<title>dir_367b10a9f3b1d26dc64aa130d46c81a2</title>
<g id="a_node3"><a xlink:href="dir_367b10a9f3b1d26dc64aa130d46c81a2.html" target="_top" xlink:title="controller">
<polygon fill="white" stroke="black" points="231.5,-132 168.5,-132 168.5,-96 231.5,-96 231.5,-132"/>
<text text-anchor="middle" x="200" y="-111.5" font-family="Helvetica,sans-Serif" font-size="10.00">controller</text>
</a>
</g>
</g>
<!-- dir_367b10a9f3b1d26dc64aa130d46c81a2&#45;&gt;dir_5528c71ef94cf94b2a74bf9b54d6e04b -->
<g id="edge1" class="edge">
<title>dir_367b10a9f3b1d26dc64aa130d46c81a2&#45;&gt;dir_5528c71ef94cf94b2a74bf9b54d6e04b</title>
<path fill="none" stroke="black" d="M218.29,-95.7C227.43,-87.05 238.64,-76.45 248.6,-67.03"/>
<polygon fill="black" stroke="black" points="251.06,-69.52 255.92,-60.1 246.25,-64.43 251.06,-69.52"/>
<g id="a_edge1&#45;headlabel"><a xlink:href="dir_000003_000005.html" target="_top" xlink:title="2">
<text text-anchor="middle" x="250.4" y="-71.55" font-family="Helvetica,sans-Serif" font-size="10.00">2</text>
</a>
</g>
</g>
<!-- dir_22a1abfdb476d6f78d38b531b7ade6c9 -->
<g id="node4" class="node">
<title>dir_22a1abfdb476d6f78d38b531b7ade6c9</title>
<g id="a_node4"><a xlink:href="dir_22a1abfdb476d6f78d38b531b7ade6c9.html" target="_top" xlink:title="filter">
<polygon fill="white" stroke="black" points="150,-132 96,-132 96,-96 150,-96 150,-132"/>
<text text-anchor="middle" x="123" y="-111.5" font-family="Helvetica,sans-Serif" font-size="10.00">filter</text>
</a>
</g>
</g>
<!-- dir_2133744d43ba1815d0dc8f64c7901fda -->
<g id="node6" class="node">
<title>dir_2133744d43ba1815d0dc8f64c7901fda</title>
<g id="a_node6"><a xlink:href="dir_2133744d43ba1815d0dc8f64c7901fda.html" target="_top" xlink:title="poly">
<polygon fill="white" stroke="black" points="78,-132 24,-132 24,-96 78,-96 78,-132"/>
<text text-anchor="middle" x="51" y="-111.5" font-family="Helvetica,sans-Serif" font-size="10.00">poly</text>
</a>
</g>
</g>
</g>
</svg>
