<?xml version="1.0" encoding="UTF-8" standalone="no"?>
<!DOCTYPE svg PUBLIC "-//W3C//DTD SVG 1.1//EN"
 "http://www.w3.org/Graphics/SVG/1.1/DTD/svg11.dtd">
<!-- Generated by graphviz version 2.43.0 (0)
 -->
<!-- Title: src Pages: 1 -->
<svg width="392pt" height="132pt"
 viewBox="0.00 0.00 392.00 132.00" xmlns="http://www.w3.org/2000/svg" xmlns:xlink="http://www.w3.org/1999/xlink">
<g id="graph0" class="graph" transform="scale(1 1) rotate(0) translate(4 128)">
<title>src</title>
<polygon fill="white" stroke="transparent" points="-4,4 -4,-128 388,-128 388,4 -4,4"/>
<g id="clust1" class="cluster">
<title>clusterdir_68267d1309a1af8e8297ef4c3efbcdba</title>
<g id="a_clust1"><a xlink:href="dir_68267d1309a1af8e8297ef4c3efbcdba.html" target="_top">
<polygon fill="#eeeeff" stroke="black" points="8,-64 8,-116 376,-116 376,-64 8,-64"/>
</a>
</g>
</g>
<!-- dir_68267d1309a1af8e8297ef4c3efbcdba -->
<g id="node1" class="node">
<title>dir_68267d1309a1af8e8297ef4c3efbcdba</title>
<text text-anchor="middle" x="341" y="-87.5" font-family="Helvetica,sans-Serif" font-size="10.00">src</text>
</g>
<!-- dir_dd8dfa87719d930b5a10fa0d6aeea2d3 -->
<g id="node2" class="node">
<title>dir_dd8dfa87719d930b5a10fa0d6aeea2d3</title>
<g id="a_node2"><a xlink:href="dir_dd8dfa87719d930b5a10fa0d6aeea2d3.html" target="_top" xlink:title="cksum">
<polygon fill="white" stroke="black" points="296,-108 242,-108 242,-72 296,-72 296,-108"/>
<text text-anchor="middle" x="269" y="-87.5" font-family="Helvetica,sans-Serif" font-size="10.00">cksum</text>
</a>
</g>
</g>
<!-- dir_d44c64559bbebec7f509842c48db8b23 -->
<g id="node6" class="node">
<title>dir_d44c64559bbebec7f509842c48db8b23</title>
<g id="a_node6"><a xlink:href="dir_d44c64559bbebec7f509842c48db8b23.html" target="_top" xlink:title="include">
<polygon fill="white" stroke="red" points="180,-36 126,-36 126,0 180,0 180,-36"/>
<text text-anchor="middle" x="153" y="-15.5" font-family="Helvetica,sans-Serif" font-size="10.00">include</text>
</a>
</g>
</g>
<!-- dir_dd8dfa87719d930b5a10fa0d6aeea2d3&#45;&gt;dir_d44c64559bbebec7f509842c48db8b23 -->
<g id="edge3" class="edge">
<title>dir_dd8dfa87719d930b5a10fa0d6aeea2d3&#45;&gt;dir_d44c64559bbebec7f509842c48db8b23</title>
<path fill="none" stroke="black" d="M244.81,-71.74C240.9,-69.08 236.87,-66.42 233,-64 218.82,-55.12 202.81,-45.95 188.87,-38.23"/>
<polygon fill="black" stroke="black" points="190.49,-35.12 180.04,-33.38 187.12,-41.26 190.49,-35.12"/>
<g id="a_edge3&#45;headlabel"><a xlink:href="dir_000008_000000.html" target="_top" xlink:title="35">
<text text-anchor="middle" x="195" y="-31.87" font-family="Helvetica,sans-Serif" font-size="10.00">35</text>
</a>
</g>
</g>
<!-- dir_41ef5d8a90b9cc03a02949a5c062e6f0 -->
<g id="node3" class="node">
<title>dir_41ef5d8a90b9cc03a02949a5c062e6f0</title>
<g id="a_node3"><a xlink:href="dir_41ef5d8a90b9cc03a02949a5c062e6f0.html" target="_top" xlink:title="controller">
<polygon fill="white" stroke="black" points="223.5,-108 160.5,-108 160.5,-72 223.5,-72 223.5,-108"/>
<text text-anchor="middle" x="192" y="-87.5" font-family="Helvetica,sans-Serif" font-size="10.00">controller</text>
</a>
</g>
</g>
<!-- dir_41ef5d8a90b9cc03a02949a5c062e6f0&#45;&gt;dir_d44c64559bbebec7f509842c48db8b23 -->
<g id="edge2" class="edge">
<title>dir_41ef5d8a90b9cc03a02949a5c062e6f0&#45;&gt;dir_d44c64559bbebec7f509842c48db8b23</title>
<path fill="none" stroke="black" d="M182.36,-71.7C177.87,-63.64 172.44,-53.89 167.48,-44.98"/>
<polygon fill="black" stroke="black" points="170.45,-43.14 162.53,-36.1 164.34,-46.54 170.45,-43.14"/>
<g id="a_edge2&#45;headlabel"><a xlink:href="dir_000009_000000.html" target="_top" xlink:title="4">
<text text-anchor="middle" x="174.68" y="-42.39" font-family="Helvetica,sans-Serif" font-size="10.00">4</text>
</a>
</g>
</g>
<!-- dir_88826aa2a10e1882b573f502bc7f4b55 -->
<g id="node4" class="node">
<title>dir_88826aa2a10e1882b573f502bc7f4b55</title>
<g id="a_node4"><a xlink:href="dir_88826aa2a10e1882b573f502bc7f4b55.html" target="_top" xlink:title="misc">
<polygon fill="white" stroke="black" points="142,-108 88,-108 88,-72 142,-72 142,-108"/>
<text text-anchor="middle" x="115" y="-87.5" font-family="Helvetica,sans-Serif" font-size="10.00">misc</text>
</a>
</g>
</g>
<!-- dir_88826aa2a10e1882b573f502bc7f4b55&#45;&gt;dir_d44c64559bbebec7f509842c48db8b23 -->
<g id="edge4" class="edge">
<title>dir_88826aa2a10e1882b573f502bc7f4b55&#45;&gt;dir_d44c64559bbebec7f509842c48db8b23</title>
<path fill="none" stroke="black" d="M124.39,-71.7C128.76,-63.64 134.06,-53.89 138.9,-44.98"/>
<polygon fill="black" stroke="black" points="142.02,-46.56 143.71,-36.1 135.87,-43.22 142.02,-46.56"/>
<g id="a_edge4&#45;headlabel"><a xlink:href="dir_000010_000000.html" target="_top" xlink:title="15">
<text text-anchor="middle" x="142.8" y="-48.58" font-family="Helvetica,sans-Serif" font-size="10.00">15</text>
</a>
</g>
</g>
<!-- dir_d0d2d394e86fce6a7356095f51b9fa38 -->
<g id="node5" class="node">
<title>dir_d0d2d394e86fce6a7356095f51b9fa38</title>
<g id="a_node5"><a xlink:href="dir_d0d2d394e86fce6a7356095f51b9fa38.html" target="_top" xlink:title="poly">
<polygon fill="white" stroke="black" points="70,-108 16,-108 16,-72 70,-72 70,-108"/>
<text text-anchor="middle" x="43" y="-87.5" font-family="Helvetica,sans-Serif" font-size="10.00">poly</text>
</a>
</g>
</g>
<!-- dir_d0d2d394e86fce6a7356095f51b9fa38&#45;&gt;dir_d44c64559bbebec7f509842c48db8b23 -->
<g id="edge1" class="edge">
<title>dir_d0d2d394e86fce6a7356095f51b9fa38&#45;&gt;dir_d44c64559bbebec7f509842c48db8b23</title>
<path fill="none" stroke="black" d="M67.26,-71.85C71.16,-69.19 75.17,-66.49 79,-64 91.27,-56.02 104.91,-47.6 117.11,-40.23"/>
<polygon fill="black" stroke="black" points="118.92,-43.22 125.69,-35.07 115.32,-37.22 118.92,-43.22"/>
<g id="a_edge1&#45;headlabel"><a xlink:href="dir_000011_000000.html" target="_top" xlink:title="3">
<text text-anchor="middle" x="117.31" y="-45.01" font-family="Helvetica,sans-Serif" font-size="10.00">3</text>
</a>
</g>
</g>
</g>
</svg>
