<?xml version="1.0" encoding="UTF-8" standalone="no"?>
<!DOCTYPE svg PUBLIC "-//W3C//DTD SVG 1.1//EN"
 "http://www.w3.org/Graphics/SVG/1.1/DTD/svg11.dtd">
<!-- Generated by graphviz version 2.43.0 (0)
 -->
<!-- Title: a_list_loop Pages: 1 -->
<svg width="199pt" height="257pt"
 viewBox="0.00 0.00 199.30 257.00" xmlns="http://www.w3.org/2000/svg" xmlns:xlink="http://www.w3.org/1999/xlink">
<g id="graph0" class="graph" transform="scale(1 1) rotate(0) translate(4 253)">
<title>a_list_loop</title>
<polygon fill="white" stroke="transparent" points="-4,4 -4,-253 195.3,-253 195.3,4 -4,4"/>
<!-- nodehead -->
<g id="node1" class="node">
<title>nodehead</title>
<polygon fill="none" stroke="black" points="68.65,-179.5 68.65,-248.5 122.65,-248.5 122.65,-179.5 68.65,-179.5"/>
<text text-anchor="middle" x="95.65" y="-233.3" font-family="Times,serif" font-size="14.00">prev</text>
<polyline fill="none" stroke="black" points="68.65,-225.5 122.65,-225.5 "/>
<text text-anchor="middle" x="95.65" y="-210.3" font-family="Times,serif" font-size="14.00">head</text>
<polyline fill="none" stroke="black" points="68.65,-202.5 122.65,-202.5 "/>
<text text-anchor="middle" x="95.65" y="-187.3" font-family="Times,serif" font-size="14.00">next</text>
</g>
<!-- nodetail -->
<g id="node2" class="node">
<title>nodetail</title>
<polygon fill="none" stroke="black" points="68.65,-0.5 68.65,-69.5 122.65,-69.5 122.65,-0.5 68.65,-0.5"/>
<text text-anchor="middle" x="95.65" y="-54.3" font-family="Times,serif" font-size="14.00">prev</text>
<polyline fill="none" stroke="black" points="68.65,-46.5 122.65,-46.5 "/>
<text text-anchor="middle" x="95.65" y="-31.3" font-family="Times,serif" font-size="14.00">tail</text>
<polyline fill="none" stroke="black" points="68.65,-23.5 122.65,-23.5 "/>
<text text-anchor="middle" x="95.65" y="-8.3" font-family="Times,serif" font-size="14.00">next</text>
</g>
<!-- nodehead&#45;&gt;nodetail -->
<g id="edge1" class="edge">
<title>nodehead:prev&#45;&gt;nodetail:addr</title>
<path fill="none" stroke="green" d="M67.65,-237C-18.62,-237 -21.99,-50.47 57.54,-35.9"/>
<polygon fill="green" stroke="green" points="58,-39.37 67.65,-35 57.38,-32.4 58,-39.37"/>
</g>
<!-- ... -->
<g id="node3" class="node">
<title>...</title>
<polygon fill="none" stroke="black" points="68.65,-106.5 68.65,-142.5 122.65,-142.5 122.65,-106.5 68.65,-106.5"/>
<text text-anchor="middle" x="95.65" y="-120.8" font-family="Times,serif" font-size="14.00">...</text>
</g>
<!-- nodehead&#45;&gt;... -->
<g id="edge3" class="edge">
<title>nodehead&#45;&gt;...</title>
<path fill="none" stroke="black" d="M95.65,-179.42C95.65,-170.61 95.65,-161.22 95.65,-152.78"/>
<polygon fill="black" stroke="black" points="99.15,-152.72 95.65,-142.72 92.15,-152.72 99.15,-152.72"/>
</g>
<!-- nodetail&#45;&gt;nodehead -->
<g id="edge2" class="edge">
<title>nodetail:next&#45;&gt;nodehead:addr</title>
<path fill="none" stroke="green" d="M123.65,-12C209.92,-12 213.29,-198.53 133.76,-213.1"/>
<polygon fill="green" stroke="green" points="133.3,-209.63 123.65,-214 133.92,-216.6 133.3,-209.63"/>
</g>
<!-- ...&#45;&gt;nodetail -->
<g id="edge4" class="edge">
<title>...&#45;&gt;nodetail</title>
<path fill="none" stroke="black" d="M95.65,-106.21C95.65,-98.53 95.65,-89.11 95.65,-79.69"/>
<polygon fill="black" stroke="black" points="99.15,-79.55 95.65,-69.55 92.15,-79.55 99.15,-79.55"/>
</g>
</g>
</svg>
