<?xml version="1.0" encoding="UTF-8" standalone="no"?>
<!DOCTYPE svg PUBLIC "-//W3C//DTD SVG 1.1//EN"
 "http://www.w3.org/Graphics/SVG/1.1/DTD/svg11.dtd">
<!-- Generated by graphviz version 2.43.0 (0)
 -->
<!-- Title: a_list_add_ Pages: 1 -->
<svg width="376pt" height="150pt"
 viewBox="0.00 0.00 376.00 150.00" xmlns="http://www.w3.org/2000/svg" xmlns:xlink="http://www.w3.org/1999/xlink">
<g id="graph0" class="graph" transform="scale(1 1) rotate(0) translate(4 146)">
<title>a_list_add_</title>
<polygon fill="white" stroke="transparent" points="-4,4 -4,-146 372,-146 372,4 -4,4"/>
<g id="clust1" class="cluster">
<title>cluster0</title>
<polygon fill="none" stroke="black" points="22,-81 22,-134 360,-134 360,-81 22,-81"/>
</g>
<g id="clust2" class="cluster">
<title>cluster1</title>
<polygon fill="none" stroke="black" points="8,-8 8,-61 346,-61 346,-8 8,-8"/>
</g>
<!-- head1 -->
<g id="node1" class="node">
<title>head1</title>
<polygon fill="none" stroke="black" points="194.5,-89.5 194.5,-125.5 351.5,-125.5 351.5,-89.5 194.5,-89.5"/>
<text text-anchor="middle" x="219" y="-103.8" font-family="Times,serif" font-size="14.00">prev</text>
<polyline fill="none" stroke="black" points="243.5,-89.5 243.5,-125.5 "/>
<text text-anchor="middle" x="273.5" y="-103.8" font-family="Times,serif" font-size="14.00">head1</text>
<polyline fill="none" stroke="black" points="303.5,-89.5 303.5,-125.5 "/>
<text text-anchor="middle" x="327.5" y="-103.8" font-family="Times,serif" font-size="14.00">next</text>
</g>
<!-- tail2 -->
<g id="node4" class="node">
<title>tail2</title>
<polygon fill="none" stroke="black" points="192,-16.5 192,-52.5 338,-52.5 338,-16.5 192,-16.5"/>
<text text-anchor="middle" x="216.5" y="-30.8" font-family="Times,serif" font-size="14.00">prev</text>
<polyline fill="none" stroke="black" points="241,-16.5 241,-52.5 "/>
<text text-anchor="middle" x="265.5" y="-30.8" font-family="Times,serif" font-size="14.00">tail2</text>
<polyline fill="none" stroke="black" points="290,-16.5 290,-52.5 "/>
<text text-anchor="middle" x="314" y="-30.8" font-family="Times,serif" font-size="14.00">next</text>
</g>
<!-- head1&#45;&gt;tail2 -->
<g id="edge4" class="edge">
<title>head1:prev&#45;&gt;tail2:addr</title>
<path fill="none" stroke="green" d="M219,-88.5C219,-66.73 251.84,-75.1 262.62,-63.22"/>
<polygon fill="green" stroke="green" points="266.02,-64.09 266,-53.5 259.41,-61.79 266.02,-64.09"/>
</g>
<!-- tail1 -->
<g id="node2" class="node">
<title>tail1</title>
<polygon fill="none" stroke="black" points="30,-89.5 30,-125.5 176,-125.5 176,-89.5 30,-89.5"/>
<text text-anchor="middle" x="54.5" y="-103.8" font-family="Times,serif" font-size="14.00">prev</text>
<polyline fill="none" stroke="black" points="79,-89.5 79,-125.5 "/>
<text text-anchor="middle" x="103.5" y="-103.8" font-family="Times,serif" font-size="14.00">tail1</text>
<polyline fill="none" stroke="black" points="128,-89.5 128,-125.5 "/>
<text text-anchor="middle" x="152" y="-103.8" font-family="Times,serif" font-size="14.00">next</text>
</g>
<!-- head2 -->
<g id="node3" class="node">
<title>head2</title>
<polygon fill="none" stroke="black" points="16.5,-16.5 16.5,-52.5 173.5,-52.5 173.5,-16.5 16.5,-16.5"/>
<text text-anchor="middle" x="41" y="-30.8" font-family="Times,serif" font-size="14.00">prev</text>
<polyline fill="none" stroke="black" points="65.5,-16.5 65.5,-52.5 "/>
<text text-anchor="middle" x="95.5" y="-30.8" font-family="Times,serif" font-size="14.00">head2</text>
<polyline fill="none" stroke="black" points="125.5,-16.5 125.5,-52.5 "/>
<text text-anchor="middle" x="149.5" y="-30.8" font-family="Times,serif" font-size="14.00">next</text>
</g>
<!-- tail1&#45;&gt;head2 -->
<g id="edge1" class="edge">
<title>tail1:next&#45;&gt;head2:addr</title>
<path fill="none" stroke="green" d="M152,-88.5C152,-63.51 111.39,-76.98 99.34,-63.41"/>
<polygon fill="green" stroke="green" points="102.51,-61.86 96,-53.5 95.87,-64.09 102.51,-61.86"/>
</g>
<!-- head2&#45;&gt;tail1 -->
<g id="edge2" class="edge">
<title>head2:prev&#45;&gt;tail1:addr</title>
<path fill="none" stroke="green" d="M41,-53.5C41,-81.28 88.38,-63.11 100.96,-78.68"/>
<polygon fill="green" stroke="green" points="97.7,-79.98 104,-88.5 104.39,-77.91 97.7,-79.98"/>
</g>
<!-- tail2&#45;&gt;head1 -->
<g id="edge3" class="edge">
<title>tail2:next&#45;&gt;head1:addr</title>
<path fill="none" stroke="green" d="M314,-53.5C314,-72.88 287.08,-68.12 277.41,-78.82"/>
<polygon fill="green" stroke="green" points="274.02,-77.91 274,-88.5 280.63,-80.23 274.02,-77.91"/>
</g>
</g>
</svg>
