<?xml version="1.0" encoding="UTF-8" standalone="no"?>
<!DOCTYPE svg PUBLIC "-//W3C//DTD SVG 1.1//EN"
 "http://www.w3.org/Graphics/SVG/1.1/DTD/svg11.dtd">
<!-- Generated by graphviz version 2.43.0 (0)
 -->
<!-- Title: a_list_link Pages: 1 -->
<svg width="169pt" height="257pt"
 viewBox="0.00 0.00 168.57 257.00" xmlns="http://www.w3.org/2000/svg" xmlns:xlink="http://www.w3.org/1999/xlink">
<g id="graph0" class="graph" transform="scale(1 1) rotate(0) translate(4 253)">
<title>a_list_link</title>
<polygon fill="white" stroke="transparent" points="-4,4 -4,-253 164.57,-253 164.57,4 -4,4"/>
<!-- nodehead -->
<g id="node1" class="node">
<title>nodehead</title>
<polygon fill="none" stroke="black" points="53.28,-179.5 53.28,-248.5 107.28,-248.5 107.28,-179.5 53.28,-179.5"/>
<text text-anchor="middle" x="80.28" y="-233.3" font-family="Times,serif" font-size="14.00">prev</text>
<polyline fill="none" stroke="black" points="53.28,-225.5 107.28,-225.5 "/>
<text text-anchor="middle" x="80.28" y="-210.3" font-family="Times,serif" font-size="14.00">head</text>
<polyline fill="none" stroke="black" points="53.28,-202.5 107.28,-202.5 "/>
<text text-anchor="middle" x="80.28" y="-187.3" font-family="Times,serif" font-size="14.00">next</text>
</g>
<!-- nodetail -->
<g id="node2" class="node">
<title>nodetail</title>
<polygon fill="none" stroke="black" points="53.28,-0.5 53.28,-69.5 107.28,-69.5 107.28,-0.5 53.28,-0.5"/>
<text text-anchor="middle" x="80.28" y="-54.3" font-family="Times,serif" font-size="14.00">prev</text>
<polyline fill="none" stroke="black" points="53.28,-46.5 107.28,-46.5 "/>
<text text-anchor="middle" x="80.28" y="-31.3" font-family="Times,serif" font-size="14.00">tail</text>
<polyline fill="none" stroke="black" points="53.28,-23.5 107.28,-23.5 "/>
<text text-anchor="middle" x="80.28" y="-8.3" font-family="Times,serif" font-size="14.00">next</text>
</g>
<!-- nodehead&#45;&gt;nodetail -->
<g id="edge1" class="edge">
<title>nodehead:next&#45;&gt;nodetail:addr</title>
<path fill="none" stroke="green" d="M52.28,-191C-13.53,-191 -16.87,-50.44 42.26,-36.17"/>
<polygon fill="green" stroke="green" points="42.75,-39.63 52.28,-35 41.95,-32.68 42.75,-39.63"/>
</g>
<!-- ... -->
<g id="node3" class="node">
<title>...</title>
<polygon fill="none" stroke="black" points="53.28,-106.5 53.28,-142.5 107.28,-142.5 107.28,-106.5 53.28,-106.5"/>
<text text-anchor="middle" x="80.28" y="-120.8" font-family="Times,serif" font-size="14.00">...</text>
</g>
<!-- nodehead&#45;&gt;... -->
<g id="edge3" class="edge">
<title>nodehead&#45;&gt;...</title>
<path fill="none" stroke="black" d="M80.28,-179.42C80.28,-170.61 80.28,-161.22 80.28,-152.78"/>
<polygon fill="black" stroke="black" points="83.78,-152.72 80.28,-142.72 76.78,-152.72 83.78,-152.72"/>
</g>
<!-- nodetail&#45;&gt;nodehead -->
<g id="edge2" class="edge">
<title>nodetail:prev&#45;&gt;nodehead:addr</title>
<path fill="none" stroke="green" d="M108.28,-58C174.1,-58 177.44,-198.56 118.31,-212.83"/>
<polygon fill="green" stroke="green" points="117.81,-209.37 108.28,-214 118.62,-216.32 117.81,-209.37"/>
</g>
<!-- ...&#45;&gt;nodetail -->
<g id="edge4" class="edge">
<title>...&#45;&gt;nodetail</title>
<path fill="none" stroke="black" d="M80.28,-106.21C80.28,-98.53 80.28,-89.11 80.28,-79.69"/>
<polygon fill="black" stroke="black" points="83.78,-79.55 80.28,-69.55 76.78,-79.55 83.78,-79.55"/>
</g>
</g>
</svg>
