<?xml version="1.0" encoding="UTF-8" standalone="no"?>
<!DOCTYPE svg PUBLIC "-//W3C//DTD SVG 1.1//EN"
 "http://www.w3.org/Graphics/SVG/1.1/DTD/svg11.dtd">
<!-- Generated by graphviz version 2.43.0 (0)
 -->
<!-- Title: a_list_del_ Pages: 1 -->
<svg width="204pt" height="337pt"
 viewBox="0.00 0.00 204.30 337.00" xmlns="http://www.w3.org/2000/svg" xmlns:xlink="http://www.w3.org/1999/xlink">
<g id="graph0" class="graph" transform="scale(1 1) rotate(0) translate(4 333)">
<title>a_list_del_</title>
<polygon fill="white" stroke="transparent" points="-4,4 -4,-333 200.3,-333 200.3,4 -4,4"/>
<!-- head -->
<g id="node1" class="node">
<title>head</title>
<polygon fill="none" stroke="black" points="8.14,-292.5 8.14,-328.5 193.14,-328.5 193.14,-292.5 8.14,-292.5"/>
<text text-anchor="middle" x="32.64" y="-306.8" font-family="Times,serif" font-size="14.00">prev</text>
<polyline fill="none" stroke="black" points="57.14,-292.5 57.14,-328.5 "/>
<text text-anchor="middle" x="101.14" y="-306.8" font-family="Times,serif" font-size="14.00">head&#45;prev</text>
<polyline fill="none" stroke="black" points="145.14,-292.5 145.14,-328.5 "/>
<text text-anchor="middle" x="169.14" y="-306.8" font-family="Times,serif" font-size="14.00">next</text>
</g>
<!-- tail -->
<g id="node2" class="node">
<title>tail</title>
<polygon fill="none" stroke="black" points="14.14,-0.5 14.14,-36.5 187.14,-36.5 187.14,-0.5 14.14,-0.5"/>
<text text-anchor="middle" x="38.64" y="-14.8" font-family="Times,serif" font-size="14.00">prev</text>
<polyline fill="none" stroke="black" points="63.14,-0.5 63.14,-36.5 "/>
<text text-anchor="middle" x="101.14" y="-14.8" font-family="Times,serif" font-size="14.00">tail&#45;next</text>
<polyline fill="none" stroke="black" points="139.14,-0.5 139.14,-36.5 "/>
<text text-anchor="middle" x="163.14" y="-14.8" font-family="Times,serif" font-size="14.00">next</text>
</g>
<!-- head&#45;&gt;tail -->
<g id="edge5" class="edge">
<title>head:next&#45;&gt;tail:addr</title>
<path fill="none" stroke="green" d="M169.64,-292C169.64,-274.83 180.47,-272.87 183.64,-256 192.93,-206.49 208.08,-117.56 178.64,-73 160.09,-44.93 113.5,-68.27 103.53,-47.02"/>
<polygon fill="green" stroke="green" points="106.94,-46.18 101.64,-37 100.06,-47.48 106.94,-46.18"/>
</g>
<!-- nodehead -->
<g id="node3" class="node">
<title>nodehead</title>
<polygon fill="none" stroke="black" points="26.64,-219.5 26.64,-255.5 174.64,-255.5 174.64,-219.5 26.64,-219.5"/>
<text text-anchor="middle" x="51.14" y="-233.8" font-family="Times,serif" font-size="14.00">prev</text>
<polyline fill="none" stroke="black" points="75.64,-219.5 75.64,-255.5 "/>
<text text-anchor="middle" x="101.14" y="-233.8" font-family="Times,serif" font-size="14.00">head</text>
<polyline fill="none" stroke="black" points="126.64,-219.5 126.64,-255.5 "/>
<text text-anchor="middle" x="150.64" y="-233.8" font-family="Times,serif" font-size="14.00">next</text>
</g>
<!-- head&#45;&gt;nodehead -->
<g id="edge1" class="edge">
<title>head:addr&#45;&gt;nodehead:addr</title>
<path fill="none" stroke="black" d="M101.64,-281.88C101.64,-276.21 101.64,-272.01 101.64,-266.39"/>
<polygon fill="black" stroke="black" points="98.14,-282 101.64,-292 105.14,-282 98.14,-282"/>
<polygon fill="black" stroke="black" points="105.14,-266 101.64,-256 98.14,-266 105.14,-266"/>
</g>
<!-- tail&#45;&gt;head -->
<g id="edge6" class="edge">
<title>tail:prev&#45;&gt;head:addr</title>
<path fill="none" stroke="green" d="M38.64,-37C38.64,-54.51 26.57,-55.94 22.64,-73 -16.44,-242.8 5.91,-238.21 17.64,-256 37.73,-286.47 89.52,-258.46 99.84,-281.91"/>
<polygon fill="green" stroke="green" points="96.43,-282.77 101.64,-292 103.33,-281.54 96.43,-282.77"/>
</g>
<!-- ... -->
<g id="node5" class="node">
<title>...</title>
<polygon fill="none" stroke="black" points="74.64,-146.5 74.64,-182.5 128.64,-182.5 128.64,-146.5 74.64,-146.5"/>
<text text-anchor="middle" x="101.64" y="-160.8" font-family="Times,serif" font-size="14.00">...</text>
</g>
<!-- nodehead&#45;&gt;... -->
<g id="edge2" class="edge">
<title>nodehead:addr&#45;&gt;...</title>
<path fill="none" stroke="black" d="M101.64,-208.85C101.64,-203.57 101.64,-198.25 101.64,-193.23"/>
<polygon fill="black" stroke="black" points="98.14,-209 101.64,-219 105.14,-209 98.14,-209"/>
<polygon fill="black" stroke="black" points="105.14,-192.85 101.64,-182.85 98.14,-192.85 105.14,-192.85"/>
</g>
<!-- nodetail -->
<g id="node4" class="node">
<title>nodetail</title>
<polygon fill="none" stroke="black" points="32.14,-73.5 32.14,-109.5 169.14,-109.5 169.14,-73.5 32.14,-73.5"/>
<text text-anchor="middle" x="56.64" y="-87.8" font-family="Times,serif" font-size="14.00">prev</text>
<polyline fill="none" stroke="black" points="81.14,-73.5 81.14,-109.5 "/>
<text text-anchor="middle" x="101.14" y="-87.8" font-family="Times,serif" font-size="14.00">tail</text>
<polyline fill="none" stroke="black" points="121.14,-73.5 121.14,-109.5 "/>
<text text-anchor="middle" x="145.14" y="-87.8" font-family="Times,serif" font-size="14.00">next</text>
</g>
<!-- nodetail&#45;&gt;tail -->
<g id="edge4" class="edge">
<title>nodetail:addr&#45;&gt;tail:addr</title>
<path fill="none" stroke="black" d="M101.64,-62.88C101.64,-57.21 101.64,-53.01 101.64,-47.39"/>
<polygon fill="black" stroke="black" points="98.14,-63 101.64,-73 105.14,-63 98.14,-63"/>
<polygon fill="black" stroke="black" points="105.14,-47 101.64,-37 98.14,-47 105.14,-47"/>
</g>
<!-- ...&#45;&gt;nodetail -->
<g id="edge3" class="edge">
<title>...&#45;&gt;nodetail:addr</title>
<path fill="none" stroke="black" d="M101.64,-136.12C101.64,-131.01 101.64,-125.58 101.64,-120.2"/>
<polygon fill="black" stroke="black" points="98.14,-136.15 101.64,-146.15 105.14,-136.15 98.14,-136.15"/>
<polygon fill="black" stroke="black" points="105.14,-120 101.64,-110 98.14,-120 105.14,-120"/>
</g>
</g>
</svg>
