<?xml version="1.0" encoding="UTF-8" standalone="no"?>
<!DOCTYPE svg PUBLIC "-//W3C//DTD SVG 1.1//EN"
 "http://www.w3.org/Graphics/SVG/1.1/DTD/svg11.dtd">
<!-- Generated by graphviz version 2.43.0 (0)
 -->
<!-- Title: src/controller/fpid.c Pages: 1 -->
<svg width="240pt" height="308pt"
 viewBox="0.00 0.00 240.00 308.00" xmlns="http://www.w3.org/2000/svg" xmlns:xlink="http://www.w3.org/1999/xlink">
<g id="graph0" class="graph" transform="scale(1 1) rotate(0) translate(4 304)">
<title>src/controller/fpid.c</title>
<polygon fill="white" stroke="transparent" points="-4,4 -4,-304 236,-304 236,4 -4,4"/>
<!-- Node1 -->
<g id="node1" class="node">
<title>Node1</title>
<g id="a_node1"><a xlink:title="Fuzzy Proportional Integral Derivative Algorithm.">
<polygon fill="#bfbfbf" stroke="black" points="93,-280.5 93,-299.5 203,-299.5 203,-280.5 93,-280.5"/>
<text text-anchor="middle" x="148" y="-287.5" font-family="Helvetica,sans-Serif" font-size="10.00">src/controller/fpid.c</text>
</a>
</g>
</g>
<!-- Node2 -->
<g id="node2" class="node">
<title>Node2</title>
<g id="a_node2"><a xlink:href="fpid_8h.html" target="_top" xlink:title="Fuzzy Proportional Integral Derivative Algorithm.">
<polygon fill="white" stroke="black" points="16.5,-224.5 16.5,-243.5 119.5,-243.5 119.5,-224.5 16.5,-224.5"/>
<text text-anchor="middle" x="68" y="-231.5" font-family="Helvetica,sans-Serif" font-size="10.00">a/controller/fpid.h</text>
</a>
</g>
</g>
<!-- Node1&#45;&gt;Node2 -->
<g id="edge1" class="edge">
<title>Node1&#45;&gt;Node2</title>
<path fill="none" stroke="midnightblue" d="M135.15,-280.32C122.78,-271.98 103.87,-259.21 89.26,-249.35"/>
<polygon fill="midnightblue" stroke="midnightblue" points="91.07,-246.35 80.82,-243.65 87.15,-252.15 91.07,-246.35"/>
</g>
<!-- Node8 -->
<g id="node8" class="node">
<title>Node8</title>
<g id="a_node8"><a xlink:href="math_8h.html" target="_top" xlink:title="Calculate math library.">
<polygon fill="white" stroke="black" points="104.5,-112.5 104.5,-131.5 155.5,-131.5 155.5,-112.5 104.5,-112.5"/>
<text text-anchor="middle" x="130" y="-119.5" font-family="Helvetica,sans-Serif" font-size="10.00">math.h</text>
</a>
</g>
</g>
<!-- Node1&#45;&gt;Node8 -->
<g id="edge13" class="edge">
<title>Node1&#45;&gt;Node8</title>
<path fill="none" stroke="midnightblue" d="M147.03,-280.08C144.2,-253.95 135.88,-177.21 132.01,-141.58"/>
<polygon fill="midnightblue" stroke="midnightblue" points="135.49,-141.13 130.93,-131.57 128.53,-141.89 135.49,-141.13"/>
</g>
<!-- Node11 -->
<g id="node11" class="node">
<title>Node11</title>
<g id="a_node11"><a xlink:title=" ">
<polygon fill="white" stroke="#bfbfbf" points="176,-224.5 176,-243.5 232,-243.5 232,-224.5 176,-224.5"/>
<text text-anchor="middle" x="204" y="-231.5" font-family="Helvetica,sans-Serif" font-size="10.00">assert.h</text>
</a>
</g>
</g>
<!-- Node1&#45;&gt;Node11 -->
<g id="edge12" class="edge">
<title>Node1&#45;&gt;Node11</title>
<path fill="none" stroke="midnightblue" d="M157,-280.32C165.19,-272.42 177.51,-260.55 187.47,-250.94"/>
<polygon fill="midnightblue" stroke="midnightblue" points="190.07,-253.29 194.84,-243.83 185.21,-248.26 190.07,-253.29"/>
</g>
<!-- Node3 -->
<g id="node3" class="node">
<title>Node3</title>
<g id="a_node3"><a xlink:href="mf_8h.html" target="_top" xlink:title="membership function">
<polygon fill="white" stroke="black" points="82,-168.5 82,-187.5 120,-187.5 120,-168.5 82,-168.5"/>
<text text-anchor="middle" x="101" y="-175.5" font-family="Helvetica,sans-Serif" font-size="10.00">mf.h</text>
</a>
</g>
</g>
<!-- Node2&#45;&gt;Node3 -->
<g id="edge2" class="edge">
<title>Node2&#45;&gt;Node3</title>
<path fill="none" stroke="midnightblue" d="M73.45,-224.08C78.01,-216.61 84.67,-205.72 90.29,-196.52"/>
<polygon fill="midnightblue" stroke="midnightblue" points="93.42,-198.11 95.65,-187.75 87.45,-194.46 93.42,-198.11"/>
</g>
<!-- Node10 -->
<g id="node10" class="node">
<title>Node10</title>
<g id="a_node10"><a xlink:href="pid_8h.html" target="_top" xlink:title="Proportional Integral Derivative Algorithm.">
<polygon fill="white" stroke="black" points="22.5,-168.5 22.5,-187.5 63.5,-187.5 63.5,-168.5 22.5,-168.5"/>
<text text-anchor="middle" x="43" y="-175.5" font-family="Helvetica,sans-Serif" font-size="10.00">pid.h</text>
</a>
</g>
</g>
<!-- Node2&#45;&gt;Node10 -->
<g id="edge10" class="edge">
<title>Node2&#45;&gt;Node10</title>
<path fill="none" stroke="midnightblue" d="M63.87,-224.08C60.49,-216.77 55.58,-206.18 51.38,-197.1"/>
<polygon fill="midnightblue" stroke="midnightblue" points="54.43,-195.36 47.05,-187.75 48.08,-198.3 54.43,-195.36"/>
</g>
<!-- Node4 -->
<g id="node4" class="node">
<title>Node4</title>
<g id="a_node4"><a xlink:href="real_8h.html" target="_top" xlink:title="real number">
<polygon fill="white" stroke="black" points="33.5,-112.5 33.5,-131.5 86.5,-131.5 86.5,-112.5 33.5,-112.5"/>
<text text-anchor="middle" x="60" y="-119.5" font-family="Helvetica,sans-Serif" font-size="10.00">../real.h</text>
</a>
</g>
</g>
<!-- Node3&#45;&gt;Node4 -->
<g id="edge3" class="edge">
<title>Node3&#45;&gt;Node4</title>
<path fill="none" stroke="midnightblue" d="M94.23,-168.08C88.44,-160.46 79.94,-149.26 72.86,-139.94"/>
<polygon fill="midnightblue" stroke="midnightblue" points="75.48,-137.6 66.64,-131.75 69.9,-141.83 75.48,-137.6"/>
</g>
<!-- Node3&#45;&gt;Node8 -->
<g id="edge7" class="edge">
<title>Node3&#45;&gt;Node8</title>
<path fill="none" stroke="midnightblue" d="M105.79,-168.08C109.76,-160.69 115.53,-149.95 120.43,-140.81"/>
<polygon fill="midnightblue" stroke="midnightblue" points="123.65,-142.22 125.3,-131.75 117.49,-138.91 123.65,-142.22"/>
</g>
<!-- Node5 -->
<g id="node5" class="node">
<title>Node5</title>
<g id="a_node5"><a xlink:href="def_8h.html" target="_top" xlink:title="algorithm library definition">
<polygon fill="white" stroke="black" points="43.5,-56.5 43.5,-75.5 84.5,-75.5 84.5,-56.5 43.5,-56.5"/>
<text text-anchor="middle" x="64" y="-63.5" font-family="Helvetica,sans-Serif" font-size="10.00">def.h</text>
</a>
</g>
</g>
<!-- Node4&#45;&gt;Node5 -->
<g id="edge4" class="edge">
<title>Node4&#45;&gt;Node5</title>
<path fill="none" stroke="midnightblue" d="M60.66,-112.08C61.18,-105.01 61.94,-94.86 62.59,-85.99"/>
<polygon fill="midnightblue" stroke="midnightblue" points="66.1,-85.98 63.35,-75.75 59.12,-85.47 66.1,-85.98"/>
</g>
<!-- Node6 -->
<g id="node6" class="node">
<title>Node6</title>
<g id="a_node6"><a xlink:title=" ">
<polygon fill="white" stroke="#bfbfbf" points="0,-0.5 0,-19.5 56,-19.5 56,-0.5 0,-0.5"/>
<text text-anchor="middle" x="28" y="-7.5" font-family="Helvetica,sans-Serif" font-size="10.00">stddef.h</text>
</a>
</g>
</g>
<!-- Node5&#45;&gt;Node6 -->
<g id="edge5" class="edge">
<title>Node5&#45;&gt;Node6</title>
<path fill="none" stroke="midnightblue" d="M58.06,-56.08C53.02,-48.53 45.66,-37.49 39.49,-28.23"/>
<polygon fill="midnightblue" stroke="midnightblue" points="42.29,-26.13 33.83,-19.75 36.47,-30.01 42.29,-26.13"/>
</g>
<!-- Node7 -->
<g id="node7" class="node">
<title>Node7</title>
<g id="a_node7"><a xlink:title=" ">
<polygon fill="white" stroke="#bfbfbf" points="74.5,-0.5 74.5,-19.5 127.5,-19.5 127.5,-0.5 74.5,-0.5"/>
<text text-anchor="middle" x="101" y="-7.5" font-family="Helvetica,sans-Serif" font-size="10.00">stdint.h</text>
</a>
</g>
</g>
<!-- Node5&#45;&gt;Node7 -->
<g id="edge6" class="edge">
<title>Node5&#45;&gt;Node7</title>
<path fill="none" stroke="midnightblue" d="M70.11,-56.08C75.28,-48.53 82.85,-37.49 89.19,-28.23"/>
<polygon fill="midnightblue" stroke="midnightblue" points="92.24,-29.98 95,-19.75 86.46,-26.02 92.24,-29.98"/>
</g>
<!-- Node8&#45;&gt;Node5 -->
<g id="edge8" class="edge">
<title>Node8&#45;&gt;Node5</title>
<path fill="none" stroke="midnightblue" d="M119.4,-112.32C109.54,-104.26 94.65,-92.08 82.78,-82.37"/>
<polygon fill="midnightblue" stroke="midnightblue" points="84.75,-79.46 74.8,-75.83 80.32,-84.88 84.75,-79.46"/>
</g>
<!-- Node9 -->
<g id="node9" class="node">
<title>Node9</title>
<g id="a_node9"><a xlink:title=" ">
<polygon fill="white" stroke="#bfbfbf" points="106.5,-56.5 106.5,-75.5 153.5,-75.5 153.5,-56.5 106.5,-56.5"/>
<text text-anchor="middle" x="130" y="-63.5" font-family="Helvetica,sans-Serif" font-size="10.00">float.h</text>
</a>
</g>
</g>
<!-- Node8&#45;&gt;Node9 -->
<g id="edge9" class="edge">
<title>Node8&#45;&gt;Node9</title>
<path fill="none" stroke="midnightblue" d="M130,-112.08C130,-105.01 130,-94.86 130,-85.99"/>
<polygon fill="midnightblue" stroke="midnightblue" points="133.5,-85.75 130,-75.75 126.5,-85.75 133.5,-85.75"/>
</g>
<!-- Node10&#45;&gt;Node4 -->
<g id="edge11" class="edge">
<title>Node10&#45;&gt;Node4</title>
<path fill="none" stroke="midnightblue" d="M45.81,-168.08C48.08,-160.85 51.37,-150.41 54.21,-141.4"/>
<polygon fill="midnightblue" stroke="midnightblue" points="57.58,-142.34 57.25,-131.75 50.9,-140.24 57.58,-142.34"/>
</g>
</g>
</svg>
