<?xml version="1.0" encoding="UTF-8" standalone="no"?>
<!DOCTYPE svg PUBLIC "-//W3C//DTD SVG 1.1//EN"
 "http://www.w3.org/Graphics/SVG/1.1/DTD/svg11.dtd">
<!-- Generated by graphviz version 2.43.0 (0)
 -->
<!-- Title: include/a/controller/fpid.h Pages: 1 -->
<svg width="164pt" height="263pt"
 viewBox="0.00 0.00 163.50 263.00" xmlns="http://www.w3.org/2000/svg" xmlns:xlink="http://www.w3.org/1999/xlink">
<g id="graph0" class="graph" transform="scale(1 1) rotate(0) translate(4 259)">
<title>include/a/controller/fpid.h</title>
<polygon fill="white" stroke="transparent" points="-4,4 -4,-259 159.5,-259 159.5,4 -4,4"/>
<!-- Node1 -->
<g id="node1" class="node">
<title>Node1</title>
<g id="a_node1"><a xlink:title="Fuzzy Proportional Integral Derivative Algorithm.">
<polygon fill="#bfbfbf" stroke="black" points="34,-224.5 34,-254.5 144,-254.5 144,-224.5 34,-224.5"/>
<text text-anchor="start" x="42" y="-242.5" font-family="Helvetica,sans-Serif" font-size="10.00">include/a/controller</text>
<text text-anchor="middle" x="89" y="-231.5" font-family="Helvetica,sans-Serif" font-size="10.00">/fpid.h</text>
</a>
</g>
</g>
<!-- Node2 -->
<g id="node2" class="node">
<title>Node2</title>
<g id="a_node2"><a xlink:href="mf_8h.html" target="_top" xlink:title="membership function">
<polygon fill="white" stroke="black" points="99,-168.5 99,-187.5 137,-187.5 137,-168.5 99,-168.5"/>
<text text-anchor="middle" x="118" y="-175.5" font-family="Helvetica,sans-Serif" font-size="10.00">mf.h</text>
</a>
</g>
</g>
<!-- Node1&#45;&gt;Node2 -->
<g id="edge1" class="edge">
<title>Node1&#45;&gt;Node2</title>
<path fill="none" stroke="midnightblue" d="M95.87,-224.4C99.91,-216.11 105.06,-205.55 109.37,-196.71"/>
<polygon fill="midnightblue" stroke="midnightblue" points="112.55,-198.18 113.78,-187.66 106.25,-195.11 112.55,-198.18"/>
</g>
<!-- Node9 -->
<g id="node9" class="node">
<title>Node9</title>
<g id="a_node9"><a xlink:href="pid_8h.html" target="_top" xlink:title="Proportional Integral Derivative Algorithm.">
<polygon fill="white" stroke="black" points="39.5,-168.5 39.5,-187.5 80.5,-187.5 80.5,-168.5 39.5,-168.5"/>
<text text-anchor="middle" x="60" y="-175.5" font-family="Helvetica,sans-Serif" font-size="10.00">pid.h</text>
</a>
</g>
</g>
<!-- Node1&#45;&gt;Node9 -->
<g id="edge9" class="edge">
<title>Node1&#45;&gt;Node9</title>
<path fill="none" stroke="midnightblue" d="M82.13,-224.4C78.09,-216.11 72.94,-205.55 68.63,-196.71"/>
<polygon fill="midnightblue" stroke="midnightblue" points="71.75,-195.11 64.22,-187.66 65.45,-198.18 71.75,-195.11"/>
</g>
<!-- Node3 -->
<g id="node3" class="node">
<title>Node3</title>
<g id="a_node3"><a xlink:href="real_8h.html" target="_top" xlink:title="real number">
<polygon fill="white" stroke="black" points="33.5,-112.5 33.5,-131.5 86.5,-131.5 86.5,-112.5 33.5,-112.5"/>
<text text-anchor="middle" x="60" y="-119.5" font-family="Helvetica,sans-Serif" font-size="10.00">../real.h</text>
</a>
</g>
</g>
<!-- Node2&#45;&gt;Node3 -->
<g id="edge2" class="edge">
<title>Node2&#45;&gt;Node3</title>
<path fill="none" stroke="midnightblue" d="M108.68,-168.32C100.11,-160.34 87.19,-148.31 76.81,-138.65"/>
<polygon fill="midnightblue" stroke="midnightblue" points="79.19,-136.09 69.49,-131.83 74.42,-141.21 79.19,-136.09"/>
</g>
<!-- Node7 -->
<g id="node7" class="node">
<title>Node7</title>
<g id="a_node7"><a xlink:href="math_8h.html" target="_top" xlink:title="Calculate math library.">
<polygon fill="white" stroke="black" points="104.5,-112.5 104.5,-131.5 155.5,-131.5 155.5,-112.5 104.5,-112.5"/>
<text text-anchor="middle" x="130" y="-119.5" font-family="Helvetica,sans-Serif" font-size="10.00">math.h</text>
</a>
</g>
</g>
<!-- Node2&#45;&gt;Node7 -->
<g id="edge6" class="edge">
<title>Node2&#45;&gt;Node7</title>
<path fill="none" stroke="midnightblue" d="M119.98,-168.08C121.57,-160.93 123.86,-150.64 125.85,-141.69"/>
<polygon fill="midnightblue" stroke="midnightblue" points="129.3,-142.27 128.06,-131.75 122.47,-140.75 129.3,-142.27"/>
</g>
<!-- Node4 -->
<g id="node4" class="node">
<title>Node4</title>
<g id="a_node4"><a xlink:href="def_8h.html" target="_top" xlink:title="algorithm library definition">
<polygon fill="white" stroke="black" points="43.5,-56.5 43.5,-75.5 84.5,-75.5 84.5,-56.5 43.5,-56.5"/>
<text text-anchor="middle" x="64" y="-63.5" font-family="Helvetica,sans-Serif" font-size="10.00">def.h</text>
</a>
</g>
</g>
<!-- Node3&#45;&gt;Node4 -->
<g id="edge3" class="edge">
<title>Node3&#45;&gt;Node4</title>
<path fill="none" stroke="midnightblue" d="M60.66,-112.08C61.18,-105.01 61.94,-94.86 62.59,-85.99"/>
<polygon fill="midnightblue" stroke="midnightblue" points="66.1,-85.98 63.35,-75.75 59.12,-85.47 66.1,-85.98"/>
</g>
<!-- Node5 -->
<g id="node5" class="node">
<title>Node5</title>
<g id="a_node5"><a xlink:title=" ">
<polygon fill="white" stroke="#bfbfbf" points="0,-0.5 0,-19.5 56,-19.5 56,-0.5 0,-0.5"/>
<text text-anchor="middle" x="28" y="-7.5" font-family="Helvetica,sans-Serif" font-size="10.00">stddef.h</text>
</a>
</g>
</g>
<!-- Node4&#45;&gt;Node5 -->
<g id="edge4" class="edge">
<title>Node4&#45;&gt;Node5</title>
<path fill="none" stroke="midnightblue" d="M58.06,-56.08C53.02,-48.53 45.66,-37.49 39.49,-28.23"/>
<polygon fill="midnightblue" stroke="midnightblue" points="42.29,-26.13 33.83,-19.75 36.47,-30.01 42.29,-26.13"/>
</g>
<!-- Node6 -->
<g id="node6" class="node">
<title>Node6</title>
<g id="a_node6"><a xlink:title=" ">
<polygon fill="white" stroke="#bfbfbf" points="74.5,-0.5 74.5,-19.5 127.5,-19.5 127.5,-0.5 74.5,-0.5"/>
<text text-anchor="middle" x="101" y="-7.5" font-family="Helvetica,sans-Serif" font-size="10.00">stdint.h</text>
</a>
</g>
</g>
<!-- Node4&#45;&gt;Node6 -->
<g id="edge5" class="edge">
<title>Node4&#45;&gt;Node6</title>
<path fill="none" stroke="midnightblue" d="M70.11,-56.08C75.28,-48.53 82.85,-37.49 89.19,-28.23"/>
<polygon fill="midnightblue" stroke="midnightblue" points="92.24,-29.98 95,-19.75 86.46,-26.02 92.24,-29.98"/>
</g>
<!-- Node7&#45;&gt;Node4 -->
<g id="edge7" class="edge">
<title>Node7&#45;&gt;Node4</title>
<path fill="none" stroke="midnightblue" d="M119.4,-112.32C109.54,-104.26 94.65,-92.08 82.78,-82.37"/>
<polygon fill="midnightblue" stroke="midnightblue" points="84.75,-79.46 74.8,-75.83 80.32,-84.88 84.75,-79.46"/>
</g>
<!-- Node8 -->
<g id="node8" class="node">
<title>Node8</title>
<g id="a_node8"><a xlink:title=" ">
<polygon fill="white" stroke="#bfbfbf" points="106.5,-56.5 106.5,-75.5 153.5,-75.5 153.5,-56.5 106.5,-56.5"/>
<text text-anchor="middle" x="130" y="-63.5" font-family="Helvetica,sans-Serif" font-size="10.00">float.h</text>
</a>
</g>
</g>
<!-- Node7&#45;&gt;Node8 -->
<g id="edge8" class="edge">
<title>Node7&#45;&gt;Node8</title>
<path fill="none" stroke="midnightblue" d="M130,-112.08C130,-105.01 130,-94.86 130,-85.99"/>
<polygon fill="midnightblue" stroke="midnightblue" points="133.5,-85.75 130,-75.75 126.5,-85.75 133.5,-85.75"/>
</g>
<!-- Node9&#45;&gt;Node3 -->
<g id="edge10" class="edge">
<title>Node9&#45;&gt;Node3</title>
<path fill="none" stroke="midnightblue" d="M60,-168.08C60,-161.01 60,-150.86 60,-141.99"/>
<polygon fill="midnightblue" stroke="midnightblue" points="63.5,-141.75 60,-131.75 56.5,-141.75 63.5,-141.75"/>
</g>
</g>
</svg>
