<?xml version="1.0" encoding="UTF-8" standalone="no"?>
<!DOCTYPE svg PUBLIC "-//W3C//DTD SVG 1.1//EN"
 "http://www.w3.org/Graphics/SVG/1.1/DTD/svg11.dtd">
<!-- Generated by graphviz version 2.43.0 (0)
 -->
<!-- Title: src/cksum/hash__.h Pages: 1 -->
<svg width="1877pt" height="84pt"
 viewBox="0.00 0.00 1876.50 84.00" xmlns="http://www.w3.org/2000/svg" xmlns:xlink="http://www.w3.org/1999/xlink">
<g id="graph0" class="graph" transform="scale(1 1) rotate(0) translate(4 80)">
<title>src/cksum/hash__.h</title>
<polygon fill="white" stroke="transparent" points="-4,4 -4,-80 1872.5,-80 1872.5,4 -4,4"/>
<!-- Node1 -->
<g id="node1" class="node">
<title>Node1</title>
<g id="a_node1"><a xlink:title="private macros for hash library">
<polygon fill="#bfbfbf" stroke="black" points="886,-56.5 886,-75.5 998,-75.5 998,-56.5 886,-56.5"/>
<text text-anchor="middle" x="942" y="-63.5" font-family="Helvetica,sans-Serif" font-size="10.00">src/cksum/hash__.h</text>
</a>
</g>
</g>
<!-- Node2 -->
<g id="node2" class="node">
<title>Node2</title>
<g id="a_node2"><a xlink:href="blake2b_8c.html" target="_top" xlink:title="RFC 7693 compliant BLAKE implementation.">
<polygon fill="white" stroke="black" points="0,-0.5 0,-19.5 116,-19.5 116,-0.5 0,-0.5"/>
<text text-anchor="middle" x="58" y="-7.5" font-family="Helvetica,sans-Serif" font-size="10.00">src/cksum/blake2b.c</text>
</a>
</g>
</g>
<!-- Node1&#45;&gt;Node2 -->
<g id="edge1" class="edge">
<title>Node1&#45;&gt;Node2</title>
<path fill="none" stroke="midnightblue" d="M875.84,-63.12C736.64,-58.77 403.36,-46.32 125,-20 122.08,-19.72 119.09,-19.42 116.07,-19.08"/>
<polygon fill="midnightblue" stroke="midnightblue" points="875.82,-66.62 885.92,-63.43 876.03,-59.62 875.82,-66.62"/>
</g>
<!-- Node3 -->
<g id="node3" class="node">
<title>Node3</title>
<g id="a_node3"><a xlink:href="blake2s_8c.html" target="_top" xlink:title="RFC 7693 compliant BLAKE implementation.">
<polygon fill="white" stroke="black" points="134.5,-0.5 134.5,-19.5 249.5,-19.5 249.5,-0.5 134.5,-0.5"/>
<text text-anchor="middle" x="192" y="-7.5" font-family="Helvetica,sans-Serif" font-size="10.00">src/cksum/blake2s.c</text>
</a>
</g>
</g>
<!-- Node1&#45;&gt;Node3 -->
<g id="edge2" class="edge">
<title>Node1&#45;&gt;Node3</title>
<path fill="none" stroke="midnightblue" d="M875.25,-62.16C752.73,-56.6 483.79,-42.79 258,-20 255.24,-19.72 252.41,-19.42 249.56,-19.09"/>
<polygon fill="midnightblue" stroke="midnightblue" points="875.44,-65.67 885.59,-62.62 875.75,-58.68 875.44,-65.67"/>
</g>
<!-- Node4 -->
<g id="node4" class="node">
<title>Node4</title>
<g id="a_node4"><a xlink:href="md2_8c.html" target="_top" xlink:title="RFC 1319 compliant MD2 implementation.">
<polygon fill="white" stroke="black" points="267.5,-0.5 267.5,-19.5 366.5,-19.5 366.5,-0.5 267.5,-0.5"/>
<text text-anchor="middle" x="317" y="-7.5" font-family="Helvetica,sans-Serif" font-size="10.00">src/cksum/md2.c</text>
</a>
</g>
</g>
<!-- Node1&#45;&gt;Node4 -->
<g id="edge3" class="edge">
<title>Node1&#45;&gt;Node4</title>
<path fill="none" stroke="midnightblue" d="M875.71,-61.35C769.7,-55.15 555.58,-41.15 375,-20 372.27,-19.68 369.47,-19.33 366.64,-18.95"/>
<polygon fill="midnightblue" stroke="midnightblue" points="875.75,-64.86 885.93,-61.94 876.15,-57.87 875.75,-64.86"/>
</g>
<!-- Node5 -->
<g id="node5" class="node">
<title>Node5</title>
<g id="a_node5"><a xlink:href="md4_8c.html" target="_top" xlink:title="RFC 1320 compliant MD4 implementation.">
<polygon fill="white" stroke="black" points="384.5,-0.5 384.5,-19.5 483.5,-19.5 483.5,-0.5 384.5,-0.5"/>
<text text-anchor="middle" x="434" y="-7.5" font-family="Helvetica,sans-Serif" font-size="10.00">src/cksum/md4.c</text>
</a>
</g>
</g>
<!-- Node1&#45;&gt;Node5 -->
<g id="edge4" class="edge">
<title>Node1&#45;&gt;Node5</title>
<path fill="none" stroke="midnightblue" d="M875.67,-59.5C787.78,-51.96 627.98,-37.34 492,-20 489.27,-19.65 486.47,-19.28 483.65,-18.89"/>
<polygon fill="midnightblue" stroke="midnightblue" points="875.5,-63 885.77,-60.36 876.1,-56.03 875.5,-63"/>
</g>
<!-- Node6 -->
<g id="node6" class="node">
<title>Node6</title>
<g id="a_node6"><a xlink:href="md5_8c.html" target="_top" xlink:title="RFC 1321 compliant MD5 implementation.">
<polygon fill="white" stroke="black" points="501.5,-0.5 501.5,-19.5 600.5,-19.5 600.5,-0.5 501.5,-0.5"/>
<text text-anchor="middle" x="551" y="-7.5" font-family="Helvetica,sans-Serif" font-size="10.00">src/cksum/md5.c</text>
</a>
</g>
</g>
<!-- Node1&#45;&gt;Node6 -->
<g id="edge5" class="edge">
<title>Node1&#45;&gt;Node6</title>
<path fill="none" stroke="midnightblue" d="M875.95,-56.46C808.72,-47.68 701.53,-33.43 609,-20 606.28,-19.6 603.48,-19.19 600.66,-18.77"/>
<polygon fill="midnightblue" stroke="midnightblue" points="875.61,-59.95 885.98,-57.77 876.52,-53.01 875.61,-59.95"/>
</g>
<!-- Node7 -->
<g id="node7" class="node">
<title>Node7</title>
<g id="a_node7"><a xlink:href="rmd128_8c.html" target="_top" xlink:title="ripemd implementation">
<polygon fill="white" stroke="black" points="618.5,-0.5 618.5,-19.5 733.5,-19.5 733.5,-0.5 618.5,-0.5"/>
<text text-anchor="middle" x="676" y="-7.5" font-family="Helvetica,sans-Serif" font-size="10.00">src/cksum/rmd128.c</text>
</a>
</g>
</g>
<!-- Node1&#45;&gt;Node7 -->
<g id="edge6" class="edge">
<title>Node1&#45;&gt;Node7</title>
<path fill="none" stroke="midnightblue" d="M889.83,-54.41C839.56,-44.2 764.47,-28.96 717.95,-19.52"/>
<polygon fill="midnightblue" stroke="midnightblue" points="889.36,-57.88 899.85,-56.44 890.75,-51.02 889.36,-57.88"/>
</g>
<!-- Node8 -->
<g id="node8" class="node">
<title>Node8</title>
<g id="a_node8"><a xlink:href="rmd160_8c.html" target="_top" xlink:title="ripemd implementation">
<polygon fill="white" stroke="black" points="751.5,-0.5 751.5,-19.5 866.5,-19.5 866.5,-0.5 751.5,-0.5"/>
<text text-anchor="middle" x="809" y="-7.5" font-family="Helvetica,sans-Serif" font-size="10.00">src/cksum/rmd160.c</text>
</a>
</g>
</g>
<!-- Node1&#45;&gt;Node8 -->
<g id="edge7" class="edge">
<title>Node1&#45;&gt;Node8</title>
<path fill="none" stroke="midnightblue" d="M911.55,-52.64C886.59,-42.5 851.92,-28.43 829.98,-19.52"/>
<polygon fill="midnightblue" stroke="midnightblue" points="910.34,-55.92 920.93,-56.44 912.98,-49.44 910.34,-55.92"/>
</g>
<!-- Node9 -->
<g id="node9" class="node">
<title>Node9</title>
<g id="a_node9"><a xlink:href="rmd256_8c.html" target="_top" xlink:title="ripemd implementation">
<polygon fill="white" stroke="black" points="884.5,-0.5 884.5,-19.5 999.5,-19.5 999.5,-0.5 884.5,-0.5"/>
<text text-anchor="middle" x="942" y="-7.5" font-family="Helvetica,sans-Serif" font-size="10.00">src/cksum/rmd256.c</text>
</a>
</g>
</g>
<!-- Node1&#45;&gt;Node9 -->
<g id="edge8" class="edge">
<title>Node1&#45;&gt;Node9</title>
<path fill="none" stroke="midnightblue" d="M942,-45.8C942,-36.91 942,-26.78 942,-19.75"/>
<polygon fill="midnightblue" stroke="midnightblue" points="938.5,-46.08 942,-56.08 945.5,-46.08 938.5,-46.08"/>
</g>
<!-- Node10 -->
<g id="node10" class="node">
<title>Node10</title>
<g id="a_node10"><a xlink:href="rmd320_8c.html" target="_top" xlink:title="ripemd implementation">
<polygon fill="white" stroke="black" points="1017.5,-0.5 1017.5,-19.5 1132.5,-19.5 1132.5,-0.5 1017.5,-0.5"/>
<text text-anchor="middle" x="1075" y="-7.5" font-family="Helvetica,sans-Serif" font-size="10.00">src/cksum/rmd320.c</text>
</a>
</g>
</g>
<!-- Node1&#45;&gt;Node10 -->
<g id="edge9" class="edge">
<title>Node1&#45;&gt;Node10</title>
<path fill="none" stroke="midnightblue" d="M972.45,-52.64C997.41,-42.5 1032.08,-28.43 1054.02,-19.52"/>
<polygon fill="midnightblue" stroke="midnightblue" points="971.02,-49.44 963.07,-56.44 973.66,-55.92 971.02,-49.44"/>
</g>
<!-- Node11 -->
<g id="node11" class="node">
<title>Node11</title>
<g id="a_node11"><a xlink:href="sha1_8c.html" target="_top" xlink:title="RFC 3174 compliant SHA1 implementation.">
<polygon fill="white" stroke="black" points="1150.5,-0.5 1150.5,-19.5 1251.5,-19.5 1251.5,-0.5 1150.5,-0.5"/>
<text text-anchor="middle" x="1201" y="-7.5" font-family="Helvetica,sans-Serif" font-size="10.00">src/cksum/sha1.c</text>
</a>
</g>
</g>
<!-- Node1&#45;&gt;Node11 -->
<g id="edge10" class="edge">
<title>Node1&#45;&gt;Node11</title>
<path fill="none" stroke="midnightblue" d="M993.1,-54.35C1042.05,-44.14 1114.95,-28.94 1160.15,-19.52"/>
<polygon fill="midnightblue" stroke="midnightblue" points="992.11,-50.98 983.04,-56.44 993.54,-57.83 992.11,-50.98"/>
</g>
<!-- Node12 -->
<g id="node12" class="node">
<title>Node12</title>
<g id="a_node12"><a xlink:href="sha256_8c.html" target="_top" xlink:title="RFC 5754 compliant SHA2 implementation.">
<polygon fill="white" stroke="black" points="1269.5,-0.5 1269.5,-19.5 1382.5,-19.5 1382.5,-0.5 1269.5,-0.5"/>
<text text-anchor="middle" x="1326" y="-7.5" font-family="Helvetica,sans-Serif" font-size="10.00">src/cksum/sha256.c</text>
</a>
</g>
</g>
<!-- Node1&#45;&gt;Node12 -->
<g id="edge11" class="edge">
<title>Node1&#45;&gt;Node12</title>
<path fill="none" stroke="midnightblue" d="M1008.34,-55.67C1082.03,-45.31 1199.74,-28.76 1269.29,-18.98"/>
<polygon fill="midnightblue" stroke="midnightblue" points="1007.66,-52.23 998.25,-57.09 1008.64,-59.16 1007.66,-52.23"/>
</g>
<!-- Node13 -->
<g id="node13" class="node">
<title>Node13</title>
<g id="a_node13"><a xlink:href="sha3_8c.html" target="_top" xlink:title="SHA3 implementation.">
<polygon fill="white" stroke="black" points="1400.5,-0.5 1400.5,-19.5 1501.5,-19.5 1501.5,-0.5 1400.5,-0.5"/>
<text text-anchor="middle" x="1451" y="-7.5" font-family="Helvetica,sans-Serif" font-size="10.00">src/cksum/sha3.c</text>
</a>
</g>
</g>
<!-- Node1&#45;&gt;Node13 -->
<g id="edge12" class="edge">
<title>Node1&#45;&gt;Node13</title>
<path fill="none" stroke="midnightblue" d="M1008.32,-59.45C1096.21,-51.84 1256,-37.16 1392,-20 1394.78,-19.65 1397.62,-19.27 1400.49,-18.88"/>
<polygon fill="midnightblue" stroke="midnightblue" points="1007.89,-55.97 998.23,-60.32 1008.49,-62.95 1007.89,-55.97"/>
</g>
<!-- Node14 -->
<g id="node14" class="node">
<title>Node14</title>
<g id="a_node14"><a xlink:href="sha512_8c.html" target="_top" xlink:title="RFC 5754 compliant SHA2 implementation.">
<polygon fill="white" stroke="black" points="1519.5,-0.5 1519.5,-19.5 1632.5,-19.5 1632.5,-0.5 1519.5,-0.5"/>
<text text-anchor="middle" x="1576" y="-7.5" font-family="Helvetica,sans-Serif" font-size="10.00">src/cksum/sha512.c</text>
</a>
</g>
</g>
<!-- Node1&#45;&gt;Node14 -->
<g id="edge13" class="edge">
<title>Node1&#45;&gt;Node14</title>
<path fill="none" stroke="midnightblue" d="M1008.49,-61.01C1114.82,-54.35 1329.62,-39.71 1511,-20 1513.72,-19.7 1516.5,-19.39 1519.3,-19.05"/>
<polygon fill="midnightblue" stroke="midnightblue" points="1007.99,-57.54 998.23,-61.65 1008.43,-64.52 1007.99,-57.54"/>
</g>
<!-- Node15 -->
<g id="node15" class="node">
<title>Node15</title>
<g id="a_node15"><a xlink:href="tiger_8c.html" target="_top" xlink:title="TIGER implementation.">
<polygon fill="white" stroke="black" points="1650.5,-0.5 1650.5,-19.5 1749.5,-19.5 1749.5,-0.5 1650.5,-0.5"/>
<text text-anchor="middle" x="1700" y="-7.5" font-family="Helvetica,sans-Serif" font-size="10.00">src/cksum/tiger.c</text>
</a>
</g>
</g>
<!-- Node1&#45;&gt;Node15 -->
<g id="edge14" class="edge">
<title>Node1&#45;&gt;Node15</title>
<path fill="none" stroke="midnightblue" d="M1008.55,-62.71C1133.16,-57.99 1410.04,-45.4 1642,-20 1644.73,-19.7 1647.54,-19.36 1650.36,-19"/>
<polygon fill="midnightblue" stroke="midnightblue" points="1008.27,-59.22 998.4,-63.09 1008.53,-66.22 1008.27,-59.22"/>
</g>
<!-- Node16 -->
<g id="node16" class="node">
<title>Node16</title>
<g id="a_node16"><a xlink:href="whirl_8c.html" target="_top" xlink:title="whirlpool implementation">
<polygon fill="white" stroke="black" points="1767.5,-0.5 1767.5,-19.5 1868.5,-19.5 1868.5,-0.5 1767.5,-0.5"/>
<text text-anchor="middle" x="1818" y="-7.5" font-family="Helvetica,sans-Serif" font-size="10.00">src/cksum/whirl.c</text>
</a>
</g>
</g>
<!-- Node1&#45;&gt;Node16 -->
<g id="edge15" class="edge">
<title>Node1&#45;&gt;Node16</title>
<path fill="none" stroke="midnightblue" d="M1008.2,-63.52C1147.48,-59.92 1480.89,-48.8 1759,-20 1761.68,-19.72 1764.42,-19.41 1767.19,-19.07"/>
<polygon fill="midnightblue" stroke="midnightblue" points="1008.02,-60.02 998.11,-63.77 1008.2,-67.02 1008.02,-60.02"/>
</g>
</g>
</svg>
