<?xml version="1.0" encoding="UTF-8" standalone="no"?>
<!DOCTYPE svg PUBLIC "-//W3C//DTD SVG 1.1//EN"
 "http://www.w3.org/Graphics/SVG/1.1/DTD/svg11.dtd">
<!-- Generated by graphviz version 2.43.0 (0)
 -->
<!-- Title: src/cksum/hash.c Pages: 1 -->
<svg width="1113pt" height="252pt"
 viewBox="0.00 0.00 1112.50 252.00" xmlns="http://www.w3.org/2000/svg" xmlns:xlink="http://www.w3.org/1999/xlink">
<g id="graph0" class="graph" transform="scale(1 1) rotate(0) translate(4 248)">
<title>src/cksum/hash.c</title>
<polygon fill="white" stroke="transparent" points="-4,4 -4,-248 1108.5,-248 1108.5,4 -4,4"/>
<!-- Node1 -->
<g id="node1" class="node">
<title>Node1</title>
<g id="a_node1"><a xlink:title="hash library">
<polygon fill="#bfbfbf" stroke="black" points="516,-224.5 516,-243.5 617,-243.5 617,-224.5 516,-224.5"/>
<text text-anchor="middle" x="566.5" y="-231.5" font-family="Helvetica,sans-Serif" font-size="10.00">src/cksum/hash.c</text>
</a>
</g>
</g>
<!-- Node2 -->
<g id="node2" class="node">
<title>Node2</title>
<g id="a_node2"><a xlink:href="hash_8h.html" target="_top" xlink:title="hash library">
<polygon fill="white" stroke="black" points="474,-168.5 474,-187.5 567,-187.5 567,-168.5 474,-168.5"/>
<text text-anchor="middle" x="520.5" y="-175.5" font-family="Helvetica,sans-Serif" font-size="10.00">a/cksum/hash.h</text>
</a>
</g>
</g>
<!-- Node1&#45;&gt;Node2 -->
<g id="edge1" class="edge">
<title>Node1&#45;&gt;Node2</title>
<path fill="none" stroke="midnightblue" d="M558.91,-224.08C552.28,-216.3 542.48,-204.8 534.45,-195.37"/>
<polygon fill="midnightblue" stroke="midnightblue" points="537.11,-193.09 527.96,-187.75 531.78,-197.63 537.11,-193.09"/>
</g>
<!-- Node21 -->
<g id="node21" class="node">
<title>Node21</title>
<g id="a_node21"><a xlink:title=" ">
<polygon fill="white" stroke="#bfbfbf" points="585.5,-168.5 585.5,-187.5 641.5,-187.5 641.5,-168.5 585.5,-168.5"/>
<text text-anchor="middle" x="613.5" y="-175.5" font-family="Helvetica,sans-Serif" font-size="10.00">assert.h</text>
</a>
</g>
</g>
<!-- Node1&#45;&gt;Node21 -->
<g id="edge35" class="edge">
<title>Node1&#45;&gt;Node21</title>
<path fill="none" stroke="midnightblue" d="M574.27,-224.08C581.04,-216.3 591.05,-204.8 599.26,-195.37"/>
<polygon fill="midnightblue" stroke="midnightblue" points="601.96,-197.59 605.89,-187.75 596.68,-193 601.96,-197.59"/>
</g>
<!-- Node3 -->
<g id="node3" class="node">
<title>Node3</title>
<g id="a_node3"><a xlink:href="def_8h.html" target="_top" xlink:title="algorithm library definition">
<polygon fill="white" stroke="black" points="495.5,-56.5 495.5,-75.5 545.5,-75.5 545.5,-56.5 495.5,-56.5"/>
<text text-anchor="middle" x="520.5" y="-63.5" font-family="Helvetica,sans-Serif" font-size="10.00">../def.h</text>
</a>
</g>
</g>
<!-- Node2&#45;&gt;Node3 -->
<g id="edge2" class="edge">
<title>Node2&#45;&gt;Node3</title>
<path fill="none" stroke="midnightblue" d="M473.61,-176.44C352.38,-174.51 35.87,-166.22 4.5,-132 -1.5,-125.45 -1.5,-118.55 4.5,-112 36.95,-76.6 374.51,-68.95 485.41,-67.38"/>
<polygon fill="midnightblue" stroke="midnightblue" points="485.47,-70.88 495.42,-67.25 485.38,-63.88 485.47,-70.88"/>
</g>
<!-- Node6 -->
<g id="node6" class="node">
<title>Node6</title>
<g id="a_node6"><a xlink:href="md2_8h.html" target="_top" xlink:title="RFC 1319 compliant MD2 implementation.">
<polygon fill="white" stroke="black" points="14,-112.5 14,-131.5 61,-131.5 61,-112.5 14,-112.5"/>
<text text-anchor="middle" x="37.5" y="-119.5" font-family="Helvetica,sans-Serif" font-size="10.00">md2.h</text>
</a>
</g>
</g>
<!-- Node2&#45;&gt;Node6 -->
<g id="edge5" class="edge">
<title>Node2&#45;&gt;Node6</title>
<path fill="none" stroke="midnightblue" d="M473.7,-175.03C393.12,-171.04 222.96,-160.07 71.13,-132.02"/>
<polygon fill="midnightblue" stroke="midnightblue" points="71.63,-128.56 61.16,-130.15 70.34,-135.44 71.63,-128.56"/>
</g>
<!-- Node7 -->
<g id="node7" class="node">
<title>Node7</title>
<g id="a_node7"><a xlink:href="md4_8h.html" target="_top" xlink:title="RFC 1320 compliant MD4 implementation.">
<polygon fill="white" stroke="black" points="79,-112.5 79,-131.5 126,-131.5 126,-112.5 79,-112.5"/>
<text text-anchor="middle" x="102.5" y="-119.5" font-family="Helvetica,sans-Serif" font-size="10.00">md4.h</text>
</a>
</g>
</g>
<!-- Node2&#45;&gt;Node7 -->
<g id="edge7" class="edge">
<title>Node2&#45;&gt;Node7</title>
<path fill="none" stroke="midnightblue" d="M473.79,-173.95C402.68,-168.78 262.95,-156.58 136.06,-132.05"/>
<polygon fill="midnightblue" stroke="midnightblue" points="136.66,-128.6 126.17,-130.11 135.31,-135.47 136.66,-128.6"/>
</g>
<!-- Node8 -->
<g id="node8" class="node">
<title>Node8</title>
<g id="a_node8"><a xlink:href="md5_8h.html" target="_top" xlink:title="RFC 1321 compliant MD5 implementation.">
<polygon fill="white" stroke="black" points="144,-112.5 144,-131.5 191,-131.5 191,-112.5 144,-112.5"/>
<text text-anchor="middle" x="167.5" y="-119.5" font-family="Helvetica,sans-Serif" font-size="10.00">md5.h</text>
</a>
</g>
</g>
<!-- Node2&#45;&gt;Node8 -->
<g id="edge9" class="edge">
<title>Node2&#45;&gt;Node8</title>
<path fill="none" stroke="midnightblue" d="M473.92,-172.46C413.12,-166.1 303.3,-153.12 201.05,-132.1"/>
<polygon fill="midnightblue" stroke="midnightblue" points="201.69,-128.66 191.18,-130.04 200.26,-135.51 201.69,-128.66"/>
</g>
<!-- Node9 -->
<g id="node9" class="node">
<title>Node9</title>
<g id="a_node9"><a xlink:href="rmd128_8h.html" target="_top" xlink:title="ripemd implementation">
<polygon fill="white" stroke="black" points="209,-112.5 209,-131.5 272,-131.5 272,-112.5 209,-112.5"/>
<text text-anchor="middle" x="240.5" y="-119.5" font-family="Helvetica,sans-Serif" font-size="10.00">rmd128.h</text>
</a>
</g>
</g>
<!-- Node2&#45;&gt;Node9 -->
<g id="edge11" class="edge">
<title>Node2&#45;&gt;Node9</title>
<path fill="none" stroke="midnightblue" d="M473.95,-168.78C427.7,-160.51 354.5,-147.1 282.51,-132.36"/>
<polygon fill="midnightblue" stroke="midnightblue" points="282.86,-128.86 272.36,-130.28 281.45,-135.72 282.86,-128.86"/>
</g>
<!-- Node10 -->
<g id="node10" class="node">
<title>Node10</title>
<g id="a_node10"><a xlink:href="rmd160_8h.html" target="_top" xlink:title="ripemd implementation">
<polygon fill="white" stroke="black" points="290,-112.5 290,-131.5 353,-131.5 353,-112.5 290,-112.5"/>
<text text-anchor="middle" x="321.5" y="-119.5" font-family="Helvetica,sans-Serif" font-size="10.00">rmd160.h</text>
</a>
</g>
</g>
<!-- Node2&#45;&gt;Node10 -->
<g id="edge13" class="edge">
<title>Node2&#45;&gt;Node10</title>
<path fill="none" stroke="midnightblue" d="M488.97,-168.44C454.91,-159.2 400.5,-144.44 362.99,-134.26"/>
<polygon fill="midnightblue" stroke="midnightblue" points="363.46,-130.76 352.89,-131.52 361.62,-137.51 363.46,-130.76"/>
</g>
<!-- Node11 -->
<g id="node11" class="node">
<title>Node11</title>
<g id="a_node11"><a xlink:href="rmd256_8h.html" target="_top" xlink:title="ripemd implementation">
<polygon fill="white" stroke="black" points="371,-112.5 371,-131.5 434,-131.5 434,-112.5 371,-112.5"/>
<text text-anchor="middle" x="402.5" y="-119.5" font-family="Helvetica,sans-Serif" font-size="10.00">rmd256.h</text>
</a>
</g>
</g>
<!-- Node2&#45;&gt;Node11 -->
<g id="edge15" class="edge">
<title>Node2&#45;&gt;Node11</title>
<path fill="none" stroke="midnightblue" d="M501.81,-168.44C482.56,-159.64 452.35,-145.81 430.3,-135.72"/>
<polygon fill="midnightblue" stroke="midnightblue" points="431.66,-132.5 421.11,-131.52 428.75,-138.86 431.66,-132.5"/>
</g>
<!-- Node12 -->
<g id="node12" class="node">
<title>Node12</title>
<g id="a_node12"><a xlink:href="rmd320_8h.html" target="_top" xlink:title="ripemd implementation">
<polygon fill="white" stroke="black" points="452,-112.5 452,-131.5 515,-131.5 515,-112.5 452,-112.5"/>
<text text-anchor="middle" x="483.5" y="-119.5" font-family="Helvetica,sans-Serif" font-size="10.00">rmd320.h</text>
</a>
</g>
</g>
<!-- Node2&#45;&gt;Node12 -->
<g id="edge17" class="edge">
<title>Node2&#45;&gt;Node12</title>
<path fill="none" stroke="midnightblue" d="M514.39,-168.08C509.22,-160.53 501.66,-149.49 495.31,-140.23"/>
<polygon fill="midnightblue" stroke="midnightblue" points="498.04,-138.02 489.5,-131.75 492.27,-141.98 498.04,-138.02"/>
</g>
<!-- Node13 -->
<g id="node13" class="node">
<title>Node13</title>
<g id="a_node13"><a xlink:href="sha1_8h.html" target="_top" xlink:title="RFC 3174 compliant SHA1 implementation.">
<polygon fill="white" stroke="black" points="533,-112.5 533,-131.5 582,-131.5 582,-112.5 533,-112.5"/>
<text text-anchor="middle" x="557.5" y="-119.5" font-family="Helvetica,sans-Serif" font-size="10.00">sha1.h</text>
</a>
</g>
</g>
<!-- Node2&#45;&gt;Node13 -->
<g id="edge19" class="edge">
<title>Node2&#45;&gt;Node13</title>
<path fill="none" stroke="midnightblue" d="M526.61,-168.08C531.79,-160.53 539.35,-149.49 545.7,-140.23"/>
<polygon fill="midnightblue" stroke="midnightblue" points="548.74,-141.98 551.51,-131.75 542.97,-138.02 548.74,-141.98"/>
</g>
<!-- Node14 -->
<g id="node14" class="node">
<title>Node14</title>
<g id="a_node14"><a xlink:href="sha256_8h.html" target="_top" xlink:title="RFC 5754 compliant SHA2 implementation.">
<polygon fill="white" stroke="black" points="600,-112.5 600,-131.5 661,-131.5 661,-112.5 600,-112.5"/>
<text text-anchor="middle" x="630.5" y="-119.5" font-family="Helvetica,sans-Serif" font-size="10.00">sha256.h</text>
</a>
</g>
</g>
<!-- Node2&#45;&gt;Node14 -->
<g id="edge21" class="edge">
<title>Node2&#45;&gt;Node14</title>
<path fill="none" stroke="midnightblue" d="M538.18,-168.32C555.9,-159.62 583.41,-146.12 603.79,-136.11"/>
<polygon fill="midnightblue" stroke="midnightblue" points="605.44,-139.2 612.88,-131.65 602.36,-132.92 605.44,-139.2"/>
</g>
<!-- Node15 -->
<g id="node15" class="node">
<title>Node15</title>
<g id="a_node15"><a xlink:href="sha512_8h.html" target="_top" xlink:title="RFC 5754 compliant SHA2 implementation.">
<polygon fill="white" stroke="black" points="679,-112.5 679,-131.5 740,-131.5 740,-112.5 679,-112.5"/>
<text text-anchor="middle" x="709.5" y="-119.5" font-family="Helvetica,sans-Serif" font-size="10.00">sha512.h</text>
</a>
</g>
</g>
<!-- Node2&#45;&gt;Node15 -->
<g id="edge23" class="edge">
<title>Node2&#45;&gt;Node15</title>
<path fill="none" stroke="midnightblue" d="M550.45,-168.44C582.66,-159.24 634.04,-144.56 669.65,-134.39"/>
<polygon fill="midnightblue" stroke="midnightblue" points="671.04,-137.63 679.7,-131.52 669.12,-130.9 671.04,-137.63"/>
</g>
<!-- Node16 -->
<g id="node16" class="node">
<title>Node16</title>
<g id="a_node16"><a xlink:href="sha3_8h.html" target="_top" xlink:title="SHA3 implementation.">
<polygon fill="white" stroke="black" points="758,-112.5 758,-131.5 807,-131.5 807,-112.5 758,-112.5"/>
<text text-anchor="middle" x="782.5" y="-119.5" font-family="Helvetica,sans-Serif" font-size="10.00">sha3.h</text>
</a>
</g>
</g>
<!-- Node2&#45;&gt;Node16 -->
<g id="edge25" class="edge">
<title>Node2&#45;&gt;Node16</title>
<path fill="none" stroke="midnightblue" d="M567.21,-168.84C611.46,-160.89 679.98,-147.98 747.7,-132.31"/>
<polygon fill="midnightblue" stroke="midnightblue" points="748.75,-135.66 757.69,-129.97 747.15,-128.84 748.75,-135.66"/>
</g>
<!-- Node17 -->
<g id="node17" class="node">
<title>Node17</title>
<g id="a_node17"><a xlink:href="tiger_8h.html" target="_top" xlink:title="tiger implementation">
<polygon fill="white" stroke="black" points="825,-112.5 825,-131.5 872,-131.5 872,-112.5 825,-112.5"/>
<text text-anchor="middle" x="848.5" y="-119.5" font-family="Helvetica,sans-Serif" font-size="10.00">tiger.h</text>
</a>
</g>
</g>
<!-- Node2&#45;&gt;Node17 -->
<g id="edge27" class="edge">
<title>Node2&#45;&gt;Node17</title>
<path fill="none" stroke="midnightblue" d="M567.25,-169.45C570.38,-168.96 573.49,-168.47 576.5,-168 679.96,-151.93 709.34,-154.47 815.04,-132.11"/>
<polygon fill="midnightblue" stroke="midnightblue" points="815.78,-135.53 824.82,-130.02 814.31,-128.69 815.78,-135.53"/>
</g>
<!-- Node18 -->
<g id="node18" class="node">
<title>Node18</title>
<g id="a_node18"><a xlink:href="whirl_8h.html" target="_top" xlink:title="whirlpool implementation">
<polygon fill="white" stroke="black" points="890.5,-112.5 890.5,-131.5 940.5,-131.5 940.5,-112.5 890.5,-112.5"/>
<text text-anchor="middle" x="915.5" y="-119.5" font-family="Helvetica,sans-Serif" font-size="10.00">whirl.h</text>
</a>
</g>
</g>
<!-- Node2&#45;&gt;Node18 -->
<g id="edge29" class="edge">
<title>Node2&#45;&gt;Node18</title>
<path fill="none" stroke="midnightblue" d="M567.23,-169.34C570.37,-168.87 573.48,-168.42 576.5,-168 708.53,-149.61 745.69,-157.15 880.47,-131.96"/>
<polygon fill="midnightblue" stroke="midnightblue" points="881.17,-135.38 890.34,-130.08 879.87,-128.51 881.17,-135.38"/>
</g>
<!-- Node19 -->
<g id="node19" class="node">
<title>Node19</title>
<g id="a_node19"><a xlink:href="blake2s_8h.html" target="_top" xlink:title="RFC 7693 compliant BLAKE implementation.">
<polygon fill="white" stroke="black" points="959,-112.5 959,-131.5 1022,-131.5 1022,-112.5 959,-112.5"/>
<text text-anchor="middle" x="990.5" y="-119.5" font-family="Helvetica,sans-Serif" font-size="10.00">blake2s.h</text>
</a>
</g>
</g>
<!-- Node2&#45;&gt;Node19 -->
<g id="edge31" class="edge">
<title>Node2&#45;&gt;Node19</title>
<path fill="none" stroke="midnightblue" d="M567.22,-169.27C570.36,-168.82 573.48,-168.39 576.5,-168 738.47,-147.19 783.25,-157.48 948.76,-131.93"/>
<polygon fill="midnightblue" stroke="midnightblue" points="949.45,-135.36 958.79,-130.35 948.37,-128.44 949.45,-135.36"/>
</g>
<!-- Node20 -->
<g id="node20" class="node">
<title>Node20</title>
<g id="a_node20"><a xlink:href="blake2b_8h.html" target="_top" xlink:title="RFC 7693 compliant BLAKE implementation.">
<polygon fill="white" stroke="black" points="1040.5,-112.5 1040.5,-131.5 1104.5,-131.5 1104.5,-112.5 1040.5,-112.5"/>
<text text-anchor="middle" x="1072.5" y="-119.5" font-family="Helvetica,sans-Serif" font-size="10.00">blake2b.h</text>
</a>
</g>
</g>
<!-- Node2&#45;&gt;Node20 -->
<g id="edge33" class="edge">
<title>Node2&#45;&gt;Node20</title>
<path fill="none" stroke="midnightblue" d="M567.22,-169.2C570.36,-168.77 573.47,-168.36 576.5,-168 774.68,-144.27 829.11,-161.25 1030.35,-131.97"/>
<polygon fill="midnightblue" stroke="midnightblue" points="1030.97,-135.42 1040.35,-130.49 1029.95,-128.49 1030.97,-135.42"/>
</g>
<!-- Node4 -->
<g id="node4" class="node">
<title>Node4</title>
<g id="a_node4"><a xlink:title=" ">
<polygon fill="white" stroke="#bfbfbf" points="456.5,-0.5 456.5,-19.5 512.5,-19.5 512.5,-0.5 456.5,-0.5"/>
<text text-anchor="middle" x="484.5" y="-7.5" font-family="Helvetica,sans-Serif" font-size="10.00">stddef.h</text>
</a>
</g>
</g>
<!-- Node3&#45;&gt;Node4 -->
<g id="edge3" class="edge">
<title>Node3&#45;&gt;Node4</title>
<path fill="none" stroke="midnightblue" d="M514.56,-56.08C509.53,-48.53 502.17,-37.49 495.99,-28.23"/>
<polygon fill="midnightblue" stroke="midnightblue" points="498.8,-26.13 490.34,-19.75 492.97,-30.01 498.8,-26.13"/>
</g>
<!-- Node5 -->
<g id="node5" class="node">
<title>Node5</title>
<g id="a_node5"><a xlink:title=" ">
<polygon fill="white" stroke="#bfbfbf" points="531,-0.5 531,-19.5 584,-19.5 584,-0.5 531,-0.5"/>
<text text-anchor="middle" x="557.5" y="-7.5" font-family="Helvetica,sans-Serif" font-size="10.00">stdint.h</text>
</a>
</g>
</g>
<!-- Node3&#45;&gt;Node5 -->
<g id="edge4" class="edge">
<title>Node3&#45;&gt;Node5</title>
<path fill="none" stroke="midnightblue" d="M526.61,-56.08C531.79,-48.53 539.35,-37.49 545.7,-28.23"/>
<polygon fill="midnightblue" stroke="midnightblue" points="548.74,-29.98 551.51,-19.75 542.97,-26.02 548.74,-29.98"/>
</g>
<!-- Node6&#45;&gt;Node3 -->
<g id="edge6" class="edge">
<title>Node6&#45;&gt;Node3</title>
<path fill="none" stroke="midnightblue" d="M61.16,-113.85C63.96,-113.15 66.78,-112.51 69.5,-112 222.73,-83.04 409,-71.95 485.33,-68.42"/>
<polygon fill="midnightblue" stroke="midnightblue" points="485.52,-71.91 495.35,-67.97 485.2,-64.92 485.52,-71.91"/>
</g>
<!-- Node7&#45;&gt;Node3 -->
<g id="edge8" class="edge">
<title>Node7&#45;&gt;Node3</title>
<path fill="none" stroke="midnightblue" d="M126.17,-113.89C128.96,-113.19 131.79,-112.54 134.5,-112 262.36,-86.73 417.04,-73.98 485.26,-69.24"/>
<polygon fill="midnightblue" stroke="midnightblue" points="485.72,-72.71 495.46,-68.54 485.24,-65.73 485.72,-72.71"/>
</g>
<!-- Node8&#45;&gt;Node3 -->
<g id="edge10" class="edge">
<title>Node8&#45;&gt;Node3</title>
<path fill="none" stroke="midnightblue" d="M191.18,-113.96C193.97,-113.24 196.79,-112.57 199.5,-112 302.38,-90.43 426.02,-76.38 485.36,-70.36"/>
<polygon fill="midnightblue" stroke="midnightblue" points="485.73,-73.84 495.33,-69.36 485.03,-66.87 485.73,-73.84"/>
</g>
<!-- Node9&#45;&gt;Node3 -->
<g id="edge12" class="edge">
<title>Node9&#45;&gt;Node3</title>
<path fill="none" stroke="midnightblue" d="M272.36,-113.72C275.11,-113.13 277.86,-112.55 280.5,-112 353.07,-97.04 438.42,-81.53 485.27,-73.2"/>
<polygon fill="midnightblue" stroke="midnightblue" points="485.99,-76.62 495.22,-71.43 484.76,-69.73 485.99,-76.62"/>
</g>
<!-- Node10&#45;&gt;Node3 -->
<g id="edge14" class="edge">
<title>Node10&#45;&gt;Node3</title>
<path fill="none" stroke="midnightblue" d="M353.04,-112.44C389.1,-102.66 447.98,-86.68 485.46,-76.51"/>
<polygon fill="midnightblue" stroke="midnightblue" points="486.69,-79.8 495.42,-73.81 484.85,-73.05 486.69,-79.8"/>
</g>
<!-- Node11&#45;&gt;Node3 -->
<g id="edge16" class="edge">
<title>Node11&#45;&gt;Node3</title>
<path fill="none" stroke="midnightblue" d="M421.2,-112.44C440.45,-103.64 470.66,-89.81 492.7,-79.72"/>
<polygon fill="midnightblue" stroke="midnightblue" points="494.26,-82.86 501.89,-75.52 491.35,-76.5 494.26,-82.86"/>
</g>
<!-- Node12&#45;&gt;Node3 -->
<g id="edge18" class="edge">
<title>Node12&#45;&gt;Node3</title>
<path fill="none" stroke="midnightblue" d="M489.61,-112.08C494.79,-104.53 502.35,-93.49 508.7,-84.23"/>
<polygon fill="midnightblue" stroke="midnightblue" points="511.74,-85.98 514.51,-75.75 505.97,-82.02 511.74,-85.98"/>
</g>
<!-- Node13&#45;&gt;Node3 -->
<g id="edge20" class="edge">
<title>Node13&#45;&gt;Node3</title>
<path fill="none" stroke="midnightblue" d="M551.39,-112.08C546.22,-104.53 538.66,-93.49 532.31,-84.23"/>
<polygon fill="midnightblue" stroke="midnightblue" points="535.04,-82.02 526.5,-75.75 529.27,-85.98 535.04,-82.02"/>
</g>
<!-- Node14&#45;&gt;Node3 -->
<g id="edge22" class="edge">
<title>Node14&#45;&gt;Node3</title>
<path fill="none" stroke="midnightblue" d="M612.83,-112.32C595.11,-103.62 567.6,-90.12 547.22,-80.11"/>
<polygon fill="midnightblue" stroke="midnightblue" points="548.65,-76.92 538.13,-75.65 545.57,-83.2 548.65,-76.92"/>
</g>
<!-- Node15&#45;&gt;Node3 -->
<g id="edge24" class="edge">
<title>Node15&#45;&gt;Node3</title>
<path fill="none" stroke="midnightblue" d="M679.56,-112.44C645.93,-102.83 591.4,-87.26 555.74,-77.07"/>
<polygon fill="midnightblue" stroke="midnightblue" points="556.35,-73.6 545.78,-74.22 554.43,-80.33 556.35,-73.6"/>
</g>
<!-- Node16&#45;&gt;Node3 -->
<g id="edge26" class="edge">
<title>Node16&#45;&gt;Node3</title>
<path fill="none" stroke="midnightblue" d="M757.69,-114.03C754.93,-113.31 752.16,-112.62 749.5,-112 681.25,-96.01 600.65,-81.08 555.57,-73.08"/>
<polygon fill="midnightblue" stroke="midnightblue" points="556.16,-69.63 545.71,-71.34 554.95,-76.52 556.16,-69.63"/>
</g>
<!-- Node17&#45;&gt;Node3 -->
<g id="edge28" class="edge">
<title>Node17&#45;&gt;Node3</title>
<path fill="none" stroke="midnightblue" d="M824.82,-113.99C822.03,-113.27 819.21,-112.58 816.5,-112 723.19,-91.86 611.41,-77.46 555.7,-70.93"/>
<polygon fill="midnightblue" stroke="midnightblue" points="555.98,-67.43 545.64,-69.76 555.17,-74.39 555.98,-67.43"/>
</g>
<!-- Node18&#45;&gt;Node3 -->
<g id="edge30" class="edge">
<title>Node18&#45;&gt;Node3</title>
<path fill="none" stroke="midnightblue" d="M890.34,-113.93C887.38,-113.22 884.38,-112.56 881.5,-112 763.15,-89.07 620.6,-75.32 555.73,-69.8"/>
<polygon fill="midnightblue" stroke="midnightblue" points="555.89,-66.3 545.63,-68.96 555.31,-73.28 555.89,-66.3"/>
</g>
<!-- Node19&#45;&gt;Node3 -->
<g id="edge32" class="edge">
<title>Node19&#45;&gt;Node3</title>
<path fill="none" stroke="midnightblue" d="M958.79,-113.67C955.66,-113.06 952.53,-112.49 949.5,-112 804.35,-88.53 629.5,-74.59 555.89,-69.37"/>
<polygon fill="midnightblue" stroke="midnightblue" points="556,-65.87 545.78,-68.66 555.51,-72.85 556,-65.87"/>
</g>
<!-- Node20&#45;&gt;Node3 -->
<g id="edge34" class="edge">
<title>Node20&#45;&gt;Node3</title>
<path fill="none" stroke="midnightblue" d="M1040.35,-113.53C1037.37,-112.96 1034.39,-112.44 1031.5,-112 853.98,-84.81 639.05,-72.53 555.81,-68.55"/>
<polygon fill="midnightblue" stroke="midnightblue" points="555.78,-65.04 545.63,-68.07 555.46,-72.03 555.78,-65.04"/>
</g>
</g>
</svg>
