<?xml version="1.0" encoding="UTF-8" standalone="no"?>
<!DOCTYPE svg PUBLIC "-//W3C//DTD SVG 1.1//EN"
 "http://www.w3.org/Graphics/SVG/1.1/DTD/svg11.dtd">
<!-- Generated by graphviz version 2.43.0 (0)
 -->
<!-- Title: include/a/cksum/hash.h Pages: 1 -->
<!--zoomable 218 -->
<svg id="main" version="1.1" xmlns="http://www.w3.org/2000/svg" xmlns:xlink="http://www.w3.org/1999/xlink" xml:space="preserve" onload="init(evt)">
<style type="text/css"><![CDATA[
.edge:hover path { stroke: red; }
.edge:hover polygon { stroke: red; fill: red; }
]]></style>
<script type="text/javascript"><![CDATA[
var edges = document.getElementsByTagName('g');
if (edges && edges.length) {
  for (var i=0;i<edges.length;i++) {
    if (edges[i].id.substr(0,4)=='edge') {
      edges[i].setAttribute('class','edge');
    }
  }
}
]]></script>
        <defs>
                <circle id="rim" cx="0" cy="0" r="7"/>
                <circle id="rim2" cx="0" cy="0" r="3.5"/>
                <g id="zoomPlus">
                        <use xlink:href="#rim" fill="#404040">
                                <set attributeName="fill" to="#808080" begin="zoomplus.mouseover" end="zoomplus.mouseout"/>
                        </use>
                        <path d="M-4,0h8M0,-4v8" fill="none" stroke="white" stroke-width="1.5" pointer-events="none"/>
                </g>
                <g id="zoomMin">
                        <use xlink:href="#rim" fill="#404040">
                                <set attributeName="fill" to="#808080" begin="zoomminus.mouseover" end="zoomminus.mouseout"/>
                        </use>
                        <path d="M-4,0h8" fill="none" stroke="white" stroke-width="1.5" pointer-events="none"/>
                </g>
                <g id="dirArrow">
                        <path fill="none" stroke="white" stroke-width="1.5" d="M0,-3.0v7 M-2.5,-0.5L0,-3.0L2.5,-0.5"/>
                </g>
               <g id="resetDef">
                       <use xlink:href="#rim2" fill="#404040">
                               <set attributeName="fill" to="#808080" begin="reset.mouseover" end="reset.mouseout"/>
                       </use>
               </g>
        </defs>

<script type="text/javascript">
var viewWidth = 2290;
var viewHeight = 218;
var sectionId = 'dynsection-1';
</script>
<script xlink:href="svgpan.js"/>
<svg id="graph" class="graph">
<g id="viewport">
<title>include/a/cksum/hash.h</title>
<polygon fill="white" stroke="transparent" points="-4,4 -4,-214 2285.5,-214 2285.5,4 -4,4"/>
<!-- Node1 -->
<g id="node1" class="node">
<title>Node1</title>
<g id="a_node1"><a xlink:title="hash library">
<polygon fill="#bfbfbf" stroke="black" points="1089.5,-190.5 1089.5,-209.5 1220.5,-209.5 1220.5,-190.5 1089.5,-190.5"/>
<text text-anchor="middle" x="1155" y="-197.5" font-family="Helvetica,sans-Serif" font-size="10.00">include/a/cksum/hash.h</text>
</a>
</g>
</g>
<!-- Node2 -->
<g id="node2" class="node">
<title>Node2</title>
<g id="a_node2"><a xlink:href="hash__util_8h.html" target="_top" xlink:title="hash library utils">
<polygon fill="white" stroke="black" points="0,-123.5 0,-153.5 122,-153.5 122,-123.5 0,-123.5"/>
<text text-anchor="start" x="8" y="-141.5" font-family="Helvetica,sans-Serif" font-size="10.00">include/a/cksum/hash</text>
<text text-anchor="middle" x="61" y="-130.5" font-family="Helvetica,sans-Serif" font-size="10.00">_util.h</text>
</a>
</g>
</g>
<!-- Node1&#45;&gt;Node2 -->
<g id="edge1" class="edge">
<title>Node1&#45;&gt;Node2</title>
<path fill="none" stroke="midnightblue" d="M1079.3,-199.81C909.11,-200.73 483.58,-197.98 131,-154 128.17,-153.65 125.28,-153.24 122.37,-152.79"/>
<polygon fill="midnightblue" stroke="midnightblue" points="1079.43,-203.31 1089.4,-199.75 1079.38,-196.31 1079.43,-203.31"/>
</g>
<!-- Node4 -->
<g id="node4" class="node">
<title>Node4</title>
<g id="a_node4"><a xlink:href="hmac_8h.html" target="_top" xlink:title="RFC 2104 compliant HMAC implementation.">
<polygon fill="white" stroke="black" points="140.5,-129 140.5,-148 275.5,-148 275.5,-129 140.5,-129"/>
<text text-anchor="middle" x="208" y="-136" font-family="Helvetica,sans-Serif" font-size="10.00">include/a/cksum/hmac.h</text>
</a>
</g>
</g>
<!-- Node1&#45;&gt;Node4 -->
<g id="edge3" class="edge">
<title>Node1&#45;&gt;Node4</title>
<path fill="none" stroke="midnightblue" d="M1079.14,-198.5C927.65,-196.74 577.14,-188.9 285,-154 272.84,-152.55 259.72,-150.32 247.81,-148.05"/>
<polygon fill="midnightblue" stroke="midnightblue" points="1079.22,-202 1089.26,-198.61 1079.3,-195 1079.22,-202"/>
</g>
<!-- Node8 -->
<g id="node8" class="node">
<title>Node8</title>
<g id="a_node8"><a xlink:href="blake2b_8c.html" target="_top" xlink:title="RFC 7693 compliant BLAKE implementation.">
<polygon fill="white" stroke="black" points="294,-129 294,-148 410,-148 410,-129 294,-129"/>
<text text-anchor="middle" x="352" y="-136" font-family="Helvetica,sans-Serif" font-size="10.00">src/cksum/blake2b.c</text>
</a>
</g>
</g>
<!-- Node1&#45;&gt;Node8 -->
<g id="edge7" class="edge">
<title>Node1&#45;&gt;Node8</title>
<path fill="none" stroke="midnightblue" d="M1079.15,-198.07C945.42,-195.61 659.19,-186.64 420,-154 409.24,-152.53 397.64,-150.3 387.12,-148.03"/>
<polygon fill="midnightblue" stroke="midnightblue" points="1079.23,-201.57 1089.29,-198.25 1079.35,-194.58 1079.23,-201.57"/>
</g>
<!-- Node9 -->
<g id="node9" class="node">
<title>Node9</title>
<g id="a_node9"><a xlink:href="blake2s_8c.html" target="_top" xlink:title="RFC 7693 compliant BLAKE implementation.">
<polygon fill="white" stroke="black" points="428.5,-129 428.5,-148 543.5,-148 543.5,-129 428.5,-129"/>
<text text-anchor="middle" x="486" y="-136" font-family="Helvetica,sans-Serif" font-size="10.00">src/cksum/blake2s.c</text>
</a>
</g>
</g>
<!-- Node1&#45;&gt;Node9 -->
<g id="edge8" class="edge">
<title>Node1&#45;&gt;Node9</title>
<path fill="none" stroke="midnightblue" d="M1079.14,-196.7C964.63,-192.47 741.03,-181.24 553,-154 542.52,-152.48 531.23,-150.27 520.95,-148.02"/>
<polygon fill="midnightblue" stroke="midnightblue" points="1079.08,-200.2 1089.2,-197.06 1079.33,-193.2 1079.08,-200.2"/>
</g>
<!-- Node10 -->
<g id="node10" class="node">
<title>Node10</title>
<g id="a_node10"><a xlink:href="hash_8c.html" target="_top" xlink:title="hash library">
<polygon fill="white" stroke="black" points="561.5,-129 561.5,-148 662.5,-148 662.5,-129 561.5,-129"/>
<text text-anchor="middle" x="612" y="-136" font-family="Helvetica,sans-Serif" font-size="10.00">src/cksum/hash.c</text>
</a>
</g>
</g>
<!-- Node1&#45;&gt;Node10 -->
<g id="edge9" class="edge">
<title>Node1&#45;&gt;Node10</title>
<path fill="none" stroke="midnightblue" d="M1079.24,-195.33C983.77,-189.93 814.87,-177.79 672,-154 662.7,-152.45 652.7,-150.25 643.59,-148.04"/>
<polygon fill="midnightblue" stroke="midnightblue" points="1079.2,-198.83 1089.38,-195.89 1079.59,-191.84 1079.2,-198.83"/>
</g>
<!-- Node11 -->
<g id="node11" class="node">
<title>Node11</title>
<g id="a_node11"><a xlink:href="md2_8c.html" target="_top" xlink:title="RFC 1319 compliant MD2 implementation.">
<polygon fill="white" stroke="black" points="680.5,-129 680.5,-148 779.5,-148 779.5,-129 680.5,-129"/>
<text text-anchor="middle" x="730" y="-136" font-family="Helvetica,sans-Serif" font-size="10.00">src/cksum/md2.c</text>
</a>
</g>
</g>
<!-- Node1&#45;&gt;Node11 -->
<g id="edge10" class="edge">
<title>Node1&#45;&gt;Node11</title>
<path fill="none" stroke="midnightblue" d="M1078.99,-192.31C1004.68,-185.14 888.53,-172.28 789,-154 780.08,-152.36 770.49,-150.19 761.7,-148.02"/>
<polygon fill="midnightblue" stroke="midnightblue" points="1078.9,-195.82 1089.19,-193.28 1079.57,-188.85 1078.9,-195.82"/>
</g>
<!-- Node12 -->
<g id="node12" class="node">
<title>Node12</title>
<g id="a_node12"><a xlink:href="md4_8c.html" target="_top" xlink:title="RFC 1320 compliant MD4 implementation.">
<polygon fill="white" stroke="black" points="797.5,-129 797.5,-148 896.5,-148 896.5,-129 797.5,-129"/>
<text text-anchor="middle" x="847" y="-136" font-family="Helvetica,sans-Serif" font-size="10.00">src/cksum/md4.c</text>
</a>
</g>
</g>
<!-- Node1&#45;&gt;Node12 -->
<g id="edge11" class="edge">
<title>Node1&#45;&gt;Node12</title>
<path fill="none" stroke="midnightblue" d="M1092.24,-188.77C1041.77,-180.27 969.11,-167.44 906,-154 897.64,-152.22 888.67,-150.11 880.3,-148.07"/>
<polygon fill="midnightblue" stroke="midnightblue" points="1091.91,-192.26 1102.35,-190.46 1093.07,-185.36 1091.91,-192.26"/>
</g>
<!-- Node13 -->
<g id="node13" class="node">
<title>Node13</title>
<g id="a_node13"><a xlink:href="md5_8c.html" target="_top" xlink:title="RFC 1321 compliant MD5 implementation.">
<polygon fill="white" stroke="black" points="914.5,-129 914.5,-148 1013.5,-148 1013.5,-129 914.5,-129"/>
<text text-anchor="middle" x="964" y="-136" font-family="Helvetica,sans-Serif" font-size="10.00">src/cksum/md5.c</text>
</a>
</g>
</g>
<!-- Node1&#45;&gt;Node13 -->
<g id="edge12" class="edge">
<title>Node1&#45;&gt;Node13</title>
<path fill="none" stroke="midnightblue" d="M1117.7,-187.38C1080.57,-175.82 1024.48,-158.34 991.31,-148.01"/>
<polygon fill="midnightblue" stroke="midnightblue" points="1117.05,-190.84 1127.63,-190.48 1119.13,-184.16 1117.05,-190.84"/>
</g>
<!-- Node14 -->
<g id="node14" class="node">
<title>Node14</title>
<g id="a_node14"><a xlink:href="rmd128_8c.html" target="_top" xlink:title="ripemd implementation">
<polygon fill="white" stroke="black" points="1031.5,-129 1031.5,-148 1146.5,-148 1146.5,-129 1031.5,-129"/>
<text text-anchor="middle" x="1089" y="-136" font-family="Helvetica,sans-Serif" font-size="10.00">src/cksum/rmd128.c</text>
</a>
</g>
</g>
<!-- Node1&#45;&gt;Node14 -->
<g id="edge13" class="edge">
<title>Node1&#45;&gt;Node14</title>
<path fill="none" stroke="midnightblue" d="M1137.97,-183.65C1125.39,-172.31 1108.72,-157.28 1098.44,-148.01"/>
<polygon fill="midnightblue" stroke="midnightblue" points="1135.77,-186.38 1145.54,-190.48 1140.46,-181.18 1135.77,-186.38"/>
</g>
<!-- Node15 -->
<g id="node15" class="node">
<title>Node15</title>
<g id="a_node15"><a xlink:href="rmd160_8c.html" target="_top" xlink:title="ripemd implementation">
<polygon fill="white" stroke="black" points="1164.5,-129 1164.5,-148 1279.5,-148 1279.5,-129 1164.5,-129"/>
<text text-anchor="middle" x="1222" y="-136" font-family="Helvetica,sans-Serif" font-size="10.00">src/cksum/rmd160.c</text>
</a>
</g>
</g>
<!-- Node1&#45;&gt;Node15 -->
<g id="edge14" class="edge">
<title>Node1&#45;&gt;Node15</title>
<path fill="none" stroke="midnightblue" d="M1172.29,-183.65C1185.06,-172.31 1201.98,-157.28 1212.42,-148.01"/>
<polygon fill="midnightblue" stroke="midnightblue" points="1169.75,-181.22 1164.6,-190.48 1174.4,-186.45 1169.75,-181.22"/>
</g>
<!-- Node16 -->
<g id="node16" class="node">
<title>Node16</title>
<g id="a_node16"><a xlink:href="rmd256_8c.html" target="_top" xlink:title="ripemd implementation">
<polygon fill="white" stroke="black" points="1297.5,-129 1297.5,-148 1412.5,-148 1412.5,-129 1297.5,-129"/>
<text text-anchor="middle" x="1355" y="-136" font-family="Helvetica,sans-Serif" font-size="10.00">src/cksum/rmd256.c</text>
</a>
</g>
</g>
<!-- Node1&#45;&gt;Node16 -->
<g id="edge15" class="edge">
<title>Node1&#45;&gt;Node16</title>
<path fill="none" stroke="midnightblue" d="M1193.56,-187.53C1232.43,-175.96 1291.52,-158.38 1326.4,-148.01"/>
<polygon fill="midnightblue" stroke="midnightblue" points="1192.24,-184.27 1183.66,-190.48 1194.24,-190.98 1192.24,-184.27"/>
</g>
<!-- Node17 -->
<g id="node17" class="node">
<title>Node17</title>
<g id="a_node17"><a xlink:href="rmd320_8c.html" target="_top" xlink:title="ripemd implementation">
<polygon fill="white" stroke="black" points="1430.5,-129 1430.5,-148 1545.5,-148 1545.5,-129 1430.5,-129"/>
<text text-anchor="middle" x="1488" y="-136" font-family="Helvetica,sans-Serif" font-size="10.00">src/cksum/rmd320.c</text>
</a>
</g>
</g>
<!-- Node1&#45;&gt;Node17 -->
<g id="edge16" class="edge">
<title>Node1&#45;&gt;Node17</title>
<path fill="none" stroke="midnightblue" d="M1220.52,-188.88C1274.67,-180.3 1353.5,-167.29 1422,-154 1431.33,-152.19 1441.36,-150.07 1450.72,-148.03"/>
<polygon fill="midnightblue" stroke="midnightblue" points="1219.7,-185.47 1210.37,-190.48 1220.79,-192.38 1219.7,-185.47"/>
</g>
<!-- Node18 -->
<g id="node18" class="node">
<title>Node18</title>
<g id="a_node18"><a xlink:href="sha1_8c.html" target="_top" xlink:title="RFC 3174 compliant SHA1 implementation.">
<polygon fill="white" stroke="black" points="1563.5,-129 1563.5,-148 1664.5,-148 1664.5,-129 1563.5,-129"/>
<text text-anchor="middle" x="1614" y="-136" font-family="Helvetica,sans-Serif" font-size="10.00">src/cksum/sha1.c</text>
</a>
</g>
</g>
<!-- Node1&#45;&gt;Node18 -->
<g id="edge17" class="edge">
<title>Node1&#45;&gt;Node18</title>
<path fill="none" stroke="midnightblue" d="M1230.93,-193.39C1311.7,-186.74 1443.01,-173.98 1555,-154 1564.03,-152.39 1573.74,-150.2 1582.62,-148.01"/>
<polygon fill="midnightblue" stroke="midnightblue" points="1230.53,-189.91 1220.85,-194.21 1231.1,-196.89 1230.53,-189.91"/>
</g>
<!-- Node19 -->
<g id="node19" class="node">
<title>Node19</title>
<g id="a_node19"><a xlink:href="sha256_8c.html" target="_top" xlink:title="RFC 5754 compliant SHA2 implementation.">
<polygon fill="white" stroke="black" points="1682.5,-129 1682.5,-148 1795.5,-148 1795.5,-129 1682.5,-129"/>
<text text-anchor="middle" x="1739" y="-136" font-family="Helvetica,sans-Serif" font-size="10.00">src/cksum/sha256.c</text>
</a>
</g>
</g>
<!-- Node1&#45;&gt;Node19 -->
<g id="edge18" class="edge">
<title>Node1&#45;&gt;Node19</title>
<path fill="none" stroke="midnightblue" d="M1231.03,-195.58C1332.5,-190.29 1517.58,-178.12 1674,-154 1684.06,-152.45 1694.88,-150.25 1704.75,-148.03"/>
<polygon fill="midnightblue" stroke="midnightblue" points="1230.69,-192.09 1220.88,-196.1 1231.04,-199.08 1230.69,-192.09"/>
</g>
<!-- Node20 -->
<g id="node20" class="node">
<title>Node20</title>
<g id="a_node20"><a xlink:href="sha3_8c.html" target="_top" xlink:title="SHA3 implementation.">
<polygon fill="white" stroke="black" points="1813.5,-129 1813.5,-148 1914.5,-148 1914.5,-129 1813.5,-129"/>
<text text-anchor="middle" x="1864" y="-136" font-family="Helvetica,sans-Serif" font-size="10.00">src/cksum/sha3.c</text>
</a>
</g>
</g>
<!-- Node1&#45;&gt;Node20 -->
<g id="edge19" class="edge">
<title>Node1&#45;&gt;Node20</title>
<path fill="none" stroke="midnightblue" d="M1231.26,-197.96C1353.18,-195.34 1599.21,-186.17 1805,-154 1814.38,-152.53 1824.46,-150.31 1833.58,-148.03"/>
<polygon fill="midnightblue" stroke="midnightblue" points="1230.85,-194.46 1220.92,-198.17 1230.99,-201.46 1230.85,-194.46"/>
</g>
<!-- Node21 -->
<g id="node21" class="node">
<title>Node21</title>
<g id="a_node21"><a xlink:href="sha512_8c.html" target="_top" xlink:title="RFC 5754 compliant SHA2 implementation.">
<polygon fill="white" stroke="black" points="1932.5,-129 1932.5,-148 2045.5,-148 2045.5,-129 1932.5,-129"/>
<text text-anchor="middle" x="1989" y="-136" font-family="Helvetica,sans-Serif" font-size="10.00">src/cksum/sha512.c</text>
</a>
</g>
</g>
<!-- Node1&#45;&gt;Node21 -->
<g id="edge20" class="edge">
<title>Node1&#45;&gt;Node21</title>
<path fill="none" stroke="midnightblue" d="M1230.75,-198.6C1369.11,-196.98 1671.71,-189.29 1924,-154 1934.31,-152.56 1945.4,-150.34 1955.45,-148.07"/>
<polygon fill="midnightblue" stroke="midnightblue" points="1230.63,-195.1 1220.67,-198.71 1230.71,-202.1 1230.63,-195.1"/>
</g>
<!-- Node22 -->
<g id="node22" class="node">
<title>Node22</title>
<g id="a_node22"><a xlink:href="tiger_8c.html" target="_top" xlink:title="TIGER implementation.">
<polygon fill="white" stroke="black" points="2063.5,-129 2063.5,-148 2162.5,-148 2162.5,-129 2063.5,-129"/>
<text text-anchor="middle" x="2113" y="-136" font-family="Helvetica,sans-Serif" font-size="10.00">src/cksum/tiger.c</text>
</a>
</g>
</g>
<!-- Node1&#45;&gt;Node22 -->
<g id="edge21" class="edge">
<title>Node1&#45;&gt;Node22</title>
<path fill="none" stroke="midnightblue" d="M1230.77,-197.11C1417.66,-192.15 1896.88,-177.49 2055,-154 2064.45,-152.6 2074.59,-150.33 2083.72,-148"/>
<polygon fill="midnightblue" stroke="midnightblue" points="1230.66,-193.61 1220.76,-197.38 1230.85,-200.61 1230.66,-193.61"/>
</g>
<!-- Node23 -->
<g id="node23" class="node">
<title>Node23</title>
<g id="a_node23"><a xlink:href="whirl_8c.html" target="_top" xlink:title="whirlpool implementation">
<polygon fill="white" stroke="black" points="2180.5,-129 2180.5,-148 2281.5,-148 2281.5,-129 2180.5,-129"/>
<text text-anchor="middle" x="2231" y="-136" font-family="Helvetica,sans-Serif" font-size="10.00">src/cksum/whirl.c</text>
</a>
</g>
</g>
<!-- Node1&#45;&gt;Node23 -->
<g id="edge22" class="edge">
<title>Node1&#45;&gt;Node23</title>
<path fill="none" stroke="midnightblue" d="M1230.78,-197.58C1434.43,-193.45 1990.39,-180.07 2172,-154 2181.61,-152.62 2191.93,-150.36 2201.21,-148.03"/>
<polygon fill="midnightblue" stroke="midnightblue" points="1230.7,-194.08 1220.77,-197.78 1230.84,-201.08 1230.7,-194.08"/>
</g>
<!-- Node3 -->
<g id="node3" class="node">
<title>Node3</title>
<g id="a_node3"><a xlink:href="hash__util_8c.html" target="_top" xlink:title="hash library utils">
<polygon fill="white" stroke="black" points="0,-62 0,-81 122,-81 122,-62 0,-62"/>
<text text-anchor="middle" x="61" y="-69" font-family="Helvetica,sans-Serif" font-size="10.00">src/cksum/hash_util.c</text>
</a>
</g>
</g>
<!-- Node2&#45;&gt;Node3 -->
<g id="edge2" class="edge">
<title>Node2&#45;&gt;Node3</title>
<path fill="none" stroke="midnightblue" d="M61,-113.25C61,-102.02 61,-89.38 61,-81.19"/>
<polygon fill="midnightblue" stroke="midnightblue" points="57.5,-113.4 61,-123.4 64.5,-113.4 57.5,-113.4"/>
</g>
<!-- Node5 -->
<g id="node5" class="node">
<title>Node5</title>
<g id="a_node5"><a xlink:href="hmac__util_8h.html" target="_top" xlink:title="hmac library utils">
<polygon fill="white" stroke="black" points="142,-56.5 142,-86.5 268,-86.5 268,-56.5 142,-56.5"/>
<text text-anchor="start" x="150" y="-74.5" font-family="Helvetica,sans-Serif" font-size="10.00">include/a/cksum/hmac</text>
<text text-anchor="middle" x="205" y="-63.5" font-family="Helvetica,sans-Serif" font-size="10.00">_util.h</text>
</a>
</g>
</g>
<!-- Node4&#45;&gt;Node5 -->
<g id="edge4" class="edge">
<title>Node4&#45;&gt;Node5</title>
<path fill="none" stroke="midnightblue" d="M207.13,-118.74C206.66,-108.49 206.08,-96 205.65,-86.59"/>
<polygon fill="midnightblue" stroke="midnightblue" points="203.64,-118.91 207.6,-128.73 210.63,-118.58 203.64,-118.91"/>
</g>
<!-- Node7 -->
<g id="node7" class="node">
<title>Node7</title>
<g id="a_node7"><a xlink:href="hmac_8c.html" target="_top" xlink:title="RFC 2104 compliant HMAC implementation.">
<polygon fill="white" stroke="black" points="286,-62 286,-81 390,-81 390,-62 286,-62"/>
<text text-anchor="middle" x="338" y="-69" font-family="Helvetica,sans-Serif" font-size="10.00">src/cksum/hmac.c</text>
</a>
</g>
</g>
<!-- Node4&#45;&gt;Node7 -->
<g id="edge6" class="edge">
<title>Node4&#45;&gt;Node7</title>
<path fill="none" stroke="midnightblue" d="M234.45,-124.27C260.2,-111.4 298.58,-92.21 320.67,-81.17"/>
<polygon fill="midnightblue" stroke="midnightblue" points="232.64,-121.27 225.26,-128.87 235.77,-127.53 232.64,-121.27"/>
</g>
<!-- Node6 -->
<g id="node6" class="node">
<title>Node6</title>
<g id="a_node6"><a xlink:href="hmac__util_8c.html" target="_top" xlink:title="hmac library utils">
<polygon fill="white" stroke="black" points="142.5,-0.5 142.5,-19.5 267.5,-19.5 267.5,-0.5 142.5,-0.5"/>
<text text-anchor="middle" x="205" y="-7.5" font-family="Helvetica,sans-Serif" font-size="10.00">src/cksum/hmac_util.c</text>
</a>
</g>
</g>
<!-- Node5&#45;&gt;Node6 -->
<g id="edge5" class="edge">
<title>Node5&#45;&gt;Node6</title>
<path fill="none" stroke="midnightblue" d="M205,-46.29C205,-36.86 205,-26.65 205,-19.66"/>
<polygon fill="midnightblue" stroke="midnightblue" points="201.5,-46.4 205,-56.4 208.5,-46.4 201.5,-46.4"/>
</g>
</g>
</svg>
        <g id="navigator" transform="translate(0 0)" fill="#404254">
                <rect fill="#f2f5e9" fill-opacity="0.5" stroke="#606060" stroke-width=".5" x="0" y="0" width="60" height="60"/>
                <use id="zoomplus" xlink:href="#zoomPlus" x="17" y="9" onmousedown="handleZoom(evt,'in')"/>
                <use id="zoomminus" xlink:href="#zoomMin" x="42" y="9" onmousedown="handleZoom(evt,'out')"/>
                <use id="reset" xlink:href="#resetDef" x="30" y="36" onmousedown="handleReset()"/>
                <g id="arrowUp" xlink:href="#dirArrow" transform="translate(30 24)" onmousedown="handlePan(0,-1)">
                  <use xlink:href="#rim" fill="#404040">
                        <set attributeName="fill" to="#808080" begin="arrowUp.mouseover" end="arrowUp.mouseout"/>
                  </use>
                  <path fill="none" stroke="white" stroke-width="1.5" d="M0,-3.0v7 M-2.5,-0.5L0,-3.0L2.5,-0.5"/>
                </g>
                <g id="arrowRight" xlink:href="#dirArrow" transform="rotate(90) translate(36 -43)" onmousedown="handlePan(1,0)">
                  <use xlink:href="#rim" fill="#404040">
                        <set attributeName="fill" to="#808080" begin="arrowRight.mouseover" end="arrowRight.mouseout"/>
                  </use>
                  <path fill="none" stroke="white" stroke-width="1.5" d="M0,-3.0v7 M-2.5,-0.5L0,-3.0L2.5,-0.5"/>
                </g>
                <g id="arrowDown" xlink:href="#dirArrow" transform="rotate(180) translate(-30 -48)" onmousedown="handlePan(0,1)">
                  <use xlink:href="#rim" fill="#404040">
                        <set attributeName="fill" to="#808080" begin="arrowDown.mouseover" end="arrowDown.mouseout"/>
                  </use>
                  <path fill="none" stroke="white" stroke-width="1.5" d="M0,-3.0v7 M-2.5,-0.5L0,-3.0L2.5,-0.5"/>
                </g>
                <g id="arrowLeft" xlink:href="#dirArrow" transform="rotate(270) translate(-36 17)" onmousedown="handlePan(-1,0)">
                  <use xlink:href="#rim" fill="#404040">
                        <set attributeName="fill" to="#808080" begin="arrowLeft.mouseover" end="arrowLeft.mouseout"/>
                  </use>
                  <path fill="none" stroke="white" stroke-width="1.5" d="M0,-3.0v7 M-2.5,-0.5L0,-3.0L2.5,-0.5"/>
                </g>
        </g>
        <svg viewBox="0 0 15 15" width="100%" height="30px" preserveAspectRatio="xMaxYMin meet">
         <g id="arrow_out" transform="scale(0.3 0.3)">
          <a xlink:href="hash_8h__dep__incl_org.svg" target="_base">
           <rect id="button" ry="5" rx="5" y="6" x="6" height="38" width="38"
                fill="#f2f5e9" fill-opacity="0.5" stroke="#606060" stroke-width="1.0"/>
           <path id="arrow"
             d="M 11.500037,31.436501 C 11.940474,20.09759 22.043105,11.32322 32.158766,21.979434 L 37.068811,17.246167 C 37.068811,17.246167 37.088388,32 37.088388,32 L 22.160133,31.978069 C 22.160133,31.978069 26.997745,27.140456 26.997745,27.140456 C 18.528582,18.264221 13.291696,25.230495 11.500037,31.436501 z"
             style="fill:#404040;"/>
          </a>
         </g>
        </svg>
</svg>
