<?xml version="1.0" encoding="UTF-8" standalone="no"?>
<!DOCTYPE svg PUBLIC "-//W3C//DTD SVG 1.1//EN"
 "http://www.w3.org/Graphics/SVG/1.1/DTD/svg11.dtd">
<!-- Generated by graphviz version 2.43.0 (0)
 -->
<!-- Title: include/a/cksum/hmac.h Pages: 1 -->
<svg width="256pt" height="151pt"
 viewBox="0.00 0.00 256.00 151.00" xmlns="http://www.w3.org/2000/svg" xmlns:xlink="http://www.w3.org/1999/xlink">
<g id="graph0" class="graph" transform="scale(1 1) rotate(0) translate(4 147)">
<title>include/a/cksum/hmac.h</title>
<polygon fill="white" stroke="transparent" points="-4,4 -4,-147 252,-147 252,4 -4,4"/>
<!-- Node1 -->
<g id="node1" class="node">
<title>Node1</title>
<g id="a_node1"><a xlink:title="RFC 2104 compliant HMAC implementation.">
<polygon fill="#bfbfbf" stroke="black" points="61.5,-123.5 61.5,-142.5 196.5,-142.5 196.5,-123.5 61.5,-123.5"/>
<text text-anchor="middle" x="129" y="-130.5" font-family="Helvetica,sans-Serif" font-size="10.00">include/a/cksum/hmac.h</text>
</a>
</g>
</g>
<!-- Node2 -->
<g id="node2" class="node">
<title>Node2</title>
<g id="a_node2"><a xlink:href="hmac__util_8h.html" target="_top" xlink:title="hmac library utils">
<polygon fill="white" stroke="black" points="0,-56.5 0,-86.5 126,-86.5 126,-56.5 0,-56.5"/>
<text text-anchor="start" x="8" y="-74.5" font-family="Helvetica,sans-Serif" font-size="10.00">include/a/cksum/hmac</text>
<text text-anchor="middle" x="63" y="-63.5" font-family="Helvetica,sans-Serif" font-size="10.00">_util.h</text>
</a>
</g>
</g>
<!-- Node1&#45;&gt;Node2 -->
<g id="edge1" class="edge">
<title>Node1&#45;&gt;Node2</title>
<path fill="none" stroke="midnightblue" d="M111.97,-116.65C101.65,-107.35 88.59,-95.57 78.55,-86.52"/>
<polygon fill="midnightblue" stroke="midnightblue" points="109.77,-119.38 119.54,-123.48 114.46,-114.18 109.77,-119.38"/>
</g>
<!-- Node4 -->
<g id="node4" class="node">
<title>Node4</title>
<g id="a_node4"><a xlink:href="hmac_8c.html" target="_top" xlink:title="RFC 2104 compliant HMAC implementation.">
<polygon fill="white" stroke="black" points="144,-62 144,-81 248,-81 248,-62 144,-62"/>
<text text-anchor="middle" x="196" y="-69" font-family="Helvetica,sans-Serif" font-size="10.00">src/cksum/hmac.c</text>
</a>
</g>
</g>
<!-- Node1&#45;&gt;Node4 -->
<g id="edge3" class="edge">
<title>Node1&#45;&gt;Node4</title>
<path fill="none" stroke="midnightblue" d="M146.29,-116.65C159.06,-105.31 175.98,-90.28 186.42,-81.01"/>
<polygon fill="midnightblue" stroke="midnightblue" points="143.75,-114.22 138.6,-123.48 148.4,-119.45 143.75,-114.22"/>
</g>
<!-- Node3 -->
<g id="node3" class="node">
<title>Node3</title>
<g id="a_node3"><a xlink:href="hmac__util_8c.html" target="_top" xlink:title="hmac library utils">
<polygon fill="white" stroke="black" points="0.5,-0.5 0.5,-19.5 125.5,-19.5 125.5,-0.5 0.5,-0.5"/>
<text text-anchor="middle" x="63" y="-7.5" font-family="Helvetica,sans-Serif" font-size="10.00">src/cksum/hmac_util.c</text>
</a>
</g>
</g>
<!-- Node2&#45;&gt;Node3 -->
<g id="edge2" class="edge">
<title>Node2&#45;&gt;Node3</title>
<path fill="none" stroke="midnightblue" d="M63,-46.29C63,-36.86 63,-26.65 63,-19.66"/>
<polygon fill="midnightblue" stroke="midnightblue" points="59.5,-46.4 63,-56.4 66.5,-46.4 59.5,-46.4"/>
</g>
</g>
</svg>
