<?xml version="1.0" encoding="UTF-8" standalone="no"?>
<!DOCTYPE svg PUBLIC "-//W3C//DTD SVG 1.1//EN"
 "http://www.w3.org/Graphics/SVG/1.1/DTD/svg11.dtd">
<!-- Generated by graphviz version 2.43.0 (0)
 -->
<!-- Title: a_list_add_node Pages: 1 -->
<svg width="312pt" height="28pt"
 viewBox="0.00 0.00 312.00 28.00" xmlns="http://www.w3.org/2000/svg" xmlns:xlink="http://www.w3.org/1999/xlink">
<g id="graph0" class="graph" transform="scale(1 1) rotate(0) translate(4 24)">
<title>a_list_add_node</title>
<polygon fill="white" stroke="transparent" points="-4,4 -4,-24 308,-24 308,4 -4,4"/>
<!-- Node1 -->
<g id="node1" class="node">
<title>Node1</title>
<g id="a_node1"><a xlink:title="Insert a node to a list.">
<polygon fill="#bfbfbf" stroke="black" points="0,-0.5 0,-19.5 95,-19.5 95,-0.5 0,-0.5"/>
<text text-anchor="middle" x="47.5" y="-7.5" font-family="Helvetica,sans-Serif" font-size="10.00">a_list_add_node</text>
</a>
</g>
</g>
<!-- Node2 -->
<g id="node2" class="node">
<title>Node2</title>
<g id="a_node2"><a xlink:href="list_8h.html#a6efa1196e5f2f844c41f56ac833bb003" target="_top" xlink:title="Connect list1 and list2.">
<polygon fill="white" stroke="black" points="131,-0.5 131,-19.5 202,-19.5 202,-0.5 131,-0.5"/>
<text text-anchor="middle" x="166.5" y="-7.5" font-family="Helvetica,sans-Serif" font-size="10.00">a_list_add_</text>
</a>
</g>
</g>
<!-- Node1&#45;&gt;Node2 -->
<g id="edge1" class="edge">
<title>Node1&#45;&gt;Node2</title>
<path fill="none" stroke="midnightblue" d="M95.08,-10C103.6,-10 112.46,-10 120.92,-10"/>
<polygon fill="midnightblue" stroke="midnightblue" points="120.98,-13.5 130.98,-10 120.98,-6.5 120.98,-13.5"/>
</g>
<!-- Node3 -->
<g id="node3" class="node">
<title>Node3</title>
<g id="a_node3"><a xlink:href="list_8h.html#ae001845aa5dd2e565656b7352db32550" target="_top" xlink:title="Link head node and tail node.">
<polygon fill="white" stroke="black" points="238,-0.5 238,-19.5 304,-19.5 304,-0.5 238,-0.5"/>
<text text-anchor="middle" x="271" y="-7.5" font-family="Helvetica,sans-Serif" font-size="10.00">a_list_link</text>
</a>
</g>
</g>
<!-- Node2&#45;&gt;Node3 -->
<g id="edge2" class="edge">
<title>Node2&#45;&gt;Node3</title>
<path fill="none" stroke="midnightblue" d="M202.2,-10C210.38,-10 219.18,-10 227.65,-10"/>
<polygon fill="midnightblue" stroke="midnightblue" points="227.75,-13.5 237.75,-10 227.75,-6.5 227.75,-13.5"/>
</g>
</g>
</svg>
