<?xml version="1.0" encoding="UTF-8" standalone="no"?>
<!DOCTYPE svg PUBLIC "-//W3C//DTD SVG 1.1//EN"
 "http://www.w3.org/Graphics/SVG/1.1/DTD/svg11.dtd">
<!-- Generated by graphviz version 2.43.0 (0)
 -->
<!-- Title: a_list_mov_prev Pages: 1 -->
<svg width="314pt" height="28pt"
 viewBox="0.00 0.00 314.00 28.00" xmlns="http://www.w3.org/2000/svg" xmlns:xlink="http://www.w3.org/1999/xlink">
<g id="graph0" class="graph" transform="scale(1 1) rotate(0) translate(4 24)">
<title>a_list_mov_prev</title>
<polygon fill="white" stroke="transparent" points="-4,4 -4,-24 310,-24 310,4 -4,4"/>
<!-- Node1 -->
<g id="node1" class="node">
<title>Node1</title>
<g id="a_node1"><a xlink:title="Moving a list to another list backward.">
<polygon fill="#bfbfbf" stroke="black" points="0,-0.5 0,-19.5 97,-19.5 97,-0.5 0,-0.5"/>
<text text-anchor="middle" x="48.5" y="-7.5" font-family="Helvetica,sans-Serif" font-size="10.00">a_list_mov_prev</text>
</a>
</g>
</g>
<!-- Node2 -->
<g id="node2" class="node">
<title>Node2</title>
<g id="a_node2"><a xlink:href="list_8h.html#a6efa1196e5f2f844c41f56ac833bb003" target="_top" xlink:title="Connect list1 and list2.">
<polygon fill="white" stroke="black" points="133,-0.5 133,-19.5 204,-19.5 204,-0.5 133,-0.5"/>
<text text-anchor="middle" x="168.5" y="-7.5" font-family="Helvetica,sans-Serif" font-size="10.00">a_list_add_</text>
</a>
</g>
</g>
<!-- Node1&#45;&gt;Node2 -->
<g id="edge1" class="edge">
<title>Node1&#45;&gt;Node2</title>
<path fill="none" stroke="midnightblue" d="M97.15,-10C105.52,-10 114.2,-10 122.49,-10"/>
<polygon fill="midnightblue" stroke="midnightblue" points="122.73,-13.5 132.73,-10 122.73,-6.5 122.73,-13.5"/>
</g>
<!-- Node3 -->
<g id="node3" class="node">
<title>Node3</title>
<g id="a_node3"><a xlink:href="list_8h.html#ae001845aa5dd2e565656b7352db32550" target="_top" xlink:title="Link head node and tail node.">
<polygon fill="white" stroke="black" points="240,-0.5 240,-19.5 306,-19.5 306,-0.5 240,-0.5"/>
<text text-anchor="middle" x="273" y="-7.5" font-family="Helvetica,sans-Serif" font-size="10.00">a_list_link</text>
</a>
</g>
</g>
<!-- Node2&#45;&gt;Node3 -->
<g id="edge2" class="edge">
<title>Node2&#45;&gt;Node3</title>
<path fill="none" stroke="midnightblue" d="M204.2,-10C212.38,-10 221.18,-10 229.65,-10"/>
<polygon fill="midnightblue" stroke="midnightblue" points="229.75,-13.5 239.75,-10 229.75,-6.5 229.75,-13.5"/>
</g>
</g>
</svg>
