<?xml version="1.0" encoding="UTF-8" standalone="no"?>
<!DOCTYPE svg PUBLIC "-//W3C//DTD SVG 1.1//EN"
 "http://www.w3.org/Graphics/SVG/1.1/DTD/svg11.dtd">
<!-- Generated by graphviz version 2.43.0 (0)
 -->
<!-- Title: a_list_del_node Pages: 1 -->
<svg width="306pt" height="28pt"
 viewBox="0.00 0.00 306.00 28.00" xmlns="http://www.w3.org/2000/svg" xmlns:xlink="http://www.w3.org/1999/xlink">
<g id="graph0" class="graph" transform="scale(1 1) rotate(0) translate(4 24)">
<title>a_list_del_node</title>
<polygon fill="white" stroke="transparent" points="-4,4 -4,-24 302,-24 302,4 -4,4"/>
<!-- Node1 -->
<g id="node1" class="node">
<title>Node1</title>
<g id="a_node1"><a xlink:title="Delete a node from a list.">
<polygon fill="#bfbfbf" stroke="black" points="0,-0.5 0,-19.5 92,-19.5 92,-0.5 0,-0.5"/>
<text text-anchor="middle" x="46" y="-7.5" font-family="Helvetica,sans-Serif" font-size="10.00">a_list_del_node</text>
</a>
</g>
</g>
<!-- Node2 -->
<g id="node2" class="node">
<title>Node2</title>
<g id="a_node2"><a xlink:href="list_8h.html#a71c4534c85480b025aa52d086309e8c6" target="_top" xlink:title="Delete a section of a list.">
<polygon fill="white" stroke="black" points="128,-0.5 128,-19.5 196,-19.5 196,-0.5 128,-0.5"/>
<text text-anchor="middle" x="162" y="-7.5" font-family="Helvetica,sans-Serif" font-size="10.00">a_list_del_</text>
</a>
</g>
</g>
<!-- Node1&#45;&gt;Node2 -->
<g id="edge1" class="edge">
<title>Node1&#45;&gt;Node2</title>
<path fill="none" stroke="midnightblue" d="M92.06,-10C100.55,-10 109.42,-10 117.85,-10"/>
<polygon fill="midnightblue" stroke="midnightblue" points="117.87,-13.5 127.87,-10 117.87,-6.5 117.87,-13.5"/>
</g>
<!-- Node3 -->
<g id="node3" class="node">
<title>Node3</title>
<g id="a_node3"><a xlink:href="list_8h.html#ae001845aa5dd2e565656b7352db32550" target="_top" xlink:title="Link head node and tail node.">
<polygon fill="white" stroke="black" points="232,-0.5 232,-19.5 298,-19.5 298,-0.5 232,-0.5"/>
<text text-anchor="middle" x="265" y="-7.5" font-family="Helvetica,sans-Serif" font-size="10.00">a_list_link</text>
</a>
</g>
</g>
<!-- Node2&#45;&gt;Node3 -->
<g id="edge2" class="edge">
<title>Node2&#45;&gt;Node3</title>
<path fill="none" stroke="midnightblue" d="M196.07,-10C204.25,-10 213.13,-10 221.68,-10"/>
<polygon fill="midnightblue" stroke="midnightblue" points="221.89,-13.5 231.89,-10 221.89,-6.5 221.89,-13.5"/>
</g>
</g>
</svg>
