<?xml version="1.0" encoding="UTF-8" standalone="no"?>
<!DOCTYPE svg PUBLIC "-//W3C//DTD SVG 1.1//EN"
 "http://www.w3.org/Graphics/SVG/1.1/DTD/svg11.dtd">
<!-- Generated by graphviz version 2.43.0 (0)
 -->
<!-- Title: a_list_rot_next Pages: 1 -->
<svg width="435pt" height="66pt"
 viewBox="0.00 0.00 435.00 66.00" xmlns="http://www.w3.org/2000/svg" xmlns:xlink="http://www.w3.org/1999/xlink">
<g id="graph0" class="graph" transform="scale(1 1) rotate(0) translate(4 62)">
<title>a_list_rot_next</title>
<polygon fill="white" stroke="transparent" points="-4,4 -4,-62 431,-62 431,4 -4,4"/>
<!-- Node1 -->
<g id="node1" class="node">
<title>Node1</title>
<g id="a_node1"><a xlink:title="Rotate a node in the list forward.">
<polygon fill="#bfbfbf" stroke="black" points="0,-19.5 0,-38.5 89,-38.5 89,-19.5 0,-19.5"/>
<text text-anchor="middle" x="44.5" y="-26.5" font-family="Helvetica,sans-Serif" font-size="10.00">a_list_rot_next</text>
</a>
</g>
</g>
<!-- Node2 -->
<g id="node2" class="node">
<title>Node2</title>
<g id="a_node2"><a xlink:href="list_8h.html#a91ed53782cf1146d1f34dbefff4f4df0" target="_top" xlink:title="Insert a node to a list forward.">
<polygon fill="white" stroke="black" points="125,-38.5 125,-57.5 218,-57.5 218,-38.5 125,-38.5"/>
<text text-anchor="middle" x="171.5" y="-45.5" font-family="Helvetica,sans-Serif" font-size="10.00">a_list_add_next</text>
</a>
</g>
</g>
<!-- Node1&#45;&gt;Node2 -->
<g id="edge1" class="edge">
<title>Node1&#45;&gt;Node2</title>
<path fill="none" stroke="midnightblue" d="M89.22,-35.65C97.52,-36.91 106.3,-38.24 114.91,-39.55"/>
<polygon fill="midnightblue" stroke="midnightblue" points="114.48,-43.03 124.9,-41.07 115.54,-36.11 114.48,-43.03"/>
</g>
<!-- Node5 -->
<g id="node5" class="node">
<title>Node5</title>
<g id="a_node5"><a xlink:href="list_8h.html#a71c4534c85480b025aa52d086309e8c6" target="_top" xlink:title="Delete a section of a list.">
<polygon fill="white" stroke="black" points="255.5,-0.5 255.5,-19.5 323.5,-19.5 323.5,-0.5 255.5,-0.5"/>
<text text-anchor="middle" x="289.5" y="-7.5" font-family="Helvetica,sans-Serif" font-size="10.00">a_list_del_</text>
</a>
</g>
</g>
<!-- Node1&#45;&gt;Node5 -->
<g id="edge4" class="edge">
<title>Node1&#45;&gt;Node5</title>
<path fill="none" stroke="midnightblue" d="M89.22,-25.58C133.37,-22.13 201.16,-16.83 245.17,-13.39"/>
<polygon fill="midnightblue" stroke="midnightblue" points="245.57,-16.87 255.27,-12.6 245.03,-9.89 245.57,-16.87"/>
</g>
<!-- Node3 -->
<g id="node3" class="node">
<title>Node3</title>
<g id="a_node3"><a xlink:href="list_8h.html#a6efa1196e5f2f844c41f56ac833bb003" target="_top" xlink:title="Connect list1 and list2.">
<polygon fill="white" stroke="black" points="254,-38.5 254,-57.5 325,-57.5 325,-38.5 254,-38.5"/>
<text text-anchor="middle" x="289.5" y="-45.5" font-family="Helvetica,sans-Serif" font-size="10.00">a_list_add_</text>
</a>
</g>
</g>
<!-- Node2&#45;&gt;Node3 -->
<g id="edge2" class="edge">
<title>Node2&#45;&gt;Node3</title>
<path fill="none" stroke="midnightblue" d="M218.01,-48C226.5,-48 235.35,-48 243.81,-48"/>
<polygon fill="midnightblue" stroke="midnightblue" points="243.88,-51.5 253.88,-48 243.88,-44.5 243.88,-51.5"/>
</g>
<!-- Node4 -->
<g id="node4" class="node">
<title>Node4</title>
<g id="a_node4"><a xlink:href="list_8h.html#ae001845aa5dd2e565656b7352db32550" target="_top" xlink:title="Link head node and tail node.">
<polygon fill="white" stroke="black" points="361,-19.5 361,-38.5 427,-38.5 427,-19.5 361,-19.5"/>
<text text-anchor="middle" x="394" y="-26.5" font-family="Helvetica,sans-Serif" font-size="10.00">a_list_link</text>
</a>
</g>
</g>
<!-- Node3&#45;&gt;Node4 -->
<g id="edge3" class="edge">
<title>Node3&#45;&gt;Node4</title>
<path fill="none" stroke="midnightblue" d="M325.2,-41.57C333.38,-40.05 342.18,-38.42 350.65,-36.85"/>
<polygon fill="midnightblue" stroke="midnightblue" points="351.56,-40.24 360.75,-34.98 350.28,-33.36 351.56,-40.24"/>
</g>
<!-- Node5&#45;&gt;Node4 -->
<g id="edge5" class="edge">
<title>Node5&#45;&gt;Node4</title>
<path fill="none" stroke="midnightblue" d="M323.78,-16.17C332.44,-17.77 341.89,-19.53 350.95,-21.2"/>
<polygon fill="midnightblue" stroke="midnightblue" points="350.46,-24.67 360.94,-23.06 351.74,-17.79 350.46,-24.67"/>
</g>
</g>
</svg>
