<?xml version="1.0" encoding="UTF-8" standalone="no"?>
<!DOCTYPE svg PUBLIC "-//W3C//DTD SVG 1.1//EN"
 "http://www.w3.org/Graphics/SVG/1.1/DTD/svg11.dtd">
<!-- Generated by graphviz version 2.43.0 (0)
 -->
<!-- Title: include/a/misc/math.h Pages: 1 -->
<svg width="989pt" height="218pt"
 viewBox="0.00 0.00 988.50 218.00" xmlns="http://www.w3.org/2000/svg" xmlns:xlink="http://www.w3.org/1999/xlink">
<g id="graph0" class="graph" transform="scale(1 1) rotate(0) translate(4 214)">
<title>include/a/misc/math.h</title>
<polygon fill="white" stroke="transparent" points="-4,4 -4,-214 984.5,-214 984.5,4 -4,4"/>
<!-- Node1 -->
<g id="node1" class="node">
<title>Node1</title>
<g id="a_node1"><a xlink:title="Calculate math library.">
<polygon fill="#bfbfbf" stroke="black" points="427,-190.5 427,-209.5 552,-209.5 552,-190.5 427,-190.5"/>
<text text-anchor="middle" x="489.5" y="-197.5" font-family="Helvetica,sans-Serif" font-size="10.00">include/a/misc/math.h</text>
</a>
</g>
</g>
<!-- Node2 -->
<g id="node2" class="node">
<title>Node2</title>
<g id="a_node2"><a xlink:href="mf_8h.html" target="_top" xlink:title="membership function">
<polygon fill="white" stroke="black" points="0,-129 0,-148 135,-148 135,-129 0,-129"/>
<text text-anchor="middle" x="67.5" y="-136" font-family="Helvetica,sans-Serif" font-size="10.00">include/a/controller/mf.h</text>
</a>
</g>
</g>
<!-- Node1&#45;&gt;Node2 -->
<g id="edge1" class="edge">
<title>Node1&#45;&gt;Node2</title>
<path fill="none" stroke="midnightblue" d="M416.4,-190.26C347.46,-181.79 241.29,-168.18 149.5,-154 137.93,-152.21 125.47,-150.1 113.84,-148.06"/>
<polygon fill="midnightblue" stroke="midnightblue" points="416.37,-193.78 426.72,-191.52 417.22,-186.83 416.37,-193.78"/>
</g>
<!-- Node4 -->
<g id="node4" class="node">
<title>Node4</title>
<g id="a_node4"><a xlink:href="fpid_8c.html" target="_top" xlink:title="Fuzzy Proportional Integral Derivative Algorithm.">
<polygon fill="white" stroke="black" points="60.5,-0.5 60.5,-19.5 170.5,-19.5 170.5,-0.5 60.5,-0.5"/>
<text text-anchor="middle" x="115.5" y="-7.5" font-family="Helvetica,sans-Serif" font-size="10.00">src/controller/fpid.c</text>
</a>
</g>
</g>
<!-- Node1&#45;&gt;Node4 -->
<g id="edge6" class="edge">
<title>Node1&#45;&gt;Node4</title>
<path fill="none" stroke="midnightblue" d="M416.32,-196.26C337.41,-191.94 218.28,-181.04 182.5,-154 144.41,-125.21 159.15,-99.05 138.5,-56 132.35,-43.18 124.78,-28.57 120.04,-19.56"/>
<polygon fill="midnightblue" stroke="midnightblue" points="416.52,-199.78 426.69,-196.8 416.89,-192.79 416.52,-199.78"/>
</g>
<!-- Node5 -->
<g id="node5" class="node">
<title>Node5</title>
<g id="a_node5"><a xlink:href="fuzzy_8h.html" target="_top" xlink:title="Fuzzy operator.">
<polygon fill="white" stroke="black" points="191.5,-123.5 191.5,-153.5 301.5,-153.5 301.5,-123.5 191.5,-123.5"/>
<text text-anchor="start" x="199.5" y="-141.5" font-family="Helvetica,sans-Serif" font-size="10.00">include/a/controller</text>
<text text-anchor="middle" x="246.5" y="-130.5" font-family="Helvetica,sans-Serif" font-size="10.00">/fuzzy.h</text>
</a>
</g>
</g>
<!-- Node1&#45;&gt;Node5 -->
<g id="edge4" class="edge">
<title>Node1&#45;&gt;Node5</title>
<path fill="none" stroke="midnightblue" d="M444.88,-188.07C404.61,-178.21 345.21,-163.67 301.91,-153.07"/>
<polygon fill="midnightblue" stroke="midnightblue" points="444.14,-191.5 454.68,-190.48 445.8,-184.7 444.14,-191.5"/>
</g>
<!-- Node6 -->
<g id="node6" class="node">
<title>Node6</title>
<g id="a_node6"><a xlink:href="imag_8h.html" target="_top" xlink:title="imaginary number">
<polygon fill="white" stroke="black" points="319.5,-129 319.5,-148 417.5,-148 417.5,-129 319.5,-129"/>
<text text-anchor="middle" x="368.5" y="-136" font-family="Helvetica,sans-Serif" font-size="10.00">include/a/imag.h</text>
</a>
</g>
</g>
<!-- Node1&#45;&gt;Node6 -->
<g id="edge5" class="edge">
<title>Node1&#45;&gt;Node6</title>
<path fill="none" stroke="midnightblue" d="M463.11,-186.02C439.64,-174.48 406.01,-157.94 385.8,-148.01"/>
<polygon fill="midnightblue" stroke="midnightblue" points="461.65,-189.2 472.16,-190.48 464.73,-182.92 461.65,-189.2"/>
</g>
<!-- Node7 -->
<g id="node7" class="node">
<title>Node7</title>
<g id="a_node7"><a xlink:href="pid_8c.html" target="_top" xlink:title="Proportional Integral Derivative Algorithm.">
<polygon fill="white" stroke="black" points="436,-129 436,-148 543,-148 543,-129 436,-129"/>
<text text-anchor="middle" x="489.5" y="-136" font-family="Helvetica,sans-Serif" font-size="10.00">src/controller/pid.c</text>
</a>
</g>
</g>
<!-- Node1&#45;&gt;Node7 -->
<g id="edge7" class="edge">
<title>Node1&#45;&gt;Node7</title>
<path fill="none" stroke="midnightblue" d="M489.5,-180.32C489.5,-169.5 489.5,-156.4 489.5,-148.01"/>
<polygon fill="midnightblue" stroke="midnightblue" points="486,-180.48 489.5,-190.48 493,-180.48 486,-180.48"/>
</g>
<!-- Node8 -->
<g id="node8" class="node">
<title>Node8</title>
<g id="a_node8"><a xlink:href="ahrs_8c.html" target="_top" xlink:title="AHRS(Automatic Heading Reference System) algorithm library.">
<polygon fill="white" stroke="black" points="561,-129 561,-148 650,-148 650,-129 561,-129"/>
<text text-anchor="middle" x="605.5" y="-136" font-family="Helvetica,sans-Serif" font-size="10.00">src/misc/ahrs.c</text>
</a>
</g>
</g>
<!-- Node1&#45;&gt;Node8 -->
<g id="edge8" class="edge">
<title>Node1&#45;&gt;Node8</title>
<path fill="none" stroke="midnightblue" d="M515.1,-185.87C537.59,-174.33 569.63,-157.9 588.91,-148.01"/>
<polygon fill="midnightblue" stroke="midnightblue" points="513.42,-182.8 506.12,-190.48 516.62,-189.03 513.42,-182.8"/>
</g>
<!-- Node9 -->
<g id="node9" class="node">
<title>Node9</title>
<g id="a_node9"><a xlink:href="math_8c.html" target="_top" xlink:title="Calculate math library.">
<polygon fill="white" stroke="black" points="668.5,-129 668.5,-148 762.5,-148 762.5,-129 668.5,-129"/>
<text text-anchor="middle" x="715.5" y="-136" font-family="Helvetica,sans-Serif" font-size="10.00">src/misc/math.c</text>
</a>
</g>
</g>
<!-- Node1&#45;&gt;Node9 -->
<g id="edge9" class="edge">
<title>Node1&#45;&gt;Node9</title>
<path fill="none" stroke="midnightblue" d="M531.68,-187.9C575.57,-176.34 643.35,-158.5 683.18,-148.01"/>
<polygon fill="midnightblue" stroke="midnightblue" points="530.66,-184.54 521.88,-190.48 532.44,-191.31 530.66,-184.54"/>
</g>
<!-- Node10 -->
<g id="node10" class="node">
<title>Node10</title>
<g id="a_node10"><a xlink:href="mean_8c.html" target="_top" xlink:title="mean calculation">
<polygon fill="white" stroke="black" points="780.5,-129 780.5,-148 876.5,-148 876.5,-129 780.5,-129"/>
<text text-anchor="middle" x="828.5" y="-136" font-family="Helvetica,sans-Serif" font-size="10.00">src/misc/mean.c</text>
</a>
</g>
</g>
<!-- Node1&#45;&gt;Node10 -->
<g id="edge10" class="edge">
<title>Node1&#45;&gt;Node10</title>
<path fill="none" stroke="midnightblue" d="M562.26,-189.24C619.4,-181.13 700.85,-168.59 771.5,-154 779.8,-152.29 788.71,-150.16 796.96,-148.07"/>
<polygon fill="midnightblue" stroke="midnightblue" points="561.65,-185.79 552.24,-190.66 562.63,-192.73 561.65,-185.79"/>
</g>
<!-- Node11 -->
<g id="node11" class="node">
<title>Node11</title>
<g id="a_node11"><a xlink:href="zyx_8c.html" target="_top" xlink:title="yaw (Z), pitch (Y), roll (X)">
<polygon fill="white" stroke="black" points="894.5,-129 894.5,-148 980.5,-148 980.5,-129 894.5,-129"/>
<text text-anchor="middle" x="937.5" y="-136" font-family="Helvetica,sans-Serif" font-size="10.00">src/misc/zyx.c</text>
</a>
</g>
</g>
<!-- Node1&#45;&gt;Node11 -->
<g id="edge11" class="edge">
<title>Node1&#45;&gt;Node11</title>
<path fill="none" stroke="midnightblue" d="M562.48,-194.2C642.34,-188.13 773.87,-175.76 885.5,-154 893.5,-152.44 902.07,-150.27 909.9,-148.07"/>
<polygon fill="midnightblue" stroke="midnightblue" points="561.75,-190.74 552.04,-194.98 562.27,-197.72 561.75,-190.74"/>
</g>
<!-- Node3 -->
<g id="node3" class="node">
<title>Node3</title>
<g id="a_node3"><a xlink:href="fpid_8h.html" target="_top" xlink:title="Fuzzy Proportional Integral Derivative Algorithm.">
<polygon fill="white" stroke="black" points="19.5,-56.5 19.5,-86.5 129.5,-86.5 129.5,-56.5 19.5,-56.5"/>
<text text-anchor="start" x="27.5" y="-74.5" font-family="Helvetica,sans-Serif" font-size="10.00">include/a/controller</text>
<text text-anchor="middle" x="74.5" y="-63.5" font-family="Helvetica,sans-Serif" font-size="10.00">/fpid.h</text>
</a>
</g>
</g>
<!-- Node2&#45;&gt;Node3 -->
<g id="edge2" class="edge">
<title>Node2&#45;&gt;Node3</title>
<path fill="none" stroke="midnightblue" d="M69.52,-118.74C70.62,-108.49 71.97,-96 72.98,-86.59"/>
<polygon fill="midnightblue" stroke="midnightblue" points="66.03,-118.42 68.44,-128.73 72.99,-119.17 66.03,-118.42"/>
</g>
<!-- Node3&#45;&gt;Node4 -->
<g id="edge3" class="edge">
<title>Node3&#45;&gt;Node4</title>
<path fill="none" stroke="midnightblue" d="M89.93,-48.1C96.77,-38.19 104.4,-27.11 109.53,-19.66"/>
<polygon fill="midnightblue" stroke="midnightblue" points="87.01,-46.18 84.22,-56.4 92.77,-50.15 87.01,-46.18"/>
</g>
</g>
</svg>
