<?xml version="1.0" encoding="UTF-8" standalone="no"?>
<!DOCTYPE svg PUBLIC "-//W3C//DTD SVG 1.1//EN"
 "http://www.w3.org/Graphics/SVG/1.1/DTD/svg11.dtd">
<!-- Generated by graphviz version 2.43.0 (0)
 -->
<!-- Title: src/cksum/md2.c Pages: 1 -->
<svg width="1328pt" height="252pt"
 viewBox="0.00 0.00 1327.50 252.00" xmlns="http://www.w3.org/2000/svg" xmlns:xlink="http://www.w3.org/1999/xlink">
<g id="graph0" class="graph" transform="scale(1 1) rotate(0) translate(4 248)">
<title>src/cksum/md2.c</title>
<polygon fill="white" stroke="transparent" points="-4,4 -4,-248 1323.5,-248 1323.5,4 -4,4"/>
<!-- Node1 -->
<g id="node1" class="node">
<title>Node1</title>
<g id="a_node1"><a xlink:title="RFC 1319 compliant MD2 implementation.">
<polygon fill="#bfbfbf" stroke="black" points="540.5,-224.5 540.5,-243.5 639.5,-243.5 639.5,-224.5 540.5,-224.5"/>
<text text-anchor="middle" x="590" y="-231.5" font-family="Helvetica,sans-Serif" font-size="10.00">src/cksum/md2.c</text>
</a>
</g>
</g>
<!-- Node2 -->
<g id="node2" class="node">
<title>Node2</title>
<g id="a_node2"><a xlink:href="md2_8h.html" target="_top" xlink:title="RFC 1319 compliant MD2 implementation.">
<polygon fill="white" stroke="black" points="0,-112.5 0,-131.5 92,-131.5 92,-112.5 0,-112.5"/>
<text text-anchor="middle" x="46" y="-119.5" font-family="Helvetica,sans-Serif" font-size="10.00">a/cksum/md2.h</text>
</a>
</g>
</g>
<!-- Node1&#45;&gt;Node2 -->
<g id="edge1" class="edge">
<title>Node1&#45;&gt;Node2</title>
<path fill="none" stroke="midnightblue" d="M547.77,-224.46C449.46,-204.58 205.55,-155.26 98.16,-133.55"/>
<polygon fill="midnightblue" stroke="midnightblue" points="98.7,-130.09 88.21,-131.53 97.32,-136.95 98.7,-130.09"/>
</g>
<!-- Node6 -->
<g id="node6" class="node">
<title>Node6</title>
<g id="a_node6"><a xlink:href="hash_8h.html" target="_top" xlink:title="hash library">
<polygon fill="white" stroke="black" points="543.5,-168.5 543.5,-187.5 636.5,-187.5 636.5,-168.5 543.5,-168.5"/>
<text text-anchor="middle" x="590" y="-175.5" font-family="Helvetica,sans-Serif" font-size="10.00">a/cksum/hash.h</text>
</a>
</g>
</g>
<!-- Node1&#45;&gt;Node6 -->
<g id="edge5" class="edge">
<title>Node1&#45;&gt;Node6</title>
<path fill="none" stroke="midnightblue" d="M590,-224.08C590,-217.01 590,-206.86 590,-197.99"/>
<polygon fill="midnightblue" stroke="midnightblue" points="593.5,-197.75 590,-187.75 586.5,-197.75 593.5,-197.75"/>
</g>
<!-- Node21 -->
<g id="node21" class="node">
<title>Node21</title>
<g id="a_node21"><a xlink:href="hash_____8h.html" target="_top" xlink:title="private macros for hash library">
<polygon fill="white" stroke="black" points="1190.5,-168.5 1190.5,-187.5 1249.5,-187.5 1249.5,-168.5 1190.5,-168.5"/>
<text text-anchor="middle" x="1220" y="-175.5" font-family="Helvetica,sans-Serif" font-size="10.00">hash__.h</text>
</a>
</g>
</g>
<!-- Node1&#45;&gt;Node21 -->
<g id="edge36" class="edge">
<title>Node1&#45;&gt;Node21</title>
<path fill="none" stroke="midnightblue" d="M639.7,-228.74C761.01,-218.34 1070.38,-191.82 1180.41,-182.39"/>
<polygon fill="midnightblue" stroke="midnightblue" points="1180.76,-185.88 1190.43,-181.53 1180.16,-178.9 1180.76,-185.88"/>
</g>
<!-- Node3 -->
<g id="node3" class="node">
<title>Node3</title>
<g id="a_node3"><a xlink:href="def_8h.html" target="_top" xlink:title="algorithm library definition">
<polygon fill="white" stroke="black" points="565,-56.5 565,-75.5 615,-75.5 615,-56.5 565,-56.5"/>
<text text-anchor="middle" x="590" y="-63.5" font-family="Helvetica,sans-Serif" font-size="10.00">../def.h</text>
</a>
</g>
</g>
<!-- Node2&#45;&gt;Node3 -->
<g id="edge2" class="edge">
<title>Node2&#45;&gt;Node3</title>
<path fill="none" stroke="midnightblue" d="M92.15,-113.81C96.83,-113.16 101.5,-112.55 106,-112 273.57,-91.66 474.75,-75.63 554.73,-69.6"/>
<polygon fill="midnightblue" stroke="midnightblue" points="555.04,-73.08 564.75,-68.84 554.52,-66.1 555.04,-73.08"/>
</g>
<!-- Node4 -->
<g id="node4" class="node">
<title>Node4</title>
<g id="a_node4"><a xlink:title=" ">
<polygon fill="white" stroke="#bfbfbf" points="526,-0.5 526,-19.5 582,-19.5 582,-0.5 526,-0.5"/>
<text text-anchor="middle" x="554" y="-7.5" font-family="Helvetica,sans-Serif" font-size="10.00">stddef.h</text>
</a>
</g>
</g>
<!-- Node3&#45;&gt;Node4 -->
<g id="edge3" class="edge">
<title>Node3&#45;&gt;Node4</title>
<path fill="none" stroke="midnightblue" d="M584.06,-56.08C579.02,-48.53 571.66,-37.49 565.49,-28.23"/>
<polygon fill="midnightblue" stroke="midnightblue" points="568.29,-26.13 559.83,-19.75 562.47,-30.01 568.29,-26.13"/>
</g>
<!-- Node5 -->
<g id="node5" class="node">
<title>Node5</title>
<g id="a_node5"><a xlink:title=" ">
<polygon fill="white" stroke="#bfbfbf" points="600.5,-0.5 600.5,-19.5 653.5,-19.5 653.5,-0.5 600.5,-0.5"/>
<text text-anchor="middle" x="627" y="-7.5" font-family="Helvetica,sans-Serif" font-size="10.00">stdint.h</text>
</a>
</g>
</g>
<!-- Node3&#45;&gt;Node5 -->
<g id="edge4" class="edge">
<title>Node3&#45;&gt;Node5</title>
<path fill="none" stroke="midnightblue" d="M596.11,-56.08C601.28,-48.53 608.85,-37.49 615.19,-28.23"/>
<polygon fill="midnightblue" stroke="midnightblue" points="618.24,-29.98 621,-19.75 612.46,-26.02 618.24,-29.98"/>
</g>
<!-- Node6&#45;&gt;Node2 -->
<g id="edge7" class="edge">
<title>Node6&#45;&gt;Node2</title>
<path fill="none" stroke="midnightblue" d="M543.18,-173.53C456.68,-166.91 266.01,-151.42 106,-132 104.74,-131.85 103.46,-131.69 102.17,-131.52"/>
<polygon fill="midnightblue" stroke="midnightblue" points="102.53,-128.04 92.15,-130.19 101.6,-134.98 102.53,-128.04"/>
</g>
<!-- Node6&#45;&gt;Node3 -->
<g id="edge6" class="edge">
<title>Node6&#45;&gt;Node3</title>
<path fill="none" stroke="midnightblue" d="M543.46,-175.82C433.69,-172.55 165.8,-161.61 139,-132 81.92,-68.94 438.95,-65.96 554.67,-66.62"/>
<polygon fill="midnightblue" stroke="midnightblue" points="554.76,-70.12 564.78,-66.69 554.81,-63.12 554.76,-70.12"/>
</g>
<!-- Node7 -->
<g id="node7" class="node">
<title>Node7</title>
<g id="a_node7"><a xlink:href="md4_8h.html" target="_top" xlink:title="RFC 1320 compliant MD4 implementation.">
<polygon fill="white" stroke="black" points="148.5,-112.5 148.5,-131.5 195.5,-131.5 195.5,-112.5 148.5,-112.5"/>
<text text-anchor="middle" x="172" y="-119.5" font-family="Helvetica,sans-Serif" font-size="10.00">md4.h</text>
</a>
</g>
</g>
<!-- Node6&#45;&gt;Node7 -->
<g id="edge8" class="edge">
<title>Node6&#45;&gt;Node7</title>
<path fill="none" stroke="midnightblue" d="M543.29,-173.95C472.18,-168.78 332.45,-156.58 205.55,-132.05"/>
<polygon fill="midnightblue" stroke="midnightblue" points="206.15,-128.6 195.66,-130.11 204.8,-135.47 206.15,-128.6"/>
</g>
<!-- Node8 -->
<g id="node8" class="node">
<title>Node8</title>
<g id="a_node8"><a xlink:href="md5_8h.html" target="_top" xlink:title="RFC 1321 compliant MD5 implementation.">
<polygon fill="white" stroke="black" points="213.5,-112.5 213.5,-131.5 260.5,-131.5 260.5,-112.5 213.5,-112.5"/>
<text text-anchor="middle" x="237" y="-119.5" font-family="Helvetica,sans-Serif" font-size="10.00">md5.h</text>
</a>
</g>
</g>
<!-- Node6&#45;&gt;Node8 -->
<g id="edge10" class="edge">
<title>Node6&#45;&gt;Node8</title>
<path fill="none" stroke="midnightblue" d="M543.41,-172.46C482.61,-166.1 372.79,-153.12 270.55,-132.1"/>
<polygon fill="midnightblue" stroke="midnightblue" points="271.18,-128.66 260.68,-130.04 269.75,-135.51 271.18,-128.66"/>
</g>
<!-- Node9 -->
<g id="node9" class="node">
<title>Node9</title>
<g id="a_node9"><a xlink:href="rmd128_8h.html" target="_top" xlink:title="ripemd implementation">
<polygon fill="white" stroke="black" points="278.5,-112.5 278.5,-131.5 341.5,-131.5 341.5,-112.5 278.5,-112.5"/>
<text text-anchor="middle" x="310" y="-119.5" font-family="Helvetica,sans-Serif" font-size="10.00">rmd128.h</text>
</a>
</g>
</g>
<!-- Node6&#45;&gt;Node9 -->
<g id="edge12" class="edge">
<title>Node6&#45;&gt;Node9</title>
<path fill="none" stroke="midnightblue" d="M543.45,-168.78C497.2,-160.51 424,-147.1 352,-132.36"/>
<polygon fill="midnightblue" stroke="midnightblue" points="352.35,-128.86 341.85,-130.28 350.94,-135.72 352.35,-128.86"/>
</g>
<!-- Node10 -->
<g id="node10" class="node">
<title>Node10</title>
<g id="a_node10"><a xlink:href="rmd160_8h.html" target="_top" xlink:title="ripemd implementation">
<polygon fill="white" stroke="black" points="359.5,-112.5 359.5,-131.5 422.5,-131.5 422.5,-112.5 359.5,-112.5"/>
<text text-anchor="middle" x="391" y="-119.5" font-family="Helvetica,sans-Serif" font-size="10.00">rmd160.h</text>
</a>
</g>
</g>
<!-- Node6&#45;&gt;Node10 -->
<g id="edge14" class="edge">
<title>Node6&#45;&gt;Node10</title>
<path fill="none" stroke="midnightblue" d="M558.47,-168.44C524.41,-159.2 469.99,-144.44 432.48,-134.26"/>
<polygon fill="midnightblue" stroke="midnightblue" points="432.95,-130.76 422.38,-131.52 431.12,-137.51 432.95,-130.76"/>
</g>
<!-- Node11 -->
<g id="node11" class="node">
<title>Node11</title>
<g id="a_node11"><a xlink:href="rmd256_8h.html" target="_top" xlink:title="ripemd implementation">
<polygon fill="white" stroke="black" points="440.5,-112.5 440.5,-131.5 503.5,-131.5 503.5,-112.5 440.5,-112.5"/>
<text text-anchor="middle" x="472" y="-119.5" font-family="Helvetica,sans-Serif" font-size="10.00">rmd256.h</text>
</a>
</g>
</g>
<!-- Node6&#45;&gt;Node11 -->
<g id="edge16" class="edge">
<title>Node6&#45;&gt;Node11</title>
<path fill="none" stroke="midnightblue" d="M571.3,-168.44C552.06,-159.64 521.85,-145.81 499.8,-135.72"/>
<polygon fill="midnightblue" stroke="midnightblue" points="501.16,-132.5 490.61,-131.52 498.25,-138.86 501.16,-132.5"/>
</g>
<!-- Node12 -->
<g id="node12" class="node">
<title>Node12</title>
<g id="a_node12"><a xlink:href="rmd320_8h.html" target="_top" xlink:title="ripemd implementation">
<polygon fill="white" stroke="black" points="521.5,-112.5 521.5,-131.5 584.5,-131.5 584.5,-112.5 521.5,-112.5"/>
<text text-anchor="middle" x="553" y="-119.5" font-family="Helvetica,sans-Serif" font-size="10.00">rmd320.h</text>
</a>
</g>
</g>
<!-- Node6&#45;&gt;Node12 -->
<g id="edge18" class="edge">
<title>Node6&#45;&gt;Node12</title>
<path fill="none" stroke="midnightblue" d="M583.89,-168.08C578.72,-160.53 571.15,-149.49 564.81,-140.23"/>
<polygon fill="midnightblue" stroke="midnightblue" points="567.54,-138.02 559,-131.75 561.76,-141.98 567.54,-138.02"/>
</g>
<!-- Node13 -->
<g id="node13" class="node">
<title>Node13</title>
<g id="a_node13"><a xlink:href="sha1_8h.html" target="_top" xlink:title="RFC 3174 compliant SHA1 implementation.">
<polygon fill="white" stroke="black" points="602.5,-112.5 602.5,-131.5 651.5,-131.5 651.5,-112.5 602.5,-112.5"/>
<text text-anchor="middle" x="627" y="-119.5" font-family="Helvetica,sans-Serif" font-size="10.00">sha1.h</text>
</a>
</g>
</g>
<!-- Node6&#45;&gt;Node13 -->
<g id="edge20" class="edge">
<title>Node6&#45;&gt;Node13</title>
<path fill="none" stroke="midnightblue" d="M596.11,-168.08C601.28,-160.53 608.85,-149.49 615.19,-140.23"/>
<polygon fill="midnightblue" stroke="midnightblue" points="618.24,-141.98 621,-131.75 612.46,-138.02 618.24,-141.98"/>
</g>
<!-- Node14 -->
<g id="node14" class="node">
<title>Node14</title>
<g id="a_node14"><a xlink:href="sha256_8h.html" target="_top" xlink:title="RFC 5754 compliant SHA2 implementation.">
<polygon fill="white" stroke="black" points="669.5,-112.5 669.5,-131.5 730.5,-131.5 730.5,-112.5 669.5,-112.5"/>
<text text-anchor="middle" x="700" y="-119.5" font-family="Helvetica,sans-Serif" font-size="10.00">sha256.h</text>
</a>
</g>
</g>
<!-- Node6&#45;&gt;Node14 -->
<g id="edge22" class="edge">
<title>Node6&#45;&gt;Node14</title>
<path fill="none" stroke="midnightblue" d="M607.67,-168.32C625.39,-159.62 652.9,-146.12 673.29,-136.11"/>
<polygon fill="midnightblue" stroke="midnightblue" points="674.94,-139.2 682.37,-131.65 671.85,-132.92 674.94,-139.2"/>
</g>
<!-- Node15 -->
<g id="node15" class="node">
<title>Node15</title>
<g id="a_node15"><a xlink:href="sha512_8h.html" target="_top" xlink:title="RFC 5754 compliant SHA2 implementation.">
<polygon fill="white" stroke="black" points="748.5,-112.5 748.5,-131.5 809.5,-131.5 809.5,-112.5 748.5,-112.5"/>
<text text-anchor="middle" x="779" y="-119.5" font-family="Helvetica,sans-Serif" font-size="10.00">sha512.h</text>
</a>
</g>
</g>
<!-- Node6&#45;&gt;Node15 -->
<g id="edge24" class="edge">
<title>Node6&#45;&gt;Node15</title>
<path fill="none" stroke="midnightblue" d="M619.95,-168.44C652.16,-159.24 703.53,-144.56 739.14,-134.39"/>
<polygon fill="midnightblue" stroke="midnightblue" points="740.54,-137.63 749.19,-131.52 738.62,-130.9 740.54,-137.63"/>
</g>
<!-- Node16 -->
<g id="node16" class="node">
<title>Node16</title>
<g id="a_node16"><a xlink:href="sha3_8h.html" target="_top" xlink:title="SHA3 implementation.">
<polygon fill="white" stroke="black" points="827.5,-112.5 827.5,-131.5 876.5,-131.5 876.5,-112.5 827.5,-112.5"/>
<text text-anchor="middle" x="852" y="-119.5" font-family="Helvetica,sans-Serif" font-size="10.00">sha3.h</text>
</a>
</g>
</g>
<!-- Node6&#45;&gt;Node16 -->
<g id="edge26" class="edge">
<title>Node6&#45;&gt;Node16</title>
<path fill="none" stroke="midnightblue" d="M636.91,-168.65C680.97,-160.6 748.94,-147.67 817.11,-132.09"/>
<polygon fill="midnightblue" stroke="midnightblue" points="818.2,-135.43 827.16,-129.77 816.63,-128.61 818.2,-135.43"/>
</g>
<!-- Node17 -->
<g id="node17" class="node">
<title>Node17</title>
<g id="a_node17"><a xlink:href="tiger_8h.html" target="_top" xlink:title="tiger implementation">
<polygon fill="white" stroke="black" points="894.5,-112.5 894.5,-131.5 941.5,-131.5 941.5,-112.5 894.5,-112.5"/>
<text text-anchor="middle" x="918" y="-119.5" font-family="Helvetica,sans-Serif" font-size="10.00">tiger.h</text>
</a>
</g>
</g>
<!-- Node6&#45;&gt;Node17 -->
<g id="edge28" class="edge">
<title>Node6&#45;&gt;Node17</title>
<path fill="none" stroke="midnightblue" d="M636.54,-171.58C692.93,-164.64 790.96,-151.39 884.39,-131.91"/>
<polygon fill="midnightblue" stroke="midnightblue" points="885.23,-135.31 894.29,-129.82 883.78,-128.46 885.23,-135.31"/>
</g>
<!-- Node18 -->
<g id="node18" class="node">
<title>Node18</title>
<g id="a_node18"><a xlink:href="whirl_8h.html" target="_top" xlink:title="whirlpool implementation">
<polygon fill="white" stroke="black" points="960,-112.5 960,-131.5 1010,-131.5 1010,-112.5 960,-112.5"/>
<text text-anchor="middle" x="985" y="-119.5" font-family="Helvetica,sans-Serif" font-size="10.00">whirl.h</text>
</a>
</g>
</g>
<!-- Node6&#45;&gt;Node18 -->
<g id="edge30" class="edge">
<title>Node6&#45;&gt;Node18</title>
<path fill="none" stroke="midnightblue" d="M636.61,-173.09C705.52,-166.87 838.47,-153.22 950,-132 950.1,-131.98 950.2,-131.96 950.3,-131.94"/>
<polygon fill="midnightblue" stroke="midnightblue" points="950.82,-135.41 959.85,-129.88 949.34,-128.57 950.82,-135.41"/>
</g>
<!-- Node19 -->
<g id="node19" class="node">
<title>Node19</title>
<g id="a_node19"><a xlink:href="blake2s_8h.html" target="_top" xlink:title="RFC 7693 compliant BLAKE implementation.">
<polygon fill="white" stroke="black" points="1028.5,-112.5 1028.5,-131.5 1091.5,-131.5 1091.5,-112.5 1028.5,-112.5"/>
<text text-anchor="middle" x="1060" y="-119.5" font-family="Helvetica,sans-Serif" font-size="10.00">blake2s.h</text>
</a>
</g>
</g>
<!-- Node6&#45;&gt;Node19 -->
<g id="edge32" class="edge">
<title>Node6&#45;&gt;Node19</title>
<path fill="none" stroke="midnightblue" d="M636.57,-173.83C713.8,-168.19 873.38,-154.96 1018.32,-131.93"/>
<polygon fill="midnightblue" stroke="midnightblue" points="1018.97,-135.37 1028.28,-130.33 1017.85,-128.46 1018.97,-135.37"/>
</g>
<!-- Node20 -->
<g id="node20" class="node">
<title>Node20</title>
<g id="a_node20"><a xlink:href="blake2b_8h.html" target="_top" xlink:title="RFC 7693 compliant BLAKE implementation.">
<polygon fill="white" stroke="black" points="1110,-112.5 1110,-131.5 1174,-131.5 1174,-112.5 1110,-112.5"/>
<text text-anchor="middle" x="1142" y="-119.5" font-family="Helvetica,sans-Serif" font-size="10.00">blake2b.h</text>
</a>
</g>
</g>
<!-- Node6&#45;&gt;Node20 -->
<g id="edge34" class="edge">
<title>Node6&#45;&gt;Node20</title>
<path fill="none" stroke="midnightblue" d="M636.64,-174.81C726.64,-170.16 930.37,-157.56 1100,-132 1100.1,-131.98 1100.2,-131.97 1100.3,-131.95"/>
<polygon fill="midnightblue" stroke="midnightblue" points="1100.71,-135.44 1109.97,-130.29 1099.52,-128.54 1100.71,-135.44"/>
</g>
<!-- Node7&#45;&gt;Node3 -->
<g id="edge9" class="edge">
<title>Node7&#45;&gt;Node3</title>
<path fill="none" stroke="midnightblue" d="M195.66,-113.89C198.46,-113.19 201.28,-112.54 204,-112 331.85,-86.73 486.53,-73.98 554.76,-69.24"/>
<polygon fill="midnightblue" stroke="midnightblue" points="555.21,-72.71 564.95,-68.54 554.74,-65.73 555.21,-72.71"/>
</g>
<!-- Node8&#45;&gt;Node3 -->
<g id="edge11" class="edge">
<title>Node8&#45;&gt;Node3</title>
<path fill="none" stroke="midnightblue" d="M260.68,-113.96C263.47,-113.24 266.29,-112.57 269,-112 371.87,-90.43 495.52,-76.38 554.85,-70.36"/>
<polygon fill="midnightblue" stroke="midnightblue" points="555.23,-73.84 564.83,-69.36 554.53,-66.87 555.23,-73.84"/>
</g>
<!-- Node9&#45;&gt;Node3 -->
<g id="edge13" class="edge">
<title>Node9&#45;&gt;Node3</title>
<path fill="none" stroke="midnightblue" d="M341.85,-113.72C344.61,-113.13 347.35,-112.55 350,-112 422.57,-97.04 507.92,-81.53 554.77,-73.2"/>
<polygon fill="midnightblue" stroke="midnightblue" points="555.48,-76.62 564.72,-71.43 554.26,-69.73 555.48,-76.62"/>
</g>
<!-- Node10&#45;&gt;Node3 -->
<g id="edge15" class="edge">
<title>Node10&#45;&gt;Node3</title>
<path fill="none" stroke="midnightblue" d="M422.53,-112.44C458.6,-102.66 517.48,-86.68 554.95,-76.51"/>
<polygon fill="midnightblue" stroke="midnightblue" points="556.18,-79.8 564.92,-73.81 554.35,-73.05 556.18,-79.8"/>
</g>
<!-- Node11&#45;&gt;Node3 -->
<g id="edge17" class="edge">
<title>Node11&#45;&gt;Node3</title>
<path fill="none" stroke="midnightblue" d="M490.7,-112.44C509.94,-103.64 540.15,-89.81 562.2,-79.72"/>
<polygon fill="midnightblue" stroke="midnightblue" points="563.75,-82.86 571.39,-75.52 560.84,-76.5 563.75,-82.86"/>
</g>
<!-- Node12&#45;&gt;Node3 -->
<g id="edge19" class="edge">
<title>Node12&#45;&gt;Node3</title>
<path fill="none" stroke="midnightblue" d="M559.11,-112.08C564.28,-104.53 571.85,-93.49 578.19,-84.23"/>
<polygon fill="midnightblue" stroke="midnightblue" points="581.24,-85.98 584,-75.75 575.46,-82.02 581.24,-85.98"/>
</g>
<!-- Node13&#45;&gt;Node3 -->
<g id="edge21" class="edge">
<title>Node13&#45;&gt;Node3</title>
<path fill="none" stroke="midnightblue" d="M620.89,-112.08C615.72,-104.53 608.15,-93.49 601.81,-84.23"/>
<polygon fill="midnightblue" stroke="midnightblue" points="604.54,-82.02 596,-75.75 598.76,-85.98 604.54,-82.02"/>
</g>
<!-- Node14&#45;&gt;Node3 -->
<g id="edge23" class="edge">
<title>Node14&#45;&gt;Node3</title>
<path fill="none" stroke="midnightblue" d="M682.33,-112.32C664.61,-103.62 637.1,-90.12 616.71,-80.11"/>
<polygon fill="midnightblue" stroke="midnightblue" points="618.15,-76.92 607.63,-75.65 615.06,-83.2 618.15,-76.92"/>
</g>
<!-- Node15&#45;&gt;Node3 -->
<g id="edge25" class="edge">
<title>Node15&#45;&gt;Node3</title>
<path fill="none" stroke="midnightblue" d="M749.05,-112.44C715.42,-102.83 660.9,-87.26 625.24,-77.07"/>
<polygon fill="midnightblue" stroke="midnightblue" points="625.85,-73.6 615.27,-74.22 623.92,-80.33 625.85,-73.6"/>
</g>
<!-- Node16&#45;&gt;Node3 -->
<g id="edge27" class="edge">
<title>Node16&#45;&gt;Node3</title>
<path fill="none" stroke="midnightblue" d="M827.16,-114.23C824.08,-113.45 820.97,-112.69 818,-112 750.12,-96.33 670.09,-81.33 625.18,-73.22"/>
<polygon fill="midnightblue" stroke="midnightblue" points="625.54,-69.73 615.08,-71.41 624.3,-76.62 625.54,-69.73"/>
</g>
<!-- Node17&#45;&gt;Node3 -->
<g id="edge29" class="edge">
<title>Node17&#45;&gt;Node3</title>
<path fill="none" stroke="midnightblue" d="M894.29,-114.18C891.18,-113.39 888.02,-112.64 885,-112 791.92,-92.28 680.55,-77.69 625.05,-71.02"/>
<polygon fill="midnightblue" stroke="midnightblue" points="625.38,-67.54 615.04,-69.83 624.56,-74.49 625.38,-67.54"/>
</g>
<!-- Node18&#45;&gt;Node3 -->
<g id="edge31" class="edge">
<title>Node18&#45;&gt;Node3</title>
<path fill="none" stroke="midnightblue" d="M959.85,-114.12C956.55,-113.34 953.21,-112.61 950,-112 831.89,-89.53 689.78,-75.55 625.11,-69.89"/>
<polygon fill="midnightblue" stroke="midnightblue" points="625.31,-66.4 615.05,-69.02 624.71,-73.37 625.31,-66.4"/>
</g>
<!-- Node19&#45;&gt;Node3 -->
<g id="edge33" class="edge">
<title>Node19&#45;&gt;Node3</title>
<path fill="none" stroke="midnightblue" d="M1028.28,-113.67C1025.16,-113.06 1022.02,-112.49 1019,-112 873.85,-88.53 698.99,-74.59 625.38,-69.37"/>
<polygon fill="midnightblue" stroke="midnightblue" points="625.49,-65.87 615.27,-68.66 625.01,-72.85 625.49,-65.87"/>
</g>
<!-- Node20&#45;&gt;Node3 -->
<g id="edge35" class="edge">
<title>Node20&#45;&gt;Node3</title>
<path fill="none" stroke="midnightblue" d="M1109.97,-113.71C1106.61,-113.08 1103.24,-112.49 1100,-112 922.75,-85.29 708.28,-72.74 625.22,-68.61"/>
<polygon fill="midnightblue" stroke="midnightblue" points="625.23,-65.11 615.07,-68.12 624.89,-72.1 625.23,-65.11"/>
</g>
<!-- Node22 -->
<g id="node22" class="node">
<title>Node22</title>
<g id="a_node22"><a xlink:title=" ">
<polygon fill="white" stroke="#bfbfbf" points="1192,-112.5 1192,-131.5 1248,-131.5 1248,-112.5 1192,-112.5"/>
<text text-anchor="middle" x="1220" y="-119.5" font-family="Helvetica,sans-Serif" font-size="10.00">assert.h</text>
</a>
</g>
</g>
<!-- Node21&#45;&gt;Node22 -->
<g id="edge37" class="edge">
<title>Node21&#45;&gt;Node22</title>
<path fill="none" stroke="midnightblue" d="M1220,-168.08C1220,-161.01 1220,-150.86 1220,-141.99"/>
<polygon fill="midnightblue" stroke="midnightblue" points="1223.5,-141.75 1220,-131.75 1216.5,-141.75 1223.5,-141.75"/>
</g>
<!-- Node23 -->
<g id="node23" class="node">
<title>Node23</title>
<g id="a_node23"><a xlink:title=" ">
<polygon fill="white" stroke="#bfbfbf" points="1266.5,-112.5 1266.5,-131.5 1319.5,-131.5 1319.5,-112.5 1266.5,-112.5"/>
<text text-anchor="middle" x="1293" y="-119.5" font-family="Helvetica,sans-Serif" font-size="10.00">string.h</text>
</a>
</g>
</g>
<!-- Node21&#45;&gt;Node23 -->
<g id="edge38" class="edge">
<title>Node21&#45;&gt;Node23</title>
<path fill="none" stroke="midnightblue" d="M1231.73,-168.32C1242.84,-160.11 1259.74,-147.6 1272.98,-137.81"/>
<polygon fill="midnightblue" stroke="midnightblue" points="1275.1,-140.59 1281.06,-131.83 1270.94,-134.97 1275.1,-140.59"/>
</g>
</g>
</svg>
