<?xml version="1.0" encoding="UTF-8" standalone="no"?>
<!DOCTYPE svg PUBLIC "-//W3C//DTD SVG 1.1//EN"
 "http://www.w3.org/Graphics/SVG/1.1/DTD/svg11.dtd">
<!-- Generated by graphviz version 2.43.0 (0)
 -->
<!-- Title: src/misc/mean.c Pages: 1 -->
<svg width="276pt" height="252pt"
 viewBox="0.00 0.00 275.50 252.00" xmlns="http://www.w3.org/2000/svg" xmlns:xlink="http://www.w3.org/1999/xlink">
<g id="graph0" class="graph" transform="scale(1 1) rotate(0) translate(4 248)">
<title>src/misc/mean.c</title>
<polygon fill="white" stroke="transparent" points="-4,4 -4,-248 271.5,-248 271.5,4 -4,4"/>
<!-- Node1 -->
<g id="node1" class="node">
<title>Node1</title>
<g id="a_node1"><a xlink:title="mean calculation">
<polygon fill="#bfbfbf" stroke="black" points="102.5,-224.5 102.5,-243.5 198.5,-243.5 198.5,-224.5 102.5,-224.5"/>
<text text-anchor="middle" x="150.5" y="-231.5" font-family="Helvetica,sans-Serif" font-size="10.00">src/misc/mean.c</text>
</a>
</g>
</g>
<!-- Node2 -->
<g id="node2" class="node">
<title>Node2</title>
<g id="a_node2"><a xlink:href="mean_8h.html" target="_top" xlink:title="mean calculation">
<polygon fill="white" stroke="black" points="0,-168.5 0,-187.5 89,-187.5 89,-168.5 0,-168.5"/>
<text text-anchor="middle" x="44.5" y="-175.5" font-family="Helvetica,sans-Serif" font-size="10.00">a/misc/mean.h</text>
</a>
</g>
</g>
<!-- Node1&#45;&gt;Node2 -->
<g id="edge1" class="edge">
<title>Node1&#45;&gt;Node2</title>
<path fill="none" stroke="midnightblue" d="M133.47,-224.32C116.47,-215.66 90.12,-202.24 70.51,-192.25"/>
<polygon fill="midnightblue" stroke="midnightblue" points="71.99,-189.08 61.49,-187.65 68.81,-195.31 71.99,-189.08"/>
</g>
<!-- Node7 -->
<g id="node7" class="node">
<title>Node7</title>
<g id="a_node7"><a xlink:href="math_8h.html" target="_top" xlink:title="Calculate math library.">
<polygon fill="white" stroke="black" points="107.5,-168.5 107.5,-187.5 193.5,-187.5 193.5,-168.5 107.5,-168.5"/>
<text text-anchor="middle" x="150.5" y="-175.5" font-family="Helvetica,sans-Serif" font-size="10.00">a/misc/math.h</text>
</a>
</g>
</g>
<!-- Node1&#45;&gt;Node7 -->
<g id="edge6" class="edge">
<title>Node1&#45;&gt;Node7</title>
<path fill="none" stroke="midnightblue" d="M150.5,-224.08C150.5,-217.01 150.5,-206.86 150.5,-197.99"/>
<polygon fill="midnightblue" stroke="midnightblue" points="154,-197.75 150.5,-187.75 147,-197.75 154,-197.75"/>
</g>
<!-- Node9 -->
<g id="node9" class="node">
<title>Node9</title>
<g id="a_node9"><a xlink:title=" ">
<polygon fill="white" stroke="#bfbfbf" points="211.5,-168.5 211.5,-187.5 267.5,-187.5 267.5,-168.5 211.5,-168.5"/>
<text text-anchor="middle" x="239.5" y="-175.5" font-family="Helvetica,sans-Serif" font-size="10.00">assert.h</text>
</a>
</g>
</g>
<!-- Node1&#45;&gt;Node9 -->
<g id="edge9" class="edge">
<title>Node1&#45;&gt;Node9</title>
<path fill="none" stroke="midnightblue" d="M164.8,-224.32C178.68,-215.9 199.99,-202.97 216.3,-193.07"/>
<polygon fill="midnightblue" stroke="midnightblue" points="218.5,-195.83 225.24,-187.65 214.87,-189.85 218.5,-195.83"/>
</g>
<!-- Node3 -->
<g id="node3" class="node">
<title>Node3</title>
<g id="a_node3"><a xlink:href="real_8h.html" target="_top" xlink:title="real number">
<polygon fill="white" stroke="black" points="18,-112.5 18,-131.5 71,-131.5 71,-112.5 18,-112.5"/>
<text text-anchor="middle" x="44.5" y="-119.5" font-family="Helvetica,sans-Serif" font-size="10.00">../real.h</text>
</a>
</g>
</g>
<!-- Node2&#45;&gt;Node3 -->
<g id="edge2" class="edge">
<title>Node2&#45;&gt;Node3</title>
<path fill="none" stroke="midnightblue" d="M44.5,-168.08C44.5,-161.01 44.5,-150.86 44.5,-141.99"/>
<polygon fill="midnightblue" stroke="midnightblue" points="48,-141.75 44.5,-131.75 41,-141.75 48,-141.75"/>
</g>
<!-- Node4 -->
<g id="node4" class="node">
<title>Node4</title>
<g id="a_node4"><a xlink:href="def_8h.html" target="_top" xlink:title="algorithm library definition">
<polygon fill="white" stroke="black" points="51,-56.5 51,-75.5 92,-75.5 92,-56.5 51,-56.5"/>
<text text-anchor="middle" x="71.5" y="-63.5" font-family="Helvetica,sans-Serif" font-size="10.00">def.h</text>
</a>
</g>
</g>
<!-- Node3&#45;&gt;Node4 -->
<g id="edge3" class="edge">
<title>Node3&#45;&gt;Node4</title>
<path fill="none" stroke="midnightblue" d="M48.96,-112.08C52.65,-104.69 58.02,-93.95 62.59,-84.81"/>
<polygon fill="midnightblue" stroke="midnightblue" points="65.78,-86.26 67.12,-75.75 59.52,-83.13 65.78,-86.26"/>
</g>
<!-- Node5 -->
<g id="node5" class="node">
<title>Node5</title>
<g id="a_node5"><a xlink:title=" ">
<polygon fill="white" stroke="#bfbfbf" points="7.5,-0.5 7.5,-19.5 63.5,-19.5 63.5,-0.5 7.5,-0.5"/>
<text text-anchor="middle" x="35.5" y="-7.5" font-family="Helvetica,sans-Serif" font-size="10.00">stddef.h</text>
</a>
</g>
</g>
<!-- Node4&#45;&gt;Node5 -->
<g id="edge4" class="edge">
<title>Node4&#45;&gt;Node5</title>
<path fill="none" stroke="midnightblue" d="M65.56,-56.08C60.52,-48.53 53.16,-37.49 46.99,-28.23"/>
<polygon fill="midnightblue" stroke="midnightblue" points="49.79,-26.13 41.33,-19.75 43.97,-30.01 49.79,-26.13"/>
</g>
<!-- Node6 -->
<g id="node6" class="node">
<title>Node6</title>
<g id="a_node6"><a xlink:title=" ">
<polygon fill="white" stroke="#bfbfbf" points="82,-0.5 82,-19.5 135,-19.5 135,-0.5 82,-0.5"/>
<text text-anchor="middle" x="108.5" y="-7.5" font-family="Helvetica,sans-Serif" font-size="10.00">stdint.h</text>
</a>
</g>
</g>
<!-- Node4&#45;&gt;Node6 -->
<g id="edge5" class="edge">
<title>Node4&#45;&gt;Node6</title>
<path fill="none" stroke="midnightblue" d="M77.61,-56.08C82.78,-48.53 90.35,-37.49 96.69,-28.23"/>
<polygon fill="midnightblue" stroke="midnightblue" points="99.74,-29.98 102.5,-19.75 93.96,-26.02 99.74,-29.98"/>
</g>
<!-- Node7&#45;&gt;Node4 -->
<g id="edge7" class="edge">
<title>Node7&#45;&gt;Node4</title>
<path fill="none" stroke="midnightblue" d="M144.3,-168.37C131.26,-150.22 100.8,-107.8 83.7,-83.99"/>
<polygon fill="midnightblue" stroke="midnightblue" points="86.35,-81.67 77.67,-75.59 80.66,-85.76 86.35,-81.67"/>
</g>
<!-- Node8 -->
<g id="node8" class="node">
<title>Node8</title>
<g id="a_node8"><a xlink:title=" ">
<polygon fill="white" stroke="#bfbfbf" points="128,-112.5 128,-131.5 175,-131.5 175,-112.5 128,-112.5"/>
<text text-anchor="middle" x="151.5" y="-119.5" font-family="Helvetica,sans-Serif" font-size="10.00">float.h</text>
</a>
</g>
</g>
<!-- Node7&#45;&gt;Node8 -->
<g id="edge8" class="edge">
<title>Node7&#45;&gt;Node8</title>
<path fill="none" stroke="midnightblue" d="M150.67,-168.08C150.8,-161.01 150.98,-150.86 151.15,-141.99"/>
<polygon fill="midnightblue" stroke="midnightblue" points="154.65,-141.81 151.34,-131.75 147.65,-141.68 154.65,-141.81"/>
</g>
</g>
</svg>
