<?xml version="1.0" encoding="UTF-8" standalone="no"?>
<!DOCTYPE svg PUBLIC "-//W3C//DTD SVG 1.1//EN"
 "http://www.w3.org/Graphics/SVG/1.1/DTD/svg11.dtd">
<!-- Generated by graphviz version 2.43.0 (0)
 -->
<!-- Title: a_mf Pages: 1 -->
<svg width="160pt" height="218pt"
 viewBox="0.00 0.00 160.00 218.00" xmlns="http://www.w3.org/2000/svg" xmlns:xlink="http://www.w3.org/1999/xlink">
<g id="graph0" class="graph" transform="scale(1 1) rotate(0) translate(4 214)">
<title>a_mf</title>
<polygon fill="white" stroke="transparent" points="-4,4 -4,-214 156,-214 156,4 -4,4"/>
<!-- Node1 -->
<g id="node1" class="node">
<title>Node1</title>
<g id="a_node1"><a xlink:title="membership function">
<polygon fill="#bfbfbf" stroke="black" points="0,-95.5 0,-114.5 41,-114.5 41,-95.5 0,-95.5"/>
<text text-anchor="middle" x="20.5" y="-102.5" font-family="Helvetica,sans-Serif" font-size="10.00">a_mf</text>
</a>
</g>
</g>
<!-- Node2 -->
<g id="node2" class="node">
<title>Node2</title>
<g id="a_node2"><a xlink:href="mf_8h.html#a43c598c23b53f9c8ecd40a4fb4238f97" target="_top" xlink:title="Gaussian membership function.">
<polygon fill="white" stroke="black" points="77,-190.5 77,-209.5 152,-209.5 152,-190.5 77,-190.5"/>
<text text-anchor="middle" x="114.5" y="-197.5" font-family="Helvetica,sans-Serif" font-size="10.00">a_mf_gauss</text>
</a>
</g>
</g>
<!-- Node1&#45;&gt;Node2 -->
<g id="edge1" class="edge">
<title>Node1&#45;&gt;Node2</title>
<path fill="none" stroke="midnightblue" d="M26.79,-115C35.5,-130.72 54.2,-161.4 77,-181 78.72,-182.48 80.57,-183.88 82.49,-185.2"/>
<polygon fill="midnightblue" stroke="midnightblue" points="80.86,-188.3 91.23,-190.48 84.48,-182.31 80.86,-188.3"/>
</g>
<!-- Node3 -->
<g id="node3" class="node">
<title>Node3</title>
<g id="a_node3"><a xlink:href="mf_8h.html#afa625133274a1c188353f1122f73dbaf" target="_top" xlink:title="Generalized bell&#45;shaped membership function.">
<polygon fill="white" stroke="black" points="79,-152.5 79,-171.5 150,-171.5 150,-152.5 79,-152.5"/>
<text text-anchor="middle" x="114.5" y="-159.5" font-family="Helvetica,sans-Serif" font-size="10.00">a_mf_gbell</text>
</a>
</g>
</g>
<!-- Node1&#45;&gt;Node3 -->
<g id="edge2" class="edge">
<title>Node1&#45;&gt;Node3</title>
<path fill="none" stroke="midnightblue" d="M34.44,-114.52C45.51,-122.49 61.98,-133.99 77,-143 79.53,-144.52 82.19,-146.04 84.87,-147.52"/>
<polygon fill="midnightblue" stroke="midnightblue" points="83.47,-150.74 93.94,-152.37 86.77,-144.57 83.47,-150.74"/>
</g>
<!-- Node4 -->
<g id="node4" class="node">
<title>Node4</title>
<g id="a_node4"><a xlink:href="mf_8h.html#ae5c639222ea539529bd340bf0d04ffb4" target="_top" xlink:title="Sigmoidal membership function.">
<polygon fill="white" stroke="black" points="84,-114.5 84,-133.5 145,-133.5 145,-114.5 84,-114.5"/>
<text text-anchor="middle" x="114.5" y="-121.5" font-family="Helvetica,sans-Serif" font-size="10.00">a_mf_sig</text>
</a>
</g>
</g>
<!-- Node1&#45;&gt;Node4 -->
<g id="edge3" class="edge">
<title>Node1&#45;&gt;Node4</title>
<path fill="none" stroke="midnightblue" d="M41.01,-109.03C50.64,-111.02 62.61,-113.49 74.04,-115.85"/>
<polygon fill="midnightblue" stroke="midnightblue" points="73.37,-119.29 83.87,-117.88 74.78,-112.43 73.37,-119.29"/>
</g>
<!-- Node5 -->
<g id="node5" class="node">
<title>Node5</title>
<g id="a_node5"><a xlink:href="mf_8h.html#a3fd0153f89453705ff19340aa39b6a8a" target="_top" xlink:title="Trapezoidal membership function.">
<polygon fill="white" stroke="black" points="81.5,-76.5 81.5,-95.5 147.5,-95.5 147.5,-76.5 81.5,-76.5"/>
<text text-anchor="middle" x="114.5" y="-83.5" font-family="Helvetica,sans-Serif" font-size="10.00">a_mf_trap</text>
</a>
</g>
</g>
<!-- Node1&#45;&gt;Node5 -->
<g id="edge4" class="edge">
<title>Node1&#45;&gt;Node5</title>
<path fill="none" stroke="midnightblue" d="M41.01,-100.97C49.88,-99.14 60.75,-96.89 71.35,-94.71"/>
<polygon fill="midnightblue" stroke="midnightblue" points="72.26,-98.09 81.35,-92.64 70.85,-91.24 72.26,-98.09"/>
</g>
<!-- Node6 -->
<g id="node6" class="node">
<title>Node6</title>
<g id="a_node6"><a xlink:href="mf_8h.html#af6b8a6a1891f15c7413d83dc812dc65c" target="_top" xlink:title="Triangular membership function.">
<polygon fill="white" stroke="black" points="86,-38.5 86,-57.5 143,-57.5 143,-38.5 86,-38.5"/>
<text text-anchor="middle" x="114.5" y="-45.5" font-family="Helvetica,sans-Serif" font-size="10.00">a_mf_tri</text>
</a>
</g>
</g>
<!-- Node1&#45;&gt;Node6 -->
<g id="edge5" class="edge">
<title>Node1&#45;&gt;Node6</title>
<path fill="none" stroke="midnightblue" d="M34.44,-95.48C45.51,-87.51 61.98,-76.01 77,-67 79.53,-65.48 82.19,-63.96 84.87,-62.48"/>
<polygon fill="midnightblue" stroke="midnightblue" points="86.77,-65.43 93.94,-57.63 83.47,-59.26 86.77,-65.43"/>
</g>
<!-- Node7 -->
<g id="node7" class="node">
<title>Node7</title>
<g id="a_node7"><a xlink:href="mf_8h.html#a7b6a6955ee3de96f0aecc614f66bd104" target="_top" xlink:title="Z&#45;shaped membership function.">
<polygon fill="white" stroke="black" points="88.5,-0.5 88.5,-19.5 140.5,-19.5 140.5,-0.5 88.5,-0.5"/>
<text text-anchor="middle" x="114.5" y="-7.5" font-family="Helvetica,sans-Serif" font-size="10.00">a_mf_z</text>
</a>
</g>
</g>
<!-- Node1&#45;&gt;Node7 -->
<g id="edge6" class="edge">
<title>Node1&#45;&gt;Node7</title>
<path fill="none" stroke="midnightblue" d="M26.79,-95C35.5,-79.28 54.2,-48.6 77,-29 78.72,-27.52 80.57,-26.12 82.49,-24.8"/>
<polygon fill="midnightblue" stroke="midnightblue" points="84.48,-27.69 91.23,-19.52 80.86,-21.7 84.48,-27.69"/>
</g>
</g>
</svg>
