<?xml version="1.0" encoding="UTF-8" standalone="no"?>
<!DOCTYPE svg PUBLIC "-//W3C//DTD SVG 1.1//EN"
 "http://www.w3.org/Graphics/SVG/1.1/DTD/svg11.dtd">
<!-- Generated by graphviz version 2.43.0 (0)
 -->
<!-- Title: include/a/oop.h Pages: 1 -->
<svg width="326pt" height="84pt"
 viewBox="0.00 0.00 325.50 84.00" xmlns="http://www.w3.org/2000/svg" xmlns:xlink="http://www.w3.org/1999/xlink">
<g id="graph0" class="graph" transform="scale(1 1) rotate(0) translate(4 80)">
<title>include/a/oop.h</title>
<polygon fill="white" stroke="transparent" points="-4,4 -4,-80 321.5,-80 321.5,4 -4,4"/>
<!-- Node1 -->
<g id="node1" class="node">
<title>Node1</title>
<g id="a_node1"><a xlink:title="Object Oriented Programming Macros.">
<polygon fill="#bfbfbf" stroke="black" points="128,-56.5 128,-75.5 219,-75.5 219,-56.5 128,-56.5"/>
<text text-anchor="middle" x="173.5" y="-63.5" font-family="Helvetica,sans-Serif" font-size="10.00">include/a/oop.h</text>
</a>
</g>
</g>
<!-- Node2 -->
<g id="node2" class="node">
<title>Node2</title>
<g id="a_node2"><a xlink:href="mempool_8c.html" target="_top" xlink:title="memory pool library">
<polygon fill="white" stroke="black" points="0,-0.5 0,-19.5 115,-19.5 115,-0.5 0,-0.5"/>
<text text-anchor="middle" x="57.5" y="-7.5" font-family="Helvetica,sans-Serif" font-size="10.00">src/misc/mempool.c</text>
</a>
</g>
</g>
<!-- Node1&#45;&gt;Node2 -->
<g id="edge1" class="edge">
<title>Node1&#45;&gt;Node2</title>
<path fill="none" stroke="midnightblue" d="M145.78,-52.1C124.11,-42.01 94.6,-28.27 75.79,-19.52"/>
<polygon fill="midnightblue" stroke="midnightblue" points="144.58,-55.4 155.12,-56.44 147.53,-49.05 144.58,-55.4"/>
</g>
<!-- Node3 -->
<g id="node3" class="node">
<title>Node3</title>
<g id="a_node3"><a xlink:href="str_8c.html" target="_top" xlink:title="basic string library">
<polygon fill="white" stroke="black" points="133.5,-0.5 133.5,-19.5 213.5,-19.5 213.5,-0.5 133.5,-0.5"/>
<text text-anchor="middle" x="173.5" y="-7.5" font-family="Helvetica,sans-Serif" font-size="10.00">src/misc/str.c</text>
</a>
</g>
</g>
<!-- Node1&#45;&gt;Node3 -->
<g id="edge2" class="edge">
<title>Node1&#45;&gt;Node3</title>
<path fill="none" stroke="midnightblue" d="M173.5,-45.8C173.5,-36.91 173.5,-26.78 173.5,-19.75"/>
<polygon fill="midnightblue" stroke="midnightblue" points="170,-46.08 173.5,-56.08 177,-46.08 170,-46.08"/>
</g>
<!-- Node4 -->
<g id="node4" class="node">
<title>Node4</title>
<g id="a_node4"><a xlink:href="vec_8c.html" target="_top" xlink:title="basic vector library">
<polygon fill="white" stroke="black" points="231.5,-0.5 231.5,-19.5 317.5,-19.5 317.5,-0.5 231.5,-0.5"/>
<text text-anchor="middle" x="274.5" y="-7.5" font-family="Helvetica,sans-Serif" font-size="10.00">src/misc/vec.c</text>
</a>
</g>
</g>
<!-- Node1&#45;&gt;Node4 -->
<g id="edge3" class="edge">
<title>Node1&#45;&gt;Node4</title>
<path fill="none" stroke="midnightblue" d="M198.58,-51.59C217.26,-41.61 242.2,-28.27 258.31,-19.65"/>
<polygon fill="midnightblue" stroke="midnightblue" points="196.9,-48.52 189.73,-56.32 200.2,-54.7 196.9,-48.52"/>
</g>
</g>
</svg>
