<?xml version="1.0" encoding="UTF-8" standalone="no"?>
<!DOCTYPE svg PUBLIC "-//W3C//DTD SVG 1.1//EN"
 "http://www.w3.org/Graphics/SVG/1.1/DTD/svg11.dtd">
<!-- Generated by graphviz version 2.43.0 (0)
 -->
<!-- Title: src/controller/pid.c Pages: 1 -->
<svg width="286pt" height="252pt"
 viewBox="0.00 0.00 285.50 252.00" xmlns="http://www.w3.org/2000/svg" xmlns:xlink="http://www.w3.org/1999/xlink">
<g id="graph0" class="graph" transform="scale(1 1) rotate(0) translate(4 248)">
<title>src/controller/pid.c</title>
<polygon fill="white" stroke="transparent" points="-4,4 -4,-248 281.5,-248 281.5,4 -4,4"/>
<!-- Node1 -->
<g id="node1" class="node">
<title>Node1</title>
<g id="a_node1"><a xlink:title="Proportional Integral Derivative Algorithm.">
<polygon fill="#bfbfbf" stroke="black" points="107,-224.5 107,-243.5 214,-243.5 214,-224.5 107,-224.5"/>
<text text-anchor="middle" x="160.5" y="-231.5" font-family="Helvetica,sans-Serif" font-size="10.00">src/controller/pid.c</text>
</a>
</g>
</g>
<!-- Node2 -->
<g id="node2" class="node">
<title>Node2</title>
<g id="a_node2"><a xlink:href="pid_8h.html" target="_top" xlink:title="Proportional Integral Derivative Algorithm.">
<polygon fill="white" stroke="black" points="0,-168.5 0,-187.5 99,-187.5 99,-168.5 0,-168.5"/>
<text text-anchor="middle" x="49.5" y="-175.5" font-family="Helvetica,sans-Serif" font-size="10.00">a/controller/pid.h</text>
</a>
</g>
</g>
<!-- Node1&#45;&gt;Node2 -->
<g id="edge1" class="edge">
<title>Node1&#45;&gt;Node2</title>
<path fill="none" stroke="midnightblue" d="M142.67,-224.32C124.78,-215.62 97.02,-202.12 76.45,-192.11"/>
<polygon fill="midnightblue" stroke="midnightblue" points="77.81,-188.88 67.29,-187.65 74.75,-195.18 77.81,-188.88"/>
</g>
<!-- Node7 -->
<g id="node7" class="node">
<title>Node7</title>
<g id="a_node7"><a xlink:href="math_8h.html" target="_top" xlink:title="Calculate math library.">
<polygon fill="white" stroke="black" points="117.5,-168.5 117.5,-187.5 203.5,-187.5 203.5,-168.5 117.5,-168.5"/>
<text text-anchor="middle" x="160.5" y="-175.5" font-family="Helvetica,sans-Serif" font-size="10.00">a/misc/math.h</text>
</a>
</g>
</g>
<!-- Node1&#45;&gt;Node7 -->
<g id="edge6" class="edge">
<title>Node1&#45;&gt;Node7</title>
<path fill="none" stroke="midnightblue" d="M160.5,-224.08C160.5,-217.01 160.5,-206.86 160.5,-197.99"/>
<polygon fill="midnightblue" stroke="midnightblue" points="164,-197.75 160.5,-187.75 157,-197.75 164,-197.75"/>
</g>
<!-- Node9 -->
<g id="node9" class="node">
<title>Node9</title>
<g id="a_node9"><a xlink:title=" ">
<polygon fill="white" stroke="#bfbfbf" points="221.5,-168.5 221.5,-187.5 277.5,-187.5 277.5,-168.5 221.5,-168.5"/>
<text text-anchor="middle" x="249.5" y="-175.5" font-family="Helvetica,sans-Serif" font-size="10.00">assert.h</text>
</a>
</g>
</g>
<!-- Node1&#45;&gt;Node9 -->
<g id="edge9" class="edge">
<title>Node1&#45;&gt;Node9</title>
<path fill="none" stroke="midnightblue" d="M174.8,-224.32C188.68,-215.9 209.99,-202.97 226.3,-193.07"/>
<polygon fill="midnightblue" stroke="midnightblue" points="228.5,-195.83 235.24,-187.65 224.87,-189.85 228.5,-195.83"/>
</g>
<!-- Node3 -->
<g id="node3" class="node">
<title>Node3</title>
<g id="a_node3"><a xlink:href="real_8h.html" target="_top" xlink:title="real number">
<polygon fill="white" stroke="black" points="24,-112.5 24,-131.5 77,-131.5 77,-112.5 24,-112.5"/>
<text text-anchor="middle" x="50.5" y="-119.5" font-family="Helvetica,sans-Serif" font-size="10.00">../real.h</text>
</a>
</g>
</g>
<!-- Node2&#45;&gt;Node3 -->
<g id="edge2" class="edge">
<title>Node2&#45;&gt;Node3</title>
<path fill="none" stroke="midnightblue" d="M49.67,-168.08C49.8,-161.01 49.98,-150.86 50.15,-141.99"/>
<polygon fill="midnightblue" stroke="midnightblue" points="53.65,-141.81 50.34,-131.75 46.65,-141.68 53.65,-141.81"/>
</g>
<!-- Node4 -->
<g id="node4" class="node">
<title>Node4</title>
<g id="a_node4"><a xlink:href="def_8h.html" target="_top" xlink:title="algorithm library definition">
<polygon fill="white" stroke="black" points="57,-56.5 57,-75.5 98,-75.5 98,-56.5 57,-56.5"/>
<text text-anchor="middle" x="77.5" y="-63.5" font-family="Helvetica,sans-Serif" font-size="10.00">def.h</text>
</a>
</g>
</g>
<!-- Node3&#45;&gt;Node4 -->
<g id="edge3" class="edge">
<title>Node3&#45;&gt;Node4</title>
<path fill="none" stroke="midnightblue" d="M54.96,-112.08C58.65,-104.69 64.02,-93.95 68.59,-84.81"/>
<polygon fill="midnightblue" stroke="midnightblue" points="71.78,-86.26 73.12,-75.75 65.52,-83.13 71.78,-86.26"/>
</g>
<!-- Node5 -->
<g id="node5" class="node">
<title>Node5</title>
<g id="a_node5"><a xlink:title=" ">
<polygon fill="white" stroke="#bfbfbf" points="13.5,-0.5 13.5,-19.5 69.5,-19.5 69.5,-0.5 13.5,-0.5"/>
<text text-anchor="middle" x="41.5" y="-7.5" font-family="Helvetica,sans-Serif" font-size="10.00">stddef.h</text>
</a>
</g>
</g>
<!-- Node4&#45;&gt;Node5 -->
<g id="edge4" class="edge">
<title>Node4&#45;&gt;Node5</title>
<path fill="none" stroke="midnightblue" d="M71.56,-56.08C66.52,-48.53 59.16,-37.49 52.99,-28.23"/>
<polygon fill="midnightblue" stroke="midnightblue" points="55.79,-26.13 47.33,-19.75 49.97,-30.01 55.79,-26.13"/>
</g>
<!-- Node6 -->
<g id="node6" class="node">
<title>Node6</title>
<g id="a_node6"><a xlink:title=" ">
<polygon fill="white" stroke="#bfbfbf" points="88,-0.5 88,-19.5 141,-19.5 141,-0.5 88,-0.5"/>
<text text-anchor="middle" x="114.5" y="-7.5" font-family="Helvetica,sans-Serif" font-size="10.00">stdint.h</text>
</a>
</g>
</g>
<!-- Node4&#45;&gt;Node6 -->
<g id="edge5" class="edge">
<title>Node4&#45;&gt;Node6</title>
<path fill="none" stroke="midnightblue" d="M83.61,-56.08C88.78,-48.53 96.35,-37.49 102.69,-28.23"/>
<polygon fill="midnightblue" stroke="midnightblue" points="105.74,-29.98 108.5,-19.75 99.96,-26.02 105.74,-29.98"/>
</g>
<!-- Node7&#45;&gt;Node4 -->
<g id="edge7" class="edge">
<title>Node7&#45;&gt;Node4</title>
<path fill="none" stroke="midnightblue" d="M153.99,-168.37C140.23,-150.14 108,-107.43 90.08,-83.68"/>
<polygon fill="midnightblue" stroke="midnightblue" points="92.8,-81.47 83.98,-75.59 87.21,-85.68 92.8,-81.47"/>
</g>
<!-- Node8 -->
<g id="node8" class="node">
<title>Node8</title>
<g id="a_node8"><a xlink:title=" ">
<polygon fill="white" stroke="#bfbfbf" points="137,-112.5 137,-131.5 184,-131.5 184,-112.5 137,-112.5"/>
<text text-anchor="middle" x="160.5" y="-119.5" font-family="Helvetica,sans-Serif" font-size="10.00">float.h</text>
</a>
</g>
</g>
<!-- Node7&#45;&gt;Node8 -->
<g id="edge8" class="edge">
<title>Node7&#45;&gt;Node8</title>
<path fill="none" stroke="midnightblue" d="M160.5,-168.08C160.5,-161.01 160.5,-150.86 160.5,-141.99"/>
<polygon fill="midnightblue" stroke="midnightblue" points="164,-141.75 160.5,-131.75 157,-141.75 164,-141.75"/>
</g>
</g>
</svg>
