<?xml version="1.0" encoding="UTF-8" standalone="no"?>
<!DOCTYPE svg PUBLIC "-//W3C//DTD SVG 1.1//EN"
 "http://www.w3.org/Graphics/SVG/1.1/DTD/svg11.dtd">
<!-- Generated by graphviz version 2.43.0 (0)
 -->
<!-- Title: include/a/controller/pid.h Pages: 1 -->
<svg width="244pt" height="162pt"
 viewBox="0.00 0.00 243.50 162.00" xmlns="http://www.w3.org/2000/svg" xmlns:xlink="http://www.w3.org/1999/xlink">
<g id="graph0" class="graph" transform="scale(1 1) rotate(0) translate(4 158)">
<title>include/a/controller/pid.h</title>
<polygon fill="white" stroke="transparent" points="-4,4 -4,-158 239.5,-158 239.5,4 -4,4"/>
<!-- Node1 -->
<g id="node1" class="node">
<title>Node1</title>
<g id="a_node1"><a xlink:title="Proportional Integral Derivative Algorithm.">
<polygon fill="#bfbfbf" stroke="black" points="63,-123.5 63,-153.5 173,-153.5 173,-123.5 63,-123.5"/>
<text text-anchor="start" x="71" y="-141.5" font-family="Helvetica,sans-Serif" font-size="10.00">include/a/controller</text>
<text text-anchor="middle" x="118" y="-130.5" font-family="Helvetica,sans-Serif" font-size="10.00">/pid.h</text>
</a>
</g>
</g>
<!-- Node2 -->
<g id="node2" class="node">
<title>Node2</title>
<g id="a_node2"><a xlink:href="fpid_8h.html" target="_top" xlink:title="Fuzzy Proportional Integral Derivative Algorithm.">
<polygon fill="white" stroke="black" points="0,-56.5 0,-86.5 110,-86.5 110,-56.5 0,-56.5"/>
<text text-anchor="start" x="8" y="-74.5" font-family="Helvetica,sans-Serif" font-size="10.00">include/a/controller</text>
<text text-anchor="middle" x="55" y="-63.5" font-family="Helvetica,sans-Serif" font-size="10.00">/fpid.h</text>
</a>
</g>
</g>
<!-- Node1&#45;&gt;Node2 -->
<g id="edge1" class="edge">
<title>Node1&#45;&gt;Node2</title>
<path fill="none" stroke="midnightblue" d="M97.19,-116.02C87.8,-106.34 76.98,-95.17 68.64,-86.58"/>
<polygon fill="midnightblue" stroke="midnightblue" points="94.86,-118.65 104.33,-123.4 99.88,-113.78 94.86,-118.65"/>
</g>
<!-- Node4 -->
<g id="node4" class="node">
<title>Node4</title>
<g id="a_node4"><a xlink:href="pid_8c.html" target="_top" xlink:title="Proportional Integral Derivative Algorithm.">
<polygon fill="white" stroke="black" points="128.5,-62 128.5,-81 235.5,-81 235.5,-62 128.5,-62"/>
<text text-anchor="middle" x="182" y="-69" font-family="Helvetica,sans-Serif" font-size="10.00">src/controller/pid.c</text>
</a>
</g>
</g>
<!-- Node1&#45;&gt;Node4 -->
<g id="edge3" class="edge">
<title>Node1&#45;&gt;Node4</title>
<path fill="none" stroke="midnightblue" d="M139.17,-116C150.85,-104.13 164.72,-90.05 173.44,-81.19"/>
<polygon fill="midnightblue" stroke="midnightblue" points="136.41,-113.81 131.89,-123.4 141.4,-118.73 136.41,-113.81"/>
</g>
<!-- Node3 -->
<g id="node3" class="node">
<title>Node3</title>
<g id="a_node3"><a xlink:href="fpid_8c.html" target="_top" xlink:title="Fuzzy Proportional Integral Derivative Algorithm.">
<polygon fill="white" stroke="black" points="0,-0.5 0,-19.5 110,-19.5 110,-0.5 0,-0.5"/>
<text text-anchor="middle" x="55" y="-7.5" font-family="Helvetica,sans-Serif" font-size="10.00">src/controller/fpid.c</text>
</a>
</g>
</g>
<!-- Node2&#45;&gt;Node3 -->
<g id="edge2" class="edge">
<title>Node2&#45;&gt;Node3</title>
<path fill="none" stroke="midnightblue" d="M55,-46.29C55,-36.86 55,-26.65 55,-19.66"/>
<polygon fill="midnightblue" stroke="midnightblue" points="51.5,-46.4 55,-56.4 58.5,-46.4 51.5,-46.4"/>
</g>
</g>
</svg>
