<?xml version="1.0" encoding="UTF-8" standalone="no"?>
<!DOCTYPE svg PUBLIC "-//W3C//DTD SVG 1.1//EN"
 "http://www.w3.org/Graphics/SVG/1.1/DTD/svg11.dtd">
<!-- Generated by graphviz version 2.43.0 (0)
 -->
<!-- Title: include/a/poly/poly.h Pages: 1 -->
<svg width="224pt" height="84pt"
 viewBox="0.00 0.00 224.00 84.00" xmlns="http://www.w3.org/2000/svg" xmlns:xlink="http://www.w3.org/1999/xlink">
<g id="graph0" class="graph" transform="scale(1 1) rotate(0) translate(4 80)">
<title>include/a/poly/poly.h</title>
<polygon fill="white" stroke="transparent" points="-4,4 -4,-80 220,-80 220,4 -4,4"/>
<!-- Node1 -->
<g id="node1" class="node">
<title>Node1</title>
<g id="a_node1"><a xlink:title="polynomial">
<polygon fill="#bfbfbf" stroke="black" points="43,-56.5 43,-75.5 159,-75.5 159,-56.5 43,-56.5"/>
<text text-anchor="middle" x="101" y="-63.5" font-family="Helvetica,sans-Serif" font-size="10.00">include/a/poly/poly.h</text>
</a>
</g>
</g>
<!-- Node2 -->
<g id="node2" class="node">
<title>Node2</title>
<g id="a_node2"><a xlink:href="poly_8c.html" target="_top" xlink:title="polynomial">
<polygon fill="white" stroke="black" points="0,-0.5 0,-19.5 86,-19.5 86,-0.5 0,-0.5"/>
<text text-anchor="middle" x="43" y="-7.5" font-family="Helvetica,sans-Serif" font-size="10.00">src/poly/poly.c</text>
</a>
</g>
</g>
<!-- Node1&#45;&gt;Node2 -->
<g id="edge1" class="edge">
<title>Node1&#45;&gt;Node2</title>
<path fill="none" stroke="midnightblue" d="M84.09,-49.25C73.8,-39.67 61.03,-27.79 52.49,-19.83"/>
<polygon fill="midnightblue" stroke="midnightblue" points="81.98,-52.07 91.68,-56.32 86.75,-46.95 81.98,-52.07"/>
</g>
<!-- Node3 -->
<g id="node3" class="node">
<title>Node3</title>
<g id="a_node3"><a xlink:href="polytrack_8c.html" target="_top" xlink:title="polynomial trajectory">
<polygon fill="white" stroke="black" points="104,-0.5 104,-19.5 216,-19.5 216,-0.5 104,-0.5"/>
<text text-anchor="middle" x="160" y="-7.5" font-family="Helvetica,sans-Serif" font-size="10.00">src/poly/polytrack.c</text>
</a>
</g>
</g>
<!-- Node1&#45;&gt;Node3 -->
<g id="edge2" class="edge">
<title>Node1&#45;&gt;Node3</title>
<path fill="none" stroke="midnightblue" d="M117.89,-49.54C128.41,-39.91 141.57,-27.87 150.35,-19.83"/>
<polygon fill="midnightblue" stroke="midnightblue" points="115.49,-46.99 110.48,-56.32 120.22,-52.15 115.49,-46.99"/>
</g>
</g>
</svg>
