<?xml version="1.0" encoding="UTF-8" standalone="no"?>
<!DOCTYPE svg PUBLIC "-//W3C//DTD SVG 1.1//EN"
 "http://www.w3.org/Graphics/SVG/1.1/DTD/svg11.dtd">
<!-- Generated by graphviz version 2.43.0 (0)
 -->
<!-- Title: include/a/poly/poly.h Pages: 1 -->
<svg width="136pt" height="196pt"
 viewBox="0.00 0.00 135.50 196.00" xmlns="http://www.w3.org/2000/svg" xmlns:xlink="http://www.w3.org/1999/xlink">
<g id="graph0" class="graph" transform="scale(1 1) rotate(0) translate(4 192)">
<title>include/a/poly/poly.h</title>
<polygon fill="white" stroke="transparent" points="-4,4 -4,-192 131.5,-192 131.5,4 -4,4"/>
<!-- Node1 -->
<g id="node1" class="node">
<title>Node1</title>
<g id="a_node1"><a xlink:title="polynomial">
<polygon fill="#bfbfbf" stroke="black" points="6,-168.5 6,-187.5 122,-187.5 122,-168.5 6,-168.5"/>
<text text-anchor="middle" x="64" y="-175.5" font-family="Helvetica,sans-Serif" font-size="10.00">include/a/poly/poly.h</text>
</a>
</g>
</g>
<!-- Node2 -->
<g id="node2" class="node">
<title>Node2</title>
<g id="a_node2"><a xlink:href="real_8h.html" target="_top" xlink:title="real number">
<polygon fill="white" stroke="black" points="37.5,-112.5 37.5,-131.5 90.5,-131.5 90.5,-112.5 37.5,-112.5"/>
<text text-anchor="middle" x="64" y="-119.5" font-family="Helvetica,sans-Serif" font-size="10.00">../real.h</text>
</a>
</g>
</g>
<!-- Node1&#45;&gt;Node2 -->
<g id="edge1" class="edge">
<title>Node1&#45;&gt;Node2</title>
<path fill="none" stroke="midnightblue" d="M64,-168.08C64,-161.01 64,-150.86 64,-141.99"/>
<polygon fill="midnightblue" stroke="midnightblue" points="67.5,-141.75 64,-131.75 60.5,-141.75 67.5,-141.75"/>
</g>
<!-- Node3 -->
<g id="node3" class="node">
<title>Node3</title>
<g id="a_node3"><a xlink:href="def_8h.html" target="_top" xlink:title="algorithm library definition">
<polygon fill="white" stroke="black" points="43.5,-56.5 43.5,-75.5 84.5,-75.5 84.5,-56.5 43.5,-56.5"/>
<text text-anchor="middle" x="64" y="-63.5" font-family="Helvetica,sans-Serif" font-size="10.00">def.h</text>
</a>
</g>
</g>
<!-- Node2&#45;&gt;Node3 -->
<g id="edge2" class="edge">
<title>Node2&#45;&gt;Node3</title>
<path fill="none" stroke="midnightblue" d="M64,-112.08C64,-105.01 64,-94.86 64,-85.99"/>
<polygon fill="midnightblue" stroke="midnightblue" points="67.5,-85.75 64,-75.75 60.5,-85.75 67.5,-85.75"/>
</g>
<!-- Node4 -->
<g id="node4" class="node">
<title>Node4</title>
<g id="a_node4"><a xlink:title=" ">
<polygon fill="white" stroke="#bfbfbf" points="0,-0.5 0,-19.5 56,-19.5 56,-0.5 0,-0.5"/>
<text text-anchor="middle" x="28" y="-7.5" font-family="Helvetica,sans-Serif" font-size="10.00">stddef.h</text>
</a>
</g>
</g>
<!-- Node3&#45;&gt;Node4 -->
<g id="edge3" class="edge">
<title>Node3&#45;&gt;Node4</title>
<path fill="none" stroke="midnightblue" d="M58.06,-56.08C53.02,-48.53 45.66,-37.49 39.49,-28.23"/>
<polygon fill="midnightblue" stroke="midnightblue" points="42.29,-26.13 33.83,-19.75 36.47,-30.01 42.29,-26.13"/>
</g>
<!-- Node5 -->
<g id="node5" class="node">
<title>Node5</title>
<g id="a_node5"><a xlink:title=" ">
<polygon fill="white" stroke="#bfbfbf" points="74.5,-0.5 74.5,-19.5 127.5,-19.5 127.5,-0.5 74.5,-0.5"/>
<text text-anchor="middle" x="101" y="-7.5" font-family="Helvetica,sans-Serif" font-size="10.00">stdint.h</text>
</a>
</g>
</g>
<!-- Node3&#45;&gt;Node5 -->
<g id="edge4" class="edge">
<title>Node3&#45;&gt;Node5</title>
<path fill="none" stroke="midnightblue" d="M70.11,-56.08C75.28,-48.53 82.85,-37.49 89.19,-28.23"/>
<polygon fill="midnightblue" stroke="midnightblue" points="92.24,-29.98 95,-19.75 86.46,-26.02 92.24,-29.98"/>
</g>
</g>
</svg>
