<?xml version="1.0" encoding="UTF-8" standalone="no"?>
<!DOCTYPE svg PUBLIC "-//W3C//DTD SVG 1.1//EN"
 "http://www.w3.org/Graphics/SVG/1.1/DTD/svg11.dtd">
<!-- Generated by graphviz version 2.43.0 (0)
 -->
<!-- Title: src/poly/polytrack.c Pages: 1 -->
<svg width="282pt" height="252pt"
 viewBox="0.00 0.00 282.00 252.00" xmlns="http://www.w3.org/2000/svg" xmlns:xlink="http://www.w3.org/1999/xlink">
<g id="graph0" class="graph" transform="scale(1 1) rotate(0) translate(4 248)">
<title>src/poly/polytrack.c</title>
<polygon fill="white" stroke="transparent" points="-4,4 -4,-248 278,-248 278,4 -4,4"/>
<!-- Node1 -->
<g id="node1" class="node">
<title>Node1</title>
<g id="a_node1"><a xlink:title="polynomial trajectory">
<polygon fill="#bfbfbf" stroke="black" points="105,-224.5 105,-243.5 217,-243.5 217,-224.5 105,-224.5"/>
<text text-anchor="middle" x="161" y="-231.5" font-family="Helvetica,sans-Serif" font-size="10.00">src/poly/polytrack.c</text>
</a>
</g>
</g>
<!-- Node2 -->
<g id="node2" class="node">
<title>Node2</title>
<g id="a_node2"><a xlink:href="polytrack_8h.html" target="_top" xlink:title="polynomial trajectory">
<polygon fill="white" stroke="black" points="0,-168.5 0,-187.5 104,-187.5 104,-168.5 0,-168.5"/>
<text text-anchor="middle" x="52" y="-175.5" font-family="Helvetica,sans-Serif" font-size="10.00">a/poly/polytrack.h</text>
</a>
</g>
</g>
<!-- Node1&#45;&gt;Node2 -->
<g id="edge1" class="edge">
<title>Node1&#45;&gt;Node2</title>
<path fill="none" stroke="midnightblue" d="M143.49,-224.32C125.93,-215.62 98.67,-202.12 78.47,-192.11"/>
<polygon fill="midnightblue" stroke="midnightblue" points="79.98,-188.96 69.47,-187.65 76.88,-195.23 79.98,-188.96"/>
</g>
<!-- Node7 -->
<g id="node7" class="node">
<title>Node7</title>
<g id="a_node7"><a xlink:href="poly_8h.html" target="_top" xlink:title="polynomial">
<polygon fill="white" stroke="black" points="122,-168.5 122,-187.5 200,-187.5 200,-168.5 122,-168.5"/>
<text text-anchor="middle" x="161" y="-175.5" font-family="Helvetica,sans-Serif" font-size="10.00">a/poly/poly.h</text>
</a>
</g>
</g>
<!-- Node1&#45;&gt;Node7 -->
<g id="edge6" class="edge">
<title>Node1&#45;&gt;Node7</title>
<path fill="none" stroke="midnightblue" d="M161,-224.08C161,-217.01 161,-206.86 161,-197.99"/>
<polygon fill="midnightblue" stroke="midnightblue" points="164.5,-197.75 161,-187.75 157.5,-197.75 164.5,-197.75"/>
</g>
<!-- Node8 -->
<g id="node8" class="node">
<title>Node8</title>
<g id="a_node8"><a xlink:title=" ">
<polygon fill="white" stroke="#bfbfbf" points="218,-168.5 218,-187.5 274,-187.5 274,-168.5 218,-168.5"/>
<text text-anchor="middle" x="246" y="-175.5" font-family="Helvetica,sans-Serif" font-size="10.00">assert.h</text>
</a>
</g>
</g>
<!-- Node1&#45;&gt;Node8 -->
<g id="edge8" class="edge">
<title>Node1&#45;&gt;Node8</title>
<path fill="none" stroke="midnightblue" d="M174.66,-224.32C187.92,-215.9 208.27,-202.97 223.85,-193.07"/>
<polygon fill="midnightblue" stroke="midnightblue" points="225.81,-195.97 232.38,-187.65 222.06,-190.06 225.81,-195.97"/>
</g>
<!-- Node3 -->
<g id="node3" class="node">
<title>Node3</title>
<g id="a_node3"><a xlink:href="real_8h.html" target="_top" xlink:title="real number">
<polygon fill="white" stroke="black" points="79.5,-112.5 79.5,-131.5 132.5,-131.5 132.5,-112.5 79.5,-112.5"/>
<text text-anchor="middle" x="106" y="-119.5" font-family="Helvetica,sans-Serif" font-size="10.00">../real.h</text>
</a>
</g>
</g>
<!-- Node2&#45;&gt;Node3 -->
<g id="edge2" class="edge">
<title>Node2&#45;&gt;Node3</title>
<path fill="none" stroke="midnightblue" d="M60.92,-168.08C68.78,-160.22 80.43,-148.57 89.92,-139.08"/>
<polygon fill="midnightblue" stroke="midnightblue" points="92.65,-141.3 97.25,-131.75 87.7,-136.35 92.65,-141.3"/>
</g>
<!-- Node4 -->
<g id="node4" class="node">
<title>Node4</title>
<g id="a_node4"><a xlink:href="def_8h.html" target="_top" xlink:title="algorithm library definition">
<polygon fill="white" stroke="black" points="85.5,-56.5 85.5,-75.5 126.5,-75.5 126.5,-56.5 85.5,-56.5"/>
<text text-anchor="middle" x="106" y="-63.5" font-family="Helvetica,sans-Serif" font-size="10.00">def.h</text>
</a>
</g>
</g>
<!-- Node3&#45;&gt;Node4 -->
<g id="edge3" class="edge">
<title>Node3&#45;&gt;Node4</title>
<path fill="none" stroke="midnightblue" d="M106,-112.08C106,-105.01 106,-94.86 106,-85.99"/>
<polygon fill="midnightblue" stroke="midnightblue" points="109.5,-85.75 106,-75.75 102.5,-85.75 109.5,-85.75"/>
</g>
<!-- Node5 -->
<g id="node5" class="node">
<title>Node5</title>
<g id="a_node5"><a xlink:title=" ">
<polygon fill="white" stroke="#bfbfbf" points="42,-0.5 42,-19.5 98,-19.5 98,-0.5 42,-0.5"/>
<text text-anchor="middle" x="70" y="-7.5" font-family="Helvetica,sans-Serif" font-size="10.00">stddef.h</text>
</a>
</g>
</g>
<!-- Node4&#45;&gt;Node5 -->
<g id="edge4" class="edge">
<title>Node4&#45;&gt;Node5</title>
<path fill="none" stroke="midnightblue" d="M100.06,-56.08C95.02,-48.53 87.66,-37.49 81.49,-28.23"/>
<polygon fill="midnightblue" stroke="midnightblue" points="84.29,-26.13 75.83,-19.75 78.47,-30.01 84.29,-26.13"/>
</g>
<!-- Node6 -->
<g id="node6" class="node">
<title>Node6</title>
<g id="a_node6"><a xlink:title=" ">
<polygon fill="white" stroke="#bfbfbf" points="116.5,-0.5 116.5,-19.5 169.5,-19.5 169.5,-0.5 116.5,-0.5"/>
<text text-anchor="middle" x="143" y="-7.5" font-family="Helvetica,sans-Serif" font-size="10.00">stdint.h</text>
</a>
</g>
</g>
<!-- Node4&#45;&gt;Node6 -->
<g id="edge5" class="edge">
<title>Node4&#45;&gt;Node6</title>
<path fill="none" stroke="midnightblue" d="M112.11,-56.08C117.28,-48.53 124.85,-37.49 131.19,-28.23"/>
<polygon fill="midnightblue" stroke="midnightblue" points="134.24,-29.98 137,-19.75 128.46,-26.02 134.24,-29.98"/>
</g>
<!-- Node7&#45;&gt;Node3 -->
<g id="edge7" class="edge">
<title>Node7&#45;&gt;Node3</title>
<path fill="none" stroke="midnightblue" d="M151.92,-168.08C143.83,-160.14 131.8,-148.34 122.09,-138.8"/>
<polygon fill="midnightblue" stroke="midnightblue" points="124.5,-136.26 114.91,-131.75 119.6,-141.25 124.5,-136.26"/>
</g>
</g>
</svg>
