<?xml version="1.0" encoding="UTF-8" standalone="no"?>
<!DOCTYPE svg PUBLIC "-//W3C//DTD SVG 1.1//EN"
 "http://www.w3.org/Graphics/SVG/1.1/DTD/svg11.dtd">
<!-- Generated by graphviz version 2.43.0 (0)
 -->
<!-- Title: include/a/real.h Pages: 1 -->
<svg width="1378pt" height="218pt"
 viewBox="0.00 0.00 1378.00 218.00" xmlns="http://www.w3.org/2000/svg" xmlns:xlink="http://www.w3.org/1999/xlink">
<g id="graph0" class="graph" transform="scale(1 1) rotate(0) translate(4 214)">
<title>include/a/real.h</title>
<polygon fill="white" stroke="transparent" points="-4,4 -4,-214 1374,-214 1374,4 -4,4"/>
<!-- Node1 -->
<g id="node1" class="node">
<title>Node1</title>
<g id="a_node1"><a xlink:title="real number">
<polygon fill="#bfbfbf" stroke="black" points="638.5,-190.5 638.5,-209.5 730.5,-209.5 730.5,-190.5 638.5,-190.5"/>
<text text-anchor="middle" x="684.5" y="-197.5" font-family="Helvetica,sans-Serif" font-size="10.00">include/a/real.h</text>
</a>
</g>
</g>
<!-- Node2 -->
<g id="node2" class="node">
<title>Node2</title>
<g id="a_node2"><a xlink:href="complex_8h.html" target="_top" xlink:title="complex number">
<polygon fill="white" stroke="black" points="8,-129 8,-148 123,-148 123,-129 8,-129"/>
<text text-anchor="middle" x="65.5" y="-136" font-family="Helvetica,sans-Serif" font-size="10.00">include/a/complex.h</text>
</a>
</g>
</g>
<!-- Node1&#45;&gt;Node2 -->
<g id="edge1" class="edge">
<title>Node1&#45;&gt;Node2</title>
<path fill="none" stroke="midnightblue" d="M627.95,-195.87C530.15,-190.08 323.22,-176.26 149.5,-154 136.88,-152.38 123.25,-150.22 110.73,-148.05"/>
<polygon fill="midnightblue" stroke="midnightblue" points="628.01,-199.38 638.2,-196.47 628.42,-192.39 628.01,-199.38"/>
</g>
<!-- Node4 -->
<g id="node4" class="node">
<title>Node4</title>
<g id="a_node4"><a xlink:href="mf_8h.html" target="_top" xlink:title="membership function">
<polygon fill="white" stroke="black" points="159,-129 159,-148 294,-148 294,-129 159,-129"/>
<text text-anchor="middle" x="226.5" y="-136" font-family="Helvetica,sans-Serif" font-size="10.00">include/a/controller/mf.h</text>
</a>
</g>
</g>
<!-- Node1&#45;&gt;Node4 -->
<g id="edge4" class="edge">
<title>Node1&#45;&gt;Node4</title>
<path fill="none" stroke="midnightblue" d="M628.23,-193.57C553.74,-186.11 418.42,-171.59 303.5,-154 292.2,-152.27 280.03,-150.12 268.77,-148"/>
<polygon fill="midnightblue" stroke="midnightblue" points="628.03,-197.07 638.32,-194.58 628.72,-190.1 628.03,-197.07"/>
</g>
<!-- Node7 -->
<g id="node7" class="node">
<title>Node7</title>
<g id="a_node7"><a xlink:href="pid_8h.html" target="_top" xlink:title="Proportional Integral Derivative Algorithm.">
<polygon fill="white" stroke="black" points="312.5,-123.5 312.5,-153.5 422.5,-153.5 422.5,-123.5 312.5,-123.5"/>
<text text-anchor="start" x="320.5" y="-141.5" font-family="Helvetica,sans-Serif" font-size="10.00">include/a/controller</text>
<text text-anchor="middle" x="367.5" y="-130.5" font-family="Helvetica,sans-Serif" font-size="10.00">/pid.h</text>
</a>
</g>
</g>
<!-- Node1&#45;&gt;Node7 -->
<g id="edge7" class="edge">
<title>Node1&#45;&gt;Node7</title>
<path fill="none" stroke="midnightblue" d="M628.3,-189.78C576.94,-181.17 498.94,-167.63 431.5,-154 428.6,-153.41 425.62,-152.8 422.62,-152.16"/>
<polygon fill="midnightblue" stroke="midnightblue" points="627.77,-193.24 638.21,-191.43 628.92,-186.33 627.77,-193.24"/>
</g>
<!-- Node9 -->
<g id="node9" class="node">
<title>Node9</title>
<g id="a_node9"><a xlink:href="fuzzy_8h.html" target="_top" xlink:title="Fuzzy operator.">
<polygon fill="white" stroke="black" points="440.5,-123.5 440.5,-153.5 550.5,-153.5 550.5,-123.5 440.5,-123.5"/>
<text text-anchor="start" x="448.5" y="-141.5" font-family="Helvetica,sans-Serif" font-size="10.00">include/a/controller</text>
<text text-anchor="middle" x="495.5" y="-130.5" font-family="Helvetica,sans-Serif" font-size="10.00">/fuzzy.h</text>
</a>
</g>
</g>
<!-- Node1&#45;&gt;Node9 -->
<g id="edge10" class="edge">
<title>Node1&#45;&gt;Node9</title>
<path fill="none" stroke="midnightblue" d="M647.52,-187.36C616.72,-177.66 572.77,-163.83 540.04,-153.52"/>
<polygon fill="midnightblue" stroke="midnightblue" points="646.83,-190.81 657.42,-190.48 648.93,-184.13 646.83,-190.81"/>
</g>
<!-- Node10 -->
<g id="node10" class="node">
<title>Node10</title>
<g id="a_node10"><a xlink:href="lpf_8h.html" target="_top" xlink:title="Low Pass Filter.">
<polygon fill="white" stroke="black" points="568.5,-129 568.5,-148 678.5,-148 678.5,-129 568.5,-129"/>
<text text-anchor="middle" x="623.5" y="-136" font-family="Helvetica,sans-Serif" font-size="10.00">include/a/filter/lpf.h</text>
</a>
</g>
</g>
<!-- Node1&#45;&gt;Node10 -->
<g id="edge11" class="edge">
<title>Node1&#45;&gt;Node10</title>
<path fill="none" stroke="midnightblue" d="M668.43,-183.32C656.84,-172.02 641.64,-157.19 632.22,-148.01"/>
<polygon fill="midnightblue" stroke="midnightblue" points="666.16,-186 675.76,-190.48 671.05,-180.99 666.16,-186"/>
</g>
<!-- Node11 -->
<g id="node11" class="node">
<title>Node11</title>
<g id="a_node11"><a xlink:href="imag_8h.html" target="_top" xlink:title="imaginary number">
<polygon fill="white" stroke="black" points="696.5,-129 696.5,-148 794.5,-148 794.5,-129 696.5,-129"/>
<text text-anchor="middle" x="745.5" y="-136" font-family="Helvetica,sans-Serif" font-size="10.00">include/a/imag.h</text>
</a>
</g>
</g>
<!-- Node1&#45;&gt;Node11 -->
<g id="edge12" class="edge">
<title>Node1&#45;&gt;Node11</title>
<path fill="none" stroke="midnightblue" d="M700.57,-183.32C712.16,-172.02 727.36,-157.19 736.78,-148.01"/>
<polygon fill="midnightblue" stroke="midnightblue" points="697.95,-180.99 693.24,-190.48 702.84,-186 697.95,-180.99"/>
</g>
<!-- Node12 -->
<g id="node12" class="node">
<title>Node12</title>
<g id="a_node12"><a xlink:href="mean_8h.html" target="_top" xlink:title="mean calculation">
<polygon fill="white" stroke="black" points="813,-129 813,-148 940,-148 940,-129 813,-129"/>
<text text-anchor="middle" x="876.5" y="-136" font-family="Helvetica,sans-Serif" font-size="10.00">include/a/misc/mean.h</text>
</a>
</g>
</g>
<!-- Node1&#45;&gt;Node12 -->
<g id="edge13" class="edge">
<title>Node1&#45;&gt;Node12</title>
<path fill="none" stroke="midnightblue" d="M721.99,-187.38C759.31,-175.82 815.7,-158.34 849.04,-148.01"/>
<polygon fill="midnightblue" stroke="midnightblue" points="720.52,-184.17 712.01,-190.48 722.6,-190.86 720.52,-184.17"/>
</g>
<!-- Node14 -->
<g id="node14" class="node">
<title>Node14</title>
<g id="a_node14"><a xlink:href="zyx_8h.html" target="_top" xlink:title="yaw (Z), pitch (Y), roll (X)">
<polygon fill="white" stroke="black" points="958.5,-129 958.5,-148 1074.5,-148 1074.5,-129 958.5,-129"/>
<text text-anchor="middle" x="1016.5" y="-136" font-family="Helvetica,sans-Serif" font-size="10.00">include/a/misc/zyx.h</text>
</a>
</g>
</g>
<!-- Node1&#45;&gt;Node14 -->
<g id="edge15" class="edge">
<title>Node1&#45;&gt;Node14</title>
<path fill="none" stroke="midnightblue" d="M740.84,-190.09C794.37,-181.46 877.08,-167.7 948.5,-154 957.98,-152.18 968.18,-150.08 977.72,-148.06"/>
<polygon fill="midnightblue" stroke="midnightblue" points="740.18,-186.65 730.86,-191.69 741.29,-193.56 740.18,-186.65"/>
</g>
<!-- Node16 -->
<g id="node16" class="node">
<title>Node16</title>
<g id="a_node16"><a xlink:href="poly_8h.html" target="_top" xlink:title="polynomial">
<polygon fill="white" stroke="black" points="1092.5,-129 1092.5,-148 1208.5,-148 1208.5,-129 1092.5,-129"/>
<text text-anchor="middle" x="1150.5" y="-136" font-family="Helvetica,sans-Serif" font-size="10.00">include/a/poly/poly.h</text>
</a>
</g>
</g>
<!-- Node1&#45;&gt;Node16 -->
<g id="edge17" class="edge">
<title>Node1&#45;&gt;Node16</title>
<path fill="none" stroke="midnightblue" d="M740.82,-194.45C818.31,-187.78 962.04,-173.94 1083.5,-154 1093.48,-152.36 1104.22,-150.21 1114.12,-148.07"/>
<polygon fill="midnightblue" stroke="midnightblue" points="740.45,-190.97 730.79,-195.31 741.05,-197.94 740.45,-190.97"/>
</g>
<!-- Node19 -->
<g id="node19" class="node">
<title>Node19</title>
<g id="a_node19"><a xlink:href="polytrack_8h.html" target="_top" xlink:title="polynomial trajectory">
<polygon fill="white" stroke="black" points="1227,-129 1227,-148 1370,-148 1370,-129 1227,-129"/>
<text text-anchor="middle" x="1298.5" y="-136" font-family="Helvetica,sans-Serif" font-size="10.00">include/a/poly/polytrack.h</text>
</a>
</g>
</g>
<!-- Node1&#45;&gt;Node19 -->
<g id="edge20" class="edge">
<title>Node1&#45;&gt;Node19</title>
<path fill="none" stroke="midnightblue" d="M740.85,-195.97C838.3,-190.34 1044.49,-176.74 1217.5,-154 1229.68,-152.4 1242.82,-150.24 1254.9,-148.07"/>
<polygon fill="midnightblue" stroke="midnightblue" points="740.42,-192.49 730.64,-196.55 740.82,-199.48 740.42,-192.49"/>
</g>
<!-- Node2&#45;&gt;Node2 -->
<g id="edge2" class="edge">
<title>Node2&#45;&gt;Node2</title>
<path fill="none" stroke="midnightblue" d="M103.46,-149.35C123.19,-151.04 141,-147.42 141,-138.5 141,-128.07 116.67,-124.89 93.38,-128.97"/>
<polygon fill="midnightblue" stroke="midnightblue" points="103.75,-145.85 93.38,-148.03 102.84,-152.79 103.75,-145.85"/>
</g>
<!-- Node3 -->
<g id="node3" class="node">
<title>Node3</title>
<g id="a_node3"><a xlink:href="gmath_8h.html" target="_top" xlink:title="Generic math.">
<polygon fill="white" stroke="black" points="0,-62 0,-81 131,-81 131,-62 0,-62"/>
<text text-anchor="middle" x="65.5" y="-69" font-family="Helvetica,sans-Serif" font-size="10.00">include/a/misc/gmath.h</text>
</a>
</g>
</g>
<!-- Node2&#45;&gt;Node3 -->
<g id="edge3" class="edge">
<title>Node2&#45;&gt;Node3</title>
<path fill="none" stroke="midnightblue" d="M65.5,-118.54C65.5,-106.17 65.5,-90.62 65.5,-81.13"/>
<polygon fill="midnightblue" stroke="midnightblue" points="62,-118.73 65.5,-128.73 69,-118.73 62,-118.73"/>
</g>
<!-- Node5 -->
<g id="node5" class="node">
<title>Node5</title>
<g id="a_node5"><a xlink:href="fpid_8h.html" target="_top" xlink:title="Fuzzy Proportional Integral Derivative Algorithm.">
<polygon fill="white" stroke="black" points="178.5,-56.5 178.5,-86.5 288.5,-86.5 288.5,-56.5 178.5,-56.5"/>
<text text-anchor="start" x="186.5" y="-74.5" font-family="Helvetica,sans-Serif" font-size="10.00">include/a/controller</text>
<text text-anchor="middle" x="233.5" y="-63.5" font-family="Helvetica,sans-Serif" font-size="10.00">/fpid.h</text>
</a>
</g>
</g>
<!-- Node4&#45;&gt;Node5 -->
<g id="edge5" class="edge">
<title>Node4&#45;&gt;Node5</title>
<path fill="none" stroke="midnightblue" d="M228.52,-118.74C229.62,-108.49 230.97,-96 231.98,-86.59"/>
<polygon fill="midnightblue" stroke="midnightblue" points="225.03,-118.42 227.44,-128.73 231.99,-119.17 225.03,-118.42"/>
</g>
<!-- Node6 -->
<g id="node6" class="node">
<title>Node6</title>
<g id="a_node6"><a xlink:href="fpid_8c.html" target="_top" xlink:title="Fuzzy Proportional Integral Derivative Algorithm.">
<polygon fill="white" stroke="black" points="178.5,-0.5 178.5,-19.5 288.5,-19.5 288.5,-0.5 178.5,-0.5"/>
<text text-anchor="middle" x="233.5" y="-7.5" font-family="Helvetica,sans-Serif" font-size="10.00">src/controller/fpid.c</text>
</a>
</g>
</g>
<!-- Node5&#45;&gt;Node6 -->
<g id="edge6" class="edge">
<title>Node5&#45;&gt;Node6</title>
<path fill="none" stroke="midnightblue" d="M233.5,-46.29C233.5,-36.86 233.5,-26.65 233.5,-19.66"/>
<polygon fill="midnightblue" stroke="midnightblue" points="230,-46.4 233.5,-56.4 237,-46.4 230,-46.4"/>
</g>
<!-- Node7&#45;&gt;Node5 -->
<g id="edge8" class="edge">
<title>Node7&#45;&gt;Node5</title>
<path fill="none" stroke="midnightblue" d="M329.35,-118.99C308.11,-108.69 282.09,-96.07 262.52,-86.58"/>
<polygon fill="midnightblue" stroke="midnightblue" points="327.9,-122.18 338.42,-123.4 330.95,-115.88 327.9,-122.18"/>
</g>
<!-- Node8 -->
<g id="node8" class="node">
<title>Node8</title>
<g id="a_node8"><a xlink:href="pid_8c.html" target="_top" xlink:title="Proportional Integral Derivative Algorithm.">
<polygon fill="white" stroke="black" points="314,-62 314,-81 421,-81 421,-62 314,-62"/>
<text text-anchor="middle" x="367.5" y="-69" font-family="Helvetica,sans-Serif" font-size="10.00">src/controller/pid.c</text>
</a>
</g>
</g>
<!-- Node7&#45;&gt;Node8 -->
<g id="edge9" class="edge">
<title>Node7&#45;&gt;Node8</title>
<path fill="none" stroke="midnightblue" d="M367.5,-113.25C367.5,-102.02 367.5,-89.38 367.5,-81.19"/>
<polygon fill="midnightblue" stroke="midnightblue" points="364,-113.4 367.5,-123.4 371,-113.4 364,-113.4"/>
</g>
<!-- Node13 -->
<g id="node13" class="node">
<title>Node13</title>
<g id="a_node13"><a xlink:href="mean_8c.html" target="_top" xlink:title="mean calculation">
<polygon fill="white" stroke="black" points="828.5,-62 828.5,-81 924.5,-81 924.5,-62 828.5,-62"/>
<text text-anchor="middle" x="876.5" y="-69" font-family="Helvetica,sans-Serif" font-size="10.00">src/misc/mean.c</text>
</a>
</g>
</g>
<!-- Node12&#45;&gt;Node13 -->
<g id="edge14" class="edge">
<title>Node12&#45;&gt;Node13</title>
<path fill="none" stroke="midnightblue" d="M876.5,-118.54C876.5,-106.17 876.5,-90.62 876.5,-81.13"/>
<polygon fill="midnightblue" stroke="midnightblue" points="873,-118.73 876.5,-128.73 880,-118.73 873,-118.73"/>
</g>
<!-- Node15 -->
<g id="node15" class="node">
<title>Node15</title>
<g id="a_node15"><a xlink:href="zyx_8c.html" target="_top" xlink:title="yaw (Z), pitch (Y), roll (X)">
<polygon fill="white" stroke="black" points="973.5,-62 973.5,-81 1059.5,-81 1059.5,-62 973.5,-62"/>
<text text-anchor="middle" x="1016.5" y="-69" font-family="Helvetica,sans-Serif" font-size="10.00">src/misc/zyx.c</text>
</a>
</g>
</g>
<!-- Node14&#45;&gt;Node15 -->
<g id="edge16" class="edge">
<title>Node14&#45;&gt;Node15</title>
<path fill="none" stroke="midnightblue" d="M1016.5,-118.54C1016.5,-106.17 1016.5,-90.62 1016.5,-81.13"/>
<polygon fill="midnightblue" stroke="midnightblue" points="1013,-118.73 1016.5,-128.73 1020,-118.73 1013,-118.73"/>
</g>
<!-- Node17 -->
<g id="node17" class="node">
<title>Node17</title>
<g id="a_node17"><a xlink:href="poly_8c.html" target="_top" xlink:title="polynomial">
<polygon fill="white" stroke="black" points="1107.5,-62 1107.5,-81 1193.5,-81 1193.5,-62 1107.5,-62"/>
<text text-anchor="middle" x="1150.5" y="-69" font-family="Helvetica,sans-Serif" font-size="10.00">src/poly/poly.c</text>
</a>
</g>
</g>
<!-- Node16&#45;&gt;Node17 -->
<g id="edge18" class="edge">
<title>Node16&#45;&gt;Node17</title>
<path fill="none" stroke="midnightblue" d="M1150.5,-118.54C1150.5,-106.17 1150.5,-90.62 1150.5,-81.13"/>
<polygon fill="midnightblue" stroke="midnightblue" points="1147,-118.73 1150.5,-128.73 1154,-118.73 1147,-118.73"/>
</g>
<!-- Node18 -->
<g id="node18" class="node">
<title>Node18</title>
<g id="a_node18"><a xlink:href="polytrack_8c.html" target="_top" xlink:title="polynomial trajectory">
<polygon fill="white" stroke="black" points="1226.5,-62 1226.5,-81 1338.5,-81 1338.5,-62 1226.5,-62"/>
<text text-anchor="middle" x="1282.5" y="-69" font-family="Helvetica,sans-Serif" font-size="10.00">src/poly/polytrack.c</text>
</a>
</g>
</g>
<!-- Node16&#45;&gt;Node18 -->
<g id="edge19" class="edge">
<title>Node16&#45;&gt;Node18</title>
<path fill="none" stroke="midnightblue" d="M1177.01,-124.44C1203.16,-111.57 1242.38,-92.26 1264.9,-81.17"/>
<polygon fill="midnightblue" stroke="midnightblue" points="1175.45,-121.31 1168.03,-128.87 1178.55,-127.59 1175.45,-121.31"/>
</g>
<!-- Node19&#45;&gt;Node18 -->
<g id="edge21" class="edge">
<title>Node19&#45;&gt;Node18</title>
<path fill="none" stroke="midnightblue" d="M1293.93,-118.91C1290.87,-106.49 1286.98,-90.72 1284.62,-81.13"/>
<polygon fill="midnightblue" stroke="midnightblue" points="1290.55,-119.86 1296.34,-128.73 1297.35,-118.19 1290.55,-119.86"/>
</g>
</g>
</svg>
