<?xml version="1.0" encoding="UTF-8" standalone="no"?>
<!DOCTYPE svg PUBLIC "-//W3C//DTD SVG 1.1//EN"
 "http://www.w3.org/Graphics/SVG/1.1/DTD/svg11.dtd">
<!-- Generated by graphviz version 2.43.0 (0)
 -->
<!-- Title: include/a/cksum/rmd128.h Pages: 1 -->
<!--zoomable 274 -->
<svg id="main" version="1.1" xmlns="http://www.w3.org/2000/svg" xmlns:xlink="http://www.w3.org/1999/xlink" xml:space="preserve" onload="init(evt)">
<style type="text/css"><![CDATA[
.edge:hover path { stroke: red; }
.edge:hover polygon { stroke: red; fill: red; }
]]></style>
<script type="text/javascript"><![CDATA[
var edges = document.getElementsByTagName('g');
if (edges && edges.length) {
  for (var i=0;i<edges.length;i++) {
    if (edges[i].id.substr(0,4)=='edge') {
      edges[i].setAttribute('class','edge');
    }
  }
}
]]></script>
        <defs>
                <circle id="rim" cx="0" cy="0" r="7"/>
                <circle id="rim2" cx="0" cy="0" r="3.5"/>
                <g id="zoomPlus">
                        <use xlink:href="#rim" fill="#404040">
                                <set attributeName="fill" to="#808080" begin="zoomplus.mouseover" end="zoomplus.mouseout"/>
                        </use>
                        <path d="M-4,0h8M0,-4v8" fill="none" stroke="white" stroke-width="1.5" pointer-events="none"/>
                </g>
                <g id="zoomMin">
                        <use xlink:href="#rim" fill="#404040">
                                <set attributeName="fill" to="#808080" begin="zoomminus.mouseover" end="zoomminus.mouseout"/>
                        </use>
                        <path d="M-4,0h8" fill="none" stroke="white" stroke-width="1.5" pointer-events="none"/>
                </g>
                <g id="dirArrow">
                        <path fill="none" stroke="white" stroke-width="1.5" d="M0,-3.0v7 M-2.5,-0.5L0,-3.0L2.5,-0.5"/>
                </g>
               <g id="resetDef">
                       <use xlink:href="#rim2" fill="#404040">
                               <set attributeName="fill" to="#808080" begin="reset.mouseover" end="reset.mouseout"/>
                       </use>
               </g>
        </defs>

<script type="text/javascript">
var viewWidth = 2290;
var viewHeight = 274;
var sectionId = 'dynsection-1';
</script>
<script xlink:href="svgpan.js"/>
<svg id="graph" class="graph">
<g id="viewport">
<title>include/a/cksum/rmd128.h</title>
<polygon fill="white" stroke="transparent" points="-4,4 -4,-270 2286,-270 2286,4 -4,4"/>
<!-- Node1 -->
<g id="node1" class="node">
<title>Node1</title>
<g id="a_node1"><a xlink:title="ripemd implementation">
<polygon fill="#bfbfbf" stroke="black" points="504.5,-246.5 504.5,-265.5 650.5,-265.5 650.5,-246.5 504.5,-246.5"/>
<text text-anchor="middle" x="577.5" y="-253.5" font-family="Helvetica,sans-Serif" font-size="10.00">include/a/cksum/rmd128.h</text>
</a>
</g>
</g>
<!-- Node2 -->
<g id="node2" class="node">
<title>Node2</title>
<g id="a_node2"><a xlink:href="hash_8h.html" target="_top" xlink:title="hash library">
<polygon fill="white" stroke="black" points="1032,-190.5 1032,-209.5 1163,-209.5 1163,-190.5 1032,-190.5"/>
<text text-anchor="middle" x="1097.5" y="-197.5" font-family="Helvetica,sans-Serif" font-size="10.00">include/a/cksum/hash.h</text>
</a>
</g>
</g>
<!-- Node1&#45;&gt;Node2 -->
<g id="edge1" class="edge">
<title>Node1&#45;&gt;Node2</title>
<path fill="none" stroke="midnightblue" d="M660.69,-246.36C763.82,-235.65 937.49,-217.62 1031.79,-207.82"/>
<polygon fill="midnightblue" stroke="midnightblue" points="660.21,-242.89 650.63,-247.41 660.93,-249.85 660.21,-242.89"/>
</g>
<!-- Node15 -->
<g id="node15" class="node">
<title>Node15</title>
<g id="a_node15"><a xlink:href="rmd128_8c.html" target="_top" xlink:title="ripemd implementation">
<polygon fill="white" stroke="black" points="0,-129 0,-148 115,-148 115,-129 0,-129"/>
<text text-anchor="middle" x="57.5" y="-136" font-family="Helvetica,sans-Serif" font-size="10.00">src/cksum/rmd128.c</text>
</a>
</g>
</g>
<!-- Node1&#45;&gt;Node15 -->
<g id="edge24" class="edge">
<title>Node1&#45;&gt;Node15</title>
<path fill="none" stroke="midnightblue" d="M529.05,-244.24C426.49,-221.46 189.24,-168.76 96.06,-148.06"/>
<polygon fill="midnightblue" stroke="midnightblue" points="528.32,-247.66 538.84,-246.41 529.84,-240.83 528.32,-247.66"/>
</g>
<!-- Node3 -->
<g id="node3" class="node">
<title>Node3</title>
<g id="a_node3"><a xlink:href="hash__util_8h.html" target="_top" xlink:title="hash library utils">
<polygon fill="white" stroke="black" points="133.5,-123.5 133.5,-153.5 255.5,-153.5 255.5,-123.5 133.5,-123.5"/>
<text text-anchor="start" x="141.5" y="-141.5" font-family="Helvetica,sans-Serif" font-size="10.00">include/a/cksum/hash</text>
<text text-anchor="middle" x="194.5" y="-130.5" font-family="Helvetica,sans-Serif" font-size="10.00">_util.h</text>
</a>
</g>
</g>
<!-- Node2&#45;&gt;Node3 -->
<g id="edge2" class="edge">
<title>Node2&#45;&gt;Node3</title>
<path fill="none" stroke="midnightblue" d="M1021.71,-198.63C875.08,-197.09 542.58,-189.59 265.5,-154 262.26,-153.58 258.94,-153.1 255.6,-152.57"/>
<polygon fill="midnightblue" stroke="midnightblue" points="1021.91,-202.13 1031.94,-198.73 1021.98,-195.13 1021.91,-202.13"/>
</g>
<!-- Node5 -->
<g id="node5" class="node">
<title>Node5</title>
<g id="a_node5"><a xlink:href="hmac_8h.html" target="_top" xlink:title="RFC 2104 compliant HMAC implementation.">
<polygon fill="white" stroke="black" points="274,-129 274,-148 409,-148 409,-129 274,-129"/>
<text text-anchor="middle" x="341.5" y="-136" font-family="Helvetica,sans-Serif" font-size="10.00">include/a/cksum/hmac.h</text>
</a>
</g>
</g>
<!-- Node2&#45;&gt;Node5 -->
<g id="edge4" class="edge">
<title>Node2&#45;&gt;Node5</title>
<path fill="none" stroke="midnightblue" d="M1021.41,-196.93C895.53,-192.85 636.23,-181.61 418.5,-154 406.49,-152.48 393.52,-150.26 381.72,-148.02"/>
<polygon fill="midnightblue" stroke="midnightblue" points="1021.6,-200.44 1031.7,-197.26 1021.82,-193.44 1021.6,-200.44"/>
</g>
<!-- Node9 -->
<g id="node9" class="node">
<title>Node9</title>
<g id="a_node9"><a xlink:href="blake2b_8c.html" target="_top" xlink:title="RFC 7693 compliant BLAKE implementation.">
<polygon fill="white" stroke="black" points="427.5,-129 427.5,-148 543.5,-148 543.5,-129 427.5,-129"/>
<text text-anchor="middle" x="485.5" y="-136" font-family="Helvetica,sans-Serif" font-size="10.00">src/cksum/blake2b.c</text>
</a>
</g>
</g>
<!-- Node2&#45;&gt;Node9 -->
<g id="edge8" class="edge">
<title>Node2&#45;&gt;Node9</title>
<path fill="none" stroke="midnightblue" d="M1021.65,-195.78C916.2,-190.62 719.54,-178.47 553.5,-154 542.99,-152.45 531.67,-150.25 521.34,-148.04"/>
<polygon fill="midnightblue" stroke="midnightblue" points="1021.72,-199.29 1031.88,-196.28 1022.06,-192.3 1021.72,-199.29"/>
</g>
<!-- Node10 -->
<g id="node10" class="node">
<title>Node10</title>
<g id="a_node10"><a xlink:href="blake2s_8c.html" target="_top" xlink:title="RFC 7693 compliant BLAKE implementation.">
<polygon fill="white" stroke="black" points="562,-129 562,-148 677,-148 677,-129 562,-129"/>
<text text-anchor="middle" x="619.5" y="-136" font-family="Helvetica,sans-Serif" font-size="10.00">src/cksum/blake2s.c</text>
</a>
</g>
</g>
<!-- Node2&#45;&gt;Node10 -->
<g id="edge9" class="edge">
<title>Node2&#45;&gt;Node10</title>
<path fill="none" stroke="midnightblue" d="M1021.66,-193.08C938.94,-186.06 802.8,-172.9 686.5,-154 676.4,-152.36 665.52,-150.18 655.53,-148.02"/>
<polygon fill="midnightblue" stroke="midnightblue" points="1021.47,-196.57 1031.73,-193.92 1022.06,-189.6 1021.47,-196.57"/>
</g>
<!-- Node11 -->
<g id="node11" class="node">
<title>Node11</title>
<g id="a_node11"><a xlink:href="hash_8c.html" target="_top" xlink:title="hash library">
<polygon fill="white" stroke="black" points="695,-129 695,-148 796,-148 796,-129 695,-129"/>
<text text-anchor="middle" x="745.5" y="-136" font-family="Helvetica,sans-Serif" font-size="10.00">src/cksum/hash.c</text>
</a>
</g>
</g>
<!-- Node2&#45;&gt;Node11 -->
<g id="edge10" class="edge">
<title>Node2&#45;&gt;Node11</title>
<path fill="none" stroke="midnightblue" d="M1021.99,-189.14C962.85,-180.99 878.64,-168.45 805.5,-154 796.77,-152.28 787.4,-150.15 778.71,-148.05"/>
<polygon fill="midnightblue" stroke="midnightblue" points="1021.61,-192.62 1031.99,-190.51 1022.56,-185.69 1021.61,-192.62"/>
</g>
<!-- Node12 -->
<g id="node12" class="node">
<title>Node12</title>
<g id="a_node12"><a xlink:href="md2_8c.html" target="_top" xlink:title="RFC 1319 compliant MD2 implementation.">
<polygon fill="white" stroke="black" points="814,-129 814,-148 913,-148 913,-129 814,-129"/>
<text text-anchor="middle" x="863.5" y="-136" font-family="Helvetica,sans-Serif" font-size="10.00">src/cksum/md2.c</text>
</a>
</g>
</g>
<!-- Node2&#45;&gt;Node12 -->
<g id="edge11" class="edge">
<title>Node2&#45;&gt;Node12</title>
<path fill="none" stroke="midnightblue" d="M1054.12,-187.97C1008.68,-176.41 938.29,-158.52 896.96,-148.01"/>
<polygon fill="midnightblue" stroke="midnightblue" points="1053.42,-191.4 1063.97,-190.48 1055.14,-184.62 1053.42,-191.4"/>
</g>
<!-- Node13 -->
<g id="node13" class="node">
<title>Node13</title>
<g id="a_node13"><a xlink:href="md4_8c.html" target="_top" xlink:title="RFC 1320 compliant MD4 implementation.">
<polygon fill="white" stroke="black" points="931,-129 931,-148 1030,-148 1030,-129 931,-129"/>
<text text-anchor="middle" x="980.5" y="-136" font-family="Helvetica,sans-Serif" font-size="10.00">src/cksum/md4.c</text>
</a>
</g>
</g>
<!-- Node2&#45;&gt;Node13 -->
<g id="edge12" class="edge">
<title>Node2&#45;&gt;Node13</title>
<path fill="none" stroke="midnightblue" d="M1071.67,-185.87C1049,-174.33 1016.68,-157.9 997.23,-148.01"/>
<polygon fill="midnightblue" stroke="midnightblue" points="1070.24,-189.06 1080.74,-190.48 1073.41,-182.82 1070.24,-189.06"/>
</g>
<!-- Node14 -->
<g id="node14" class="node">
<title>Node14</title>
<g id="a_node14"><a xlink:href="md5_8c.html" target="_top" xlink:title="RFC 1321 compliant MD5 implementation.">
<polygon fill="white" stroke="black" points="1048,-129 1048,-148 1147,-148 1147,-129 1048,-129"/>
<text text-anchor="middle" x="1097.5" y="-136" font-family="Helvetica,sans-Serif" font-size="10.00">src/cksum/md5.c</text>
</a>
</g>
</g>
<!-- Node2&#45;&gt;Node14 -->
<g id="edge13" class="edge">
<title>Node2&#45;&gt;Node14</title>
<path fill="none" stroke="midnightblue" d="M1097.5,-180.32C1097.5,-169.5 1097.5,-156.4 1097.5,-148.01"/>
<polygon fill="midnightblue" stroke="midnightblue" points="1094,-180.48 1097.5,-190.48 1101,-180.48 1094,-180.48"/>
</g>
<!-- Node2&#45;&gt;Node15 -->
<g id="edge14" class="edge">
<title>Node2&#45;&gt;Node15</title>
<path fill="none" stroke="midnightblue" d="M1021.49,-199.78C857.11,-200.54 456.56,-197.3 124.5,-154 113.76,-152.6 102.19,-150.36 91.74,-148.06"/>
<polygon fill="midnightblue" stroke="midnightblue" points="1021.99,-203.28 1031.98,-199.73 1021.96,-196.28 1021.99,-203.28"/>
</g>
<!-- Node16 -->
<g id="node16" class="node">
<title>Node16</title>
<g id="a_node16"><a xlink:href="rmd160_8c.html" target="_top" xlink:title="ripemd implementation">
<polygon fill="white" stroke="black" points="1165,-129 1165,-148 1280,-148 1280,-129 1165,-129"/>
<text text-anchor="middle" x="1222.5" y="-136" font-family="Helvetica,sans-Serif" font-size="10.00">src/cksum/rmd160.c</text>
</a>
</g>
</g>
<!-- Node2&#45;&gt;Node16 -->
<g id="edge15" class="edge">
<title>Node2&#45;&gt;Node16</title>
<path fill="none" stroke="midnightblue" d="M1124.44,-186.17C1148.7,-174.63 1183.66,-157.99 1204.62,-148.01"/>
<polygon fill="midnightblue" stroke="midnightblue" points="1122.93,-183.02 1115.41,-190.48 1125.94,-189.34 1122.93,-183.02"/>
</g>
<!-- Node17 -->
<g id="node17" class="node">
<title>Node17</title>
<g id="a_node17"><a xlink:href="rmd256_8c.html" target="_top" xlink:title="ripemd implementation">
<polygon fill="white" stroke="black" points="1298,-129 1298,-148 1413,-148 1413,-129 1298,-129"/>
<text text-anchor="middle" x="1355.5" y="-136" font-family="Helvetica,sans-Serif" font-size="10.00">src/cksum/rmd256.c</text>
</a>
</g>
</g>
<!-- Node2&#45;&gt;Node17 -->
<g id="edge16" class="edge">
<title>Node2&#45;&gt;Node17</title>
<path fill="none" stroke="midnightblue" d="M1144.39,-188.19C1194.45,-176.64 1272.75,-158.58 1318.6,-148.01"/>
<polygon fill="midnightblue" stroke="midnightblue" points="1143.42,-184.82 1134.47,-190.48 1145,-191.64 1143.42,-184.82"/>
</g>
<!-- Node18 -->
<g id="node18" class="node">
<title>Node18</title>
<g id="a_node18"><a xlink:href="rmd320_8c.html" target="_top" xlink:title="ripemd implementation">
<polygon fill="white" stroke="black" points="1431,-129 1431,-148 1546,-148 1546,-129 1431,-129"/>
<text text-anchor="middle" x="1488.5" y="-136" font-family="Helvetica,sans-Serif" font-size="10.00">src/cksum/rmd320.c</text>
</a>
</g>
</g>
<!-- Node2&#45;&gt;Node18 -->
<g id="edge17" class="edge">
<title>Node2&#45;&gt;Node18</title>
<path fill="none" stroke="midnightblue" d="M1173.42,-190.2C1239.45,-182.14 1337.61,-169.18 1422.5,-154 1432.09,-152.29 1442.39,-150.16 1451.95,-148.07"/>
<polygon fill="midnightblue" stroke="midnightblue" points="1172.61,-186.78 1163.1,-191.45 1173.45,-193.72 1172.61,-186.78"/>
</g>
<!-- Node19 -->
<g id="node19" class="node">
<title>Node19</title>
<g id="a_node19"><a xlink:href="sha1_8c.html" target="_top" xlink:title="RFC 3174 compliant SHA1 implementation.">
<polygon fill="white" stroke="black" points="1564,-129 1564,-148 1665,-148 1665,-129 1564,-129"/>
<text text-anchor="middle" x="1614.5" y="-136" font-family="Helvetica,sans-Serif" font-size="10.00">src/cksum/sha1.c</text>
</a>
</g>
</g>
<!-- Node2&#45;&gt;Node19 -->
<g id="edge18" class="edge">
<title>Node2&#45;&gt;Node19</title>
<path fill="none" stroke="midnightblue" d="M1173.36,-194.88C1264.57,-189.16 1422.04,-176.84 1555.5,-154 1564.65,-152.43 1574.48,-150.23 1583.44,-148.02"/>
<polygon fill="midnightblue" stroke="midnightblue" points="1172.88,-191.4 1163.12,-195.51 1173.32,-198.39 1172.88,-191.4"/>
</g>
<!-- Node20 -->
<g id="node20" class="node">
<title>Node20</title>
<g id="a_node20"><a xlink:href="sha256_8c.html" target="_top" xlink:title="RFC 5754 compliant SHA2 implementation.">
<polygon fill="white" stroke="black" points="1683,-129 1683,-148 1796,-148 1796,-129 1683,-129"/>
<text text-anchor="middle" x="1739.5" y="-136" font-family="Helvetica,sans-Serif" font-size="10.00">src/cksum/sha256.c</text>
</a>
</g>
</g>
<!-- Node2&#45;&gt;Node20 -->
<g id="edge19" class="edge">
<title>Node2&#45;&gt;Node20</title>
<path fill="none" stroke="midnightblue" d="M1173.23,-196.51C1283.88,-192.11 1495.99,-180.73 1674.5,-154 1684.68,-152.48 1695.63,-150.26 1705.6,-148.02"/>
<polygon fill="midnightblue" stroke="midnightblue" points="1173.03,-193.02 1163.17,-196.91 1173.3,-200.01 1173.03,-193.02"/>
</g>
<!-- Node21 -->
<g id="node21" class="node">
<title>Node21</title>
<g id="a_node21"><a xlink:href="sha3_8c.html" target="_top" xlink:title="SHA3 implementation.">
<polygon fill="white" stroke="black" points="1814,-129 1814,-148 1915,-148 1915,-129 1814,-129"/>
<text text-anchor="middle" x="1864.5" y="-136" font-family="Helvetica,sans-Serif" font-size="10.00">src/cksum/sha3.c</text>
</a>
</g>
</g>
<!-- Node2&#45;&gt;Node21 -->
<g id="edge20" class="edge">
<title>Node2&#45;&gt;Node21</title>
<path fill="none" stroke="midnightblue" d="M1173.57,-198.58C1303.76,-196.87 1577.33,-189.01 1805.5,-154 1814.88,-152.56 1824.96,-150.34 1834.09,-148.07"/>
<polygon fill="midnightblue" stroke="midnightblue" points="1173.27,-195.08 1163.32,-198.7 1173.36,-202.08 1173.27,-195.08"/>
</g>
<!-- Node22 -->
<g id="node22" class="node">
<title>Node22</title>
<g id="a_node22"><a xlink:href="sha512_8c.html" target="_top" xlink:title="RFC 5754 compliant SHA2 implementation.">
<polygon fill="white" stroke="black" points="1933,-129 1933,-148 2046,-148 2046,-129 1933,-129"/>
<text text-anchor="middle" x="1989.5" y="-136" font-family="Helvetica,sans-Serif" font-size="10.00">src/cksum/sha512.c</text>
</a>
</g>
</g>
<!-- Node2&#45;&gt;Node22 -->
<g id="edge21" class="edge">
<title>Node2&#45;&gt;Node22</title>
<path fill="none" stroke="midnightblue" d="M1173.45,-199.05C1319.59,-198.21 1649.77,-191.85 1924.5,-154 1934.92,-152.56 1946.15,-150.32 1956.29,-148.02"/>
<polygon fill="midnightblue" stroke="midnightblue" points="1173.23,-195.55 1163.25,-199.1 1173.26,-202.55 1173.23,-195.55"/>
</g>
<!-- Node23 -->
<g id="node23" class="node">
<title>Node23</title>
<g id="a_node23"><a xlink:href="tiger_8c.html" target="_top" xlink:title="TIGER implementation.">
<polygon fill="white" stroke="black" points="2064,-129 2064,-148 2163,-148 2163,-129 2064,-129"/>
<text text-anchor="middle" x="2113.5" y="-136" font-family="Helvetica,sans-Serif" font-size="10.00">src/cksum/tiger.c</text>
</a>
</g>
</g>
<!-- Node2&#45;&gt;Node23 -->
<g id="edge22" class="edge">
<title>Node2&#45;&gt;Node23</title>
<path fill="none" stroke="midnightblue" d="M1173.26,-197.38C1368.58,-192.89 1885.77,-178.95 2055.5,-154 2064.95,-152.61 2075.1,-150.35 2084.22,-148.02"/>
<polygon fill="midnightblue" stroke="midnightblue" points="1173.01,-193.88 1163.09,-197.61 1173.17,-200.88 1173.01,-193.88"/>
</g>
<!-- Node24 -->
<g id="node24" class="node">
<title>Node24</title>
<g id="a_node24"><a xlink:href="whirl_8c.html" target="_top" xlink:title="whirlpool implementation">
<polygon fill="white" stroke="black" points="2181,-129 2181,-148 2282,-148 2282,-129 2181,-129"/>
<text text-anchor="middle" x="2231.5" y="-136" font-family="Helvetica,sans-Serif" font-size="10.00">src/cksum/whirl.c</text>
</a>
</g>
</g>
<!-- Node2&#45;&gt;Node24 -->
<g id="edge23" class="edge">
<title>Node2&#45;&gt;Node24</title>
<path fill="none" stroke="midnightblue" d="M1173.13,-197.79C1384.6,-194.1 1979.18,-181.52 2172.5,-154 2182.11,-152.63 2192.43,-150.37 2201.71,-148.04"/>
<polygon fill="midnightblue" stroke="midnightblue" points="1172.99,-194.29 1163.05,-197.97 1173.11,-201.29 1172.99,-194.29"/>
</g>
<!-- Node4 -->
<g id="node4" class="node">
<title>Node4</title>
<g id="a_node4"><a xlink:href="hash__util_8c.html" target="_top" xlink:title="hash library utils">
<polygon fill="white" stroke="black" points="133.5,-62 133.5,-81 255.5,-81 255.5,-62 133.5,-62"/>
<text text-anchor="middle" x="194.5" y="-69" font-family="Helvetica,sans-Serif" font-size="10.00">src/cksum/hash_util.c</text>
</a>
</g>
</g>
<!-- Node3&#45;&gt;Node4 -->
<g id="edge3" class="edge">
<title>Node3&#45;&gt;Node4</title>
<path fill="none" stroke="midnightblue" d="M194.5,-113.25C194.5,-102.02 194.5,-89.38 194.5,-81.19"/>
<polygon fill="midnightblue" stroke="midnightblue" points="191,-113.4 194.5,-123.4 198,-113.4 191,-113.4"/>
</g>
<!-- Node6 -->
<g id="node6" class="node">
<title>Node6</title>
<g id="a_node6"><a xlink:href="hmac__util_8h.html" target="_top" xlink:title="hmac library utils">
<polygon fill="white" stroke="black" points="275.5,-56.5 275.5,-86.5 401.5,-86.5 401.5,-56.5 275.5,-56.5"/>
<text text-anchor="start" x="283.5" y="-74.5" font-family="Helvetica,sans-Serif" font-size="10.00">include/a/cksum/hmac</text>
<text text-anchor="middle" x="338.5" y="-63.5" font-family="Helvetica,sans-Serif" font-size="10.00">_util.h</text>
</a>
</g>
</g>
<!-- Node5&#45;&gt;Node6 -->
<g id="edge5" class="edge">
<title>Node5&#45;&gt;Node6</title>
<path fill="none" stroke="midnightblue" d="M340.63,-118.74C340.16,-108.49 339.58,-96 339.15,-86.59"/>
<polygon fill="midnightblue" stroke="midnightblue" points="337.14,-118.91 341.1,-128.73 344.13,-118.58 337.14,-118.91"/>
</g>
<!-- Node8 -->
<g id="node8" class="node">
<title>Node8</title>
<g id="a_node8"><a xlink:href="hmac_8c.html" target="_top" xlink:title="RFC 2104 compliant HMAC implementation.">
<polygon fill="white" stroke="black" points="419.5,-62 419.5,-81 523.5,-81 523.5,-62 419.5,-62"/>
<text text-anchor="middle" x="471.5" y="-69" font-family="Helvetica,sans-Serif" font-size="10.00">src/cksum/hmac.c</text>
</a>
</g>
</g>
<!-- Node5&#45;&gt;Node8 -->
<g id="edge7" class="edge">
<title>Node5&#45;&gt;Node8</title>
<path fill="none" stroke="midnightblue" d="M367.95,-124.27C393.7,-111.4 432.08,-92.21 454.17,-81.17"/>
<polygon fill="midnightblue" stroke="midnightblue" points="366.14,-121.27 358.76,-128.87 369.27,-127.53 366.14,-121.27"/>
</g>
<!-- Node7 -->
<g id="node7" class="node">
<title>Node7</title>
<g id="a_node7"><a xlink:href="hmac__util_8c.html" target="_top" xlink:title="hmac library utils">
<polygon fill="white" stroke="black" points="276,-0.5 276,-19.5 401,-19.5 401,-0.5 276,-0.5"/>
<text text-anchor="middle" x="338.5" y="-7.5" font-family="Helvetica,sans-Serif" font-size="10.00">src/cksum/hmac_util.c</text>
</a>
</g>
</g>
<!-- Node6&#45;&gt;Node7 -->
<g id="edge6" class="edge">
<title>Node6&#45;&gt;Node7</title>
<path fill="none" stroke="midnightblue" d="M338.5,-46.29C338.5,-36.86 338.5,-26.65 338.5,-19.66"/>
<polygon fill="midnightblue" stroke="midnightblue" points="335,-46.4 338.5,-56.4 342,-46.4 335,-46.4"/>
</g>
</g>
</svg>
        <g id="navigator" transform="translate(0 0)" fill="#404254">
                <rect fill="#f2f5e9" fill-opacity="0.5" stroke="#606060" stroke-width=".5" x="0" y="0" width="60" height="60"/>
                <use id="zoomplus" xlink:href="#zoomPlus" x="17" y="9" onmousedown="handleZoom(evt,'in')"/>
                <use id="zoomminus" xlink:href="#zoomMin" x="42" y="9" onmousedown="handleZoom(evt,'out')"/>
                <use id="reset" xlink:href="#resetDef" x="30" y="36" onmousedown="handleReset()"/>
                <g id="arrowUp" xlink:href="#dirArrow" transform="translate(30 24)" onmousedown="handlePan(0,-1)">
                  <use xlink:href="#rim" fill="#404040">
                        <set attributeName="fill" to="#808080" begin="arrowUp.mouseover" end="arrowUp.mouseout"/>
                  </use>
                  <path fill="none" stroke="white" stroke-width="1.5" d="M0,-3.0v7 M-2.5,-0.5L0,-3.0L2.5,-0.5"/>
                </g>
                <g id="arrowRight" xlink:href="#dirArrow" transform="rotate(90) translate(36 -43)" onmousedown="handlePan(1,0)">
                  <use xlink:href="#rim" fill="#404040">
                        <set attributeName="fill" to="#808080" begin="arrowRight.mouseover" end="arrowRight.mouseout"/>
                  </use>
                  <path fill="none" stroke="white" stroke-width="1.5" d="M0,-3.0v7 M-2.5,-0.5L0,-3.0L2.5,-0.5"/>
                </g>
                <g id="arrowDown" xlink:href="#dirArrow" transform="rotate(180) translate(-30 -48)" onmousedown="handlePan(0,1)">
                  <use xlink:href="#rim" fill="#404040">
                        <set attributeName="fill" to="#808080" begin="arrowDown.mouseover" end="arrowDown.mouseout"/>
                  </use>
                  <path fill="none" stroke="white" stroke-width="1.5" d="M0,-3.0v7 M-2.5,-0.5L0,-3.0L2.5,-0.5"/>
                </g>
                <g id="arrowLeft" xlink:href="#dirArrow" transform="rotate(270) translate(-36 17)" onmousedown="handlePan(-1,0)">
                  <use xlink:href="#rim" fill="#404040">
                        <set attributeName="fill" to="#808080" begin="arrowLeft.mouseover" end="arrowLeft.mouseout"/>
                  </use>
                  <path fill="none" stroke="white" stroke-width="1.5" d="M0,-3.0v7 M-2.5,-0.5L0,-3.0L2.5,-0.5"/>
                </g>
        </g>
        <svg viewBox="0 0 15 15" width="100%" height="30px" preserveAspectRatio="xMaxYMin meet">
         <g id="arrow_out" transform="scale(0.3 0.3)">
          <a xlink:href="rmd128_8h__dep__incl_org.svg" target="_base">
           <rect id="button" ry="5" rx="5" y="6" x="6" height="38" width="38"
                fill="#f2f5e9" fill-opacity="0.5" stroke="#606060" stroke-width="1.0"/>
           <path id="arrow"
             d="M 11.500037,31.436501 C 11.940474,20.09759 22.043105,11.32322 32.158766,21.979434 L 37.068811,17.246167 C 37.068811,17.246167 37.088388,32 37.088388,32 L 22.160133,31.978069 C 22.160133,31.978069 26.997745,27.140456 26.997745,27.140456 C 18.528582,18.264221 13.291696,25.230495 11.500037,31.436501 z"
             style="fill:#404040;"/>
          </a>
         </g>
        </svg>
</svg>
