<?xml version="1.0" encoding="UTF-8" standalone="no"?>
<!DOCTYPE svg PUBLIC "-//W3C//DTD SVG 1.1//EN"
 "http://www.w3.org/Graphics/SVG/1.1/DTD/svg11.dtd">
<!-- Generated by graphviz version 2.43.0 (0)
 -->
<!-- Title: src/cksum/rmd320.c Pages: 1 -->
<!--zoomable 252 -->
<svg id="main" version="1.1" xmlns="http://www.w3.org/2000/svg" xmlns:xlink="http://www.w3.org/1999/xlink" xml:space="preserve" onload="init(evt)">
<style type="text/css"><![CDATA[
.edge:hover path { stroke: red; }
.edge:hover polygon { stroke: red; fill: red; }
]]></style>
<script type="text/javascript"><![CDATA[
var edges = document.getElementsByTagName('g');
if (edges && edges.length) {
  for (var i=0;i<edges.length;i++) {
    if (edges[i].id.substr(0,4)=='edge') {
      edges[i].setAttribute('class','edge');
    }
  }
}
]]></script>
        <defs>
                <circle id="rim" cx="0" cy="0" r="7"/>
                <circle id="rim2" cx="0" cy="0" r="3.5"/>
                <g id="zoomPlus">
                        <use xlink:href="#rim" fill="#404040">
                                <set attributeName="fill" to="#808080" begin="zoomplus.mouseover" end="zoomplus.mouseout"/>
                        </use>
                        <path d="M-4,0h8M0,-4v8" fill="none" stroke="white" stroke-width="1.5" pointer-events="none"/>
                </g>
                <g id="zoomMin">
                        <use xlink:href="#rim" fill="#404040">
                                <set attributeName="fill" to="#808080" begin="zoomminus.mouseover" end="zoomminus.mouseout"/>
                        </use>
                        <path d="M-4,0h8" fill="none" stroke="white" stroke-width="1.5" pointer-events="none"/>
                </g>
                <g id="dirArrow">
                        <path fill="none" stroke="white" stroke-width="1.5" d="M0,-3.0v7 M-2.5,-0.5L0,-3.0L2.5,-0.5"/>
                </g>
               <g id="resetDef">
                       <use xlink:href="#rim2" fill="#404040">
                               <set attributeName="fill" to="#808080" begin="reset.mouseover" end="reset.mouseout"/>
                       </use>
               </g>
        </defs>

<script type="text/javascript">
var viewWidth = 1327;
var viewHeight = 252;
var sectionId = 'dynsection-0';
</script>
<script xlink:href="svgpan.js"/>
<svg id="graph" class="graph">
<g id="viewport">
<title>src/cksum/rmd320.c</title>
<polygon fill="white" stroke="transparent" points="-4,4 -4,-248 1323,-248 1323,4 -4,4"/>
<!-- Node1 -->
<g id="node1" class="node">
<title>Node1</title>
<g id="a_node1"><a xlink:title="ripemd implementation">
<polygon fill="#bfbfbf" stroke="black" points="532,-224.5 532,-243.5 647,-243.5 647,-224.5 532,-224.5"/>
<text text-anchor="middle" x="589.5" y="-231.5" font-family="Helvetica,sans-Serif" font-size="10.00">src/cksum/rmd320.c</text>
</a>
</g>
</g>
<!-- Node2 -->
<g id="node2" class="node">
<title>Node2</title>
<g id="a_node2"><a xlink:href="rmd320_8h.html" target="_top" xlink:title="ripemd implementation">
<polygon fill="white" stroke="black" points="0,-112.5 0,-131.5 107,-131.5 107,-112.5 0,-112.5"/>
<text text-anchor="middle" x="53.5" y="-119.5" font-family="Helvetica,sans-Serif" font-size="10.00">a/cksum/rmd320.h</text>
</a>
</g>
</g>
<!-- Node1&#45;&gt;Node2 -->
<g id="edge1" class="edge">
<title>Node1&#45;&gt;Node2</title>
<path fill="none" stroke="midnightblue" d="M547.89,-224.46C451.03,-204.58 210.7,-155.26 104.9,-133.55"/>
<polygon fill="midnightblue" stroke="midnightblue" points="105.59,-130.12 95.09,-131.53 104.18,-136.97 105.59,-130.12"/>
</g>
<!-- Node6 -->
<g id="node6" class="node">
<title>Node6</title>
<g id="a_node6"><a xlink:href="hash_8h.html" target="_top" xlink:title="hash library">
<polygon fill="white" stroke="black" points="543,-168.5 543,-187.5 636,-187.5 636,-168.5 543,-168.5"/>
<text text-anchor="middle" x="589.5" y="-175.5" font-family="Helvetica,sans-Serif" font-size="10.00">a/cksum/hash.h</text>
</a>
</g>
</g>
<!-- Node1&#45;&gt;Node6 -->
<g id="edge5" class="edge">
<title>Node1&#45;&gt;Node6</title>
<path fill="none" stroke="midnightblue" d="M589.5,-224.08C589.5,-217.01 589.5,-206.86 589.5,-197.99"/>
<polygon fill="midnightblue" stroke="midnightblue" points="593,-197.75 589.5,-187.75 586,-197.75 593,-197.75"/>
</g>
<!-- Node21 -->
<g id="node21" class="node">
<title>Node21</title>
<g id="a_node21"><a xlink:href="hash_____8h.html" target="_top" xlink:title="private macros for hash library">
<polygon fill="white" stroke="black" points="1190,-168.5 1190,-187.5 1249,-187.5 1249,-168.5 1190,-168.5"/>
<text text-anchor="middle" x="1219.5" y="-175.5" font-family="Helvetica,sans-Serif" font-size="10.00">hash__.h</text>
</a>
</g>
</g>
<!-- Node1&#45;&gt;Node21 -->
<g id="edge36" class="edge">
<title>Node1&#45;&gt;Node21</title>
<path fill="none" stroke="midnightblue" d="M647.08,-228.06C773.34,-217.24 1071.86,-191.65 1179.74,-182.41"/>
<polygon fill="midnightblue" stroke="midnightblue" points="1180.2,-185.88 1189.86,-181.54 1179.6,-178.91 1180.2,-185.88"/>
</g>
<!-- Node3 -->
<g id="node3" class="node">
<title>Node3</title>
<g id="a_node3"><a xlink:href="def_8h.html" target="_top" xlink:title="algorithm library definition">
<polygon fill="white" stroke="black" points="564.5,-56.5 564.5,-75.5 614.5,-75.5 614.5,-56.5 564.5,-56.5"/>
<text text-anchor="middle" x="589.5" y="-63.5" font-family="Helvetica,sans-Serif" font-size="10.00">../def.h</text>
</a>
</g>
</g>
<!-- Node2&#45;&gt;Node3 -->
<g id="edge2" class="edge">
<title>Node2&#45;&gt;Node3</title>
<path fill="none" stroke="midnightblue" d="M107.3,-113.7C112.1,-113.1 116.89,-112.53 121.5,-112 282.8,-93.58 475.96,-76.62 554.11,-69.97"/>
<polygon fill="midnightblue" stroke="midnightblue" points="554.69,-73.43 564.35,-69.1 554.09,-66.46 554.69,-73.43"/>
</g>
<!-- Node4 -->
<g id="node4" class="node">
<title>Node4</title>
<g id="a_node4"><a xlink:title=" ">
<polygon fill="white" stroke="#bfbfbf" points="525.5,-0.5 525.5,-19.5 581.5,-19.5 581.5,-0.5 525.5,-0.5"/>
<text text-anchor="middle" x="553.5" y="-7.5" font-family="Helvetica,sans-Serif" font-size="10.00">stddef.h</text>
</a>
</g>
</g>
<!-- Node3&#45;&gt;Node4 -->
<g id="edge3" class="edge">
<title>Node3&#45;&gt;Node4</title>
<path fill="none" stroke="midnightblue" d="M583.56,-56.08C578.52,-48.53 571.16,-37.49 564.99,-28.23"/>
<polygon fill="midnightblue" stroke="midnightblue" points="567.79,-26.13 559.33,-19.75 561.97,-30.01 567.79,-26.13"/>
</g>
<!-- Node5 -->
<g id="node5" class="node">
<title>Node5</title>
<g id="a_node5"><a xlink:title=" ">
<polygon fill="white" stroke="#bfbfbf" points="600,-0.5 600,-19.5 653,-19.5 653,-0.5 600,-0.5"/>
<text text-anchor="middle" x="626.5" y="-7.5" font-family="Helvetica,sans-Serif" font-size="10.00">stdint.h</text>
</a>
</g>
</g>
<!-- Node3&#45;&gt;Node5 -->
<g id="edge4" class="edge">
<title>Node3&#45;&gt;Node5</title>
<path fill="none" stroke="midnightblue" d="M595.61,-56.08C600.78,-48.53 608.35,-37.49 614.69,-28.23"/>
<polygon fill="midnightblue" stroke="midnightblue" points="617.74,-29.98 620.5,-19.75 611.96,-26.02 617.74,-29.98"/>
</g>
<!-- Node6&#45;&gt;Node2 -->
<g id="edge19" class="edge">
<title>Node6&#45;&gt;Node2</title>
<path fill="none" stroke="midnightblue" d="M542.94,-173.08C458.74,-165.86 275.59,-149.6 121.5,-132 120.2,-131.85 118.89,-131.7 117.57,-131.54"/>
<polygon fill="midnightblue" stroke="midnightblue" points="117.65,-128.03 107.3,-130.3 116.81,-134.98 117.65,-128.03"/>
</g>
<!-- Node6&#45;&gt;Node3 -->
<g id="edge6" class="edge">
<title>Node6&#45;&gt;Node3</title>
<path fill="none" stroke="midnightblue" d="M542.63,-175.63C435.54,-172 180.15,-160.44 154.5,-132 99.76,-71.3 440.82,-66.67 553.95,-66.78"/>
<polygon fill="midnightblue" stroke="midnightblue" points="554.15,-70.28 564.16,-66.8 554.17,-63.28 554.15,-70.28"/>
</g>
<!-- Node7 -->
<g id="node7" class="node">
<title>Node7</title>
<g id="a_node7"><a xlink:href="md2_8h.html" target="_top" xlink:title="RFC 1319 compliant MD2 implementation.">
<polygon fill="white" stroke="black" points="164,-112.5 164,-131.5 211,-131.5 211,-112.5 164,-112.5"/>
<text text-anchor="middle" x="187.5" y="-119.5" font-family="Helvetica,sans-Serif" font-size="10.00">md2.h</text>
</a>
</g>
</g>
<!-- Node6&#45;&gt;Node7 -->
<g id="edge7" class="edge">
<title>Node6&#45;&gt;Node7</title>
<path fill="none" stroke="midnightblue" d="M542.99,-173.64C474.44,-168.19 342.15,-155.76 221.33,-132.11"/>
<polygon fill="midnightblue" stroke="midnightblue" points="221.66,-128.61 211.17,-130.09 220.29,-135.48 221.66,-128.61"/>
</g>
<!-- Node8 -->
<g id="node8" class="node">
<title>Node8</title>
<g id="a_node8"><a xlink:href="md4_8h.html" target="_top" xlink:title="RFC 1320 compliant MD4 implementation.">
<polygon fill="white" stroke="black" points="229,-112.5 229,-131.5 276,-131.5 276,-112.5 229,-112.5"/>
<text text-anchor="middle" x="252.5" y="-119.5" font-family="Helvetica,sans-Serif" font-size="10.00">md4.h</text>
</a>
</g>
</g>
<!-- Node6&#45;&gt;Node8 -->
<g id="edge9" class="edge">
<title>Node6&#45;&gt;Node8</title>
<path fill="none" stroke="midnightblue" d="M542.92,-172C484.81,-165.35 382.28,-152.27 286.07,-132.12"/>
<polygon fill="midnightblue" stroke="midnightblue" points="286.69,-128.68 276.18,-130.02 285.24,-135.53 286.69,-128.68"/>
</g>
<!-- Node9 -->
<g id="node9" class="node">
<title>Node9</title>
<g id="a_node9"><a xlink:href="md5_8h.html" target="_top" xlink:title="RFC 1321 compliant MD5 implementation.">
<polygon fill="white" stroke="black" points="294,-112.5 294,-131.5 341,-131.5 341,-112.5 294,-112.5"/>
<text text-anchor="middle" x="317.5" y="-119.5" font-family="Helvetica,sans-Serif" font-size="10.00">md5.h</text>
</a>
</g>
</g>
<!-- Node6&#45;&gt;Node9 -->
<g id="edge11" class="edge">
<title>Node6&#45;&gt;Node9</title>
<path fill="none" stroke="midnightblue" d="M542.79,-169.51C496.41,-161.78 423.12,-148.82 351.32,-132.28"/>
<polygon fill="midnightblue" stroke="midnightblue" points="351.74,-128.78 341.2,-129.92 350.15,-135.6 351.74,-128.78"/>
</g>
<!-- Node10 -->
<g id="node10" class="node">
<title>Node10</title>
<g id="a_node10"><a xlink:href="rmd128_8h.html" target="_top" xlink:title="ripemd implementation">
<polygon fill="white" stroke="black" points="359,-112.5 359,-131.5 422,-131.5 422,-112.5 359,-112.5"/>
<text text-anchor="middle" x="390.5" y="-119.5" font-family="Helvetica,sans-Serif" font-size="10.00">rmd128.h</text>
</a>
</g>
</g>
<!-- Node6&#45;&gt;Node10 -->
<g id="edge13" class="edge">
<title>Node6&#45;&gt;Node10</title>
<path fill="none" stroke="midnightblue" d="M557.97,-168.44C523.91,-159.2 469.49,-144.44 431.98,-134.26"/>
<polygon fill="midnightblue" stroke="midnightblue" points="432.45,-130.76 421.88,-131.52 430.62,-137.51 432.45,-130.76"/>
</g>
<!-- Node11 -->
<g id="node11" class="node">
<title>Node11</title>
<g id="a_node11"><a xlink:href="rmd160_8h.html" target="_top" xlink:title="ripemd implementation">
<polygon fill="white" stroke="black" points="440,-112.5 440,-131.5 503,-131.5 503,-112.5 440,-112.5"/>
<text text-anchor="middle" x="471.5" y="-119.5" font-family="Helvetica,sans-Serif" font-size="10.00">rmd160.h</text>
</a>
</g>
</g>
<!-- Node6&#45;&gt;Node11 -->
<g id="edge15" class="edge">
<title>Node6&#45;&gt;Node11</title>
<path fill="none" stroke="midnightblue" d="M570.8,-168.44C551.56,-159.64 521.35,-145.81 499.3,-135.72"/>
<polygon fill="midnightblue" stroke="midnightblue" points="500.66,-132.5 490.11,-131.52 497.75,-138.86 500.66,-132.5"/>
</g>
<!-- Node12 -->
<g id="node12" class="node">
<title>Node12</title>
<g id="a_node12"><a xlink:href="rmd256_8h.html" target="_top" xlink:title="ripemd implementation">
<polygon fill="white" stroke="black" points="521,-112.5 521,-131.5 584,-131.5 584,-112.5 521,-112.5"/>
<text text-anchor="middle" x="552.5" y="-119.5" font-family="Helvetica,sans-Serif" font-size="10.00">rmd256.h</text>
</a>
</g>
</g>
<!-- Node6&#45;&gt;Node12 -->
<g id="edge17" class="edge">
<title>Node6&#45;&gt;Node12</title>
<path fill="none" stroke="midnightblue" d="M583.39,-168.08C578.22,-160.53 570.65,-149.49 564.31,-140.23"/>
<polygon fill="midnightblue" stroke="midnightblue" points="567.04,-138.02 558.5,-131.75 561.26,-141.98 567.04,-138.02"/>
</g>
<!-- Node13 -->
<g id="node13" class="node">
<title>Node13</title>
<g id="a_node13"><a xlink:href="sha1_8h.html" target="_top" xlink:title="RFC 3174 compliant SHA1 implementation.">
<polygon fill="white" stroke="black" points="602,-112.5 602,-131.5 651,-131.5 651,-112.5 602,-112.5"/>
<text text-anchor="middle" x="626.5" y="-119.5" font-family="Helvetica,sans-Serif" font-size="10.00">sha1.h</text>
</a>
</g>
</g>
<!-- Node6&#45;&gt;Node13 -->
<g id="edge20" class="edge">
<title>Node6&#45;&gt;Node13</title>
<path fill="none" stroke="midnightblue" d="M595.61,-168.08C600.78,-160.53 608.35,-149.49 614.69,-140.23"/>
<polygon fill="midnightblue" stroke="midnightblue" points="617.74,-141.98 620.5,-131.75 611.96,-138.02 617.74,-141.98"/>
</g>
<!-- Node14 -->
<g id="node14" class="node">
<title>Node14</title>
<g id="a_node14"><a xlink:href="sha256_8h.html" target="_top" xlink:title="RFC 5754 compliant SHA2 implementation.">
<polygon fill="white" stroke="black" points="669,-112.5 669,-131.5 730,-131.5 730,-112.5 669,-112.5"/>
<text text-anchor="middle" x="699.5" y="-119.5" font-family="Helvetica,sans-Serif" font-size="10.00">sha256.h</text>
</a>
</g>
</g>
<!-- Node6&#45;&gt;Node14 -->
<g id="edge22" class="edge">
<title>Node6&#45;&gt;Node14</title>
<path fill="none" stroke="midnightblue" d="M607.17,-168.32C624.89,-159.62 652.4,-146.12 672.79,-136.11"/>
<polygon fill="midnightblue" stroke="midnightblue" points="674.44,-139.2 681.87,-131.65 671.35,-132.92 674.44,-139.2"/>
</g>
<!-- Node15 -->
<g id="node15" class="node">
<title>Node15</title>
<g id="a_node15"><a xlink:href="sha512_8h.html" target="_top" xlink:title="RFC 5754 compliant SHA2 implementation.">
<polygon fill="white" stroke="black" points="748,-112.5 748,-131.5 809,-131.5 809,-112.5 748,-112.5"/>
<text text-anchor="middle" x="778.5" y="-119.5" font-family="Helvetica,sans-Serif" font-size="10.00">sha512.h</text>
</a>
</g>
</g>
<!-- Node6&#45;&gt;Node15 -->
<g id="edge24" class="edge">
<title>Node6&#45;&gt;Node15</title>
<path fill="none" stroke="midnightblue" d="M619.45,-168.44C651.66,-159.24 703.03,-144.56 738.64,-134.39"/>
<polygon fill="midnightblue" stroke="midnightblue" points="740.04,-137.63 748.69,-131.52 738.12,-130.9 740.04,-137.63"/>
</g>
<!-- Node16 -->
<g id="node16" class="node">
<title>Node16</title>
<g id="a_node16"><a xlink:href="sha3_8h.html" target="_top" xlink:title="SHA3 implementation.">
<polygon fill="white" stroke="black" points="827,-112.5 827,-131.5 876,-131.5 876,-112.5 827,-112.5"/>
<text text-anchor="middle" x="851.5" y="-119.5" font-family="Helvetica,sans-Serif" font-size="10.00">sha3.h</text>
</a>
</g>
</g>
<!-- Node6&#45;&gt;Node16 -->
<g id="edge26" class="edge">
<title>Node6&#45;&gt;Node16</title>
<path fill="none" stroke="midnightblue" d="M636.41,-168.65C680.47,-160.6 748.44,-147.67 816.61,-132.09"/>
<polygon fill="midnightblue" stroke="midnightblue" points="817.7,-135.43 826.66,-129.77 816.13,-128.61 817.7,-135.43"/>
</g>
<!-- Node17 -->
<g id="node17" class="node">
<title>Node17</title>
<g id="a_node17"><a xlink:href="tiger_8h.html" target="_top" xlink:title="tiger implementation">
<polygon fill="white" stroke="black" points="894,-112.5 894,-131.5 941,-131.5 941,-112.5 894,-112.5"/>
<text text-anchor="middle" x="917.5" y="-119.5" font-family="Helvetica,sans-Serif" font-size="10.00">tiger.h</text>
</a>
</g>
</g>
<!-- Node6&#45;&gt;Node17 -->
<g id="edge28" class="edge">
<title>Node6&#45;&gt;Node17</title>
<path fill="none" stroke="midnightblue" d="M636.04,-171.58C692.43,-164.64 790.46,-151.39 883.89,-131.91"/>
<polygon fill="midnightblue" stroke="midnightblue" points="884.73,-135.31 893.79,-129.82 883.28,-128.46 884.73,-135.31"/>
</g>
<!-- Node18 -->
<g id="node18" class="node">
<title>Node18</title>
<g id="a_node18"><a xlink:href="whirl_8h.html" target="_top" xlink:title="whirlpool implementation">
<polygon fill="white" stroke="black" points="959.5,-112.5 959.5,-131.5 1009.5,-131.5 1009.5,-112.5 959.5,-112.5"/>
<text text-anchor="middle" x="984.5" y="-119.5" font-family="Helvetica,sans-Serif" font-size="10.00">whirl.h</text>
</a>
</g>
</g>
<!-- Node6&#45;&gt;Node18 -->
<g id="edge30" class="edge">
<title>Node6&#45;&gt;Node18</title>
<path fill="none" stroke="midnightblue" d="M636.11,-173.09C705.02,-166.87 837.97,-153.22 949.5,-132 949.6,-131.98 949.7,-131.96 949.8,-131.94"/>
<polygon fill="midnightblue" stroke="midnightblue" points="950.32,-135.41 959.35,-129.88 948.84,-128.57 950.32,-135.41"/>
</g>
<!-- Node19 -->
<g id="node19" class="node">
<title>Node19</title>
<g id="a_node19"><a xlink:href="blake2s_8h.html" target="_top" xlink:title="RFC 7693 compliant BLAKE implementation.">
<polygon fill="white" stroke="black" points="1028,-112.5 1028,-131.5 1091,-131.5 1091,-112.5 1028,-112.5"/>
<text text-anchor="middle" x="1059.5" y="-119.5" font-family="Helvetica,sans-Serif" font-size="10.00">blake2s.h</text>
</a>
</g>
</g>
<!-- Node6&#45;&gt;Node19 -->
<g id="edge32" class="edge">
<title>Node6&#45;&gt;Node19</title>
<path fill="none" stroke="midnightblue" d="M636.07,-173.83C713.3,-168.19 872.88,-154.96 1017.82,-131.93"/>
<polygon fill="midnightblue" stroke="midnightblue" points="1018.47,-135.37 1027.78,-130.33 1017.35,-128.46 1018.47,-135.37"/>
</g>
<!-- Node20 -->
<g id="node20" class="node">
<title>Node20</title>
<g id="a_node20"><a xlink:href="blake2b_8h.html" target="_top" xlink:title="RFC 7693 compliant BLAKE implementation.">
<polygon fill="white" stroke="black" points="1109.5,-112.5 1109.5,-131.5 1173.5,-131.5 1173.5,-112.5 1109.5,-112.5"/>
<text text-anchor="middle" x="1141.5" y="-119.5" font-family="Helvetica,sans-Serif" font-size="10.00">blake2b.h</text>
</a>
</g>
</g>
<!-- Node6&#45;&gt;Node20 -->
<g id="edge34" class="edge">
<title>Node6&#45;&gt;Node20</title>
<path fill="none" stroke="midnightblue" d="M636.14,-174.81C726.14,-170.16 929.87,-157.56 1099.5,-132 1099.6,-131.98 1099.7,-131.97 1099.8,-131.95"/>
<polygon fill="midnightblue" stroke="midnightblue" points="1100.21,-135.44 1109.47,-130.29 1099.02,-128.54 1100.21,-135.44"/>
</g>
<!-- Node7&#45;&gt;Node3 -->
<g id="edge8" class="edge">
<title>Node7&#45;&gt;Node3</title>
<path fill="none" stroke="midnightblue" d="M211.17,-113.91C213.96,-113.2 216.78,-112.54 219.5,-112 340.91,-87.69 487.54,-74.58 553.85,-69.51"/>
<polygon fill="midnightblue" stroke="midnightblue" points="554.45,-72.97 564.16,-68.74 553.93,-65.99 554.45,-72.97"/>
</g>
<!-- Node8&#45;&gt;Node3 -->
<g id="edge10" class="edge">
<title>Node8&#45;&gt;Node3</title>
<path fill="none" stroke="midnightblue" d="M276.18,-113.98C278.97,-113.26 281.79,-112.58 284.5,-112 381.13,-91.37 497,-77.09 554.11,-70.73"/>
<polygon fill="midnightblue" stroke="midnightblue" points="554.84,-74.18 564.4,-69.6 554.08,-67.22 554.84,-74.18"/>
</g>
<!-- Node9&#45;&gt;Node3 -->
<g id="edge12" class="edge">
<title>Node9&#45;&gt;Node3</title>
<path fill="none" stroke="midnightblue" d="M341.2,-114.08C343.99,-113.34 346.8,-112.63 349.5,-112 421.84,-95.08 507.61,-80.24 554.52,-72.56"/>
<polygon fill="midnightblue" stroke="midnightblue" points="555.16,-76 564.47,-70.94 554.04,-69.09 555.16,-76"/>
</g>
<!-- Node10&#45;&gt;Node3 -->
<g id="edge14" class="edge">
<title>Node10&#45;&gt;Node3</title>
<path fill="none" stroke="midnightblue" d="M422.03,-112.44C458.1,-102.66 516.98,-86.68 554.45,-76.51"/>
<polygon fill="midnightblue" stroke="midnightblue" points="555.68,-79.8 564.42,-73.81 553.85,-73.05 555.68,-79.8"/>
</g>
<!-- Node11&#45;&gt;Node3 -->
<g id="edge16" class="edge">
<title>Node11&#45;&gt;Node3</title>
<path fill="none" stroke="midnightblue" d="M490.2,-112.44C509.44,-103.64 539.65,-89.81 561.7,-79.72"/>
<polygon fill="midnightblue" stroke="midnightblue" points="563.25,-82.86 570.89,-75.52 560.34,-76.5 563.25,-82.86"/>
</g>
<!-- Node12&#45;&gt;Node3 -->
<g id="edge18" class="edge">
<title>Node12&#45;&gt;Node3</title>
<path fill="none" stroke="midnightblue" d="M558.61,-112.08C563.78,-104.53 571.35,-93.49 577.69,-84.23"/>
<polygon fill="midnightblue" stroke="midnightblue" points="580.74,-85.98 583.5,-75.75 574.96,-82.02 580.74,-85.98"/>
</g>
<!-- Node13&#45;&gt;Node3 -->
<g id="edge21" class="edge">
<title>Node13&#45;&gt;Node3</title>
<path fill="none" stroke="midnightblue" d="M620.39,-112.08C615.22,-104.53 607.65,-93.49 601.31,-84.23"/>
<polygon fill="midnightblue" stroke="midnightblue" points="604.04,-82.02 595.5,-75.75 598.26,-85.98 604.04,-82.02"/>
</g>
<!-- Node14&#45;&gt;Node3 -->
<g id="edge23" class="edge">
<title>Node14&#45;&gt;Node3</title>
<path fill="none" stroke="midnightblue" d="M681.83,-112.32C664.11,-103.62 636.6,-90.12 616.21,-80.11"/>
<polygon fill="midnightblue" stroke="midnightblue" points="617.65,-76.92 607.13,-75.65 614.56,-83.2 617.65,-76.92"/>
</g>
<!-- Node15&#45;&gt;Node3 -->
<g id="edge25" class="edge">
<title>Node15&#45;&gt;Node3</title>
<path fill="none" stroke="midnightblue" d="M748.55,-112.44C714.92,-102.83 660.4,-87.26 624.74,-77.07"/>
<polygon fill="midnightblue" stroke="midnightblue" points="625.35,-73.6 614.77,-74.22 623.42,-80.33 625.35,-73.6"/>
</g>
<!-- Node16&#45;&gt;Node3 -->
<g id="edge27" class="edge">
<title>Node16&#45;&gt;Node3</title>
<path fill="none" stroke="midnightblue" d="M826.66,-114.23C823.58,-113.45 820.47,-112.69 817.5,-112 749.62,-96.33 669.59,-81.33 624.68,-73.22"/>
<polygon fill="midnightblue" stroke="midnightblue" points="625.04,-69.73 614.58,-71.41 623.8,-76.62 625.04,-69.73"/>
</g>
<!-- Node17&#45;&gt;Node3 -->
<g id="edge29" class="edge">
<title>Node17&#45;&gt;Node3</title>
<path fill="none" stroke="midnightblue" d="M893.79,-114.18C890.68,-113.39 887.52,-112.64 884.5,-112 791.42,-92.28 680.05,-77.69 624.55,-71.02"/>
<polygon fill="midnightblue" stroke="midnightblue" points="624.88,-67.54 614.54,-69.83 624.06,-74.49 624.88,-67.54"/>
</g>
<!-- Node18&#45;&gt;Node3 -->
<g id="edge31" class="edge">
<title>Node18&#45;&gt;Node3</title>
<path fill="none" stroke="midnightblue" d="M959.35,-114.12C956.05,-113.34 952.71,-112.61 949.5,-112 831.39,-89.53 689.28,-75.55 624.61,-69.89"/>
<polygon fill="midnightblue" stroke="midnightblue" points="624.81,-66.4 614.55,-69.02 624.21,-73.37 624.81,-66.4"/>
</g>
<!-- Node19&#45;&gt;Node3 -->
<g id="edge33" class="edge">
<title>Node19&#45;&gt;Node3</title>
<path fill="none" stroke="midnightblue" d="M1027.78,-113.67C1024.66,-113.06 1021.52,-112.49 1018.5,-112 873.35,-88.53 698.49,-74.59 624.88,-69.37"/>
<polygon fill="midnightblue" stroke="midnightblue" points="624.99,-65.87 614.77,-68.66 624.51,-72.85 624.99,-65.87"/>
</g>
<!-- Node20&#45;&gt;Node3 -->
<g id="edge35" class="edge">
<title>Node20&#45;&gt;Node3</title>
<path fill="none" stroke="midnightblue" d="M1109.47,-113.71C1106.11,-113.08 1102.74,-112.49 1099.5,-112 922.25,-85.29 707.78,-72.74 624.72,-68.61"/>
<polygon fill="midnightblue" stroke="midnightblue" points="624.73,-65.11 614.57,-68.12 624.39,-72.1 624.73,-65.11"/>
</g>
<!-- Node22 -->
<g id="node22" class="node">
<title>Node22</title>
<g id="a_node22"><a xlink:title=" ">
<polygon fill="white" stroke="#bfbfbf" points="1191.5,-112.5 1191.5,-131.5 1247.5,-131.5 1247.5,-112.5 1191.5,-112.5"/>
<text text-anchor="middle" x="1219.5" y="-119.5" font-family="Helvetica,sans-Serif" font-size="10.00">assert.h</text>
</a>
</g>
</g>
<!-- Node21&#45;&gt;Node22 -->
<g id="edge37" class="edge">
<title>Node21&#45;&gt;Node22</title>
<path fill="none" stroke="midnightblue" d="M1219.5,-168.08C1219.5,-161.01 1219.5,-150.86 1219.5,-141.99"/>
<polygon fill="midnightblue" stroke="midnightblue" points="1223,-141.75 1219.5,-131.75 1216,-141.75 1223,-141.75"/>
</g>
<!-- Node23 -->
<g id="node23" class="node">
<title>Node23</title>
<g id="a_node23"><a xlink:title=" ">
<polygon fill="white" stroke="#bfbfbf" points="1266,-112.5 1266,-131.5 1319,-131.5 1319,-112.5 1266,-112.5"/>
<text text-anchor="middle" x="1292.5" y="-119.5" font-family="Helvetica,sans-Serif" font-size="10.00">string.h</text>
</a>
</g>
</g>
<!-- Node21&#45;&gt;Node23 -->
<g id="edge38" class="edge">
<title>Node21&#45;&gt;Node23</title>
<path fill="none" stroke="midnightblue" d="M1231.23,-168.32C1242.34,-160.11 1259.24,-147.6 1272.48,-137.81"/>
<polygon fill="midnightblue" stroke="midnightblue" points="1274.6,-140.59 1280.56,-131.83 1270.44,-134.97 1274.6,-140.59"/>
</g>
</g>
</svg>
        <g id="navigator" transform="translate(0 0)" fill="#404254">
                <rect fill="#f2f5e9" fill-opacity="0.5" stroke="#606060" stroke-width=".5" x="0" y="0" width="60" height="60"/>
                <use id="zoomplus" xlink:href="#zoomPlus" x="17" y="9" onmousedown="handleZoom(evt,'in')"/>
                <use id="zoomminus" xlink:href="#zoomMin" x="42" y="9" onmousedown="handleZoom(evt,'out')"/>
                <use id="reset" xlink:href="#resetDef" x="30" y="36" onmousedown="handleReset()"/>
                <g id="arrowUp" xlink:href="#dirArrow" transform="translate(30 24)" onmousedown="handlePan(0,-1)">
                  <use xlink:href="#rim" fill="#404040">
                        <set attributeName="fill" to="#808080" begin="arrowUp.mouseover" end="arrowUp.mouseout"/>
                  </use>
                  <path fill="none" stroke="white" stroke-width="1.5" d="M0,-3.0v7 M-2.5,-0.5L0,-3.0L2.5,-0.5"/>
                </g>
                <g id="arrowRight" xlink:href="#dirArrow" transform="rotate(90) translate(36 -43)" onmousedown="handlePan(1,0)">
                  <use xlink:href="#rim" fill="#404040">
                        <set attributeName="fill" to="#808080" begin="arrowRight.mouseover" end="arrowRight.mouseout"/>
                  </use>
                  <path fill="none" stroke="white" stroke-width="1.5" d="M0,-3.0v7 M-2.5,-0.5L0,-3.0L2.5,-0.5"/>
                </g>
                <g id="arrowDown" xlink:href="#dirArrow" transform="rotate(180) translate(-30 -48)" onmousedown="handlePan(0,1)">
                  <use xlink:href="#rim" fill="#404040">
                        <set attributeName="fill" to="#808080" begin="arrowDown.mouseover" end="arrowDown.mouseout"/>
                  </use>
                  <path fill="none" stroke="white" stroke-width="1.5" d="M0,-3.0v7 M-2.5,-0.5L0,-3.0L2.5,-0.5"/>
                </g>
                <g id="arrowLeft" xlink:href="#dirArrow" transform="rotate(270) translate(-36 17)" onmousedown="handlePan(-1,0)">
                  <use xlink:href="#rim" fill="#404040">
                        <set attributeName="fill" to="#808080" begin="arrowLeft.mouseover" end="arrowLeft.mouseout"/>
                  </use>
                  <path fill="none" stroke="white" stroke-width="1.5" d="M0,-3.0v7 M-2.5,-0.5L0,-3.0L2.5,-0.5"/>
                </g>
        </g>
        <svg viewBox="0 0 15 15" width="100%" height="30px" preserveAspectRatio="xMaxYMin meet">
         <g id="arrow_out" transform="scale(0.3 0.3)">
          <a xlink:href="rmd320_8c__incl_org.svg" target="_base">
           <rect id="button" ry="5" rx="5" y="6" x="6" height="38" width="38"
                fill="#f2f5e9" fill-opacity="0.5" stroke="#606060" stroke-width="1.0"/>
           <path id="arrow"
             d="M 11.500037,31.436501 C 11.940474,20.09759 22.043105,11.32322 32.158766,21.979434 L 37.068811,17.246167 C 37.068811,17.246167 37.088388,32 37.088388,32 L 22.160133,31.978069 C 22.160133,31.978069 26.997745,27.140456 26.997745,27.140456 C 18.528582,18.264221 13.291696,25.230495 11.500037,31.436501 z"
             style="fill:#404040;"/>
          </a>
         </g>
        </svg>
</svg>
