<?xml version="1.0" encoding="UTF-8" standalone="no"?>
<!DOCTYPE svg PUBLIC "-//W3C//DTD SVG 1.1//EN"
 "http://www.w3.org/Graphics/SVG/1.1/DTD/svg11.dtd">
<!-- Generated by graphviz version 2.43.0 (0)
 -->
<!-- Title: src/cksum/sha1.c Pages: 1 -->
<svg width="1327pt" height="252pt"
 viewBox="0.00 0.00 1327.00 252.00" xmlns="http://www.w3.org/2000/svg" xmlns:xlink="http://www.w3.org/1999/xlink">
<g id="graph0" class="graph" transform="scale(1 1) rotate(0) translate(4 248)">
<title>src/cksum/sha1.c</title>
<polygon fill="white" stroke="transparent" points="-4,4 -4,-248 1323,-248 1323,4 -4,4"/>
<!-- Node1 -->
<g id="node1" class="node">
<title>Node1</title>
<g id="a_node1"><a xlink:title="RFC 3174 compliant SHA1 implementation.">
<polygon fill="#bfbfbf" stroke="black" points="528,-224.5 528,-243.5 629,-243.5 629,-224.5 528,-224.5"/>
<text text-anchor="middle" x="578.5" y="-231.5" font-family="Helvetica,sans-Serif" font-size="10.00">src/cksum/sha1.c</text>
</a>
</g>
</g>
<!-- Node2 -->
<g id="node2" class="node">
<title>Node2</title>
<g id="a_node2"><a xlink:href="sha1_8h.html" target="_top" xlink:title="RFC 3174 compliant SHA1 implementation.">
<polygon fill="white" stroke="black" points="0,-112.5 0,-131.5 93,-131.5 93,-112.5 0,-112.5"/>
<text text-anchor="middle" x="46.5" y="-119.5" font-family="Helvetica,sans-Serif" font-size="10.00">a/cksum/sha1.h</text>
</a>
</g>
</g>
<!-- Node1&#45;&gt;Node2 -->
<g id="edge1" class="edge">
<title>Node1&#45;&gt;Node2</title>
<path fill="none" stroke="midnightblue" d="M537.2,-224.46C441.16,-204.6 203.01,-155.36 97.83,-133.61"/>
<polygon fill="midnightblue" stroke="midnightblue" points="98.28,-130.13 87.78,-131.53 96.86,-136.99 98.28,-130.13"/>
</g>
<!-- Node6 -->
<g id="node6" class="node">
<title>Node6</title>
<g id="a_node6"><a xlink:href="hash_8h.html" target="_top" xlink:title="hash library">
<polygon fill="white" stroke="black" points="532,-168.5 532,-187.5 625,-187.5 625,-168.5 532,-168.5"/>
<text text-anchor="middle" x="578.5" y="-175.5" font-family="Helvetica,sans-Serif" font-size="10.00">a/cksum/hash.h</text>
</a>
</g>
</g>
<!-- Node1&#45;&gt;Node6 -->
<g id="edge5" class="edge">
<title>Node1&#45;&gt;Node6</title>
<path fill="none" stroke="midnightblue" d="M578.5,-224.08C578.5,-217.01 578.5,-206.86 578.5,-197.99"/>
<polygon fill="midnightblue" stroke="midnightblue" points="582,-197.75 578.5,-187.75 575,-197.75 582,-197.75"/>
</g>
<!-- Node21 -->
<g id="node21" class="node">
<title>Node21</title>
<g id="a_node21"><a xlink:href="hash_____8h.html" target="_top" xlink:title="private macros for hash library">
<polygon fill="white" stroke="black" points="1190,-168.5 1190,-187.5 1249,-187.5 1249,-168.5 1190,-168.5"/>
<text text-anchor="middle" x="1219.5" y="-175.5" font-family="Helvetica,sans-Serif" font-size="10.00">hash__.h</text>
</a>
</g>
</g>
<!-- Node1&#45;&gt;Node21 -->
<g id="edge36" class="edge">
<title>Node1&#45;&gt;Node21</title>
<path fill="none" stroke="midnightblue" d="M629.07,-228.74C752.64,-218.33 1068,-191.76 1179.61,-182.36"/>
<polygon fill="midnightblue" stroke="midnightblue" points="1180.09,-185.83 1189.76,-181.51 1179.5,-178.86 1180.09,-185.83"/>
</g>
<!-- Node3 -->
<g id="node3" class="node">
<title>Node3</title>
<g id="a_node3"><a xlink:href="def_8h.html" target="_top" xlink:title="algorithm library definition">
<polygon fill="white" stroke="black" points="553.5,-56.5 553.5,-75.5 603.5,-75.5 603.5,-56.5 553.5,-56.5"/>
<text text-anchor="middle" x="578.5" y="-63.5" font-family="Helvetica,sans-Serif" font-size="10.00">../def.h</text>
</a>
</g>
</g>
<!-- Node2&#45;&gt;Node3 -->
<g id="edge2" class="edge">
<title>Node2&#45;&gt;Node3</title>
<path fill="none" stroke="midnightblue" d="M93.09,-113.87C97.95,-113.21 102.82,-112.57 107.5,-112 269.88,-92.28 464.63,-76.01 543.14,-69.76"/>
<polygon fill="midnightblue" stroke="midnightblue" points="543.74,-73.22 553.43,-68.94 543.19,-66.24 543.74,-73.22"/>
</g>
<!-- Node4 -->
<g id="node4" class="node">
<title>Node4</title>
<g id="a_node4"><a xlink:title=" ">
<polygon fill="white" stroke="#bfbfbf" points="514.5,-0.5 514.5,-19.5 570.5,-19.5 570.5,-0.5 514.5,-0.5"/>
<text text-anchor="middle" x="542.5" y="-7.5" font-family="Helvetica,sans-Serif" font-size="10.00">stddef.h</text>
</a>
</g>
</g>
<!-- Node3&#45;&gt;Node4 -->
<g id="edge3" class="edge">
<title>Node3&#45;&gt;Node4</title>
<path fill="none" stroke="midnightblue" d="M572.56,-56.08C567.52,-48.53 560.16,-37.49 553.99,-28.23"/>
<polygon fill="midnightblue" stroke="midnightblue" points="556.79,-26.13 548.33,-19.75 550.97,-30.01 556.79,-26.13"/>
</g>
<!-- Node5 -->
<g id="node5" class="node">
<title>Node5</title>
<g id="a_node5"><a xlink:title=" ">
<polygon fill="white" stroke="#bfbfbf" points="589,-0.5 589,-19.5 642,-19.5 642,-0.5 589,-0.5"/>
<text text-anchor="middle" x="615.5" y="-7.5" font-family="Helvetica,sans-Serif" font-size="10.00">stdint.h</text>
</a>
</g>
</g>
<!-- Node3&#45;&gt;Node5 -->
<g id="edge4" class="edge">
<title>Node3&#45;&gt;Node5</title>
<path fill="none" stroke="midnightblue" d="M584.61,-56.08C589.78,-48.53 597.35,-37.49 603.69,-28.23"/>
<polygon fill="midnightblue" stroke="midnightblue" points="606.74,-29.98 609.5,-19.75 600.96,-26.02 606.74,-29.98"/>
</g>
<!-- Node6&#45;&gt;Node2 -->
<g id="edge21" class="edge">
<title>Node6&#45;&gt;Node2</title>
<path fill="none" stroke="midnightblue" d="M531.95,-173.35C447.32,-166.53 262.64,-150.84 107.5,-132 106.04,-131.82 104.56,-131.64 103.07,-131.45"/>
<polygon fill="midnightblue" stroke="midnightblue" points="103.47,-127.97 93.09,-130.13 102.55,-134.91 103.47,-127.97"/>
</g>
<!-- Node6&#45;&gt;Node3 -->
<g id="edge6" class="edge">
<title>Node6&#45;&gt;Node3</title>
<path fill="none" stroke="midnightblue" d="M531.71,-175.66C424.12,-172.11 166.36,-160.66 140.5,-132 134.54,-125.4 134.54,-118.6 140.5,-112 167.34,-82.26 443.87,-71.05 543.21,-67.97"/>
<polygon fill="midnightblue" stroke="midnightblue" points="543.45,-71.46 553.34,-67.66 543.24,-64.47 543.45,-71.46"/>
</g>
<!-- Node7 -->
<g id="node7" class="node">
<title>Node7</title>
<g id="a_node7"><a xlink:href="md2_8h.html" target="_top" xlink:title="RFC 1319 compliant MD2 implementation.">
<polygon fill="white" stroke="black" points="150,-112.5 150,-131.5 197,-131.5 197,-112.5 150,-112.5"/>
<text text-anchor="middle" x="173.5" y="-119.5" font-family="Helvetica,sans-Serif" font-size="10.00">md2.h</text>
</a>
</g>
</g>
<!-- Node6&#45;&gt;Node7 -->
<g id="edge7" class="edge">
<title>Node6&#45;&gt;Node7</title>
<path fill="none" stroke="midnightblue" d="M531.91,-173.7C462.82,-168.3 329.05,-155.89 207.05,-132.06"/>
<polygon fill="midnightblue" stroke="midnightblue" points="207.66,-128.61 197.17,-130.1 206.29,-135.48 207.66,-128.61"/>
</g>
<!-- Node8 -->
<g id="node8" class="node">
<title>Node8</title>
<g id="a_node8"><a xlink:href="md4_8h.html" target="_top" xlink:title="RFC 1320 compliant MD4 implementation.">
<polygon fill="white" stroke="black" points="215,-112.5 215,-131.5 262,-131.5 262,-112.5 215,-112.5"/>
<text text-anchor="middle" x="238.5" y="-119.5" font-family="Helvetica,sans-Serif" font-size="10.00">md4.h</text>
</a>
</g>
</g>
<!-- Node6&#45;&gt;Node8 -->
<g id="edge9" class="edge">
<title>Node6&#45;&gt;Node8</title>
<path fill="none" stroke="midnightblue" d="M531.99,-172.1C473.41,-165.51 369.53,-152.44 272.18,-132.14"/>
<polygon fill="midnightblue" stroke="midnightblue" points="272.69,-128.67 262.18,-130.03 271.24,-135.52 272.69,-128.67"/>
</g>
<!-- Node9 -->
<g id="node9" class="node">
<title>Node9</title>
<g id="a_node9"><a xlink:href="md5_8h.html" target="_top" xlink:title="RFC 1321 compliant MD5 implementation.">
<polygon fill="white" stroke="black" points="280,-112.5 280,-131.5 327,-131.5 327,-112.5 280,-112.5"/>
<text text-anchor="middle" x="303.5" y="-119.5" font-family="Helvetica,sans-Serif" font-size="10.00">md5.h</text>
</a>
</g>
</g>
<!-- Node6&#45;&gt;Node9 -->
<g id="edge11" class="edge">
<title>Node6&#45;&gt;Node9</title>
<path fill="none" stroke="midnightblue" d="M531.65,-169.63C484.64,-161.93 409.96,-148.93 337.02,-132.2"/>
<polygon fill="midnightblue" stroke="midnightblue" points="337.74,-128.78 327.2,-129.93 336.15,-135.6 337.74,-128.78"/>
</g>
<!-- Node10 -->
<g id="node10" class="node">
<title>Node10</title>
<g id="a_node10"><a xlink:href="rmd128_8h.html" target="_top" xlink:title="ripemd implementation">
<polygon fill="white" stroke="black" points="345,-112.5 345,-131.5 408,-131.5 408,-112.5 345,-112.5"/>
<text text-anchor="middle" x="376.5" y="-119.5" font-family="Helvetica,sans-Serif" font-size="10.00">rmd128.h</text>
</a>
</g>
</g>
<!-- Node6&#45;&gt;Node10 -->
<g id="edge13" class="edge">
<title>Node6&#45;&gt;Node10</title>
<path fill="none" stroke="midnightblue" d="M546.49,-168.44C511.67,-159.13 455.89,-144.22 417.79,-134.04"/>
<polygon fill="midnightblue" stroke="midnightblue" points="418.59,-130.63 408.03,-131.43 416.78,-137.39 418.59,-130.63"/>
</g>
<!-- Node11 -->
<g id="node11" class="node">
<title>Node11</title>
<g id="a_node11"><a xlink:href="rmd160_8h.html" target="_top" xlink:title="ripemd implementation">
<polygon fill="white" stroke="black" points="426,-112.5 426,-131.5 489,-131.5 489,-112.5 426,-112.5"/>
<text text-anchor="middle" x="457.5" y="-119.5" font-family="Helvetica,sans-Serif" font-size="10.00">rmd160.h</text>
</a>
</g>
</g>
<!-- Node6&#45;&gt;Node11 -->
<g id="edge15" class="edge">
<title>Node6&#45;&gt;Node11</title>
<path fill="none" stroke="midnightblue" d="M559.33,-168.44C539.59,-159.64 508.61,-145.81 486.01,-135.72"/>
<polygon fill="midnightblue" stroke="midnightblue" points="487.14,-132.4 476.58,-131.52 484.29,-138.79 487.14,-132.4"/>
</g>
<!-- Node12 -->
<g id="node12" class="node">
<title>Node12</title>
<g id="a_node12"><a xlink:href="rmd256_8h.html" target="_top" xlink:title="ripemd implementation">
<polygon fill="white" stroke="black" points="507,-112.5 507,-131.5 570,-131.5 570,-112.5 507,-112.5"/>
<text text-anchor="middle" x="538.5" y="-119.5" font-family="Helvetica,sans-Serif" font-size="10.00">rmd256.h</text>
</a>
</g>
</g>
<!-- Node6&#45;&gt;Node12 -->
<g id="edge17" class="edge">
<title>Node6&#45;&gt;Node12</title>
<path fill="none" stroke="midnightblue" d="M571.89,-168.08C566.24,-160.46 557.96,-149.26 551.05,-139.94"/>
<polygon fill="midnightblue" stroke="midnightblue" points="553.75,-137.7 544.98,-131.75 548.12,-141.87 553.75,-137.7"/>
</g>
<!-- Node13 -->
<g id="node13" class="node">
<title>Node13</title>
<g id="a_node13"><a xlink:href="rmd320_8h.html" target="_top" xlink:title="ripemd implementation">
<polygon fill="white" stroke="black" points="588,-112.5 588,-131.5 651,-131.5 651,-112.5 588,-112.5"/>
<text text-anchor="middle" x="619.5" y="-119.5" font-family="Helvetica,sans-Serif" font-size="10.00">rmd320.h</text>
</a>
</g>
</g>
<!-- Node6&#45;&gt;Node13 -->
<g id="edge19" class="edge">
<title>Node6&#45;&gt;Node13</title>
<path fill="none" stroke="midnightblue" d="M585.27,-168.08C591.06,-160.46 599.56,-149.26 606.64,-139.94"/>
<polygon fill="midnightblue" stroke="midnightblue" points="609.6,-141.83 612.86,-131.75 604.02,-137.6 609.6,-141.83"/>
</g>
<!-- Node14 -->
<g id="node14" class="node">
<title>Node14</title>
<g id="a_node14"><a xlink:href="sha256_8h.html" target="_top" xlink:title="RFC 5754 compliant SHA2 implementation.">
<polygon fill="white" stroke="black" points="669,-112.5 669,-131.5 730,-131.5 730,-112.5 669,-112.5"/>
<text text-anchor="middle" x="699.5" y="-119.5" font-family="Helvetica,sans-Serif" font-size="10.00">sha256.h</text>
</a>
</g>
</g>
<!-- Node6&#45;&gt;Node14 -->
<g id="edge22" class="edge">
<title>Node6&#45;&gt;Node14</title>
<path fill="none" stroke="midnightblue" d="M597.67,-168.44C617.41,-159.64 648.39,-145.81 670.99,-135.72"/>
<polygon fill="midnightblue" stroke="midnightblue" points="672.71,-138.79 680.42,-131.52 669.86,-132.4 672.71,-138.79"/>
</g>
<!-- Node15 -->
<g id="node15" class="node">
<title>Node15</title>
<g id="a_node15"><a xlink:href="sha512_8h.html" target="_top" xlink:title="RFC 5754 compliant SHA2 implementation.">
<polygon fill="white" stroke="black" points="748,-112.5 748,-131.5 809,-131.5 809,-112.5 748,-112.5"/>
<text text-anchor="middle" x="778.5" y="-119.5" font-family="Helvetica,sans-Serif" font-size="10.00">sha512.h</text>
</a>
</g>
</g>
<!-- Node6&#45;&gt;Node15 -->
<g id="edge24" class="edge">
<title>Node6&#45;&gt;Node15</title>
<path fill="none" stroke="midnightblue" d="M610.19,-168.44C644.87,-159.08 700.55,-144.05 738.28,-133.86"/>
<polygon fill="midnightblue" stroke="midnightblue" points="739.2,-137.24 747.94,-131.25 737.37,-130.48 739.2,-137.24"/>
</g>
<!-- Node16 -->
<g id="node16" class="node">
<title>Node16</title>
<g id="a_node16"><a xlink:href="sha3_8h.html" target="_top" xlink:title="SHA3 implementation.">
<polygon fill="white" stroke="black" points="827,-112.5 827,-131.5 876,-131.5 876,-112.5 827,-112.5"/>
<text text-anchor="middle" x="851.5" y="-119.5" font-family="Helvetica,sans-Serif" font-size="10.00">sha3.h</text>
</a>
</g>
</g>
<!-- Node6&#45;&gt;Node16 -->
<g id="edge26" class="edge">
<title>Node6&#45;&gt;Node16</title>
<path fill="none" stroke="midnightblue" d="M625.42,-169.2C671.59,-161.3 744.3,-148.24 816.49,-132.09"/>
<polygon fill="midnightblue" stroke="midnightblue" points="817.69,-135.41 826.67,-129.8 816.14,-128.58 817.69,-135.41"/>
</g>
<!-- Node17 -->
<g id="node17" class="node">
<title>Node17</title>
<g id="a_node17"><a xlink:href="tiger_8h.html" target="_top" xlink:title="tiger implementation">
<polygon fill="white" stroke="black" points="894,-112.5 894,-131.5 941,-131.5 941,-112.5 894,-112.5"/>
<text text-anchor="middle" x="917.5" y="-119.5" font-family="Helvetica,sans-Serif" font-size="10.00">tiger.h</text>
</a>
</g>
</g>
<!-- Node6&#45;&gt;Node17 -->
<g id="edge28" class="edge">
<title>Node6&#45;&gt;Node17</title>
<path fill="none" stroke="midnightblue" d="M625.2,-171.9C683.48,-165.15 786.32,-151.95 883.77,-131.92"/>
<polygon fill="midnightblue" stroke="midnightblue" points="884.71,-135.3 893.79,-129.83 883.29,-128.45 884.71,-135.3"/>
</g>
<!-- Node18 -->
<g id="node18" class="node">
<title>Node18</title>
<g id="a_node18"><a xlink:href="whirl_8h.html" target="_top" xlink:title="whirlpool implementation">
<polygon fill="white" stroke="black" points="959.5,-112.5 959.5,-131.5 1009.5,-131.5 1009.5,-112.5 959.5,-112.5"/>
<text text-anchor="middle" x="984.5" y="-119.5" font-family="Helvetica,sans-Serif" font-size="10.00">whirl.h</text>
</a>
</g>
</g>
<!-- Node6&#45;&gt;Node18 -->
<g id="edge30" class="edge">
<title>Node6&#45;&gt;Node18</title>
<path fill="none" stroke="midnightblue" d="M625.07,-173.32C695.66,-167.31 833.77,-153.8 949.5,-132 949.6,-131.98 949.7,-131.96 949.8,-131.94"/>
<polygon fill="midnightblue" stroke="midnightblue" points="950.31,-135.41 959.35,-129.89 948.84,-128.57 950.31,-135.41"/>
</g>
<!-- Node19 -->
<g id="node19" class="node">
<title>Node19</title>
<g id="a_node19"><a xlink:href="blake2s_8h.html" target="_top" xlink:title="RFC 7693 compliant BLAKE implementation.">
<polygon fill="white" stroke="black" points="1028,-112.5 1028,-131.5 1091,-131.5 1091,-112.5 1028,-112.5"/>
<text text-anchor="middle" x="1059.5" y="-119.5" font-family="Helvetica,sans-Serif" font-size="10.00">blake2s.h</text>
</a>
</g>
</g>
<!-- Node6&#45;&gt;Node19 -->
<g id="edge32" class="edge">
<title>Node6&#45;&gt;Node19</title>
<path fill="none" stroke="midnightblue" d="M625.29,-173.98C704.12,-168.5 868.55,-155.43 1017.54,-131.97"/>
<polygon fill="midnightblue" stroke="midnightblue" points="1018.46,-135.37 1027.78,-130.34 1017.36,-128.46 1018.46,-135.37"/>
</g>
<!-- Node20 -->
<g id="node20" class="node">
<title>Node20</title>
<g id="a_node20"><a xlink:href="blake2b_8h.html" target="_top" xlink:title="RFC 7693 compliant BLAKE implementation.">
<polygon fill="white" stroke="black" points="1109.5,-112.5 1109.5,-131.5 1173.5,-131.5 1173.5,-112.5 1109.5,-112.5"/>
<text text-anchor="middle" x="1141.5" y="-119.5" font-family="Helvetica,sans-Serif" font-size="10.00">blake2b.h</text>
</a>
</g>
</g>
<!-- Node6&#45;&gt;Node20 -->
<g id="edge34" class="edge">
<title>Node6&#45;&gt;Node20</title>
<path fill="none" stroke="midnightblue" d="M625.08,-174.93C716.47,-170.44 925.54,-158.05 1099.5,-132 1099.6,-131.98 1099.7,-131.97 1099.8,-131.95"/>
<polygon fill="midnightblue" stroke="midnightblue" points="1100.21,-135.44 1109.47,-130.29 1099.02,-128.54 1100.21,-135.44"/>
</g>
<!-- Node7&#45;&gt;Node3 -->
<g id="edge8" class="edge">
<title>Node7&#45;&gt;Node3</title>
<path fill="none" stroke="midnightblue" d="M197.17,-113.9C199.96,-113.2 202.78,-112.54 205.5,-112 328.2,-87.5 476.44,-74.45 543.06,-69.45"/>
<polygon fill="midnightblue" stroke="midnightblue" points="543.69,-72.91 553.41,-68.69 543.18,-65.93 543.69,-72.91"/>
</g>
<!-- Node8&#45;&gt;Node3 -->
<g id="edge10" class="edge">
<title>Node8&#45;&gt;Node3</title>
<path fill="none" stroke="midnightblue" d="M262.18,-113.97C264.97,-113.25 267.79,-112.58 270.5,-112 368.28,-91.2 485.57,-76.96 543.12,-70.66"/>
<polygon fill="midnightblue" stroke="midnightblue" points="543.59,-74.14 553.15,-69.58 542.83,-67.18 543.59,-74.14"/>
</g>
<!-- Node9&#45;&gt;Node3 -->
<g id="edge12" class="edge">
<title>Node9&#45;&gt;Node3</title>
<path fill="none" stroke="midnightblue" d="M327.2,-114.07C329.99,-113.34 332.8,-112.63 335.5,-112 408.73,-94.96 495.58,-80.16 543.08,-72.52"/>
<polygon fill="midnightblue" stroke="midnightblue" points="543.83,-75.94 553.16,-70.91 542.73,-69.03 543.83,-75.94"/>
</g>
<!-- Node10&#45;&gt;Node3 -->
<g id="edge14" class="edge">
<title>Node10&#45;&gt;Node3</title>
<path fill="none" stroke="midnightblue" d="M408.06,-112.56C444.68,-102.77 504.89,-86.68 543.07,-76.47"/>
<polygon fill="midnightblue" stroke="midnightblue" points="544.47,-79.72 553.22,-73.76 542.66,-72.96 544.47,-79.72"/>
</g>
<!-- Node11&#45;&gt;Node3 -->
<g id="edge16" class="edge">
<title>Node11&#45;&gt;Node3</title>
<path fill="none" stroke="midnightblue" d="M476.67,-112.44C496.41,-103.64 527.39,-89.81 549.99,-79.72"/>
<polygon fill="midnightblue" stroke="midnightblue" points="551.71,-82.79 559.42,-75.52 548.86,-76.4 551.71,-82.79"/>
</g>
<!-- Node12&#45;&gt;Node3 -->
<g id="edge18" class="edge">
<title>Node12&#45;&gt;Node3</title>
<path fill="none" stroke="midnightblue" d="M545.11,-112.08C550.76,-104.46 559.04,-93.26 565.95,-83.94"/>
<polygon fill="midnightblue" stroke="midnightblue" points="568.88,-85.87 572.02,-75.75 563.25,-81.7 568.88,-85.87"/>
</g>
<!-- Node13&#45;&gt;Node3 -->
<g id="edge20" class="edge">
<title>Node13&#45;&gt;Node3</title>
<path fill="none" stroke="midnightblue" d="M612.73,-112.08C606.94,-104.46 598.44,-93.26 591.36,-83.94"/>
<polygon fill="midnightblue" stroke="midnightblue" points="593.98,-81.6 585.14,-75.75 588.4,-85.83 593.98,-81.6"/>
</g>
<!-- Node14&#45;&gt;Node3 -->
<g id="edge23" class="edge">
<title>Node14&#45;&gt;Node3</title>
<path fill="none" stroke="midnightblue" d="M680.33,-112.44C660.59,-103.64 629.61,-89.81 607.01,-79.72"/>
<polygon fill="midnightblue" stroke="midnightblue" points="608.14,-76.4 597.58,-75.52 605.29,-82.79 608.14,-76.4"/>
</g>
<!-- Node15&#45;&gt;Node3 -->
<g id="edge25" class="edge">
<title>Node15&#45;&gt;Node3</title>
<path fill="none" stroke="midnightblue" d="M747.69,-112.68C711.53,-102.92 651.71,-86.77 613.74,-76.51"/>
<polygon fill="midnightblue" stroke="midnightblue" points="614.21,-73.02 603.65,-73.79 612.39,-79.78 614.21,-73.02"/>
</g>
<!-- Node16&#45;&gt;Node3 -->
<g id="edge27" class="edge">
<title>Node16&#45;&gt;Node3</title>
<path fill="none" stroke="midnightblue" d="M826.67,-114.2C823.59,-113.43 820.48,-112.67 817.5,-112 745.52,-95.72 660.42,-80.69 613.67,-72.8"/>
<polygon fill="midnightblue" stroke="midnightblue" points="614.18,-69.34 603.74,-71.13 613.03,-76.24 614.18,-69.34"/>
</g>
<!-- Node17&#45;&gt;Node3 -->
<g id="edge29" class="edge">
<title>Node17&#45;&gt;Node3</title>
<path fill="none" stroke="midnightblue" d="M893.79,-114.17C890.68,-113.38 887.52,-112.63 884.5,-112 787.27,-91.67 670.78,-77.22 613.63,-70.77"/>
<polygon fill="midnightblue" stroke="midnightblue" points="614,-67.29 603.67,-69.66 613.22,-74.25 614,-67.29"/>
</g>
<!-- Node18&#45;&gt;Node3 -->
<g id="edge31" class="edge">
<title>Node18&#45;&gt;Node3</title>
<path fill="none" stroke="midnightblue" d="M959.35,-114.11C956.05,-113.33 952.71,-112.6 949.5,-112 827.5,-89.02 680.6,-75.25 614.19,-69.76"/>
<polygon fill="midnightblue" stroke="midnightblue" points="614.12,-66.25 603.87,-68.92 613.55,-73.22 614.12,-66.25"/>
</g>
<!-- Node19&#45;&gt;Node3 -->
<g id="edge33" class="edge">
<title>Node19&#45;&gt;Node3</title>
<path fill="none" stroke="midnightblue" d="M1027.78,-113.66C1024.66,-113.05 1021.52,-112.48 1018.5,-112 869.27,-88.07 689.42,-74.34 614.25,-69.27"/>
<polygon fill="midnightblue" stroke="midnightblue" points="614.14,-65.75 603.93,-68.58 613.68,-72.74 614.14,-65.75"/>
</g>
<!-- Node20&#45;&gt;Node3 -->
<g id="edge35" class="edge">
<title>Node20&#45;&gt;Node3</title>
<path fill="none" stroke="midnightblue" d="M1109.47,-113.71C1106.12,-113.07 1102.74,-112.49 1099.5,-112 917.82,-84.8 697.85,-72.48 613.62,-68.52"/>
<polygon fill="midnightblue" stroke="midnightblue" points="613.72,-65.02 603.57,-68.05 613.4,-72.01 613.72,-65.02"/>
</g>
<!-- Node22 -->
<g id="node22" class="node">
<title>Node22</title>
<g id="a_node22"><a xlink:title=" ">
<polygon fill="white" stroke="#bfbfbf" points="1191.5,-112.5 1191.5,-131.5 1247.5,-131.5 1247.5,-112.5 1191.5,-112.5"/>
<text text-anchor="middle" x="1219.5" y="-119.5" font-family="Helvetica,sans-Serif" font-size="10.00">assert.h</text>
</a>
</g>
</g>
<!-- Node21&#45;&gt;Node22 -->
<g id="edge37" class="edge">
<title>Node21&#45;&gt;Node22</title>
<path fill="none" stroke="midnightblue" d="M1219.5,-168.08C1219.5,-161.01 1219.5,-150.86 1219.5,-141.99"/>
<polygon fill="midnightblue" stroke="midnightblue" points="1223,-141.75 1219.5,-131.75 1216,-141.75 1223,-141.75"/>
</g>
<!-- Node23 -->
<g id="node23" class="node">
<title>Node23</title>
<g id="a_node23"><a xlink:title=" ">
<polygon fill="white" stroke="#bfbfbf" points="1266,-112.5 1266,-131.5 1319,-131.5 1319,-112.5 1266,-112.5"/>
<text text-anchor="middle" x="1292.5" y="-119.5" font-family="Helvetica,sans-Serif" font-size="10.00">string.h</text>
</a>
</g>
</g>
<!-- Node21&#45;&gt;Node23 -->
<g id="edge38" class="edge">
<title>Node21&#45;&gt;Node23</title>
<path fill="none" stroke="midnightblue" d="M1231.23,-168.32C1242.34,-160.11 1259.24,-147.6 1272.48,-137.81"/>
<polygon fill="midnightblue" stroke="midnightblue" points="1274.6,-140.59 1280.56,-131.83 1270.44,-134.97 1274.6,-140.59"/>
</g>
</g>
</svg>
