<?xml version="1.0" encoding="UTF-8" standalone="no"?>
<!DOCTYPE svg PUBLIC "-//W3C//DTD SVG 1.1//EN"
 "http://www.w3.org/Graphics/SVG/1.1/DTD/svg11.dtd">
<!-- Generated by graphviz version 2.43.0 (0)
 -->
<!-- Title: src/cksum/sha512.c Pages: 1 -->
<svg width="1327pt" height="252pt"
 viewBox="0.00 0.00 1327.00 252.00" xmlns="http://www.w3.org/2000/svg" xmlns:xlink="http://www.w3.org/1999/xlink">
<g id="graph0" class="graph" transform="scale(1 1) rotate(0) translate(4 248)">
<title>src/cksum/sha512.c</title>
<polygon fill="white" stroke="transparent" points="-4,4 -4,-248 1323,-248 1323,4 -4,4"/>
<!-- Node1 -->
<g id="node1" class="node">
<title>Node1</title>
<g id="a_node1"><a xlink:title="RFC 5754 compliant SHA2 implementation.">
<polygon fill="#bfbfbf" stroke="black" points="534,-224.5 534,-243.5 647,-243.5 647,-224.5 534,-224.5"/>
<text text-anchor="middle" x="590.5" y="-231.5" font-family="Helvetica,sans-Serif" font-size="10.00">src/cksum/sha512.c</text>
</a>
</g>
</g>
<!-- Node2 -->
<g id="node2" class="node">
<title>Node2</title>
<g id="a_node2"><a xlink:href="sha512_8h.html" target="_top" xlink:title="RFC 5754 compliant SHA2 implementation.">
<polygon fill="white" stroke="black" points="0,-112.5 0,-131.5 105,-131.5 105,-112.5 0,-112.5"/>
<text text-anchor="middle" x="52.5" y="-119.5" font-family="Helvetica,sans-Serif" font-size="10.00">a/cksum/sha512.h</text>
</a>
</g>
</g>
<!-- Node1&#45;&gt;Node2 -->
<g id="edge1" class="edge">
<title>Node1&#45;&gt;Node2</title>
<path fill="none" stroke="midnightblue" d="M548.73,-224.46C451.51,-204.58 210.29,-155.26 104.09,-133.55"/>
<polygon fill="midnightblue" stroke="midnightblue" points="104.74,-130.11 94.24,-131.53 103.34,-136.97 104.74,-130.11"/>
</g>
<!-- Node6 -->
<g id="node6" class="node">
<title>Node6</title>
<g id="a_node6"><a xlink:href="hash_8h.html" target="_top" xlink:title="hash library">
<polygon fill="white" stroke="black" points="544,-168.5 544,-187.5 637,-187.5 637,-168.5 544,-168.5"/>
<text text-anchor="middle" x="590.5" y="-175.5" font-family="Helvetica,sans-Serif" font-size="10.00">a/cksum/hash.h</text>
</a>
</g>
</g>
<!-- Node1&#45;&gt;Node6 -->
<g id="edge5" class="edge">
<title>Node1&#45;&gt;Node6</title>
<path fill="none" stroke="midnightblue" d="M590.5,-224.08C590.5,-217.01 590.5,-206.86 590.5,-197.99"/>
<polygon fill="midnightblue" stroke="midnightblue" points="594,-197.75 590.5,-187.75 587,-197.75 594,-197.75"/>
</g>
<!-- Node21 -->
<g id="node21" class="node">
<title>Node21</title>
<g id="a_node21"><a xlink:href="hash_____8h.html" target="_top" xlink:title="private macros for hash library">
<polygon fill="white" stroke="black" points="1190,-168.5 1190,-187.5 1249,-187.5 1249,-168.5 1190,-168.5"/>
<text text-anchor="middle" x="1219.5" y="-175.5" font-family="Helvetica,sans-Serif" font-size="10.00">hash__.h</text>
</a>
</g>
</g>
<!-- Node1&#45;&gt;Node21 -->
<g id="edge36" class="edge">
<title>Node1&#45;&gt;Node21</title>
<path fill="none" stroke="midnightblue" d="M647.15,-228.14C772.67,-217.36 1071.61,-191.7 1179.66,-182.42"/>
<polygon fill="midnightblue" stroke="midnightblue" points="1180.15,-185.89 1189.81,-181.55 1179.55,-178.92 1180.15,-185.89"/>
</g>
<!-- Node3 -->
<g id="node3" class="node">
<title>Node3</title>
<g id="a_node3"><a xlink:href="def_8h.html" target="_top" xlink:title="algorithm library definition">
<polygon fill="white" stroke="black" points="565.5,-56.5 565.5,-75.5 615.5,-75.5 615.5,-56.5 565.5,-56.5"/>
<text text-anchor="middle" x="590.5" y="-63.5" font-family="Helvetica,sans-Serif" font-size="10.00">../def.h</text>
</a>
</g>
</g>
<!-- Node2&#45;&gt;Node3 -->
<g id="edge2" class="edge">
<title>Node2&#45;&gt;Node3</title>
<path fill="none" stroke="midnightblue" d="M105.14,-113.73C109.99,-113.12 114.84,-112.54 119.5,-112 282.01,-93.33 476.69,-76.48 555.16,-69.91"/>
<polygon fill="midnightblue" stroke="midnightblue" points="555.77,-73.37 565.44,-69.05 555.19,-66.4 555.77,-73.37"/>
</g>
<!-- Node4 -->
<g id="node4" class="node">
<title>Node4</title>
<g id="a_node4"><a xlink:title=" ">
<polygon fill="white" stroke="#bfbfbf" points="526.5,-0.5 526.5,-19.5 582.5,-19.5 582.5,-0.5 526.5,-0.5"/>
<text text-anchor="middle" x="554.5" y="-7.5" font-family="Helvetica,sans-Serif" font-size="10.00">stddef.h</text>
</a>
</g>
</g>
<!-- Node3&#45;&gt;Node4 -->
<g id="edge3" class="edge">
<title>Node3&#45;&gt;Node4</title>
<path fill="none" stroke="midnightblue" d="M584.56,-56.08C579.52,-48.53 572.16,-37.49 565.99,-28.23"/>
<polygon fill="midnightblue" stroke="midnightblue" points="568.79,-26.13 560.33,-19.75 562.97,-30.01 568.79,-26.13"/>
</g>
<!-- Node5 -->
<g id="node5" class="node">
<title>Node5</title>
<g id="a_node5"><a xlink:title=" ">
<polygon fill="white" stroke="#bfbfbf" points="601,-0.5 601,-19.5 654,-19.5 654,-0.5 601,-0.5"/>
<text text-anchor="middle" x="627.5" y="-7.5" font-family="Helvetica,sans-Serif" font-size="10.00">stdint.h</text>
</a>
</g>
</g>
<!-- Node3&#45;&gt;Node5 -->
<g id="edge4" class="edge">
<title>Node3&#45;&gt;Node5</title>
<path fill="none" stroke="midnightblue" d="M596.61,-56.08C601.78,-48.53 609.35,-37.49 615.69,-28.23"/>
<polygon fill="midnightblue" stroke="midnightblue" points="618.74,-29.98 621.5,-19.75 612.96,-26.02 618.74,-29.98"/>
</g>
<!-- Node6&#45;&gt;Node2 -->
<g id="edge25" class="edge">
<title>Node6&#45;&gt;Node2</title>
<path fill="none" stroke="midnightblue" d="M543.98,-173.15C459.38,-166.02 274.76,-149.84 119.5,-132 118.04,-131.83 116.57,-131.66 115.08,-131.48"/>
<polygon fill="midnightblue" stroke="midnightblue" points="115.49,-128.01 105.14,-130.27 114.64,-134.96 115.49,-128.01"/>
</g>
<!-- Node6&#45;&gt;Node3 -->
<g id="edge6" class="edge">
<title>Node6&#45;&gt;Node3</title>
<path fill="none" stroke="midnightblue" d="M543.71,-175.66C436.12,-172.11 178.36,-160.66 152.5,-132 146.54,-125.4 146.54,-118.6 152.5,-112 179.34,-82.26 455.87,-71.05 555.21,-67.97"/>
<polygon fill="midnightblue" stroke="midnightblue" points="555.45,-71.46 565.34,-67.66 555.24,-64.47 555.45,-71.46"/>
</g>
<!-- Node7 -->
<g id="node7" class="node">
<title>Node7</title>
<g id="a_node7"><a xlink:href="md2_8h.html" target="_top" xlink:title="RFC 1319 compliant MD2 implementation.">
<polygon fill="white" stroke="black" points="162,-112.5 162,-131.5 209,-131.5 209,-112.5 162,-112.5"/>
<text text-anchor="middle" x="185.5" y="-119.5" font-family="Helvetica,sans-Serif" font-size="10.00">md2.h</text>
</a>
</g>
</g>
<!-- Node6&#45;&gt;Node7 -->
<g id="edge7" class="edge">
<title>Node6&#45;&gt;Node7</title>
<path fill="none" stroke="midnightblue" d="M543.91,-173.7C474.82,-168.3 341.05,-155.89 219.05,-132.06"/>
<polygon fill="midnightblue" stroke="midnightblue" points="219.66,-128.61 209.17,-130.1 218.29,-135.48 219.66,-128.61"/>
</g>
<!-- Node8 -->
<g id="node8" class="node">
<title>Node8</title>
<g id="a_node8"><a xlink:href="md4_8h.html" target="_top" xlink:title="RFC 1320 compliant MD4 implementation.">
<polygon fill="white" stroke="black" points="227,-112.5 227,-131.5 274,-131.5 274,-112.5 227,-112.5"/>
<text text-anchor="middle" x="250.5" y="-119.5" font-family="Helvetica,sans-Serif" font-size="10.00">md4.h</text>
</a>
</g>
</g>
<!-- Node6&#45;&gt;Node8 -->
<g id="edge9" class="edge">
<title>Node6&#45;&gt;Node8</title>
<path fill="none" stroke="midnightblue" d="M543.99,-172.1C485.41,-165.51 381.53,-152.44 284.18,-132.14"/>
<polygon fill="midnightblue" stroke="midnightblue" points="284.69,-128.67 274.18,-130.03 283.24,-135.52 284.69,-128.67"/>
</g>
<!-- Node9 -->
<g id="node9" class="node">
<title>Node9</title>
<g id="a_node9"><a xlink:href="md5_8h.html" target="_top" xlink:title="RFC 1321 compliant MD5 implementation.">
<polygon fill="white" stroke="black" points="292,-112.5 292,-131.5 339,-131.5 339,-112.5 292,-112.5"/>
<text text-anchor="middle" x="315.5" y="-119.5" font-family="Helvetica,sans-Serif" font-size="10.00">md5.h</text>
</a>
</g>
</g>
<!-- Node6&#45;&gt;Node9 -->
<g id="edge11" class="edge">
<title>Node6&#45;&gt;Node9</title>
<path fill="none" stroke="midnightblue" d="M543.65,-169.63C496.64,-161.93 421.96,-148.93 349.02,-132.2"/>
<polygon fill="midnightblue" stroke="midnightblue" points="349.74,-128.78 339.2,-129.93 348.15,-135.6 349.74,-128.78"/>
</g>
<!-- Node10 -->
<g id="node10" class="node">
<title>Node10</title>
<g id="a_node10"><a xlink:href="rmd128_8h.html" target="_top" xlink:title="ripemd implementation">
<polygon fill="white" stroke="black" points="357,-112.5 357,-131.5 420,-131.5 420,-112.5 357,-112.5"/>
<text text-anchor="middle" x="388.5" y="-119.5" font-family="Helvetica,sans-Serif" font-size="10.00">rmd128.h</text>
</a>
</g>
</g>
<!-- Node6&#45;&gt;Node10 -->
<g id="edge13" class="edge">
<title>Node6&#45;&gt;Node10</title>
<path fill="none" stroke="midnightblue" d="M558.49,-168.44C523.67,-159.13 467.89,-144.22 429.79,-134.04"/>
<polygon fill="midnightblue" stroke="midnightblue" points="430.59,-130.63 420.03,-131.43 428.78,-137.39 430.59,-130.63"/>
</g>
<!-- Node11 -->
<g id="node11" class="node">
<title>Node11</title>
<g id="a_node11"><a xlink:href="rmd160_8h.html" target="_top" xlink:title="ripemd implementation">
<polygon fill="white" stroke="black" points="438,-112.5 438,-131.5 501,-131.5 501,-112.5 438,-112.5"/>
<text text-anchor="middle" x="469.5" y="-119.5" font-family="Helvetica,sans-Serif" font-size="10.00">rmd160.h</text>
</a>
</g>
</g>
<!-- Node6&#45;&gt;Node11 -->
<g id="edge15" class="edge">
<title>Node6&#45;&gt;Node11</title>
<path fill="none" stroke="midnightblue" d="M571.33,-168.44C551.59,-159.64 520.61,-145.81 498.01,-135.72"/>
<polygon fill="midnightblue" stroke="midnightblue" points="499.14,-132.4 488.58,-131.52 496.29,-138.79 499.14,-132.4"/>
</g>
<!-- Node12 -->
<g id="node12" class="node">
<title>Node12</title>
<g id="a_node12"><a xlink:href="rmd256_8h.html" target="_top" xlink:title="ripemd implementation">
<polygon fill="white" stroke="black" points="519,-112.5 519,-131.5 582,-131.5 582,-112.5 519,-112.5"/>
<text text-anchor="middle" x="550.5" y="-119.5" font-family="Helvetica,sans-Serif" font-size="10.00">rmd256.h</text>
</a>
</g>
</g>
<!-- Node6&#45;&gt;Node12 -->
<g id="edge17" class="edge">
<title>Node6&#45;&gt;Node12</title>
<path fill="none" stroke="midnightblue" d="M583.89,-168.08C578.24,-160.46 569.96,-149.26 563.05,-139.94"/>
<polygon fill="midnightblue" stroke="midnightblue" points="565.75,-137.7 556.98,-131.75 560.12,-141.87 565.75,-137.7"/>
</g>
<!-- Node13 -->
<g id="node13" class="node">
<title>Node13</title>
<g id="a_node13"><a xlink:href="rmd320_8h.html" target="_top" xlink:title="ripemd implementation">
<polygon fill="white" stroke="black" points="600,-112.5 600,-131.5 663,-131.5 663,-112.5 600,-112.5"/>
<text text-anchor="middle" x="631.5" y="-119.5" font-family="Helvetica,sans-Serif" font-size="10.00">rmd320.h</text>
</a>
</g>
</g>
<!-- Node6&#45;&gt;Node13 -->
<g id="edge19" class="edge">
<title>Node6&#45;&gt;Node13</title>
<path fill="none" stroke="midnightblue" d="M597.27,-168.08C603.06,-160.46 611.56,-149.26 618.64,-139.94"/>
<polygon fill="midnightblue" stroke="midnightblue" points="621.6,-141.83 624.86,-131.75 616.02,-137.6 621.6,-141.83"/>
</g>
<!-- Node14 -->
<g id="node14" class="node">
<title>Node14</title>
<g id="a_node14"><a xlink:href="sha1_8h.html" target="_top" xlink:title="RFC 3174 compliant SHA1 implementation.">
<polygon fill="white" stroke="black" points="681,-112.5 681,-131.5 730,-131.5 730,-112.5 681,-112.5"/>
<text text-anchor="middle" x="705.5" y="-119.5" font-family="Helvetica,sans-Serif" font-size="10.00">sha1.h</text>
</a>
</g>
</g>
<!-- Node6&#45;&gt;Node14 -->
<g id="edge21" class="edge">
<title>Node6&#45;&gt;Node14</title>
<path fill="none" stroke="midnightblue" d="M608.72,-168.44C627.4,-159.68 656.66,-145.94 678.12,-135.86"/>
<polygon fill="midnightblue" stroke="midnightblue" points="679.8,-138.93 687.36,-131.52 676.82,-132.6 679.8,-138.93"/>
</g>
<!-- Node15 -->
<g id="node15" class="node">
<title>Node15</title>
<g id="a_node15"><a xlink:href="sha256_8h.html" target="_top" xlink:title="RFC 5754 compliant SHA2 implementation.">
<polygon fill="white" stroke="black" points="748,-112.5 748,-131.5 809,-131.5 809,-112.5 748,-112.5"/>
<text text-anchor="middle" x="778.5" y="-119.5" font-family="Helvetica,sans-Serif" font-size="10.00">sha256.h</text>
</a>
</g>
</g>
<!-- Node6&#45;&gt;Node15 -->
<g id="edge23" class="edge">
<title>Node6&#45;&gt;Node15</title>
<path fill="none" stroke="midnightblue" d="M620.29,-168.44C652.33,-159.24 703.43,-144.56 738.85,-134.39"/>
<polygon fill="midnightblue" stroke="midnightblue" points="740.21,-137.64 748.85,-131.52 738.27,-130.91 740.21,-137.64"/>
</g>
<!-- Node16 -->
<g id="node16" class="node">
<title>Node16</title>
<g id="a_node16"><a xlink:href="sha3_8h.html" target="_top" xlink:title="SHA3 implementation.">
<polygon fill="white" stroke="black" points="827,-112.5 827,-131.5 876,-131.5 876,-112.5 827,-112.5"/>
<text text-anchor="middle" x="851.5" y="-119.5" font-family="Helvetica,sans-Serif" font-size="10.00">sha3.h</text>
</a>
</g>
</g>
<!-- Node6&#45;&gt;Node16 -->
<g id="edge26" class="edge">
<title>Node6&#45;&gt;Node16</title>
<path fill="none" stroke="midnightblue" d="M637.2,-168.63C681.07,-160.57 748.74,-147.63 816.65,-132.08"/>
<polygon fill="midnightblue" stroke="midnightblue" points="817.71,-135.43 826.66,-129.77 816.13,-128.61 817.71,-135.43"/>
</g>
<!-- Node17 -->
<g id="node17" class="node">
<title>Node17</title>
<g id="a_node17"><a xlink:href="tiger_8h.html" target="_top" xlink:title="tiger implementation">
<polygon fill="white" stroke="black" points="894,-112.5 894,-131.5 941,-131.5 941,-112.5 894,-112.5"/>
<text text-anchor="middle" x="917.5" y="-119.5" font-family="Helvetica,sans-Serif" font-size="10.00">tiger.h</text>
</a>
</g>
</g>
<!-- Node6&#45;&gt;Node17 -->
<g id="edge28" class="edge">
<title>Node6&#45;&gt;Node17</title>
<path fill="none" stroke="midnightblue" d="M637.13,-171.54C693.38,-164.58 790.92,-151.33 883.93,-131.9"/>
<polygon fill="midnightblue" stroke="midnightblue" points="884.73,-135.31 893.79,-129.82 883.28,-128.46 884.73,-135.31"/>
</g>
<!-- Node18 -->
<g id="node18" class="node">
<title>Node18</title>
<g id="a_node18"><a xlink:href="whirl_8h.html" target="_top" xlink:title="whirlpool implementation">
<polygon fill="white" stroke="black" points="959.5,-112.5 959.5,-131.5 1009.5,-131.5 1009.5,-112.5 959.5,-112.5"/>
<text text-anchor="middle" x="984.5" y="-119.5" font-family="Helvetica,sans-Serif" font-size="10.00">whirl.h</text>
</a>
</g>
</g>
<!-- Node6&#45;&gt;Node18 -->
<g id="edge30" class="edge">
<title>Node6&#45;&gt;Node18</title>
<path fill="none" stroke="midnightblue" d="M637.27,-173.05C706.07,-166.81 838.43,-153.15 949.5,-132 949.6,-131.98 949.7,-131.96 949.8,-131.94"/>
<polygon fill="midnightblue" stroke="midnightblue" points="950.32,-135.41 959.35,-129.87 948.84,-128.57 950.32,-135.41"/>
</g>
<!-- Node19 -->
<g id="node19" class="node">
<title>Node19</title>
<g id="a_node19"><a xlink:href="blake2s_8h.html" target="_top" xlink:title="RFC 7693 compliant BLAKE implementation.">
<polygon fill="white" stroke="black" points="1028,-112.5 1028,-131.5 1091,-131.5 1091,-112.5 1028,-112.5"/>
<text text-anchor="middle" x="1059.5" y="-119.5" font-family="Helvetica,sans-Serif" font-size="10.00">blake2s.h</text>
</a>
</g>
</g>
<!-- Node6&#45;&gt;Node19 -->
<g id="edge32" class="edge">
<title>Node6&#45;&gt;Node19</title>
<path fill="none" stroke="midnightblue" d="M637.28,-173.8C714.44,-168.14 873.41,-154.9 1017.85,-131.93"/>
<polygon fill="midnightblue" stroke="midnightblue" points="1018.47,-135.37 1027.78,-130.33 1017.35,-128.46 1018.47,-135.37"/>
</g>
<!-- Node20 -->
<g id="node20" class="node">
<title>Node20</title>
<g id="a_node20"><a xlink:href="blake2b_8h.html" target="_top" xlink:title="RFC 7693 compliant BLAKE implementation.">
<polygon fill="white" stroke="black" points="1109.5,-112.5 1109.5,-131.5 1173.5,-131.5 1173.5,-112.5 1109.5,-112.5"/>
<text text-anchor="middle" x="1141.5" y="-119.5" font-family="Helvetica,sans-Serif" font-size="10.00">blake2b.h</text>
</a>
</g>
</g>
<!-- Node6&#45;&gt;Node20 -->
<g id="edge34" class="edge">
<title>Node6&#45;&gt;Node20</title>
<path fill="none" stroke="midnightblue" d="M637.05,-174.8C726.87,-170.14 930.2,-157.52 1099.5,-132 1099.6,-131.98 1099.7,-131.97 1099.8,-131.95"/>
<polygon fill="midnightblue" stroke="midnightblue" points="1100.21,-135.44 1109.47,-130.29 1099.02,-128.54 1100.21,-135.44"/>
</g>
<!-- Node7&#45;&gt;Node3 -->
<g id="edge8" class="edge">
<title>Node7&#45;&gt;Node3</title>
<path fill="none" stroke="midnightblue" d="M209.17,-113.9C211.96,-113.2 214.78,-112.54 217.5,-112 340.2,-87.5 488.44,-74.45 555.06,-69.45"/>
<polygon fill="midnightblue" stroke="midnightblue" points="555.69,-72.91 565.41,-68.69 555.18,-65.93 555.69,-72.91"/>
</g>
<!-- Node8&#45;&gt;Node3 -->
<g id="edge10" class="edge">
<title>Node8&#45;&gt;Node3</title>
<path fill="none" stroke="midnightblue" d="M274.18,-113.97C276.97,-113.25 279.79,-112.58 282.5,-112 380.28,-91.2 497.57,-76.96 555.12,-70.66"/>
<polygon fill="midnightblue" stroke="midnightblue" points="555.59,-74.14 565.15,-69.58 554.83,-67.18 555.59,-74.14"/>
</g>
<!-- Node9&#45;&gt;Node3 -->
<g id="edge12" class="edge">
<title>Node9&#45;&gt;Node3</title>
<path fill="none" stroke="midnightblue" d="M339.2,-114.07C341.99,-113.34 344.8,-112.63 347.5,-112 420.73,-94.96 507.58,-80.16 555.08,-72.52"/>
<polygon fill="midnightblue" stroke="midnightblue" points="555.83,-75.94 565.16,-70.91 554.73,-69.03 555.83,-75.94"/>
</g>
<!-- Node10&#45;&gt;Node3 -->
<g id="edge14" class="edge">
<title>Node10&#45;&gt;Node3</title>
<path fill="none" stroke="midnightblue" d="M420.06,-112.56C456.68,-102.77 516.89,-86.68 555.07,-76.47"/>
<polygon fill="midnightblue" stroke="midnightblue" points="556.47,-79.72 565.22,-73.76 554.66,-72.96 556.47,-79.72"/>
</g>
<!-- Node11&#45;&gt;Node3 -->
<g id="edge16" class="edge">
<title>Node11&#45;&gt;Node3</title>
<path fill="none" stroke="midnightblue" d="M488.67,-112.44C508.41,-103.64 539.39,-89.81 561.99,-79.72"/>
<polygon fill="midnightblue" stroke="midnightblue" points="563.71,-82.79 571.42,-75.52 560.86,-76.4 563.71,-82.79"/>
</g>
<!-- Node12&#45;&gt;Node3 -->
<g id="edge18" class="edge">
<title>Node12&#45;&gt;Node3</title>
<path fill="none" stroke="midnightblue" d="M557.11,-112.08C562.76,-104.46 571.04,-93.26 577.95,-83.94"/>
<polygon fill="midnightblue" stroke="midnightblue" points="580.88,-85.87 584.02,-75.75 575.25,-81.7 580.88,-85.87"/>
</g>
<!-- Node13&#45;&gt;Node3 -->
<g id="edge20" class="edge">
<title>Node13&#45;&gt;Node3</title>
<path fill="none" stroke="midnightblue" d="M624.73,-112.08C618.94,-104.46 610.44,-93.26 603.36,-83.94"/>
<polygon fill="midnightblue" stroke="midnightblue" points="605.98,-81.6 597.14,-75.75 600.4,-85.83 605.98,-81.6"/>
</g>
<!-- Node14&#45;&gt;Node3 -->
<g id="edge22" class="edge">
<title>Node14&#45;&gt;Node3</title>
<path fill="none" stroke="midnightblue" d="M687.28,-112.44C668.6,-103.68 639.34,-89.94 617.88,-79.86"/>
<polygon fill="midnightblue" stroke="midnightblue" points="619.18,-76.6 608.64,-75.52 616.2,-82.93 619.18,-76.6"/>
</g>
<!-- Node15&#45;&gt;Node3 -->
<g id="edge24" class="edge">
<title>Node15&#45;&gt;Node3</title>
<path fill="none" stroke="midnightblue" d="M748.71,-112.44C715.26,-102.83 661.02,-87.26 625.55,-77.07"/>
<polygon fill="midnightblue" stroke="midnightblue" points="626.22,-73.62 615.64,-74.22 624.28,-80.35 626.22,-73.62"/>
</g>
<!-- Node16&#45;&gt;Node3 -->
<g id="edge27" class="edge">
<title>Node16&#45;&gt;Node3</title>
<path fill="none" stroke="midnightblue" d="M826.66,-114.23C823.58,-113.45 820.47,-112.69 817.5,-112 750.1,-96.41 670.66,-81.44 625.88,-73.3"/>
<polygon fill="midnightblue" stroke="midnightblue" points="626.27,-69.81 615.8,-71.48 625.02,-76.7 626.27,-69.81"/>
</g>
<!-- Node17&#45;&gt;Node3 -->
<g id="edge29" class="edge">
<title>Node17&#45;&gt;Node3</title>
<path fill="none" stroke="midnightblue" d="M893.79,-114.18C890.68,-113.39 887.52,-112.64 884.5,-112 791.97,-92.37 681.31,-77.79 625.86,-71.09"/>
<polygon fill="midnightblue" stroke="midnightblue" points="626.19,-67.6 615.85,-69.89 625.36,-74.55 626.19,-67.6"/>
</g>
<!-- Node18&#45;&gt;Node3 -->
<g id="edge31" class="edge">
<title>Node18&#45;&gt;Node3</title>
<path fill="none" stroke="midnightblue" d="M959.35,-114.13C956.05,-113.34 952.7,-112.61 949.5,-112 832.01,-89.62 690.7,-75.64 625.99,-69.94"/>
<polygon fill="midnightblue" stroke="midnightblue" points="626.18,-66.45 615.92,-69.07 625.58,-73.42 626.18,-66.45"/>
</g>
<!-- Node19&#45;&gt;Node3 -->
<g id="edge33" class="edge">
<title>Node19&#45;&gt;Node3</title>
<path fill="none" stroke="midnightblue" d="M1027.78,-113.67C1024.66,-113.06 1021.52,-112.49 1018.5,-112 873.69,-88.57 699.24,-74.61 625.8,-69.37"/>
<polygon fill="midnightblue" stroke="midnightblue" points="625.94,-65.88 615.72,-68.67 625.45,-72.86 625.94,-65.88"/>
</g>
<!-- Node20&#45;&gt;Node3 -->
<g id="edge35" class="edge">
<title>Node20&#45;&gt;Node3</title>
<path fill="none" stroke="midnightblue" d="M1109.47,-113.71C1106.11,-113.08 1102.74,-112.49 1099.5,-112 922.6,-85.33 708.55,-72.75 625.65,-68.62"/>
<polygon fill="midnightblue" stroke="midnightblue" points="625.68,-65.11 615.52,-68.12 625.34,-72.11 625.68,-65.11"/>
</g>
<!-- Node22 -->
<g id="node22" class="node">
<title>Node22</title>
<g id="a_node22"><a xlink:title=" ">
<polygon fill="white" stroke="#bfbfbf" points="1191.5,-112.5 1191.5,-131.5 1247.5,-131.5 1247.5,-112.5 1191.5,-112.5"/>
<text text-anchor="middle" x="1219.5" y="-119.5" font-family="Helvetica,sans-Serif" font-size="10.00">assert.h</text>
</a>
</g>
</g>
<!-- Node21&#45;&gt;Node22 -->
<g id="edge37" class="edge">
<title>Node21&#45;&gt;Node22</title>
<path fill="none" stroke="midnightblue" d="M1219.5,-168.08C1219.5,-161.01 1219.5,-150.86 1219.5,-141.99"/>
<polygon fill="midnightblue" stroke="midnightblue" points="1223,-141.75 1219.5,-131.75 1216,-141.75 1223,-141.75"/>
</g>
<!-- Node23 -->
<g id="node23" class="node">
<title>Node23</title>
<g id="a_node23"><a xlink:title=" ">
<polygon fill="white" stroke="#bfbfbf" points="1266,-112.5 1266,-131.5 1319,-131.5 1319,-112.5 1266,-112.5"/>
<text text-anchor="middle" x="1292.5" y="-119.5" font-family="Helvetica,sans-Serif" font-size="10.00">string.h</text>
</a>
</g>
</g>
<!-- Node21&#45;&gt;Node23 -->
<g id="edge38" class="edge">
<title>Node21&#45;&gt;Node23</title>
<path fill="none" stroke="midnightblue" d="M1231.23,-168.32C1242.34,-160.11 1259.24,-147.6 1272.48,-137.81"/>
<polygon fill="midnightblue" stroke="midnightblue" points="1274.6,-140.59 1280.56,-131.83 1270.44,-134.97 1274.6,-140.59"/>
</g>
</g>
</svg>
