<?xml version="1.0" encoding="UTF-8" standalone="no"?>
<!DOCTYPE svg PUBLIC "-//W3C//DTD SVG 1.1//EN"
 "http://www.w3.org/Graphics/SVG/1.1/DTD/svg11.dtd">
<!-- Generated by graphviz version 2.43.0 (0)
 -->
<!-- Title: a_slist_add_head Pages: 1 -->
<svg width="222pt" height="66pt"
 viewBox="0.00 0.00 222.00 66.00" xmlns="http://www.w3.org/2000/svg" xmlns:xlink="http://www.w3.org/1999/xlink">
<g id="graph0" class="graph" transform="scale(1 1) rotate(0) translate(4 62)">
<title>a_slist_add_head</title>
<polygon fill="white" stroke="transparent" points="-4,4 -4,-62 218,-62 218,4 -4,4"/>
<!-- Node1 -->
<g id="node1" class="node">
<title>Node1</title>
<g id="a_node1"><a xlink:title="Insert a node to a list head.">
<polygon fill="#bfbfbf" stroke="black" points="0,-19.5 0,-38.5 101,-38.5 101,-19.5 0,-19.5"/>
<text text-anchor="middle" x="50.5" y="-26.5" font-family="Helvetica,sans-Serif" font-size="10.00">a_slist_add_head</text>
</a>
</g>
</g>
<!-- Node2 -->
<g id="node2" class="node">
<title>Node2</title>
<g id="a_node2"><a xlink:href="slist_8h.html#a19f0a6883fbdd5b1f0180c92f39d82f5" target="_top" xlink:title="Link head node and tail node.">
<polygon fill="white" stroke="black" points="140,-38.5 140,-57.5 211,-57.5 211,-38.5 140,-38.5"/>
<text text-anchor="middle" x="175.5" y="-45.5" font-family="Helvetica,sans-Serif" font-size="10.00">a_slist_link</text>
</a>
</g>
</g>
<!-- Node1&#45;&gt;Node2 -->
<g id="edge1" class="edge">
<title>Node1&#45;&gt;Node2</title>
<path fill="none" stroke="midnightblue" d="M101.17,-36.67C110.57,-38.12 120.35,-39.64 129.59,-41.06"/>
<polygon fill="midnightblue" stroke="midnightblue" points="129.33,-44.56 139.75,-42.63 130.4,-37.65 129.33,-44.56"/>
</g>
<!-- Node3 -->
<g id="node3" class="node">
<title>Node3</title>
<g id="a_node3"><a xlink:href="slist_8h.html#a7a0d12231089a9365c4359db665cf693" target="_top" xlink:title="Testing whether a list head is none.">
<polygon fill="white" stroke="black" points="137,-0.5 137,-19.5 214,-19.5 214,-0.5 137,-0.5"/>
<text text-anchor="middle" x="175.5" y="-7.5" font-family="Helvetica,sans-Serif" font-size="10.00">a_slist_none</text>
</a>
</g>
</g>
<!-- Node1&#45;&gt;Node3 -->
<g id="edge2" class="edge">
<title>Node1&#45;&gt;Node3</title>
<path fill="none" stroke="midnightblue" d="M101.17,-21.33C109.61,-20.02 118.36,-18.67 126.74,-17.38"/>
<polygon fill="midnightblue" stroke="midnightblue" points="127.4,-20.82 136.75,-15.83 126.33,-13.9 127.4,-20.82"/>
</g>
</g>
</svg>
