<?xml version="1.0" encoding="UTF-8" standalone="no"?>
<!DOCTYPE svg PUBLIC "-//W3C//DTD SVG 1.1//EN"
 "http://www.w3.org/Graphics/SVG/1.1/DTD/svg11.dtd">
<!-- Generated by graphviz version 2.43.0 (0)
 -->
<!-- Title: a_slist_mov Pages: 1 -->
<svg width="196pt" height="104pt"
 viewBox="0.00 0.00 196.00 104.00" xmlns="http://www.w3.org/2000/svg" xmlns:xlink="http://www.w3.org/1999/xlink">
<g id="graph0" class="graph" transform="scale(1 1) rotate(0) translate(4 100)">
<title>a_slist_mov</title>
<polygon fill="white" stroke="transparent" points="-4,4 -4,-100 192,-100 192,4 -4,4"/>
<!-- Node1 -->
<g id="node1" class="node">
<title>Node1</title>
<g id="a_node1"><a xlink:title="Moving a list to another list.">
<polygon fill="#bfbfbf" stroke="black" points="0,-38.5 0,-57.5 75,-57.5 75,-38.5 0,-38.5"/>
<text text-anchor="middle" x="37.5" y="-45.5" font-family="Helvetica,sans-Serif" font-size="10.00">a_slist_mov</text>
</a>
</g>
</g>
<!-- Node2 -->
<g id="node2" class="node">
<title>Node2</title>
<g id="a_node2"><a xlink:href="slist_8h.html#a19f0a6883fbdd5b1f0180c92f39d82f5" target="_top" xlink:title="Link head node and tail node.">
<polygon fill="white" stroke="black" points="114,-76.5 114,-95.5 185,-95.5 185,-76.5 114,-76.5"/>
<text text-anchor="middle" x="149.5" y="-83.5" font-family="Helvetica,sans-Serif" font-size="10.00">a_slist_link</text>
</a>
</g>
</g>
<!-- Node1&#45;&gt;Node2 -->
<g id="edge1" class="edge">
<title>Node1&#45;&gt;Node2</title>
<path fill="none" stroke="midnightblue" d="M66.26,-57.59C79.81,-62.27 96.31,-67.97 110.96,-73.03"/>
<polygon fill="midnightblue" stroke="midnightblue" points="110.16,-76.46 120.75,-76.41 112.44,-69.84 110.16,-76.46"/>
</g>
<!-- Node3 -->
<g id="node3" class="node">
<title>Node3</title>
<g id="a_node3"><a xlink:href="slist_8h.html#a7a0d12231089a9365c4359db665cf693" target="_top" xlink:title="Testing whether a list head is none.">
<polygon fill="white" stroke="black" points="111,-38.5 111,-57.5 188,-57.5 188,-38.5 111,-38.5"/>
<text text-anchor="middle" x="149.5" y="-45.5" font-family="Helvetica,sans-Serif" font-size="10.00">a_slist_none</text>
</a>
</g>
</g>
<!-- Node1&#45;&gt;Node3 -->
<g id="edge2" class="edge">
<title>Node1&#45;&gt;Node3</title>
<path fill="none" stroke="midnightblue" d="M75.13,-48C83.3,-48 92.09,-48 100.64,-48"/>
<polygon fill="midnightblue" stroke="midnightblue" points="100.9,-51.5 110.9,-48 100.9,-44.5 100.9,-51.5"/>
</g>
<!-- Node4 -->
<g id="node4" class="node">
<title>Node4</title>
<g id="a_node4"><a xlink:href="slist_8h.html#a2426f11c8049772eaeb6b8032782a5e2" target="_top" xlink:title="Testing whether a list node is a tail node.">
<polygon fill="white" stroke="black" points="115,-0.5 115,-19.5 184,-19.5 184,-0.5 115,-0.5"/>
<text text-anchor="middle" x="149.5" y="-7.5" font-family="Helvetica,sans-Serif" font-size="10.00">a_slist_tail</text>
</a>
</g>
</g>
<!-- Node1&#45;&gt;Node4 -->
<g id="edge3" class="edge">
<title>Node1&#45;&gt;Node4</title>
<path fill="none" stroke="midnightblue" d="M66.26,-38.41C79.81,-33.73 96.31,-28.03 110.96,-22.97"/>
<polygon fill="midnightblue" stroke="midnightblue" points="112.44,-26.16 120.75,-19.59 110.16,-19.54 112.44,-26.16"/>
</g>
</g>
</svg>
