<?xml version="1.0" encoding="UTF-8" standalone="no"?>
<!DOCTYPE svg PUBLIC "-//W3C//DTD SVG 1.1//EN"
 "http://www.w3.org/Graphics/SVG/1.1/DTD/svg11.dtd">
<!-- Generated by graphviz version 2.43.0 (0)
 -->
<!-- Title: a_slist_del Pages: 1 -->
<svg width="183pt" height="66pt"
 viewBox="0.00 0.00 183.00 66.00" xmlns="http://www.w3.org/2000/svg" xmlns:xlink="http://www.w3.org/1999/xlink">
<g id="graph0" class="graph" transform="scale(1 1) rotate(0) translate(4 62)">
<title>a_slist_del</title>
<polygon fill="white" stroke="transparent" points="-4,4 -4,-62 179,-62 179,4 -4,4"/>
<!-- Node1 -->
<g id="node1" class="node">
<title>Node1</title>
<g id="a_node1"><a xlink:title="Delete a node from a list.">
<polygon fill="#bfbfbf" stroke="black" points="0,-19.5 0,-38.5 68,-38.5 68,-19.5 0,-19.5"/>
<text text-anchor="middle" x="34" y="-26.5" font-family="Helvetica,sans-Serif" font-size="10.00">a_slist_del</text>
</a>
</g>
</g>
<!-- Node2 -->
<g id="node2" class="node">
<title>Node2</title>
<g id="a_node2"><a xlink:href="slist_8h.html#a19f0a6883fbdd5b1f0180c92f39d82f5" target="_top" xlink:title="Link head node and tail node.">
<polygon fill="white" stroke="black" points="104,-38.5 104,-57.5 175,-57.5 175,-38.5 104,-38.5"/>
<text text-anchor="middle" x="139.5" y="-45.5" font-family="Helvetica,sans-Serif" font-size="10.00">a_slist_link</text>
</a>
</g>
</g>
<!-- Node1&#45;&gt;Node2 -->
<g id="edge1" class="edge">
<title>Node1&#45;&gt;Node2</title>
<path fill="none" stroke="midnightblue" d="M68.03,-35.06C76.28,-36.58 85.26,-38.23 93.97,-39.83"/>
<polygon fill="midnightblue" stroke="midnightblue" points="93.53,-43.3 104,-41.67 94.8,-36.42 93.53,-43.3"/>
</g>
<!-- Node3 -->
<g id="node3" class="node">
<title>Node3</title>
<g id="a_node3"><a xlink:href="slist_8h.html#a2426f11c8049772eaeb6b8032782a5e2" target="_top" xlink:title="Testing whether a list node is a tail node.">
<polygon fill="white" stroke="black" points="105,-0.5 105,-19.5 174,-19.5 174,-0.5 105,-0.5"/>
<text text-anchor="middle" x="139.5" y="-7.5" font-family="Helvetica,sans-Serif" font-size="10.00">a_slist_tail</text>
</a>
</g>
</g>
<!-- Node1&#45;&gt;Node3 -->
<g id="edge2" class="edge">
<title>Node1&#45;&gt;Node3</title>
<path fill="none" stroke="midnightblue" d="M68.03,-22.94C76.54,-21.37 85.83,-19.67 94.8,-18.02"/>
<polygon fill="midnightblue" stroke="midnightblue" points="95.51,-21.45 104.71,-16.2 94.25,-14.57 95.51,-21.45"/>
</g>
</g>
</svg>
