<?xml version="1.0" encoding="UTF-8" standalone="no"?>
<!DOCTYPE svg PUBLIC "-//W3C//DTD SVG 1.1//EN"
 "http://www.w3.org/Graphics/SVG/1.1/DTD/svg11.dtd">
<!-- Generated by graphviz version 2.43.0 (0)
 -->
<!-- Title: a_slist_del_head Pages: 1 -->
<svg width="213pt" height="66pt"
 viewBox="0.00 0.00 213.00 66.00" xmlns="http://www.w3.org/2000/svg" xmlns:xlink="http://www.w3.org/1999/xlink">
<g id="graph0" class="graph" transform="scale(1 1) rotate(0) translate(4 62)">
<title>a_slist_del_head</title>
<polygon fill="white" stroke="transparent" points="-4,4 -4,-62 209,-62 209,4 -4,4"/>
<!-- Node1 -->
<g id="node1" class="node">
<title>Node1</title>
<g id="a_node1"><a xlink:title="Delete a node from a list head.">
<polygon fill="#bfbfbf" stroke="black" points="0,-19.5 0,-38.5 98,-38.5 98,-19.5 0,-19.5"/>
<text text-anchor="middle" x="49" y="-26.5" font-family="Helvetica,sans-Serif" font-size="10.00">a_slist_del_head</text>
</a>
</g>
</g>
<!-- Node2 -->
<g id="node2" class="node">
<title>Node2</title>
<g id="a_node2"><a xlink:href="slist_8h.html#a19f0a6883fbdd5b1f0180c92f39d82f5" target="_top" xlink:title="Link head node and tail node.">
<polygon fill="white" stroke="black" points="134,-38.5 134,-57.5 205,-57.5 205,-38.5 134,-38.5"/>
<text text-anchor="middle" x="169.5" y="-45.5" font-family="Helvetica,sans-Serif" font-size="10.00">a_slist_link</text>
</a>
</g>
</g>
<!-- Node1&#45;&gt;Node2 -->
<g id="edge1" class="edge">
<title>Node1&#45;&gt;Node2</title>
<path fill="none" stroke="midnightblue" d="M98.2,-36.73C106.67,-38.09 115.46,-39.5 123.83,-40.84"/>
<polygon fill="midnightblue" stroke="midnightblue" points="123.36,-44.31 133.79,-42.43 124.47,-37.4 123.36,-44.31"/>
</g>
<!-- Node3 -->
<g id="node3" class="node">
<title>Node3</title>
<g id="a_node3"><a xlink:href="slist_8h.html#a2426f11c8049772eaeb6b8032782a5e2" target="_top" xlink:title="Testing whether a list node is a tail node.">
<polygon fill="white" stroke="black" points="135,-0.5 135,-19.5 204,-19.5 204,-0.5 135,-0.5"/>
<text text-anchor="middle" x="169.5" y="-7.5" font-family="Helvetica,sans-Serif" font-size="10.00">a_slist_tail</text>
</a>
</g>
</g>
<!-- Node1&#45;&gt;Node3 -->
<g id="edge2" class="edge">
<title>Node1&#45;&gt;Node3</title>
<path fill="none" stroke="midnightblue" d="M98.2,-21.27C107.04,-19.85 116.22,-18.38 124.92,-16.99"/>
<polygon fill="midnightblue" stroke="midnightblue" points="125.54,-20.43 134.86,-15.39 124.43,-13.52 125.54,-20.43"/>
</g>
</g>
</svg>
