<?xml version="1.0" encoding="UTF-8" standalone="no"?>
<!DOCTYPE svg PUBLIC "-//W3C//DTD SVG 1.1//EN"
 "http://www.w3.org/Graphics/SVG/1.1/DTD/svg11.dtd">
<!-- Generated by graphviz version 2.43.0 (0)
 -->
<!-- Title: a_slist_add Pages: 1 -->
<svg width="186pt" height="66pt"
 viewBox="0.00 0.00 186.00 66.00" xmlns="http://www.w3.org/2000/svg" xmlns:xlink="http://www.w3.org/1999/xlink">
<g id="graph0" class="graph" transform="scale(1 1) rotate(0) translate(4 62)">
<title>a_slist_add</title>
<polygon fill="white" stroke="transparent" points="-4,4 -4,-62 182,-62 182,4 -4,4"/>
<!-- Node1 -->
<g id="node1" class="node">
<title>Node1</title>
<g id="a_node1"><a xlink:title="Insert a node to a list.">
<polygon fill="#bfbfbf" stroke="black" points="0,-19.5 0,-38.5 71,-38.5 71,-19.5 0,-19.5"/>
<text text-anchor="middle" x="35.5" y="-26.5" font-family="Helvetica,sans-Serif" font-size="10.00">a_slist_add</text>
</a>
</g>
</g>
<!-- Node2 -->
<g id="node2" class="node">
<title>Node2</title>
<g id="a_node2"><a xlink:href="slist_8h.html#a19f0a6883fbdd5b1f0180c92f39d82f5" target="_top" xlink:title="Link head node and tail node.">
<polygon fill="white" stroke="black" points="107,-38.5 107,-57.5 178,-57.5 178,-38.5 107,-38.5"/>
<text text-anchor="middle" x="142.5" y="-45.5" font-family="Helvetica,sans-Serif" font-size="10.00">a_slist_link</text>
</a>
</g>
</g>
<!-- Node1&#45;&gt;Node2 -->
<g id="edge1" class="edge">
<title>Node1&#45;&gt;Node2</title>
<path fill="none" stroke="midnightblue" d="M71.17,-35.27C79.42,-36.77 88.32,-38.38 96.94,-39.94"/>
<polygon fill="midnightblue" stroke="midnightblue" points="96.4,-43.4 106.86,-41.73 97.65,-36.51 96.4,-43.4"/>
</g>
<!-- Node3 -->
<g id="node3" class="node">
<title>Node3</title>
<g id="a_node3"><a xlink:href="slist_8h.html#a2426f11c8049772eaeb6b8032782a5e2" target="_top" xlink:title="Testing whether a list node is a tail node.">
<polygon fill="white" stroke="black" points="108,-0.5 108,-19.5 177,-19.5 177,-0.5 108,-0.5"/>
<text text-anchor="middle" x="142.5" y="-7.5" font-family="Helvetica,sans-Serif" font-size="10.00">a_slist_tail</text>
</a>
</g>
</g>
<!-- Node1&#45;&gt;Node3 -->
<g id="edge2" class="edge">
<title>Node1&#45;&gt;Node3</title>
<path fill="none" stroke="midnightblue" d="M71.17,-22.73C79.77,-21.17 89.08,-19.49 98.04,-17.86"/>
<polygon fill="midnightblue" stroke="midnightblue" points="98.72,-21.3 107.94,-16.07 97.47,-14.41 98.72,-21.3"/>
</g>
</g>
</svg>
