<?xml version="1.0" encoding="UTF-8" standalone="no"?>
<!DOCTYPE svg PUBLIC "-//W3C//DTD SVG 1.1//EN"
 "http://www.w3.org/Graphics/SVG/1.1/DTD/svg11.dtd">
<!-- Generated by graphviz version 2.43.0 (0)
 -->
<!-- Title: a_str_puts Pages: 1 -->
<svg width="290pt" height="28pt"
 viewBox="0.00 0.00 290.00 28.00" xmlns="http://www.w3.org/2000/svg" xmlns:xlink="http://www.w3.org/1999/xlink">
<g id="graph0" class="graph" transform="scale(1 1) rotate(0) translate(4 24)">
<title>a_str_puts</title>
<polygon fill="white" stroke="transparent" points="-4,4 -4,-24 286,-24 286,4 -4,4"/>
<!-- Node1 -->
<g id="node1" class="node">
<title>Node1</title>
<g id="a_node1"><a xlink:title="Put string to an instance of string structure.">
<polygon fill="#bfbfbf" stroke="black" points="0,-0.5 0,-19.5 67,-19.5 67,-0.5 0,-0.5"/>
<text text-anchor="middle" x="33.5" y="-7.5" font-family="Helvetica,sans-Serif" font-size="10.00">a_str_puts</text>
</a>
</g>
</g>
<!-- Node2 -->
<g id="node2" class="node">
<title>Node2</title>
<g id="a_node2"><a xlink:href="str_8c.html#ad4289ba17dd884c34e8ec3e257859e49" target="_top" xlink:title="Put data to an instance of string structure.">
<polygon fill="white" stroke="black" points="103,-0.5 103,-19.5 171,-19.5 171,-0.5 103,-0.5"/>
<text text-anchor="middle" x="137" y="-7.5" font-family="Helvetica,sans-Serif" font-size="10.00">a_str_putn</text>
</a>
</g>
</g>
<!-- Node1&#45;&gt;Node2 -->
<g id="edge1" class="edge">
<title>Node1&#45;&gt;Node2</title>
<path fill="none" stroke="midnightblue" d="M67.17,-10C75.25,-10 84.03,-10 92.53,-10"/>
<polygon fill="midnightblue" stroke="midnightblue" points="92.69,-13.5 102.69,-10 92.69,-6.5 92.69,-13.5"/>
</g>
<!-- Node3 -->
<g id="node3" class="node">
<title>Node3</title>
<g id="a_node3"><a xlink:href="str_8c.html#a250db38f35480708213a37f9d8b69939" target="_top" xlink:title="Resize memory for a pointer to string structure.">
<polygon fill="white" stroke="black" points="207,-0.5 207,-19.5 282,-19.5 282,-0.5 207,-0.5"/>
<text text-anchor="middle" x="244.5" y="-7.5" font-family="Helvetica,sans-Serif" font-size="10.00">a_str_resize</text>
</a>
</g>
</g>
<!-- Node2&#45;&gt;Node3 -->
<g id="edge2" class="edge">
<title>Node2&#45;&gt;Node3</title>
<path fill="none" stroke="midnightblue" d="M171.09,-10C179.26,-10 188.16,-10 196.83,-10"/>
<polygon fill="midnightblue" stroke="midnightblue" points="196.86,-13.5 206.86,-10 196.86,-6.5 196.86,-13.5"/>
</g>
</g>
</svg>
