<?xml version="1.0" encoding="UTF-8" standalone="no"?>
<!DOCTYPE svg PUBLIC "-//W3C//DTD SVG 1.1//EN"
 "http://www.w3.org/Graphics/SVG/1.1/DTD/svg11.dtd">
<!-- Generated by graphviz version 2.43.0 (0)
 -->
<!-- Title: a_slist_s Pages: 1 -->
<svg width="110pt" height="106pt"
 viewBox="0.00 0.00 110.00 106.00" xmlns="http://www.w3.org/2000/svg" xmlns:xlink="http://www.w3.org/1999/xlink">
<g id="graph0" class="graph" transform="scale(1 1) rotate(0) translate(4 102)">
<title>a_slist_s</title>
<polygon fill="white" stroke="transparent" points="-4,4 -4,-102 106,-102 106,4 -4,4"/>
<!-- Node1 -->
<g id="node1" class="node">
<title>Node1</title>
<g id="a_node1"><a xlink:title="Instance structure for circular singly linked list head.">
<polygon fill="#bfbfbf" stroke="black" points="0,-0.5 0,-19.5 59,-19.5 59,-0.5 0,-0.5"/>
<text text-anchor="middle" x="29.5" y="-7.5" font-family="Helvetica,sans-Serif" font-size="10.00">a_slist_s</text>
</a>
</g>
</g>
<!-- Node2 -->
<g id="node2" class="node">
<title>Node2</title>
<g id="a_node2"><a xlink:href="uniona__slist__u.html" target="_top" xlink:title="Instance structure for circular singly linked list node.">
<polygon fill="white" stroke="black" points="0,-78.5 0,-97.5 59,-97.5 59,-78.5 0,-78.5"/>
<text text-anchor="middle" x="29.5" y="-85.5" font-family="Helvetica,sans-Serif" font-size="10.00">a_slist_u</text>
</a>
</g>
</g>
<!-- Node2&#45;&gt;Node1 -->
<g id="edge1" class="edge">
<title>Node2&#45;&gt;Node1</title>
<path fill="none" stroke="#9a32cd" stroke-dasharray="5,2" d="M29.5,-68.22C29.5,-52.7 29.5,-31.36 29.5,-19.62"/>
<polygon fill="#9a32cd" stroke="#9a32cd" points="26,-68.28 29.5,-78.28 33,-68.28 26,-68.28"/>
<text text-anchor="middle" x="43.5" y="-52" font-family="Helvetica,sans-Serif" font-size="10.00"> head</text>
<text text-anchor="middle" x="43.5" y="-41" font-family="Helvetica,sans-Serif" font-size="10.00">tail</text>
</g>
<!-- Node2&#45;&gt;Node2 -->
<g id="edge2" class="edge">
<title>Node2&#45;&gt;Node2</title>
<path fill="none" stroke="#9a32cd" stroke-dasharray="5,2" d="M69.17,-94.12C73.91,-93.01 77,-90.97 77,-88 77,-83.25 69.08,-80.88 59.19,-80.88"/>
<polygon fill="#9a32cd" stroke="#9a32cd" points="68.79,-90.64 59.19,-95.12 69.49,-97.61 68.79,-90.64"/>
<text text-anchor="middle" x="89.5" y="-85.5" font-family="Helvetica,sans-Serif" font-size="10.00"> next</text>
</g>
</g>
</svg>
