<?xml version="1.0" encoding="UTF-8" standalone="no"?>
<!DOCTYPE svg PUBLIC "-//W3C//DTD SVG 1.1//EN"
 "http://www.w3.org/Graphics/SVG/1.1/DTD/svg11.dtd">
<!-- Generated by graphviz version 2.43.0 (0)
 -->
<!-- Title: src/cksum/tiger.c Pages: 1 -->
<svg width="1328pt" height="252pt"
 viewBox="0.00 0.00 1327.50 252.00" xmlns="http://www.w3.org/2000/svg" xmlns:xlink="http://www.w3.org/1999/xlink">
<g id="graph0" class="graph" transform="scale(1 1) rotate(0) translate(4 248)">
<title>src/cksum/tiger.c</title>
<polygon fill="white" stroke="transparent" points="-4,4 -4,-248 1323.5,-248 1323.5,4 -4,4"/>
<!-- Node1 -->
<g id="node1" class="node">
<title>Node1</title>
<g id="a_node1"><a xlink:title="TIGER implementation.">
<polygon fill="#bfbfbf" stroke="black" points="527.5,-224.5 527.5,-243.5 626.5,-243.5 626.5,-224.5 527.5,-224.5"/>
<text text-anchor="middle" x="577" y="-231.5" font-family="Helvetica,sans-Serif" font-size="10.00">src/cksum/tiger.c</text>
</a>
</g>
</g>
<!-- Node2 -->
<g id="node2" class="node">
<title>Node2</title>
<g id="a_node2"><a xlink:href="tiger_8h.html" target="_top" xlink:title="tiger implementation">
<polygon fill="white" stroke="black" points="0,-112.5 0,-131.5 92,-131.5 92,-112.5 0,-112.5"/>
<text text-anchor="middle" x="46" y="-119.5" font-family="Helvetica,sans-Serif" font-size="10.00">a/cksum/tiger.h</text>
</a>
</g>
</g>
<!-- Node1&#45;&gt;Node2 -->
<g id="edge1" class="edge">
<title>Node1&#45;&gt;Node2</title>
<path fill="none" stroke="midnightblue" d="M535.78,-224.46C439.91,-204.6 202.21,-155.36 97.23,-133.61"/>
<polygon fill="midnightblue" stroke="midnightblue" points="97.7,-130.14 87.2,-131.53 96.28,-136.99 97.7,-130.14"/>
</g>
<!-- Node6 -->
<g id="node6" class="node">
<title>Node6</title>
<g id="a_node6"><a xlink:href="hash_8h.html" target="_top" xlink:title="hash library">
<polygon fill="white" stroke="black" points="530.5,-168.5 530.5,-187.5 623.5,-187.5 623.5,-168.5 530.5,-168.5"/>
<text text-anchor="middle" x="577" y="-175.5" font-family="Helvetica,sans-Serif" font-size="10.00">a/cksum/hash.h</text>
</a>
</g>
</g>
<!-- Node1&#45;&gt;Node6 -->
<g id="edge5" class="edge">
<title>Node1&#45;&gt;Node6</title>
<path fill="none" stroke="midnightblue" d="M577,-224.08C577,-217.01 577,-206.86 577,-197.99"/>
<polygon fill="midnightblue" stroke="midnightblue" points="580.5,-197.75 577,-187.75 573.5,-197.75 580.5,-197.75"/>
</g>
<!-- Node21 -->
<g id="node21" class="node">
<title>Node21</title>
<g id="a_node21"><a xlink:href="hash_____8h.html" target="_top" xlink:title="private macros for hash library">
<polygon fill="white" stroke="black" points="1190.5,-168.5 1190.5,-187.5 1249.5,-187.5 1249.5,-168.5 1190.5,-168.5"/>
<text text-anchor="middle" x="1220" y="-175.5" font-family="Helvetica,sans-Serif" font-size="10.00">hash__.h</text>
</a>
</g>
</g>
<!-- Node1&#45;&gt;Node21 -->
<g id="edge36" class="edge">
<title>Node1&#45;&gt;Node21</title>
<path fill="none" stroke="midnightblue" d="M626.65,-228.83C749.93,-218.48 1068.1,-191.76 1180.2,-182.34"/>
<polygon fill="midnightblue" stroke="midnightblue" points="1180.72,-185.81 1190.39,-181.49 1180.13,-178.84 1180.72,-185.81"/>
</g>
<!-- Node3 -->
<g id="node3" class="node">
<title>Node3</title>
<g id="a_node3"><a xlink:href="def_8h.html" target="_top" xlink:title="algorithm library definition">
<polygon fill="white" stroke="black" points="552,-56.5 552,-75.5 602,-75.5 602,-56.5 552,-56.5"/>
<text text-anchor="middle" x="577" y="-63.5" font-family="Helvetica,sans-Serif" font-size="10.00">../def.h</text>
</a>
</g>
</g>
<!-- Node2&#45;&gt;Node3 -->
<g id="edge2" class="edge">
<title>Node2&#45;&gt;Node3</title>
<path fill="none" stroke="midnightblue" d="M92.15,-113.82C96.83,-113.17 101.5,-112.55 106,-112 268.36,-92.08 463.12,-75.92 541.64,-69.73"/>
<polygon fill="midnightblue" stroke="midnightblue" points="542.23,-73.19 551.93,-68.92 541.69,-66.21 542.23,-73.19"/>
</g>
<!-- Node4 -->
<g id="node4" class="node">
<title>Node4</title>
<g id="a_node4"><a xlink:title=" ">
<polygon fill="white" stroke="#bfbfbf" points="513,-0.5 513,-19.5 569,-19.5 569,-0.5 513,-0.5"/>
<text text-anchor="middle" x="541" y="-7.5" font-family="Helvetica,sans-Serif" font-size="10.00">stddef.h</text>
</a>
</g>
</g>
<!-- Node3&#45;&gt;Node4 -->
<g id="edge3" class="edge">
<title>Node3&#45;&gt;Node4</title>
<path fill="none" stroke="midnightblue" d="M571.06,-56.08C566.02,-48.53 558.66,-37.49 552.49,-28.23"/>
<polygon fill="midnightblue" stroke="midnightblue" points="555.29,-26.13 546.83,-19.75 549.47,-30.01 555.29,-26.13"/>
</g>
<!-- Node5 -->
<g id="node5" class="node">
<title>Node5</title>
<g id="a_node5"><a xlink:title=" ">
<polygon fill="white" stroke="#bfbfbf" points="587.5,-0.5 587.5,-19.5 640.5,-19.5 640.5,-0.5 587.5,-0.5"/>
<text text-anchor="middle" x="614" y="-7.5" font-family="Helvetica,sans-Serif" font-size="10.00">stdint.h</text>
</a>
</g>
</g>
<!-- Node3&#45;&gt;Node5 -->
<g id="edge4" class="edge">
<title>Node3&#45;&gt;Node5</title>
<path fill="none" stroke="midnightblue" d="M583.11,-56.08C588.28,-48.53 595.85,-37.49 602.19,-28.23"/>
<polygon fill="midnightblue" stroke="midnightblue" points="605.24,-29.98 608,-19.75 599.46,-26.02 605.24,-29.98"/>
</g>
<!-- Node6&#45;&gt;Node2 -->
<g id="edge29" class="edge">
<title>Node6&#45;&gt;Node2</title>
<path fill="none" stroke="midnightblue" d="M530.45,-173.39C445.81,-166.63 261.11,-151.03 106,-132 104.74,-131.84 103.46,-131.68 102.17,-131.52"/>
<polygon fill="midnightblue" stroke="midnightblue" points="102.53,-128.04 92.15,-130.18 101.6,-134.97 102.53,-128.04"/>
</g>
<!-- Node6&#45;&gt;Node3 -->
<g id="edge6" class="edge">
<title>Node6&#45;&gt;Node3</title>
<path fill="none" stroke="midnightblue" d="M530.21,-175.66C422.62,-172.11 164.86,-160.66 139,-132 133.04,-125.4 133.04,-118.6 139,-112 165.84,-82.26 442.37,-71.05 541.71,-67.97"/>
<polygon fill="midnightblue" stroke="midnightblue" points="541.95,-71.46 551.84,-67.66 541.74,-64.47 541.95,-71.46"/>
</g>
<!-- Node7 -->
<g id="node7" class="node">
<title>Node7</title>
<g id="a_node7"><a xlink:href="md2_8h.html" target="_top" xlink:title="RFC 1319 compliant MD2 implementation.">
<polygon fill="white" stroke="black" points="148.5,-112.5 148.5,-131.5 195.5,-131.5 195.5,-112.5 148.5,-112.5"/>
<text text-anchor="middle" x="172" y="-119.5" font-family="Helvetica,sans-Serif" font-size="10.00">md2.h</text>
</a>
</g>
</g>
<!-- Node6&#45;&gt;Node7 -->
<g id="edge7" class="edge">
<title>Node6&#45;&gt;Node7</title>
<path fill="none" stroke="midnightblue" d="M530.41,-173.7C461.32,-168.3 327.55,-155.89 205.55,-132.06"/>
<polygon fill="midnightblue" stroke="midnightblue" points="206.16,-128.61 195.67,-130.1 204.79,-135.48 206.16,-128.61"/>
</g>
<!-- Node8 -->
<g id="node8" class="node">
<title>Node8</title>
<g id="a_node8"><a xlink:href="md4_8h.html" target="_top" xlink:title="RFC 1320 compliant MD4 implementation.">
<polygon fill="white" stroke="black" points="213.5,-112.5 213.5,-131.5 260.5,-131.5 260.5,-112.5 213.5,-112.5"/>
<text text-anchor="middle" x="237" y="-119.5" font-family="Helvetica,sans-Serif" font-size="10.00">md4.h</text>
</a>
</g>
</g>
<!-- Node6&#45;&gt;Node8 -->
<g id="edge9" class="edge">
<title>Node6&#45;&gt;Node8</title>
<path fill="none" stroke="midnightblue" d="M530.49,-172.1C471.91,-165.51 368.03,-152.44 270.68,-132.14"/>
<polygon fill="midnightblue" stroke="midnightblue" points="271.19,-128.67 260.68,-130.03 269.74,-135.52 271.19,-128.67"/>
</g>
<!-- Node9 -->
<g id="node9" class="node">
<title>Node9</title>
<g id="a_node9"><a xlink:href="md5_8h.html" target="_top" xlink:title="RFC 1321 compliant MD5 implementation.">
<polygon fill="white" stroke="black" points="278.5,-112.5 278.5,-131.5 325.5,-131.5 325.5,-112.5 278.5,-112.5"/>
<text text-anchor="middle" x="302" y="-119.5" font-family="Helvetica,sans-Serif" font-size="10.00">md5.h</text>
</a>
</g>
</g>
<!-- Node6&#45;&gt;Node9 -->
<g id="edge11" class="edge">
<title>Node6&#45;&gt;Node9</title>
<path fill="none" stroke="midnightblue" d="M530.15,-169.63C483.14,-161.93 408.46,-148.93 335.52,-132.2"/>
<polygon fill="midnightblue" stroke="midnightblue" points="336.24,-128.78 325.7,-129.93 334.65,-135.6 336.24,-128.78"/>
</g>
<!-- Node10 -->
<g id="node10" class="node">
<title>Node10</title>
<g id="a_node10"><a xlink:href="rmd128_8h.html" target="_top" xlink:title="ripemd implementation">
<polygon fill="white" stroke="black" points="343.5,-112.5 343.5,-131.5 406.5,-131.5 406.5,-112.5 343.5,-112.5"/>
<text text-anchor="middle" x="375" y="-119.5" font-family="Helvetica,sans-Serif" font-size="10.00">rmd128.h</text>
</a>
</g>
</g>
<!-- Node6&#45;&gt;Node10 -->
<g id="edge13" class="edge">
<title>Node6&#45;&gt;Node10</title>
<path fill="none" stroke="midnightblue" d="M544.99,-168.44C510.17,-159.13 454.39,-144.22 416.29,-134.04"/>
<polygon fill="midnightblue" stroke="midnightblue" points="417.09,-130.63 406.53,-131.43 415.28,-137.39 417.09,-130.63"/>
</g>
<!-- Node11 -->
<g id="node11" class="node">
<title>Node11</title>
<g id="a_node11"><a xlink:href="rmd160_8h.html" target="_top" xlink:title="ripemd implementation">
<polygon fill="white" stroke="black" points="424.5,-112.5 424.5,-131.5 487.5,-131.5 487.5,-112.5 424.5,-112.5"/>
<text text-anchor="middle" x="456" y="-119.5" font-family="Helvetica,sans-Serif" font-size="10.00">rmd160.h</text>
</a>
</g>
</g>
<!-- Node6&#45;&gt;Node11 -->
<g id="edge15" class="edge">
<title>Node6&#45;&gt;Node11</title>
<path fill="none" stroke="midnightblue" d="M557.83,-168.44C538.09,-159.64 507.11,-145.81 484.51,-135.72"/>
<polygon fill="midnightblue" stroke="midnightblue" points="485.64,-132.4 475.08,-131.52 482.79,-138.79 485.64,-132.4"/>
</g>
<!-- Node12 -->
<g id="node12" class="node">
<title>Node12</title>
<g id="a_node12"><a xlink:href="rmd256_8h.html" target="_top" xlink:title="ripemd implementation">
<polygon fill="white" stroke="black" points="505.5,-112.5 505.5,-131.5 568.5,-131.5 568.5,-112.5 505.5,-112.5"/>
<text text-anchor="middle" x="537" y="-119.5" font-family="Helvetica,sans-Serif" font-size="10.00">rmd256.h</text>
</a>
</g>
</g>
<!-- Node6&#45;&gt;Node12 -->
<g id="edge17" class="edge">
<title>Node6&#45;&gt;Node12</title>
<path fill="none" stroke="midnightblue" d="M570.39,-168.08C564.74,-160.46 556.46,-149.26 549.55,-139.94"/>
<polygon fill="midnightblue" stroke="midnightblue" points="552.25,-137.7 543.48,-131.75 546.62,-141.87 552.25,-137.7"/>
</g>
<!-- Node13 -->
<g id="node13" class="node">
<title>Node13</title>
<g id="a_node13"><a xlink:href="rmd320_8h.html" target="_top" xlink:title="ripemd implementation">
<polygon fill="white" stroke="black" points="586.5,-112.5 586.5,-131.5 649.5,-131.5 649.5,-112.5 586.5,-112.5"/>
<text text-anchor="middle" x="618" y="-119.5" font-family="Helvetica,sans-Serif" font-size="10.00">rmd320.h</text>
</a>
</g>
</g>
<!-- Node6&#45;&gt;Node13 -->
<g id="edge19" class="edge">
<title>Node6&#45;&gt;Node13</title>
<path fill="none" stroke="midnightblue" d="M583.77,-168.08C589.56,-160.46 598.06,-149.26 605.14,-139.94"/>
<polygon fill="midnightblue" stroke="midnightblue" points="608.1,-141.83 611.36,-131.75 602.52,-137.6 608.1,-141.83"/>
</g>
<!-- Node14 -->
<g id="node14" class="node">
<title>Node14</title>
<g id="a_node14"><a xlink:href="sha1_8h.html" target="_top" xlink:title="RFC 3174 compliant SHA1 implementation.">
<polygon fill="white" stroke="black" points="667.5,-112.5 667.5,-131.5 716.5,-131.5 716.5,-112.5 667.5,-112.5"/>
<text text-anchor="middle" x="692" y="-119.5" font-family="Helvetica,sans-Serif" font-size="10.00">sha1.h</text>
</a>
</g>
</g>
<!-- Node6&#45;&gt;Node14 -->
<g id="edge21" class="edge">
<title>Node6&#45;&gt;Node14</title>
<path fill="none" stroke="midnightblue" d="M595.22,-168.44C613.9,-159.68 643.16,-145.94 664.62,-135.86"/>
<polygon fill="midnightblue" stroke="midnightblue" points="666.3,-138.93 673.86,-131.52 663.32,-132.6 666.3,-138.93"/>
</g>
<!-- Node15 -->
<g id="node15" class="node">
<title>Node15</title>
<g id="a_node15"><a xlink:href="sha256_8h.html" target="_top" xlink:title="RFC 5754 compliant SHA2 implementation.">
<polygon fill="white" stroke="black" points="734.5,-112.5 734.5,-131.5 795.5,-131.5 795.5,-112.5 734.5,-112.5"/>
<text text-anchor="middle" x="765" y="-119.5" font-family="Helvetica,sans-Serif" font-size="10.00">sha256.h</text>
</a>
</g>
</g>
<!-- Node6&#45;&gt;Node15 -->
<g id="edge23" class="edge">
<title>Node6&#45;&gt;Node15</title>
<path fill="none" stroke="midnightblue" d="M606.79,-168.44C638.83,-159.24 689.93,-144.56 725.35,-134.39"/>
<polygon fill="midnightblue" stroke="midnightblue" points="726.71,-137.64 735.35,-131.52 724.77,-130.91 726.71,-137.64"/>
</g>
<!-- Node16 -->
<g id="node16" class="node">
<title>Node16</title>
<g id="a_node16"><a xlink:href="sha512_8h.html" target="_top" xlink:title="RFC 5754 compliant SHA2 implementation.">
<polygon fill="white" stroke="black" points="813.5,-112.5 813.5,-131.5 874.5,-131.5 874.5,-112.5 813.5,-112.5"/>
<text text-anchor="middle" x="844" y="-119.5" font-family="Helvetica,sans-Serif" font-size="10.00">sha512.h</text>
</a>
</g>
</g>
<!-- Node6&#45;&gt;Node16 -->
<g id="edge25" class="edge">
<title>Node6&#45;&gt;Node16</title>
<path fill="none" stroke="midnightblue" d="M621.86,-168.46C665.56,-160.06 734.11,-146.68 803.24,-132.12"/>
<polygon fill="midnightblue" stroke="midnightblue" points="804.38,-135.45 813.44,-129.96 802.94,-128.6 804.38,-135.45"/>
</g>
<!-- Node17 -->
<g id="node17" class="node">
<title>Node17</title>
<g id="a_node17"><a xlink:href="sha3_8h.html" target="_top" xlink:title="SHA3 implementation.">
<polygon fill="white" stroke="black" points="892.5,-112.5 892.5,-131.5 941.5,-131.5 941.5,-112.5 892.5,-112.5"/>
<text text-anchor="middle" x="917" y="-119.5" font-family="Helvetica,sans-Serif" font-size="10.00">sha3.h</text>
</a>
</g>
</g>
<!-- Node6&#45;&gt;Node17 -->
<g id="edge27" class="edge">
<title>Node6&#45;&gt;Node17</title>
<path fill="none" stroke="midnightblue" d="M623.68,-171.8C681.94,-164.93 784.76,-151.62 882.18,-131.96"/>
<polygon fill="midnightblue" stroke="midnightblue" points="883.1,-135.34 892.19,-129.91 881.7,-128.49 883.1,-135.34"/>
</g>
<!-- Node18 -->
<g id="node18" class="node">
<title>Node18</title>
<g id="a_node18"><a xlink:href="whirl_8h.html" target="_top" xlink:title="whirlpool implementation">
<polygon fill="white" stroke="black" points="960,-112.5 960,-131.5 1010,-131.5 1010,-112.5 960,-112.5"/>
<text text-anchor="middle" x="985" y="-119.5" font-family="Helvetica,sans-Serif" font-size="10.00">whirl.h</text>
</a>
</g>
</g>
<!-- Node6&#45;&gt;Node18 -->
<g id="edge30" class="edge">
<title>Node6&#45;&gt;Node18</title>
<path fill="none" stroke="midnightblue" d="M623.53,-173.37C694.41,-167.39 833.49,-153.91 950,-132 950.1,-131.98 950.2,-131.96 950.3,-131.94"/>
<polygon fill="midnightblue" stroke="midnightblue" points="950.81,-135.41 959.85,-129.89 949.34,-128.57 950.81,-135.41"/>
</g>
<!-- Node19 -->
<g id="node19" class="node">
<title>Node19</title>
<g id="a_node19"><a xlink:href="blake2s_8h.html" target="_top" xlink:title="RFC 7693 compliant BLAKE implementation.">
<polygon fill="white" stroke="black" points="1028.5,-112.5 1028.5,-131.5 1091.5,-131.5 1091.5,-112.5 1028.5,-112.5"/>
<text text-anchor="middle" x="1060" y="-119.5" font-family="Helvetica,sans-Serif" font-size="10.00">blake2s.h</text>
</a>
</g>
</g>
<!-- Node6&#45;&gt;Node19 -->
<g id="edge32" class="edge">
<title>Node6&#45;&gt;Node19</title>
<path fill="none" stroke="midnightblue" d="M623.68,-174.01C702.74,-168.57 868.17,-155.53 1017.98,-131.98"/>
<polygon fill="midnightblue" stroke="midnightblue" points="1018.96,-135.37 1028.28,-130.34 1017.86,-128.45 1018.96,-135.37"/>
</g>
<!-- Node20 -->
<g id="node20" class="node">
<title>Node20</title>
<g id="a_node20"><a xlink:href="blake2b_8h.html" target="_top" xlink:title="RFC 7693 compliant BLAKE implementation.">
<polygon fill="white" stroke="black" points="1110,-112.5 1110,-131.5 1174,-131.5 1174,-112.5 1110,-112.5"/>
<text text-anchor="middle" x="1142" y="-119.5" font-family="Helvetica,sans-Serif" font-size="10.00">blake2b.h</text>
</a>
</g>
</g>
<!-- Node6&#45;&gt;Node20 -->
<g id="edge34" class="edge">
<title>Node6&#45;&gt;Node20</title>
<path fill="none" stroke="midnightblue" d="M623.76,-174.94C715.5,-170.48 925.37,-158.12 1100,-132 1100.1,-131.98 1100.2,-131.97 1100.3,-131.95"/>
<polygon fill="midnightblue" stroke="midnightblue" points="1100.71,-135.44 1109.97,-130.3 1099.52,-128.54 1100.71,-135.44"/>
</g>
<!-- Node7&#45;&gt;Node3 -->
<g id="edge8" class="edge">
<title>Node7&#45;&gt;Node3</title>
<path fill="none" stroke="midnightblue" d="M195.67,-113.9C198.46,-113.2 201.28,-112.54 204,-112 326.7,-87.5 474.94,-74.45 541.56,-69.45"/>
<polygon fill="midnightblue" stroke="midnightblue" points="542.19,-72.91 551.91,-68.69 541.68,-65.93 542.19,-72.91"/>
</g>
<!-- Node8&#45;&gt;Node3 -->
<g id="edge10" class="edge">
<title>Node8&#45;&gt;Node3</title>
<path fill="none" stroke="midnightblue" d="M260.68,-113.97C263.47,-113.25 266.29,-112.58 269,-112 366.78,-91.2 484.07,-76.96 541.62,-70.66"/>
<polygon fill="midnightblue" stroke="midnightblue" points="542.09,-74.14 551.65,-69.58 541.33,-67.18 542.09,-74.14"/>
</g>
<!-- Node9&#45;&gt;Node3 -->
<g id="edge12" class="edge">
<title>Node9&#45;&gt;Node3</title>
<path fill="none" stroke="midnightblue" d="M325.7,-114.07C328.49,-113.34 331.3,-112.63 334,-112 407.23,-94.96 494.08,-80.16 541.58,-72.52"/>
<polygon fill="midnightblue" stroke="midnightblue" points="542.33,-75.94 551.66,-70.91 541.23,-69.03 542.33,-75.94"/>
</g>
<!-- Node10&#45;&gt;Node3 -->
<g id="edge14" class="edge">
<title>Node10&#45;&gt;Node3</title>
<path fill="none" stroke="midnightblue" d="M406.56,-112.56C443.18,-102.77 503.39,-86.68 541.57,-76.47"/>
<polygon fill="midnightblue" stroke="midnightblue" points="542.97,-79.72 551.72,-73.76 541.16,-72.96 542.97,-79.72"/>
</g>
<!-- Node11&#45;&gt;Node3 -->
<g id="edge16" class="edge">
<title>Node11&#45;&gt;Node3</title>
<path fill="none" stroke="midnightblue" d="M475.17,-112.44C494.91,-103.64 525.89,-89.81 548.49,-79.72"/>
<polygon fill="midnightblue" stroke="midnightblue" points="550.21,-82.79 557.92,-75.52 547.36,-76.4 550.21,-82.79"/>
</g>
<!-- Node12&#45;&gt;Node3 -->
<g id="edge18" class="edge">
<title>Node12&#45;&gt;Node3</title>
<path fill="none" stroke="midnightblue" d="M543.61,-112.08C549.26,-104.46 557.54,-93.26 564.45,-83.94"/>
<polygon fill="midnightblue" stroke="midnightblue" points="567.38,-85.87 570.52,-75.75 561.75,-81.7 567.38,-85.87"/>
</g>
<!-- Node13&#45;&gt;Node3 -->
<g id="edge20" class="edge">
<title>Node13&#45;&gt;Node3</title>
<path fill="none" stroke="midnightblue" d="M611.23,-112.08C605.44,-104.46 596.94,-93.26 589.86,-83.94"/>
<polygon fill="midnightblue" stroke="midnightblue" points="592.48,-81.6 583.64,-75.75 586.9,-85.83 592.48,-81.6"/>
</g>
<!-- Node14&#45;&gt;Node3 -->
<g id="edge22" class="edge">
<title>Node14&#45;&gt;Node3</title>
<path fill="none" stroke="midnightblue" d="M673.78,-112.44C655.1,-103.68 625.84,-89.94 604.38,-79.86"/>
<polygon fill="midnightblue" stroke="midnightblue" points="605.68,-76.6 595.14,-75.52 602.7,-82.93 605.68,-76.6"/>
</g>
<!-- Node15&#45;&gt;Node3 -->
<g id="edge24" class="edge">
<title>Node15&#45;&gt;Node3</title>
<path fill="none" stroke="midnightblue" d="M735.21,-112.44C701.76,-102.83 647.52,-87.26 612.05,-77.07"/>
<polygon fill="midnightblue" stroke="midnightblue" points="612.72,-73.62 602.14,-74.22 610.78,-80.35 612.72,-73.62"/>
</g>
<!-- Node16&#45;&gt;Node3 -->
<g id="edge26" class="edge">
<title>Node16&#45;&gt;Node3</title>
<path fill="none" stroke="midnightblue" d="M813.44,-114.04C810.26,-113.34 807.06,-112.65 804,-112 736.32,-97.68 656.98,-82.26 612.29,-73.71"/>
<polygon fill="midnightblue" stroke="midnightblue" points="612.72,-70.22 602.24,-71.78 611.4,-77.1 612.72,-70.22"/>
</g>
<!-- Node17&#45;&gt;Node3 -->
<g id="edge28" class="edge">
<title>Node17&#45;&gt;Node3</title>
<path fill="none" stroke="midnightblue" d="M892.19,-114.09C889.11,-113.33 885.99,-112.61 883,-112 785.7,-92.03 669.24,-77.43 612.11,-70.86"/>
<polygon fill="midnightblue" stroke="midnightblue" points="612.49,-67.38 602.16,-69.73 611.7,-74.33 612.49,-67.38"/>
</g>
<!-- Node18&#45;&gt;Node3 -->
<g id="edge31" class="edge">
<title>Node18&#45;&gt;Node3</title>
<path fill="none" stroke="midnightblue" d="M959.85,-114.11C956.55,-113.33 953.21,-112.6 950,-112 827.04,-88.88 678.92,-75.14 612.39,-69.71"/>
<polygon fill="midnightblue" stroke="midnightblue" points="612.3,-66.19 602.05,-68.88 611.74,-73.17 612.3,-66.19"/>
</g>
<!-- Node19&#45;&gt;Node3 -->
<g id="edge33" class="edge">
<title>Node19&#45;&gt;Node3</title>
<path fill="none" stroke="midnightblue" d="M1028.28,-113.66C1025.16,-113.05 1022.02,-112.48 1019,-112 868.73,-87.94 687.55,-74.24 612.36,-69.22"/>
<polygon fill="midnightblue" stroke="midnightblue" points="612.26,-65.7 602.05,-68.54 611.8,-72.69 612.26,-65.7"/>
</g>
<!-- Node20&#45;&gt;Node3 -->
<g id="edge35" class="edge">
<title>Node20&#45;&gt;Node3</title>
<path fill="none" stroke="midnightblue" d="M1109.97,-113.7C1106.62,-113.07 1103.25,-112.49 1100,-112 917.62,-84.72 696.81,-72.45 612.26,-68.51"/>
<polygon fill="midnightblue" stroke="midnightblue" points="612.32,-65.01 602.17,-68.05 612,-72 612.32,-65.01"/>
</g>
<!-- Node22 -->
<g id="node22" class="node">
<title>Node22</title>
<g id="a_node22"><a xlink:title=" ">
<polygon fill="white" stroke="#bfbfbf" points="1192,-112.5 1192,-131.5 1248,-131.5 1248,-112.5 1192,-112.5"/>
<text text-anchor="middle" x="1220" y="-119.5" font-family="Helvetica,sans-Serif" font-size="10.00">assert.h</text>
</a>
</g>
</g>
<!-- Node21&#45;&gt;Node22 -->
<g id="edge37" class="edge">
<title>Node21&#45;&gt;Node22</title>
<path fill="none" stroke="midnightblue" d="M1220,-168.08C1220,-161.01 1220,-150.86 1220,-141.99"/>
<polygon fill="midnightblue" stroke="midnightblue" points="1223.5,-141.75 1220,-131.75 1216.5,-141.75 1223.5,-141.75"/>
</g>
<!-- Node23 -->
<g id="node23" class="node">
<title>Node23</title>
<g id="a_node23"><a xlink:title=" ">
<polygon fill="white" stroke="#bfbfbf" points="1266.5,-112.5 1266.5,-131.5 1319.5,-131.5 1319.5,-112.5 1266.5,-112.5"/>
<text text-anchor="middle" x="1293" y="-119.5" font-family="Helvetica,sans-Serif" font-size="10.00">string.h</text>
</a>
</g>
</g>
<!-- Node21&#45;&gt;Node23 -->
<g id="edge38" class="edge">
<title>Node21&#45;&gt;Node23</title>
<path fill="none" stroke="midnightblue" d="M1231.73,-168.32C1242.84,-160.11 1259.74,-147.6 1272.98,-137.81"/>
<polygon fill="midnightblue" stroke="midnightblue" points="1275.1,-140.59 1281.06,-131.83 1270.94,-134.97 1275.1,-140.59"/>
</g>
</g>
</svg>
