<?xml version="1.0" encoding="UTF-8" standalone="no"?>
<!DOCTYPE svg PUBLIC "-//W3C//DTD SVG 1.1//EN"
 "http://www.w3.org/Graphics/SVG/1.1/DTD/svg11.dtd">
<!-- Generated by graphviz version 2.43.0 (0)
 -->
<!-- Title: a_hash_u Pages: 1 -->
<!--zoomable 560 -->
<svg id="main" version="1.1" xmlns="http://www.w3.org/2000/svg" xmlns:xlink="http://www.w3.org/1999/xlink" xml:space="preserve" onload="init(evt)">
<style type="text/css"><![CDATA[
.edge:hover path { stroke: red; }
.edge:hover polygon { stroke: red; fill: red; }
]]></style>
<script type="text/javascript"><![CDATA[
var edges = document.getElementsByTagName('g');
if (edges && edges.length) {
  for (var i=0;i<edges.length;i++) {
    if (edges[i].id.substr(0,4)=='edge') {
      edges[i].setAttribute('class','edge');
    }
  }
}
]]></script>
        <defs>
                <circle id="rim" cx="0" cy="0" r="7"/>
                <circle id="rim2" cx="0" cy="0" r="3.5"/>
                <g id="zoomPlus">
                        <use xlink:href="#rim" fill="#404040">
                                <set attributeName="fill" to="#808080" begin="zoomplus.mouseover" end="zoomplus.mouseout"/>
                        </use>
                        <path d="M-4,0h8M0,-4v8" fill="none" stroke="white" stroke-width="1.5" pointer-events="none"/>
                </g>
                <g id="zoomMin">
                        <use xlink:href="#rim" fill="#404040">
                                <set attributeName="fill" to="#808080" begin="zoomminus.mouseover" end="zoomminus.mouseout"/>
                        </use>
                        <path d="M-4,0h8" fill="none" stroke="white" stroke-width="1.5" pointer-events="none"/>
                </g>
                <g id="dirArrow">
                        <path fill="none" stroke="white" stroke-width="1.5" d="M0,-3.0v7 M-2.5,-0.5L0,-3.0L2.5,-0.5"/>
                </g>
               <g id="resetDef">
                       <use xlink:href="#rim2" fill="#404040">
                               <set attributeName="fill" to="#808080" begin="reset.mouseover" end="reset.mouseout"/>
                       </use>
               </g>
        </defs>

<script type="text/javascript">
var viewWidth = 238;
var viewHeight = 560;
var sectionId = 'dynsection-0';
</script>
<script xlink:href="svgpan.js"/>
<svg id="graph" class="graph">
<g id="viewport">
<title>a_hash_u</title>
<polygon fill="white" stroke="transparent" points="-4,4 -4,-556 234,-556 234,4 -4,4"/>
<!-- Node1 -->
<g id="node1" class="node">
<title>Node1</title>
<g id="a_node1"><a xlink:title=" ">
<polygon fill="#bfbfbf" stroke="black" points="168,-266.5 168,-285.5 230,-285.5 230,-266.5 168,-266.5"/>
<text text-anchor="middle" x="199" y="-273.5" font-family="Helvetica,sans-Serif" font-size="10.00">a_hash_u</text>
</a>
</g>
</g>
<!-- Node2 -->
<g id="node2" class="node">
<title>Node2</title>
<g id="a_node2"><a xlink:href="structa__blake2b__s.html" target="_top" xlink:title=" ">
<polygon fill="white" stroke="black" points="3,-532.5 3,-551.5 80,-551.5 80,-532.5 3,-532.5"/>
<text text-anchor="middle" x="41.5" y="-539.5" font-family="Helvetica,sans-Serif" font-size="10.00">a_blake2b_s</text>
</a>
</g>
</g>
<!-- Node2&#45;&gt;Node1 -->
<g id="edge1" class="edge">
<title>Node2&#45;&gt;Node1</title>
<path fill="none" stroke="#9a32cd" stroke-dasharray="5,2" d="M90.27,-539.62C111.34,-536.1 134.74,-528.39 150,-512 181.62,-478.03 194.5,-325.5 197.36,-285.59"/>
<polygon fill="#9a32cd" stroke="#9a32cd" points="89.58,-536.18 80.16,-541.03 90.55,-543.11 89.58,-536.18"/>
<text text-anchor="middle" x="125.5" y="-539" font-family="Helvetica,sans-Serif" font-size="10.00"> blake2b</text>
</g>
<!-- Node3 -->
<g id="node3" class="node">
<title>Node3</title>
<g id="a_node3"><a xlink:href="structa__sha256__s.html" target="_top" xlink:title=" ">
<polygon fill="white" stroke="black" points="4.5,-494.5 4.5,-513.5 78.5,-513.5 78.5,-494.5 4.5,-494.5"/>
<text text-anchor="middle" x="41.5" y="-501.5" font-family="Helvetica,sans-Serif" font-size="10.00">a_sha256_s</text>
</a>
</g>
</g>
<!-- Node3&#45;&gt;Node1 -->
<g id="edge2" class="edge">
<title>Node3&#45;&gt;Node1</title>
<path fill="none" stroke="#9a32cd" stroke-dasharray="5,2" d="M88.58,-500.66C109.97,-496.78 134.12,-488.68 150,-472 176.33,-444.34 192.62,-321.66 196.88,-285.85"/>
<polygon fill="#9a32cd" stroke="#9a32cd" points="88.01,-497.21 78.67,-502.21 89.09,-504.13 88.01,-497.21"/>
<text text-anchor="middle" x="125.5" y="-500" font-family="Helvetica,sans-Serif" font-size="10.00"> sha256</text>
</g>
<!-- Node4 -->
<g id="node4" class="node">
<title>Node4</title>
<g id="a_node4"><a xlink:href="structa__tiger__s.html" target="_top" xlink:title=" ">
<polygon fill="white" stroke="black" points="11,-456.5 11,-475.5 72,-475.5 72,-456.5 11,-456.5"/>
<text text-anchor="middle" x="41.5" y="-463.5" font-family="Helvetica,sans-Serif" font-size="10.00">a_tiger_s</text>
</a>
</g>
</g>
<!-- Node4&#45;&gt;Node1 -->
<g id="edge3" class="edge">
<title>Node4&#45;&gt;Node1</title>
<path fill="none" stroke="#9a32cd" stroke-dasharray="5,2" d="M82.38,-462.45C104.97,-458.45 132.19,-449.95 150,-432 191.71,-389.96 197.31,-312.59 197.96,-285.59"/>
<polygon fill="#9a32cd" stroke="#9a32cd" points="81.72,-459.01 72.37,-464 82.79,-465.93 81.72,-459.01"/>
<text text-anchor="middle" x="125.5" y="-460" font-family="Helvetica,sans-Serif" font-size="10.00"> tiger</text>
</g>
<!-- Node5 -->
<g id="node5" class="node">
<title>Node5</title>
<g id="a_node5"><a xlink:href="structa__rmd320__s.html" target="_top" xlink:title=" ">
<polygon fill="white" stroke="black" points="3.5,-418.5 3.5,-437.5 79.5,-437.5 79.5,-418.5 3.5,-418.5"/>
<text text-anchor="middle" x="41.5" y="-425.5" font-family="Helvetica,sans-Serif" font-size="10.00">a_rmd320_s</text>
</a>
</g>
</g>
<!-- Node5&#45;&gt;Node1 -->
<g id="edge4" class="edge">
<title>Node5&#45;&gt;Node1</title>
<path fill="none" stroke="#9a32cd" stroke-dasharray="5,2" d="M89.49,-420.79C110.18,-415.53 133.48,-406.49 150,-391 181.72,-361.25 193.22,-307.32 196.7,-285.52"/>
<polygon fill="#9a32cd" stroke="#9a32cd" points="88.54,-417.41 79.59,-423.08 90.12,-424.23 88.54,-417.41"/>
<text text-anchor="middle" x="125.5" y="-420" font-family="Helvetica,sans-Serif" font-size="10.00"> rmd320</text>
</g>
<!-- Node6 -->
<g id="node6" class="node">
<title>Node6</title>
<g id="a_node6"><a xlink:href="structa__rmd256__s.html" target="_top" xlink:title=" ">
<polygon fill="white" stroke="black" points="3.5,-380.5 3.5,-399.5 79.5,-399.5 79.5,-380.5 3.5,-380.5"/>
<text text-anchor="middle" x="41.5" y="-387.5" font-family="Helvetica,sans-Serif" font-size="10.00">a_rmd256_s</text>
</a>
</g>
</g>
<!-- Node6&#45;&gt;Node1 -->
<g id="edge5" class="edge">
<title>Node6&#45;&gt;Node1</title>
<path fill="none" stroke="#9a32cd" stroke-dasharray="5,2" d="M89.29,-380.74C109.52,-374.99 132.52,-365.95 150,-352 172.81,-333.8 187.91,-301.63 194.39,-285.62"/>
<polygon fill="#9a32cd" stroke="#9a32cd" points="88.38,-377.36 79.61,-383.3 90.17,-384.12 88.38,-377.36"/>
<text text-anchor="middle" x="125.5" y="-379" font-family="Helvetica,sans-Serif" font-size="10.00"> rmd256</text>
</g>
<!-- Node7 -->
<g id="node7" class="node">
<title>Node7</title>
<g id="a_node7"><a xlink:href="structa__blake2s__s.html" target="_top" xlink:title=" ">
<polygon fill="white" stroke="black" points="3.5,-342.5 3.5,-361.5 79.5,-361.5 79.5,-342.5 3.5,-342.5"/>
<text text-anchor="middle" x="41.5" y="-349.5" font-family="Helvetica,sans-Serif" font-size="10.00">a_blake2s_s</text>
</a>
</g>
</g>
<!-- Node7&#45;&gt;Node1 -->
<g id="edge6" class="edge">
<title>Node7&#45;&gt;Node1</title>
<path fill="none" stroke="#9a32cd" stroke-dasharray="5,2" d="M89.67,-340.98C109.08,-335.36 131.34,-327.46 150,-317 165.11,-308.53 179.85,-294.9 188.92,-285.7"/>
<polygon fill="#9a32cd" stroke="#9a32cd" points="88.51,-337.67 79.81,-343.71 90.38,-344.41 88.51,-337.67"/>
<text text-anchor="middle" x="125.5" y="-340" font-family="Helvetica,sans-Serif" font-size="10.00"> blake2s</text>
</g>
<!-- Node8 -->
<g id="node8" class="node">
<title>Node8</title>
<g id="a_node8"><a xlink:href="structa__sha3__s.html" target="_top" xlink:title=" ">
<polygon fill="white" stroke="black" points="10.5,-304.5 10.5,-323.5 72.5,-323.5 72.5,-304.5 10.5,-304.5"/>
<text text-anchor="middle" x="41.5" y="-311.5" font-family="Helvetica,sans-Serif" font-size="10.00">a_sha3_s</text>
</a>
</g>
</g>
<!-- Node8&#45;&gt;Node1 -->
<g id="edge7" class="edge">
<title>Node8&#45;&gt;Node1</title>
<path fill="none" stroke="#9a32cd" stroke-dasharray="5,2" d="M82.65,-306.32C102.94,-302.21 127.89,-296.81 150,-291 156.16,-289.38 162.72,-287.47 168.93,-285.55"/>
<polygon fill="#9a32cd" stroke="#9a32cd" points="81.92,-302.9 72.79,-308.29 83.29,-309.77 81.92,-302.9"/>
<text text-anchor="middle" x="125.5" y="-305" font-family="Helvetica,sans-Serif" font-size="10.00"> sha3</text>
</g>
<!-- Node9 -->
<g id="node9" class="node">
<title>Node9</title>
<g id="a_node9"><a xlink:href="structa__md2__s.html" target="_top" xlink:title=" ">
<polygon fill="white" stroke="black" points="11.5,-266.5 11.5,-285.5 71.5,-285.5 71.5,-266.5 11.5,-266.5"/>
<text text-anchor="middle" x="41.5" y="-273.5" font-family="Helvetica,sans-Serif" font-size="10.00">a_md2_s</text>
</a>
</g>
</g>
<!-- Node9&#45;&gt;Node1 -->
<g id="edge8" class="edge">
<title>Node9&#45;&gt;Node1</title>
<path fill="none" stroke="#9a32cd" stroke-dasharray="5,2" d="M81.91,-276C108.6,-276 143.33,-276 167.82,-276"/>
<polygon fill="#9a32cd" stroke="#9a32cd" points="81.75,-272.5 71.75,-276 81.75,-279.5 81.75,-272.5"/>
<text text-anchor="middle" x="125.5" y="-279" font-family="Helvetica,sans-Serif" font-size="10.00"> md2</text>
</g>
<!-- Node10 -->
<g id="node10" class="node">
<title>Node10</title>
<g id="a_node10"><a xlink:href="structa__sha1__s.html" target="_top" xlink:title=" ">
<polygon fill="white" stroke="black" points="10.5,-228.5 10.5,-247.5 72.5,-247.5 72.5,-228.5 10.5,-228.5"/>
<text text-anchor="middle" x="41.5" y="-235.5" font-family="Helvetica,sans-Serif" font-size="10.00">a_sha1_s</text>
</a>
</g>
</g>
<!-- Node10&#45;&gt;Node1 -->
<g id="edge9" class="edge">
<title>Node10&#45;&gt;Node1</title>
<path fill="none" stroke="#9a32cd" stroke-dasharray="5,2" d="M82.65,-245.68C102.94,-249.79 127.89,-255.19 150,-261 156.16,-262.62 162.72,-264.53 168.93,-266.45"/>
<polygon fill="#9a32cd" stroke="#9a32cd" points="83.29,-242.23 72.79,-243.71 81.92,-249.1 83.29,-242.23"/>
<text text-anchor="middle" x="125.5" y="-264" font-family="Helvetica,sans-Serif" font-size="10.00"> sha1</text>
</g>
<!-- Node11 -->
<g id="node11" class="node">
<title>Node11</title>
<g id="a_node11"><a xlink:href="structa__rmd160__s.html" target="_top" xlink:title=" ">
<polygon fill="white" stroke="black" points="3.5,-190.5 3.5,-209.5 79.5,-209.5 79.5,-190.5 3.5,-190.5"/>
<text text-anchor="middle" x="41.5" y="-197.5" font-family="Helvetica,sans-Serif" font-size="10.00">a_rmd160_s</text>
</a>
</g>
</g>
<!-- Node11&#45;&gt;Node1 -->
<g id="edge10" class="edge">
<title>Node11&#45;&gt;Node1</title>
<path fill="none" stroke="#9a32cd" stroke-dasharray="5,2" d="M89.74,-210.41C109.16,-215.82 131.41,-223.54 150,-234 165.44,-242.69 180.33,-256.92 189.33,-266.38"/>
<polygon fill="#9a32cd" stroke="#9a32cd" points="90.44,-206.97 79.87,-207.78 88.64,-213.74 90.44,-206.97"/>
<text text-anchor="middle" x="125.5" y="-237" font-family="Helvetica,sans-Serif" font-size="10.00"> rmd160</text>
</g>
<!-- Node12 -->
<g id="node12" class="node">
<title>Node12</title>
<g id="a_node12"><a xlink:href="structa__md4__s.html" target="_top" xlink:title=" ">
<polygon fill="white" stroke="black" points="11.5,-152.5 11.5,-171.5 71.5,-171.5 71.5,-152.5 11.5,-152.5"/>
<text text-anchor="middle" x="41.5" y="-159.5" font-family="Helvetica,sans-Serif" font-size="10.00">a_md4_s</text>
</a>
</g>
</g>
<!-- Node12&#45;&gt;Node1 -->
<g id="edge11" class="edge">
<title>Node12&#45;&gt;Node1</title>
<path fill="none" stroke="#9a32cd" stroke-dasharray="5,2" d="M81.57,-168.28C103.49,-173.37 130.31,-182.36 150,-198 173.41,-216.59 188.32,-249.94 194.59,-266.35"/>
<polygon fill="#9a32cd" stroke="#9a32cd" points="82.09,-164.81 71.58,-166.14 80.62,-171.65 82.09,-164.81"/>
<text text-anchor="middle" x="125.5" y="-201" font-family="Helvetica,sans-Serif" font-size="10.00"> md4</text>
</g>
<!-- Node13 -->
<g id="node13" class="node">
<title>Node13</title>
<g id="a_node13"><a xlink:href="structa__sha512__s.html" target="_top" xlink:title=" ">
<polygon fill="white" stroke="black" points="4.5,-114.5 4.5,-133.5 78.5,-133.5 78.5,-114.5 4.5,-114.5"/>
<text text-anchor="middle" x="41.5" y="-121.5" font-family="Helvetica,sans-Serif" font-size="10.00">a_sha512_s</text>
</a>
</g>
</g>
<!-- Node13&#45;&gt;Node1 -->
<g id="edge12" class="edge">
<title>Node13&#45;&gt;Node1</title>
<path fill="none" stroke="#9a32cd" stroke-dasharray="5,2" d="M88.57,-130C109.49,-134.81 133.25,-143.45 150,-159 182.35,-189.02 193.49,-244.03 196.78,-266.28"/>
<polygon fill="#9a32cd" stroke="#9a32cd" points="89.08,-126.53 78.57,-127.94 87.66,-133.39 89.08,-126.53"/>
<text text-anchor="middle" x="125.5" y="-162" font-family="Helvetica,sans-Serif" font-size="10.00"> sha512</text>
</g>
<!-- Node14 -->
<g id="node14" class="node">
<title>Node14</title>
<g id="a_node14"><a xlink:href="structa__md5__s.html" target="_top" xlink:title=" ">
<polygon fill="white" stroke="black" points="11.5,-76.5 11.5,-95.5 71.5,-95.5 71.5,-76.5 11.5,-76.5"/>
<text text-anchor="middle" x="41.5" y="-83.5" font-family="Helvetica,sans-Serif" font-size="10.00">a_md5_s</text>
</a>
</g>
</g>
<!-- Node14&#45;&gt;Node1 -->
<g id="edge13" class="edge">
<title>Node14&#45;&gt;Node1</title>
<path fill="none" stroke="#9a32cd" stroke-dasharray="5,2" d="M81.9,-88.65C104.58,-92.17 132.04,-100.14 150,-118 192.49,-160.25 197.59,-238.82 198.04,-266.25"/>
<polygon fill="#9a32cd" stroke="#9a32cd" points="82.25,-85.16 71.88,-87.32 81.33,-92.1 82.25,-85.16"/>
<text text-anchor="middle" x="125.5" y="-121" font-family="Helvetica,sans-Serif" font-size="10.00"> md5</text>
</g>
<!-- Node15 -->
<g id="node15" class="node">
<title>Node15</title>
<g id="a_node15"><a xlink:href="structa__rmd128__s.html" target="_top" xlink:title=" ">
<polygon fill="white" stroke="black" points="3.5,-38.5 3.5,-57.5 79.5,-57.5 79.5,-38.5 3.5,-38.5"/>
<text text-anchor="middle" x="41.5" y="-45.5" font-family="Helvetica,sans-Serif" font-size="10.00">a_rmd128_s</text>
</a>
</g>
</g>
<!-- Node15&#45;&gt;Node1 -->
<g id="edge14" class="edge">
<title>Node15&#45;&gt;Node1</title>
<path fill="none" stroke="#9a32cd" stroke-dasharray="5,2" d="M89.74,-50.12C110.81,-53.47 134.36,-60.93 150,-77 177.15,-104.88 192.97,-230.69 196.98,-266.48"/>
<polygon fill="#9a32cd" stroke="#9a32cd" points="90.02,-46.62 79.64,-48.78 89.1,-53.56 90.02,-46.62"/>
<text text-anchor="middle" x="125.5" y="-80" font-family="Helvetica,sans-Serif" font-size="10.00"> rmd128</text>
</g>
<!-- Node16 -->
<g id="node16" class="node">
<title>Node16</title>
<g id="a_node16"><a xlink:href="structa__whirlpool__s.html" target="_top" xlink:title=" ">
<polygon fill="white" stroke="black" points="0,-0.5 0,-19.5 83,-19.5 83,-0.5 0,-0.5"/>
<text text-anchor="middle" x="41.5" y="-7.5" font-family="Helvetica,sans-Serif" font-size="10.00">a_whirlpool_s</text>
</a>
</g>
</g>
<!-- Node16&#45;&gt;Node1 -->
<g id="edge15" class="edge">
<title>Node16&#45;&gt;Node1</title>
<path fill="none" stroke="#9a32cd" stroke-dasharray="5,2" d="M93.3,-11.38C113.52,-14.55 135.4,-21.69 150,-37 182.41,-71 194.71,-225.76 197.4,-266.27"/>
<polygon fill="#9a32cd" stroke="#9a32cd" points="93.6,-7.89 83.24,-10.1 92.72,-14.84 93.6,-7.89"/>
<text text-anchor="middle" x="125.5" y="-40" font-family="Helvetica,sans-Serif" font-size="10.00"> whirlpool</text>
</g>
</g>
</svg>
        <g id="navigator" transform="translate(0 0)" fill="#404254">
                <rect fill="#f2f5e9" fill-opacity="0.5" stroke="#606060" stroke-width=".5" x="0" y="0" width="60" height="60"/>
                <use id="zoomplus" xlink:href="#zoomPlus" x="17" y="9" onmousedown="handleZoom(evt,'in')"/>
                <use id="zoomminus" xlink:href="#zoomMin" x="42" y="9" onmousedown="handleZoom(evt,'out')"/>
                <use id="reset" xlink:href="#resetDef" x="30" y="36" onmousedown="handleReset()"/>
                <g id="arrowUp" xlink:href="#dirArrow" transform="translate(30 24)" onmousedown="handlePan(0,-1)">
                  <use xlink:href="#rim" fill="#404040">
                        <set attributeName="fill" to="#808080" begin="arrowUp.mouseover" end="arrowUp.mouseout"/>
                  </use>
                  <path fill="none" stroke="white" stroke-width="1.5" d="M0,-3.0v7 M-2.5,-0.5L0,-3.0L2.5,-0.5"/>
                </g>
                <g id="arrowRight" xlink:href="#dirArrow" transform="rotate(90) translate(36 -43)" onmousedown="handlePan(1,0)">
                  <use xlink:href="#rim" fill="#404040">
                        <set attributeName="fill" to="#808080" begin="arrowRight.mouseover" end="arrowRight.mouseout"/>
                  </use>
                  <path fill="none" stroke="white" stroke-width="1.5" d="M0,-3.0v7 M-2.5,-0.5L0,-3.0L2.5,-0.5"/>
                </g>
                <g id="arrowDown" xlink:href="#dirArrow" transform="rotate(180) translate(-30 -48)" onmousedown="handlePan(0,1)">
                  <use xlink:href="#rim" fill="#404040">
                        <set attributeName="fill" to="#808080" begin="arrowDown.mouseover" end="arrowDown.mouseout"/>
                  </use>
                  <path fill="none" stroke="white" stroke-width="1.5" d="M0,-3.0v7 M-2.5,-0.5L0,-3.0L2.5,-0.5"/>
                </g>
                <g id="arrowLeft" xlink:href="#dirArrow" transform="rotate(270) translate(-36 17)" onmousedown="handlePan(-1,0)">
                  <use xlink:href="#rim" fill="#404040">
                        <set attributeName="fill" to="#808080" begin="arrowLeft.mouseover" end="arrowLeft.mouseout"/>
                  </use>
                  <path fill="none" stroke="white" stroke-width="1.5" d="M0,-3.0v7 M-2.5,-0.5L0,-3.0L2.5,-0.5"/>
                </g>
        </g>
        <svg viewBox="0 0 15 15" width="100%" height="30px" preserveAspectRatio="xMaxYMin meet">
         <g id="arrow_out" transform="scale(0.3 0.3)">
          <a xlink:href="uniona__hash__u__coll__graph_org.svg" target="_base">
           <rect id="button" ry="5" rx="5" y="6" x="6" height="38" width="38"
                fill="#f2f5e9" fill-opacity="0.5" stroke="#606060" stroke-width="1.0"/>
           <path id="arrow"
             d="M 11.500037,31.436501 C 11.940474,20.09759 22.043105,11.32322 32.158766,21.979434 L 37.068811,17.246167 C 37.068811,17.246167 37.088388,32 37.088388,32 L 22.160133,31.978069 C 22.160133,31.978069 26.997745,27.140456 26.997745,27.140456 C 18.528582,18.264221 13.291696,25.230495 11.500037,31.436501 z"
             style="fill:#404040;"/>
          </a>
         </g>
        </svg>
</svg>
