<?xml version="1.0" encoding="UTF-8" standalone="no"?>
<!DOCTYPE svg PUBLIC "-//W3C//DTD SVG 1.1//EN"
 "http://www.w3.org/Graphics/SVG/1.1/DTD/svg11.dtd">
<!-- Generated by graphviz version 2.43.0 (0)
 -->
<!-- Title: src/cksum/whirl.c Pages: 1 -->
<svg width="1326pt" height="252pt"
 viewBox="0.00 0.00 1325.50 252.00" xmlns="http://www.w3.org/2000/svg" xmlns:xlink="http://www.w3.org/1999/xlink">
<g id="graph0" class="graph" transform="scale(1 1) rotate(0) translate(4 248)">
<title>src/cksum/whirl.c</title>
<polygon fill="white" stroke="transparent" points="-4,4 -4,-248 1321.5,-248 1321.5,4 -4,4"/>
<!-- Node1 -->
<g id="node1" class="node">
<title>Node1</title>
<g id="a_node1"><a xlink:title="whirlpool implementation">
<polygon fill="#bfbfbf" stroke="black" points="528.5,-224.5 528.5,-243.5 629.5,-243.5 629.5,-224.5 528.5,-224.5"/>
<text text-anchor="middle" x="579" y="-231.5" font-family="Helvetica,sans-Serif" font-size="10.00">src/cksum/whirl.c</text>
</a>
</g>
</g>
<!-- Node2 -->
<g id="node2" class="node">
<title>Node2</title>
<g id="a_node2"><a xlink:href="whirl_8h.html" target="_top" xlink:title="whirlpool implementation">
<polygon fill="white" stroke="black" points="0,-112.5 0,-131.5 94,-131.5 94,-112.5 0,-112.5"/>
<text text-anchor="middle" x="47" y="-119.5" font-family="Helvetica,sans-Serif" font-size="10.00">a/cksum/whirl.h</text>
</a>
</g>
</g>
<!-- Node1&#45;&gt;Node2 -->
<g id="edge1" class="edge">
<title>Node1&#45;&gt;Node2</title>
<path fill="none" stroke="midnightblue" d="M537.7,-224.46C441.66,-204.6 203.51,-155.36 98.33,-133.61"/>
<polygon fill="midnightblue" stroke="midnightblue" points="98.78,-130.13 88.28,-131.53 97.36,-136.99 98.78,-130.13"/>
</g>
<!-- Node6 -->
<g id="node6" class="node">
<title>Node6</title>
<g id="a_node6"><a xlink:href="hash_8h.html" target="_top" xlink:title="hash library">
<polygon fill="white" stroke="black" points="532.5,-168.5 532.5,-187.5 625.5,-187.5 625.5,-168.5 532.5,-168.5"/>
<text text-anchor="middle" x="579" y="-175.5" font-family="Helvetica,sans-Serif" font-size="10.00">a/cksum/hash.h</text>
</a>
</g>
</g>
<!-- Node1&#45;&gt;Node6 -->
<g id="edge5" class="edge">
<title>Node1&#45;&gt;Node6</title>
<path fill="none" stroke="midnightblue" d="M579,-224.08C579,-217.01 579,-206.86 579,-197.99"/>
<polygon fill="midnightblue" stroke="midnightblue" points="582.5,-197.75 579,-187.75 575.5,-197.75 582.5,-197.75"/>
</g>
<!-- Node21 -->
<g id="node21" class="node">
<title>Node21</title>
<g id="a_node21"><a xlink:href="hash_____8h.html" target="_top" xlink:title="private macros for hash library">
<polygon fill="white" stroke="black" points="1188.5,-168.5 1188.5,-187.5 1247.5,-187.5 1247.5,-168.5 1188.5,-168.5"/>
<text text-anchor="middle" x="1218" y="-175.5" font-family="Helvetica,sans-Serif" font-size="10.00">hash__.h</text>
</a>
</g>
</g>
<!-- Node1&#45;&gt;Node21 -->
<g id="edge36" class="edge">
<title>Node1&#45;&gt;Node21</title>
<path fill="none" stroke="midnightblue" d="M629.68,-228.72C753.07,-218.29 1067.14,-191.75 1178.28,-182.36"/>
<polygon fill="midnightblue" stroke="midnightblue" points="1178.72,-185.83 1188.39,-181.5 1178.13,-178.86 1178.72,-185.83"/>
</g>
<!-- Node3 -->
<g id="node3" class="node">
<title>Node3</title>
<g id="a_node3"><a xlink:href="def_8h.html" target="_top" xlink:title="algorithm library definition">
<polygon fill="white" stroke="black" points="554,-56.5 554,-75.5 604,-75.5 604,-56.5 554,-56.5"/>
<text text-anchor="middle" x="579" y="-63.5" font-family="Helvetica,sans-Serif" font-size="10.00">../def.h</text>
</a>
</g>
</g>
<!-- Node2&#45;&gt;Node3 -->
<g id="edge2" class="edge">
<title>Node2&#45;&gt;Node3</title>
<path fill="none" stroke="midnightblue" d="M94.26,-113.78C98.9,-113.15 103.54,-112.54 108,-112 270.38,-92.28 465.13,-76.01 543.64,-69.76"/>
<polygon fill="midnightblue" stroke="midnightblue" points="544.24,-73.22 553.93,-68.94 543.69,-66.24 544.24,-73.22"/>
</g>
<!-- Node4 -->
<g id="node4" class="node">
<title>Node4</title>
<g id="a_node4"><a xlink:title=" ">
<polygon fill="white" stroke="#bfbfbf" points="515,-0.5 515,-19.5 571,-19.5 571,-0.5 515,-0.5"/>
<text text-anchor="middle" x="543" y="-7.5" font-family="Helvetica,sans-Serif" font-size="10.00">stddef.h</text>
</a>
</g>
</g>
<!-- Node3&#45;&gt;Node4 -->
<g id="edge3" class="edge">
<title>Node3&#45;&gt;Node4</title>
<path fill="none" stroke="midnightblue" d="M573.06,-56.08C568.02,-48.53 560.66,-37.49 554.49,-28.23"/>
<polygon fill="midnightblue" stroke="midnightblue" points="557.29,-26.13 548.83,-19.75 551.47,-30.01 557.29,-26.13"/>
</g>
<!-- Node5 -->
<g id="node5" class="node">
<title>Node5</title>
<g id="a_node5"><a xlink:title=" ">
<polygon fill="white" stroke="#bfbfbf" points="589.5,-0.5 589.5,-19.5 642.5,-19.5 642.5,-0.5 589.5,-0.5"/>
<text text-anchor="middle" x="616" y="-7.5" font-family="Helvetica,sans-Serif" font-size="10.00">stdint.h</text>
</a>
</g>
</g>
<!-- Node3&#45;&gt;Node5 -->
<g id="edge4" class="edge">
<title>Node3&#45;&gt;Node5</title>
<path fill="none" stroke="midnightblue" d="M585.11,-56.08C590.28,-48.53 597.85,-37.49 604.19,-28.23"/>
<polygon fill="midnightblue" stroke="midnightblue" points="607.24,-29.98 610,-19.75 601.46,-26.02 607.24,-29.98"/>
</g>
<!-- Node6&#45;&gt;Node2 -->
<g id="edge31" class="edge">
<title>Node6&#45;&gt;Node2</title>
<path fill="none" stroke="midnightblue" d="M532.45,-173.35C447.82,-166.53 263.14,-150.84 108,-132 106.74,-131.85 105.48,-131.69 104.2,-131.53"/>
<polygon fill="midnightblue" stroke="midnightblue" points="104.63,-128.05 94.26,-130.22 103.71,-134.99 104.63,-128.05"/>
</g>
<!-- Node6&#45;&gt;Node3 -->
<g id="edge6" class="edge">
<title>Node6&#45;&gt;Node3</title>
<path fill="none" stroke="midnightblue" d="M532.21,-175.66C424.62,-172.11 166.86,-160.66 141,-132 135.04,-125.4 135.04,-118.6 141,-112 167.84,-82.26 444.37,-71.05 543.71,-67.97"/>
<polygon fill="midnightblue" stroke="midnightblue" points="543.95,-71.46 553.84,-67.66 543.74,-64.47 543.95,-71.46"/>
</g>
<!-- Node7 -->
<g id="node7" class="node">
<title>Node7</title>
<g id="a_node7"><a xlink:href="md2_8h.html" target="_top" xlink:title="RFC 1319 compliant MD2 implementation.">
<polygon fill="white" stroke="black" points="150.5,-112.5 150.5,-131.5 197.5,-131.5 197.5,-112.5 150.5,-112.5"/>
<text text-anchor="middle" x="174" y="-119.5" font-family="Helvetica,sans-Serif" font-size="10.00">md2.h</text>
</a>
</g>
</g>
<!-- Node6&#45;&gt;Node7 -->
<g id="edge7" class="edge">
<title>Node6&#45;&gt;Node7</title>
<path fill="none" stroke="midnightblue" d="M532.41,-173.7C463.32,-168.3 329.55,-155.89 207.55,-132.06"/>
<polygon fill="midnightblue" stroke="midnightblue" points="208.16,-128.61 197.67,-130.1 206.79,-135.48 208.16,-128.61"/>
</g>
<!-- Node8 -->
<g id="node8" class="node">
<title>Node8</title>
<g id="a_node8"><a xlink:href="md4_8h.html" target="_top" xlink:title="RFC 1320 compliant MD4 implementation.">
<polygon fill="white" stroke="black" points="215.5,-112.5 215.5,-131.5 262.5,-131.5 262.5,-112.5 215.5,-112.5"/>
<text text-anchor="middle" x="239" y="-119.5" font-family="Helvetica,sans-Serif" font-size="10.00">md4.h</text>
</a>
</g>
</g>
<!-- Node6&#45;&gt;Node8 -->
<g id="edge9" class="edge">
<title>Node6&#45;&gt;Node8</title>
<path fill="none" stroke="midnightblue" d="M532.49,-172.1C473.91,-165.51 370.03,-152.44 272.68,-132.14"/>
<polygon fill="midnightblue" stroke="midnightblue" points="273.19,-128.67 262.68,-130.03 271.74,-135.52 273.19,-128.67"/>
</g>
<!-- Node9 -->
<g id="node9" class="node">
<title>Node9</title>
<g id="a_node9"><a xlink:href="md5_8h.html" target="_top" xlink:title="RFC 1321 compliant MD5 implementation.">
<polygon fill="white" stroke="black" points="280.5,-112.5 280.5,-131.5 327.5,-131.5 327.5,-112.5 280.5,-112.5"/>
<text text-anchor="middle" x="304" y="-119.5" font-family="Helvetica,sans-Serif" font-size="10.00">md5.h</text>
</a>
</g>
</g>
<!-- Node6&#45;&gt;Node9 -->
<g id="edge11" class="edge">
<title>Node6&#45;&gt;Node9</title>
<path fill="none" stroke="midnightblue" d="M532.15,-169.63C485.14,-161.93 410.46,-148.93 337.52,-132.2"/>
<polygon fill="midnightblue" stroke="midnightblue" points="338.24,-128.78 327.7,-129.93 336.65,-135.6 338.24,-128.78"/>
</g>
<!-- Node10 -->
<g id="node10" class="node">
<title>Node10</title>
<g id="a_node10"><a xlink:href="rmd128_8h.html" target="_top" xlink:title="ripemd implementation">
<polygon fill="white" stroke="black" points="345.5,-112.5 345.5,-131.5 408.5,-131.5 408.5,-112.5 345.5,-112.5"/>
<text text-anchor="middle" x="377" y="-119.5" font-family="Helvetica,sans-Serif" font-size="10.00">rmd128.h</text>
</a>
</g>
</g>
<!-- Node6&#45;&gt;Node10 -->
<g id="edge13" class="edge">
<title>Node6&#45;&gt;Node10</title>
<path fill="none" stroke="midnightblue" d="M546.99,-168.44C512.17,-159.13 456.39,-144.22 418.29,-134.04"/>
<polygon fill="midnightblue" stroke="midnightblue" points="419.09,-130.63 408.53,-131.43 417.28,-137.39 419.09,-130.63"/>
</g>
<!-- Node11 -->
<g id="node11" class="node">
<title>Node11</title>
<g id="a_node11"><a xlink:href="rmd160_8h.html" target="_top" xlink:title="ripemd implementation">
<polygon fill="white" stroke="black" points="426.5,-112.5 426.5,-131.5 489.5,-131.5 489.5,-112.5 426.5,-112.5"/>
<text text-anchor="middle" x="458" y="-119.5" font-family="Helvetica,sans-Serif" font-size="10.00">rmd160.h</text>
</a>
</g>
</g>
<!-- Node6&#45;&gt;Node11 -->
<g id="edge15" class="edge">
<title>Node6&#45;&gt;Node11</title>
<path fill="none" stroke="midnightblue" d="M559.83,-168.44C540.09,-159.64 509.11,-145.81 486.51,-135.72"/>
<polygon fill="midnightblue" stroke="midnightblue" points="487.64,-132.4 477.08,-131.52 484.79,-138.79 487.64,-132.4"/>
</g>
<!-- Node12 -->
<g id="node12" class="node">
<title>Node12</title>
<g id="a_node12"><a xlink:href="rmd256_8h.html" target="_top" xlink:title="ripemd implementation">
<polygon fill="white" stroke="black" points="507.5,-112.5 507.5,-131.5 570.5,-131.5 570.5,-112.5 507.5,-112.5"/>
<text text-anchor="middle" x="539" y="-119.5" font-family="Helvetica,sans-Serif" font-size="10.00">rmd256.h</text>
</a>
</g>
</g>
<!-- Node6&#45;&gt;Node12 -->
<g id="edge17" class="edge">
<title>Node6&#45;&gt;Node12</title>
<path fill="none" stroke="midnightblue" d="M572.39,-168.08C566.74,-160.46 558.46,-149.26 551.55,-139.94"/>
<polygon fill="midnightblue" stroke="midnightblue" points="554.25,-137.7 545.48,-131.75 548.62,-141.87 554.25,-137.7"/>
</g>
<!-- Node13 -->
<g id="node13" class="node">
<title>Node13</title>
<g id="a_node13"><a xlink:href="rmd320_8h.html" target="_top" xlink:title="ripemd implementation">
<polygon fill="white" stroke="black" points="588.5,-112.5 588.5,-131.5 651.5,-131.5 651.5,-112.5 588.5,-112.5"/>
<text text-anchor="middle" x="620" y="-119.5" font-family="Helvetica,sans-Serif" font-size="10.00">rmd320.h</text>
</a>
</g>
</g>
<!-- Node6&#45;&gt;Node13 -->
<g id="edge19" class="edge">
<title>Node6&#45;&gt;Node13</title>
<path fill="none" stroke="midnightblue" d="M585.77,-168.08C591.56,-160.46 600.06,-149.26 607.14,-139.94"/>
<polygon fill="midnightblue" stroke="midnightblue" points="610.1,-141.83 613.36,-131.75 604.52,-137.6 610.1,-141.83"/>
</g>
<!-- Node14 -->
<g id="node14" class="node">
<title>Node14</title>
<g id="a_node14"><a xlink:href="sha1_8h.html" target="_top" xlink:title="RFC 3174 compliant SHA1 implementation.">
<polygon fill="white" stroke="black" points="669.5,-112.5 669.5,-131.5 718.5,-131.5 718.5,-112.5 669.5,-112.5"/>
<text text-anchor="middle" x="694" y="-119.5" font-family="Helvetica,sans-Serif" font-size="10.00">sha1.h</text>
</a>
</g>
</g>
<!-- Node6&#45;&gt;Node14 -->
<g id="edge21" class="edge">
<title>Node6&#45;&gt;Node14</title>
<path fill="none" stroke="midnightblue" d="M597.22,-168.44C615.9,-159.68 645.16,-145.94 666.62,-135.86"/>
<polygon fill="midnightblue" stroke="midnightblue" points="668.3,-138.93 675.86,-131.52 665.32,-132.6 668.3,-138.93"/>
</g>
<!-- Node15 -->
<g id="node15" class="node">
<title>Node15</title>
<g id="a_node15"><a xlink:href="sha256_8h.html" target="_top" xlink:title="RFC 5754 compliant SHA2 implementation.">
<polygon fill="white" stroke="black" points="736.5,-112.5 736.5,-131.5 797.5,-131.5 797.5,-112.5 736.5,-112.5"/>
<text text-anchor="middle" x="767" y="-119.5" font-family="Helvetica,sans-Serif" font-size="10.00">sha256.h</text>
</a>
</g>
</g>
<!-- Node6&#45;&gt;Node15 -->
<g id="edge23" class="edge">
<title>Node6&#45;&gt;Node15</title>
<path fill="none" stroke="midnightblue" d="M608.79,-168.44C640.83,-159.24 691.93,-144.56 727.35,-134.39"/>
<polygon fill="midnightblue" stroke="midnightblue" points="728.71,-137.64 737.35,-131.52 726.77,-130.91 728.71,-137.64"/>
</g>
<!-- Node16 -->
<g id="node16" class="node">
<title>Node16</title>
<g id="a_node16"><a xlink:href="sha512_8h.html" target="_top" xlink:title="RFC 5754 compliant SHA2 implementation.">
<polygon fill="white" stroke="black" points="815.5,-112.5 815.5,-131.5 876.5,-131.5 876.5,-112.5 815.5,-112.5"/>
<text text-anchor="middle" x="846" y="-119.5" font-family="Helvetica,sans-Serif" font-size="10.00">sha512.h</text>
</a>
</g>
</g>
<!-- Node6&#45;&gt;Node16 -->
<g id="edge25" class="edge">
<title>Node6&#45;&gt;Node16</title>
<path fill="none" stroke="midnightblue" d="M623.86,-168.46C667.56,-160.06 736.11,-146.68 805.24,-132.12"/>
<polygon fill="midnightblue" stroke="midnightblue" points="806.38,-135.45 815.44,-129.96 804.94,-128.6 806.38,-135.45"/>
</g>
<!-- Node17 -->
<g id="node17" class="node">
<title>Node17</title>
<g id="a_node17"><a xlink:href="sha3_8h.html" target="_top" xlink:title="SHA3 implementation.">
<polygon fill="white" stroke="black" points="894.5,-112.5 894.5,-131.5 943.5,-131.5 943.5,-112.5 894.5,-112.5"/>
<text text-anchor="middle" x="919" y="-119.5" font-family="Helvetica,sans-Serif" font-size="10.00">sha3.h</text>
</a>
</g>
</g>
<!-- Node6&#45;&gt;Node17 -->
<g id="edge27" class="edge">
<title>Node6&#45;&gt;Node17</title>
<path fill="none" stroke="midnightblue" d="M625.68,-171.8C683.94,-164.93 786.76,-151.62 884.18,-131.96"/>
<polygon fill="midnightblue" stroke="midnightblue" points="885.1,-135.34 894.19,-129.91 883.7,-128.49 885.1,-135.34"/>
</g>
<!-- Node18 -->
<g id="node18" class="node">
<title>Node18</title>
<g id="a_node18"><a xlink:href="tiger_8h.html" target="_top" xlink:title="tiger implementation">
<polygon fill="white" stroke="black" points="961.5,-112.5 961.5,-131.5 1008.5,-131.5 1008.5,-112.5 961.5,-112.5"/>
<text text-anchor="middle" x="985" y="-119.5" font-family="Helvetica,sans-Serif" font-size="10.00">tiger.h</text>
</a>
</g>
</g>
<!-- Node6&#45;&gt;Node18 -->
<g id="edge29" class="edge">
<title>Node6&#45;&gt;Node18</title>
<path fill="none" stroke="midnightblue" d="M625.57,-173.58C694.63,-168.03 828.36,-155.44 951.34,-131.85"/>
<polygon fill="midnightblue" stroke="midnightblue" points="952.16,-135.26 961.3,-129.91 950.82,-128.38 952.16,-135.26"/>
</g>
<!-- Node19 -->
<g id="node19" class="node">
<title>Node19</title>
<g id="a_node19"><a xlink:href="blake2s_8h.html" target="_top" xlink:title="RFC 7693 compliant BLAKE implementation.">
<polygon fill="white" stroke="black" points="1026.5,-112.5 1026.5,-131.5 1089.5,-131.5 1089.5,-112.5 1026.5,-112.5"/>
<text text-anchor="middle" x="1058" y="-119.5" font-family="Helvetica,sans-Serif" font-size="10.00">blake2s.h</text>
</a>
</g>
</g>
<!-- Node6&#45;&gt;Node19 -->
<g id="edge32" class="edge">
<title>Node6&#45;&gt;Node19</title>
<path fill="none" stroke="midnightblue" d="M625.58,-173.96C704.05,-168.46 867.73,-155.36 1016.08,-131.96"/>
<polygon fill="midnightblue" stroke="midnightblue" points="1016.96,-135.37 1026.28,-130.34 1015.86,-128.46 1016.96,-135.37"/>
</g>
<!-- Node20 -->
<g id="node20" class="node">
<title>Node20</title>
<g id="a_node20"><a xlink:href="blake2b_8h.html" target="_top" xlink:title="RFC 7693 compliant BLAKE implementation.">
<polygon fill="white" stroke="black" points="1108,-112.5 1108,-131.5 1172,-131.5 1172,-112.5 1108,-112.5"/>
<text text-anchor="middle" x="1140" y="-119.5" font-family="Helvetica,sans-Serif" font-size="10.00">blake2b.h</text>
</a>
</g>
</g>
<!-- Node6&#45;&gt;Node20 -->
<g id="edge34" class="edge">
<title>Node6&#45;&gt;Node20</title>
<path fill="none" stroke="midnightblue" d="M625.75,-174.9C716.98,-170.38 924.93,-157.94 1098,-132 1098.1,-131.98 1098.2,-131.97 1098.3,-131.95"/>
<polygon fill="midnightblue" stroke="midnightblue" points="1098.71,-135.44 1107.97,-130.29 1097.52,-128.54 1098.71,-135.44"/>
</g>
<!-- Node7&#45;&gt;Node3 -->
<g id="edge8" class="edge">
<title>Node7&#45;&gt;Node3</title>
<path fill="none" stroke="midnightblue" d="M197.67,-113.9C200.46,-113.2 203.28,-112.54 206,-112 328.7,-87.5 476.94,-74.45 543.56,-69.45"/>
<polygon fill="midnightblue" stroke="midnightblue" points="544.19,-72.91 553.91,-68.69 543.68,-65.93 544.19,-72.91"/>
</g>
<!-- Node8&#45;&gt;Node3 -->
<g id="edge10" class="edge">
<title>Node8&#45;&gt;Node3</title>
<path fill="none" stroke="midnightblue" d="M262.68,-113.97C265.47,-113.25 268.29,-112.58 271,-112 368.78,-91.2 486.07,-76.96 543.62,-70.66"/>
<polygon fill="midnightblue" stroke="midnightblue" points="544.09,-74.14 553.65,-69.58 543.33,-67.18 544.09,-74.14"/>
</g>
<!-- Node9&#45;&gt;Node3 -->
<g id="edge12" class="edge">
<title>Node9&#45;&gt;Node3</title>
<path fill="none" stroke="midnightblue" d="M327.7,-114.07C330.49,-113.34 333.3,-112.63 336,-112 409.23,-94.96 496.08,-80.16 543.58,-72.52"/>
<polygon fill="midnightblue" stroke="midnightblue" points="544.33,-75.94 553.66,-70.91 543.23,-69.03 544.33,-75.94"/>
</g>
<!-- Node10&#45;&gt;Node3 -->
<g id="edge14" class="edge">
<title>Node10&#45;&gt;Node3</title>
<path fill="none" stroke="midnightblue" d="M408.56,-112.56C445.18,-102.77 505.39,-86.68 543.57,-76.47"/>
<polygon fill="midnightblue" stroke="midnightblue" points="544.97,-79.72 553.72,-73.76 543.16,-72.96 544.97,-79.72"/>
</g>
<!-- Node11&#45;&gt;Node3 -->
<g id="edge16" class="edge">
<title>Node11&#45;&gt;Node3</title>
<path fill="none" stroke="midnightblue" d="M477.17,-112.44C496.91,-103.64 527.89,-89.81 550.49,-79.72"/>
<polygon fill="midnightblue" stroke="midnightblue" points="552.21,-82.79 559.92,-75.52 549.36,-76.4 552.21,-82.79"/>
</g>
<!-- Node12&#45;&gt;Node3 -->
<g id="edge18" class="edge">
<title>Node12&#45;&gt;Node3</title>
<path fill="none" stroke="midnightblue" d="M545.61,-112.08C551.26,-104.46 559.54,-93.26 566.45,-83.94"/>
<polygon fill="midnightblue" stroke="midnightblue" points="569.38,-85.87 572.52,-75.75 563.75,-81.7 569.38,-85.87"/>
</g>
<!-- Node13&#45;&gt;Node3 -->
<g id="edge20" class="edge">
<title>Node13&#45;&gt;Node3</title>
<path fill="none" stroke="midnightblue" d="M613.23,-112.08C607.44,-104.46 598.94,-93.26 591.86,-83.94"/>
<polygon fill="midnightblue" stroke="midnightblue" points="594.48,-81.6 585.64,-75.75 588.9,-85.83 594.48,-81.6"/>
</g>
<!-- Node14&#45;&gt;Node3 -->
<g id="edge22" class="edge">
<title>Node14&#45;&gt;Node3</title>
<path fill="none" stroke="midnightblue" d="M675.78,-112.44C657.1,-103.68 627.84,-89.94 606.38,-79.86"/>
<polygon fill="midnightblue" stroke="midnightblue" points="607.68,-76.6 597.14,-75.52 604.7,-82.93 607.68,-76.6"/>
</g>
<!-- Node15&#45;&gt;Node3 -->
<g id="edge24" class="edge">
<title>Node15&#45;&gt;Node3</title>
<path fill="none" stroke="midnightblue" d="M737.21,-112.44C703.76,-102.83 649.52,-87.26 614.05,-77.07"/>
<polygon fill="midnightblue" stroke="midnightblue" points="614.72,-73.62 604.14,-74.22 612.78,-80.35 614.72,-73.62"/>
</g>
<!-- Node16&#45;&gt;Node3 -->
<g id="edge26" class="edge">
<title>Node16&#45;&gt;Node3</title>
<path fill="none" stroke="midnightblue" d="M815.44,-114.04C812.26,-113.34 809.06,-112.65 806,-112 738.32,-97.68 658.98,-82.26 614.29,-73.71"/>
<polygon fill="midnightblue" stroke="midnightblue" points="614.72,-70.22 604.24,-71.78 613.4,-77.1 614.72,-70.22"/>
</g>
<!-- Node17&#45;&gt;Node3 -->
<g id="edge28" class="edge">
<title>Node17&#45;&gt;Node3</title>
<path fill="none" stroke="midnightblue" d="M894.19,-114.09C891.11,-113.33 887.99,-112.61 885,-112 787.7,-92.03 671.24,-77.43 614.11,-70.86"/>
<polygon fill="midnightblue" stroke="midnightblue" points="614.49,-67.38 604.16,-69.73 613.7,-74.33 614.49,-67.38"/>
</g>
<!-- Node18&#45;&gt;Node3 -->
<g id="edge30" class="edge">
<title>Node18&#45;&gt;Node3</title>
<path fill="none" stroke="midnightblue" d="M961.3,-114.09C958.19,-113.32 955.03,-112.59 952,-112 829.21,-87.98 681.01,-74.69 614.42,-69.54"/>
<polygon fill="midnightblue" stroke="midnightblue" points="614.31,-66.02 604.08,-68.75 613.78,-73 614.31,-66.02"/>
</g>
<!-- Node19&#45;&gt;Node3 -->
<g id="edge33" class="edge">
<title>Node19&#45;&gt;Node3</title>
<path fill="none" stroke="midnightblue" d="M1026.28,-113.66C1023.16,-113.05 1020.02,-112.49 1017,-112 868.45,-88.14 689.42,-74.37 614.58,-69.28"/>
<polygon fill="midnightblue" stroke="midnightblue" points="614.53,-65.77 604.31,-68.59 614.06,-72.75 614.53,-65.77"/>
</g>
<!-- Node20&#45;&gt;Node3 -->
<g id="edge35" class="edge">
<title>Node20&#45;&gt;Node3</title>
<path fill="none" stroke="midnightblue" d="M1107.97,-113.71C1104.62,-113.07 1101.24,-112.49 1098,-112 917.23,-84.9 698.41,-72.54 614.29,-68.54"/>
<polygon fill="midnightblue" stroke="midnightblue" points="614.4,-65.04 604.25,-68.07 614.07,-72.03 614.4,-65.04"/>
</g>
<!-- Node22 -->
<g id="node22" class="node">
<title>Node22</title>
<g id="a_node22"><a xlink:title=" ">
<polygon fill="white" stroke="#bfbfbf" points="1190,-112.5 1190,-131.5 1246,-131.5 1246,-112.5 1190,-112.5"/>
<text text-anchor="middle" x="1218" y="-119.5" font-family="Helvetica,sans-Serif" font-size="10.00">assert.h</text>
</a>
</g>
</g>
<!-- Node21&#45;&gt;Node22 -->
<g id="edge37" class="edge">
<title>Node21&#45;&gt;Node22</title>
<path fill="none" stroke="midnightblue" d="M1218,-168.08C1218,-161.01 1218,-150.86 1218,-141.99"/>
<polygon fill="midnightblue" stroke="midnightblue" points="1221.5,-141.75 1218,-131.75 1214.5,-141.75 1221.5,-141.75"/>
</g>
<!-- Node23 -->
<g id="node23" class="node">
<title>Node23</title>
<g id="a_node23"><a xlink:title=" ">
<polygon fill="white" stroke="#bfbfbf" points="1264.5,-112.5 1264.5,-131.5 1317.5,-131.5 1317.5,-112.5 1264.5,-112.5"/>
<text text-anchor="middle" x="1291" y="-119.5" font-family="Helvetica,sans-Serif" font-size="10.00">string.h</text>
</a>
</g>
</g>
<!-- Node21&#45;&gt;Node23 -->
<g id="edge38" class="edge">
<title>Node21&#45;&gt;Node23</title>
<path fill="none" stroke="midnightblue" d="M1229.73,-168.32C1240.84,-160.11 1257.74,-147.6 1270.98,-137.81"/>
<polygon fill="midnightblue" stroke="midnightblue" points="1273.1,-140.59 1279.06,-131.83 1268.94,-134.97 1273.1,-140.59"/>
</g>
</g>
</svg>
