<?xml version="1.0" encoding="UTF-8" standalone="no"?>
<!DOCTYPE svg PUBLIC "-//W3C//DTD SVG 1.1//EN"
 "http://www.w3.org/Graphics/SVG/1.1/DTD/svg11.dtd">
<!-- Generated by graphviz version 2.43.0 (0)
 -->
<!-- Title: include/a/cksum/whirl.h Pages: 1 -->
<!--zoomable 274 -->
<svg id="main" version="1.1" xmlns="http://www.w3.org/2000/svg" xmlns:xlink="http://www.w3.org/1999/xlink" xml:space="preserve" onload="init(evt)">
<style type="text/css"><![CDATA[
.edge:hover path { stroke: red; }
.edge:hover polygon { stroke: red; fill: red; }
]]></style>
<script type="text/javascript"><![CDATA[
var edges = document.getElementsByTagName('g');
if (edges && edges.length) {
  for (var i=0;i<edges.length;i++) {
    if (edges[i].id.substr(0,4)=='edge') {
      edges[i].setAttribute('class','edge');
    }
  }
}
]]></script>
        <defs>
                <circle id="rim" cx="0" cy="0" r="7"/>
                <circle id="rim2" cx="0" cy="0" r="3.5"/>
                <g id="zoomPlus">
                        <use xlink:href="#rim" fill="#404040">
                                <set attributeName="fill" to="#808080" begin="zoomplus.mouseover" end="zoomplus.mouseout"/>
                        </use>
                        <path d="M-4,0h8M0,-4v8" fill="none" stroke="white" stroke-width="1.5" pointer-events="none"/>
                </g>
                <g id="zoomMin">
                        <use xlink:href="#rim" fill="#404040">
                                <set attributeName="fill" to="#808080" begin="zoomminus.mouseover" end="zoomminus.mouseout"/>
                        </use>
                        <path d="M-4,0h8" fill="none" stroke="white" stroke-width="1.5" pointer-events="none"/>
                </g>
                <g id="dirArrow">
                        <path fill="none" stroke="white" stroke-width="1.5" d="M0,-3.0v7 M-2.5,-0.5L0,-3.0L2.5,-0.5"/>
                </g>
               <g id="resetDef">
                       <use xlink:href="#rim2" fill="#404040">
                               <set attributeName="fill" to="#808080" begin="reset.mouseover" end="reset.mouseout"/>
                       </use>
               </g>
        </defs>

<script type="text/javascript">
var viewWidth = 2290;
var viewHeight = 274;
var sectionId = 'dynsection-1';
</script>
<script xlink:href="svgpan.js"/>
<svg id="graph" class="graph">
<g id="viewport">
<title>include/a/cksum/whirl.h</title>
<polygon fill="white" stroke="transparent" points="-4,4 -4,-270 2285.5,-270 2285.5,4 -4,4"/>
<!-- Node1 -->
<g id="node1" class="node">
<title>Node1</title>
<g id="a_node1"><a xlink:title="whirlpool implementation">
<polygon fill="#bfbfbf" stroke="black" points="1203,-246.5 1203,-265.5 1335,-265.5 1335,-246.5 1203,-246.5"/>
<text text-anchor="middle" x="1269" y="-253.5" font-family="Helvetica,sans-Serif" font-size="10.00">include/a/cksum/whirl.h</text>
</a>
</g>
</g>
<!-- Node2 -->
<g id="node2" class="node">
<title>Node2</title>
<g id="a_node2"><a xlink:href="hash_8h.html" target="_top" xlink:title="hash library">
<polygon fill="white" stroke="black" points="1156.5,-190.5 1156.5,-209.5 1287.5,-209.5 1287.5,-190.5 1156.5,-190.5"/>
<text text-anchor="middle" x="1222" y="-197.5" font-family="Helvetica,sans-Serif" font-size="10.00">include/a/cksum/hash.h</text>
</a>
</g>
</g>
<!-- Node1&#45;&gt;Node2 -->
<g id="edge1" class="edge">
<title>Node1&#45;&gt;Node2</title>
<path fill="none" stroke="midnightblue" d="M1254.58,-238.43C1246.34,-228.97 1236.35,-217.48 1229.62,-209.75"/>
<polygon fill="midnightblue" stroke="midnightblue" points="1252.03,-240.84 1261.24,-246.08 1257.31,-236.24 1252.03,-240.84"/>
</g>
<!-- Node24 -->
<g id="node24" class="node">
<title>Node24</title>
<g id="a_node24"><a xlink:href="whirl_8c.html" target="_top" xlink:title="whirlpool implementation">
<polygon fill="white" stroke="black" points="2180.5,-129 2180.5,-148 2281.5,-148 2281.5,-129 2180.5,-129"/>
<text text-anchor="middle" x="2231" y="-136" font-family="Helvetica,sans-Serif" font-size="10.00">src/cksum/whirl.c</text>
</a>
</g>
</g>
<!-- Node1&#45;&gt;Node24 -->
<g id="edge24" class="edge">
<title>Node1&#45;&gt;Node24</title>
<path fill="none" stroke="midnightblue" d="M1345.57,-249.8C1501.84,-238.45 1868.36,-208.06 2172,-154 2181.03,-152.39 2190.74,-150.2 2199.62,-148.01"/>
<polygon fill="midnightblue" stroke="midnightblue" points="1344.86,-246.34 1335.14,-250.55 1345.36,-253.33 1344.86,-246.34"/>
</g>
<!-- Node3 -->
<g id="node3" class="node">
<title>Node3</title>
<g id="a_node3"><a xlink:href="hash__util_8h.html" target="_top" xlink:title="hash library utils">
<polygon fill="white" stroke="black" points="0,-123.5 0,-153.5 122,-153.5 122,-123.5 0,-123.5"/>
<text text-anchor="start" x="8" y="-141.5" font-family="Helvetica,sans-Serif" font-size="10.00">include/a/cksum/hash</text>
<text text-anchor="middle" x="61" y="-130.5" font-family="Helvetica,sans-Serif" font-size="10.00">_util.h</text>
</a>
</g>
</g>
<!-- Node2&#45;&gt;Node3 -->
<g id="edge2" class="edge">
<title>Node2&#45;&gt;Node3</title>
<path fill="none" stroke="midnightblue" d="M1146.05,-197.48C932.22,-192.94 327.91,-178.29 131,-154 128.17,-153.65 125.28,-153.25 122.37,-152.8"/>
<polygon fill="midnightblue" stroke="midnightblue" points="1146.17,-200.98 1156.24,-197.69 1146.32,-193.98 1146.17,-200.98"/>
</g>
<!-- Node5 -->
<g id="node5" class="node">
<title>Node5</title>
<g id="a_node5"><a xlink:href="hmac_8h.html" target="_top" xlink:title="RFC 2104 compliant HMAC implementation.">
<polygon fill="white" stroke="black" points="140.5,-129 140.5,-148 275.5,-148 275.5,-129 140.5,-129"/>
<text text-anchor="middle" x="208" y="-136" font-family="Helvetica,sans-Serif" font-size="10.00">include/a/cksum/hmac.h</text>
</a>
</g>
</g>
<!-- Node2&#45;&gt;Node5 -->
<g id="edge4" class="edge">
<title>Node2&#45;&gt;Node5</title>
<path fill="none" stroke="midnightblue" d="M1146.23,-198.9C986.46,-197.92 603.52,-191.46 285,-154 272.71,-152.55 259.42,-150.3 247.41,-148"/>
<polygon fill="midnightblue" stroke="midnightblue" points="1146.41,-202.4 1156.43,-198.96 1146.45,-195.4 1146.41,-202.4"/>
</g>
<!-- Node9 -->
<g id="node9" class="node">
<title>Node9</title>
<g id="a_node9"><a xlink:href="blake2b_8c.html" target="_top" xlink:title="RFC 7693 compliant BLAKE implementation.">
<polygon fill="white" stroke="black" points="294,-129 294,-148 410,-148 410,-129 294,-129"/>
<text text-anchor="middle" x="352" y="-136" font-family="Helvetica,sans-Serif" font-size="10.00">src/cksum/blake2b.c</text>
</a>
</g>
</g>
<!-- Node2&#45;&gt;Node9 -->
<g id="edge8" class="edge">
<title>Node2&#45;&gt;Node9</title>
<path fill="none" stroke="midnightblue" d="M1145.95,-198.71C1002.94,-197.28 684.42,-189.93 419,-154 408.39,-152.56 396.95,-150.34 386.59,-148.07"/>
<polygon fill="midnightblue" stroke="midnightblue" points="1146.32,-202.21 1156.35,-198.8 1146.39,-195.21 1146.32,-202.21"/>
</g>
<!-- Node10 -->
<g id="node10" class="node">
<title>Node10</title>
<g id="a_node10"><a xlink:href="blake2s_8c.html" target="_top" xlink:title="RFC 7693 compliant BLAKE implementation.">
<polygon fill="white" stroke="black" points="428.5,-129 428.5,-148 543.5,-148 543.5,-129 428.5,-129"/>
<text text-anchor="middle" x="486" y="-136" font-family="Helvetica,sans-Serif" font-size="10.00">src/cksum/blake2s.c</text>
</a>
</g>
</g>
<!-- Node2&#45;&gt;Node10 -->
<g id="edge9" class="edge">
<title>Node2&#45;&gt;Node10</title>
<path fill="none" stroke="midnightblue" d="M1145.84,-197.58C1021.13,-194.42 765.85,-184.5 552,-154 541.55,-152.51 530.29,-150.27 520.08,-148"/>
<polygon fill="midnightblue" stroke="midnightblue" points="1145.96,-201.08 1156.04,-197.83 1146.13,-194.08 1145.96,-201.08"/>
</g>
<!-- Node11 -->
<g id="node11" class="node">
<title>Node11</title>
<g id="a_node11"><a xlink:href="hash_8c.html" target="_top" xlink:title="hash library">
<polygon fill="white" stroke="black" points="561.5,-129 561.5,-148 662.5,-148 662.5,-129 561.5,-129"/>
<text text-anchor="middle" x="612" y="-136" font-family="Helvetica,sans-Serif" font-size="10.00">src/cksum/hash.c</text>
</a>
</g>
</g>
<!-- Node2&#45;&gt;Node11 -->
<g id="edge10" class="edge">
<title>Node2&#45;&gt;Node11</title>
<path fill="none" stroke="midnightblue" d="M1146.26,-196.63C1039.61,-192.44 839.4,-181.39 671,-154 661.73,-152.49 651.78,-150.28 642.74,-148.04"/>
<polygon fill="midnightblue" stroke="midnightblue" points="1146.15,-200.13 1156.28,-197.02 1146.42,-193.14 1146.15,-200.13"/>
</g>
<!-- Node12 -->
<g id="node12" class="node">
<title>Node12</title>
<g id="a_node12"><a xlink:href="md2_8c.html" target="_top" xlink:title="RFC 1319 compliant MD2 implementation.">
<polygon fill="white" stroke="black" points="680.5,-129 680.5,-148 779.5,-148 779.5,-129 680.5,-129"/>
<text text-anchor="middle" x="730" y="-136" font-family="Helvetica,sans-Serif" font-size="10.00">src/cksum/md2.c</text>
</a>
</g>
</g>
<!-- Node2&#45;&gt;Node12 -->
<g id="edge11" class="edge">
<title>Node2&#45;&gt;Node12</title>
<path fill="none" stroke="midnightblue" d="M1146.11,-194.4C1059.13,-188.37 912.51,-175.91 788,-154 779.11,-152.44 769.56,-150.26 760.83,-148.07"/>
<polygon fill="midnightblue" stroke="midnightblue" points="1145.95,-197.9 1156.16,-195.09 1146.42,-190.91 1145.95,-197.9"/>
</g>
<!-- Node13 -->
<g id="node13" class="node">
<title>Node13</title>
<g id="a_node13"><a xlink:href="md4_8c.html" target="_top" xlink:title="RFC 1320 compliant MD4 implementation.">
<polygon fill="white" stroke="black" points="797.5,-129 797.5,-148 896.5,-148 896.5,-129 797.5,-129"/>
<text text-anchor="middle" x="847" y="-136" font-family="Helvetica,sans-Serif" font-size="10.00">src/cksum/md4.c</text>
</a>
</g>
</g>
<!-- Node2&#45;&gt;Node13 -->
<g id="edge12" class="edge">
<title>Node2&#45;&gt;Node13</title>
<path fill="none" stroke="midnightblue" d="M1146.33,-190.5C1081.87,-182.73 986.95,-170.02 905,-154 896.34,-152.31 887.04,-150.14 878.47,-148"/>
<polygon fill="midnightblue" stroke="midnightblue" points="1146.06,-194 1156.4,-191.71 1146.89,-187.04 1146.06,-194"/>
</g>
<!-- Node14 -->
<g id="node14" class="node">
<title>Node14</title>
<g id="a_node14"><a xlink:href="md5_8c.html" target="_top" xlink:title="RFC 1321 compliant MD5 implementation.">
<polygon fill="white" stroke="black" points="914.5,-129 914.5,-148 1013.5,-148 1013.5,-129 914.5,-129"/>
<text text-anchor="middle" x="964" y="-136" font-family="Helvetica,sans-Serif" font-size="10.00">src/cksum/md5.c</text>
</a>
</g>
</g>
<!-- Node2&#45;&gt;Node14 -->
<g id="edge13" class="edge">
<title>Node2&#45;&gt;Node14</title>
<path fill="none" stroke="midnightblue" d="M1172.96,-188.3C1132.42,-179.38 1073.39,-166.2 1022,-154 1014.12,-152.13 1005.66,-150.05 997.7,-148.07"/>
<polygon fill="midnightblue" stroke="midnightblue" points="1172.33,-191.75 1182.85,-190.48 1173.83,-184.91 1172.33,-191.75"/>
</g>
<!-- Node15 -->
<g id="node15" class="node">
<title>Node15</title>
<g id="a_node15"><a xlink:href="rmd128_8c.html" target="_top" xlink:title="ripemd implementation">
<polygon fill="white" stroke="black" points="1031.5,-129 1031.5,-148 1146.5,-148 1146.5,-129 1031.5,-129"/>
<text text-anchor="middle" x="1089" y="-136" font-family="Helvetica,sans-Serif" font-size="10.00">src/cksum/rmd128.c</text>
</a>
</g>
</g>
<!-- Node2&#45;&gt;Node15 -->
<g id="edge14" class="edge">
<title>Node2&#45;&gt;Node15</title>
<path fill="none" stroke="midnightblue" d="M1193.67,-186.33C1167.85,-174.78 1130.42,-158.03 1108.02,-148.01"/>
<polygon fill="midnightblue" stroke="midnightblue" points="1192.39,-189.59 1202.94,-190.48 1195.25,-183.2 1192.39,-189.59"/>
</g>
<!-- Node16 -->
<g id="node16" class="node">
<title>Node16</title>
<g id="a_node16"><a xlink:href="rmd160_8c.html" target="_top" xlink:title="ripemd implementation">
<polygon fill="white" stroke="black" points="1164.5,-129 1164.5,-148 1279.5,-148 1279.5,-129 1164.5,-129"/>
<text text-anchor="middle" x="1222" y="-136" font-family="Helvetica,sans-Serif" font-size="10.00">src/cksum/rmd160.c</text>
</a>
</g>
</g>
<!-- Node2&#45;&gt;Node16 -->
<g id="edge15" class="edge">
<title>Node2&#45;&gt;Node16</title>
<path fill="none" stroke="midnightblue" d="M1222,-180.32C1222,-169.5 1222,-156.4 1222,-148.01"/>
<polygon fill="midnightblue" stroke="midnightblue" points="1218.5,-180.48 1222,-190.48 1225.5,-180.48 1218.5,-180.48"/>
</g>
<!-- Node17 -->
<g id="node17" class="node">
<title>Node17</title>
<g id="a_node17"><a xlink:href="rmd256_8c.html" target="_top" xlink:title="ripemd implementation">
<polygon fill="white" stroke="black" points="1297.5,-129 1297.5,-148 1412.5,-148 1412.5,-129 1297.5,-129"/>
<text text-anchor="middle" x="1355" y="-136" font-family="Helvetica,sans-Serif" font-size="10.00">src/cksum/rmd256.c</text>
</a>
</g>
</g>
<!-- Node2&#45;&gt;Node17 -->
<g id="edge16" class="edge">
<title>Node2&#45;&gt;Node17</title>
<path fill="none" stroke="midnightblue" d="M1250.33,-186.33C1276.15,-174.78 1313.58,-158.03 1335.98,-148.01"/>
<polygon fill="midnightblue" stroke="midnightblue" points="1248.75,-183.2 1241.06,-190.48 1251.61,-189.59 1248.75,-183.2"/>
</g>
<!-- Node18 -->
<g id="node18" class="node">
<title>Node18</title>
<g id="a_node18"><a xlink:href="rmd320_8c.html" target="_top" xlink:title="ripemd implementation">
<polygon fill="white" stroke="black" points="1430.5,-129 1430.5,-148 1545.5,-148 1545.5,-129 1430.5,-129"/>
<text text-anchor="middle" x="1488" y="-136" font-family="Helvetica,sans-Serif" font-size="10.00">src/cksum/rmd320.c</text>
</a>
</g>
</g>
<!-- Node2&#45;&gt;Node18 -->
<g id="edge17" class="edge">
<title>Node2&#45;&gt;Node18</title>
<path fill="none" stroke="midnightblue" d="M1270.02,-188.26C1321.62,-176.72 1402.59,-158.61 1449.96,-148.01"/>
<polygon fill="midnightblue" stroke="midnightblue" points="1269.11,-184.88 1260.11,-190.48 1270.63,-191.71 1269.11,-184.88"/>
</g>
<!-- Node19 -->
<g id="node19" class="node">
<title>Node19</title>
<g id="a_node19"><a xlink:href="sha1_8c.html" target="_top" xlink:title="RFC 3174 compliant SHA1 implementation.">
<polygon fill="white" stroke="black" points="1563.5,-129 1563.5,-148 1664.5,-148 1664.5,-129 1563.5,-129"/>
<text text-anchor="middle" x="1614" y="-136" font-family="Helvetica,sans-Serif" font-size="10.00">src/cksum/sha1.c</text>
</a>
</g>
</g>
<!-- Node2&#45;&gt;Node19 -->
<g id="edge18" class="edge">
<title>Node2&#45;&gt;Node19</title>
<path fill="none" stroke="midnightblue" d="M1297.64,-190.98C1365.17,-183.29 1466.6,-170.44 1554,-154 1562.95,-152.32 1572.57,-150.15 1581.43,-148.01"/>
<polygon fill="midnightblue" stroke="midnightblue" points="1297.06,-187.53 1287.52,-192.12 1297.85,-194.48 1297.06,-187.53"/>
</g>
<!-- Node20 -->
<g id="node20" class="node">
<title>Node20</title>
<g id="a_node20"><a xlink:href="sha256_8c.html" target="_top" xlink:title="RFC 5754 compliant SHA2 implementation.">
<polygon fill="white" stroke="black" points="1682.5,-129 1682.5,-148 1795.5,-148 1795.5,-129 1682.5,-129"/>
<text text-anchor="middle" x="1739" y="-136" font-family="Helvetica,sans-Serif" font-size="10.00">src/cksum/sha256.c</text>
</a>
</g>
</g>
<!-- Node2&#45;&gt;Node20 -->
<g id="edge19" class="edge">
<title>Node2&#45;&gt;Node20</title>
<path fill="none" stroke="midnightblue" d="M1297.76,-194.16C1387.65,-187.78 1541.87,-174.87 1673,-154 1683.08,-152.4 1693.93,-150.21 1703.87,-148.02"/>
<polygon fill="midnightblue" stroke="midnightblue" points="1297.39,-190.67 1287.66,-194.86 1297.88,-197.66 1297.39,-190.67"/>
</g>
<!-- Node21 -->
<g id="node21" class="node">
<title>Node21</title>
<g id="a_node21"><a xlink:href="sha3_8c.html" target="_top" xlink:title="SHA3 implementation.">
<polygon fill="white" stroke="black" points="1813.5,-129 1813.5,-148 1914.5,-148 1914.5,-129 1813.5,-129"/>
<text text-anchor="middle" x="1864" y="-136" font-family="Helvetica,sans-Serif" font-size="10.00">src/cksum/sha3.c</text>
</a>
</g>
</g>
<!-- Node2&#45;&gt;Node21 -->
<g id="edge20" class="edge">
<title>Node2&#45;&gt;Node21</title>
<path fill="none" stroke="midnightblue" d="M1298,-197C1409.57,-193.18 1623.95,-182.53 1804,-154 1813.42,-152.51 1823.54,-150.3 1832.74,-148.06"/>
<polygon fill="midnightblue" stroke="midnightblue" points="1297.74,-193.5 1287.86,-197.33 1297.97,-200.5 1297.74,-193.5"/>
</g>
<!-- Node22 -->
<g id="node22" class="node">
<title>Node22</title>
<g id="a_node22"><a xlink:href="sha512_8c.html" target="_top" xlink:title="RFC 5754 compliant SHA2 implementation.">
<polygon fill="white" stroke="black" points="1932.5,-129 1932.5,-148 2045.5,-148 2045.5,-129 1932.5,-129"/>
<text text-anchor="middle" x="1989" y="-136" font-family="Helvetica,sans-Serif" font-size="10.00">src/cksum/sha512.c</text>
</a>
</g>
</g>
<!-- Node2&#45;&gt;Node22 -->
<g id="edge21" class="edge">
<title>Node2&#45;&gt;Node22</title>
<path fill="none" stroke="midnightblue" d="M1297.86,-197.99C1427.03,-195.42 1697.7,-186.29 1924,-154 1934.3,-152.53 1945.39,-150.3 1955.45,-148.03"/>
<polygon fill="midnightblue" stroke="midnightblue" points="1297.61,-194.5 1287.68,-198.19 1297.74,-201.5 1297.61,-194.5"/>
</g>
<!-- Node23 -->
<g id="node23" class="node">
<title>Node23</title>
<g id="a_node23"><a xlink:href="tiger_8c.html" target="_top" xlink:title="TIGER implementation.">
<polygon fill="white" stroke="black" points="2063.5,-129 2063.5,-148 2162.5,-148 2162.5,-129 2063.5,-129"/>
<text text-anchor="middle" x="2113" y="-136" font-family="Helvetica,sans-Serif" font-size="10.00">src/cksum/tiger.c</text>
</a>
</g>
</g>
<!-- Node2&#45;&gt;Node23 -->
<g id="edge22" class="edge">
<title>Node2&#45;&gt;Node23</title>
<path fill="none" stroke="midnightblue" d="M1297.75,-199.73C1444.68,-200.08 1778.26,-195.68 2055,-154 2064.34,-152.59 2074.37,-150.35 2083.42,-148.05"/>
<polygon fill="midnightblue" stroke="midnightblue" points="1297.51,-196.23 1287.5,-199.69 1297.49,-203.23 1297.51,-196.23"/>
</g>
<!-- Node2&#45;&gt;Node24 -->
<g id="edge23" class="edge">
<title>Node2&#45;&gt;Node24</title>
<path fill="none" stroke="midnightblue" d="M1297.82,-197.3C1492.02,-192.66 2003.84,-178.41 2172,-154 2181.6,-152.61 2191.92,-150.34 2201.21,-148.01"/>
<polygon fill="midnightblue" stroke="midnightblue" points="1297.62,-193.81 1287.7,-197.54 1297.78,-200.81 1297.62,-193.81"/>
</g>
<!-- Node4 -->
<g id="node4" class="node">
<title>Node4</title>
<g id="a_node4"><a xlink:href="hash__util_8c.html" target="_top" xlink:title="hash library utils">
<polygon fill="white" stroke="black" points="0,-62 0,-81 122,-81 122,-62 0,-62"/>
<text text-anchor="middle" x="61" y="-69" font-family="Helvetica,sans-Serif" font-size="10.00">src/cksum/hash_util.c</text>
</a>
</g>
</g>
<!-- Node3&#45;&gt;Node4 -->
<g id="edge3" class="edge">
<title>Node3&#45;&gt;Node4</title>
<path fill="none" stroke="midnightblue" d="M61,-113.25C61,-102.02 61,-89.38 61,-81.19"/>
<polygon fill="midnightblue" stroke="midnightblue" points="57.5,-113.4 61,-123.4 64.5,-113.4 57.5,-113.4"/>
</g>
<!-- Node6 -->
<g id="node6" class="node">
<title>Node6</title>
<g id="a_node6"><a xlink:href="hmac__util_8h.html" target="_top" xlink:title="hmac library utils">
<polygon fill="white" stroke="black" points="142,-56.5 142,-86.5 268,-86.5 268,-56.5 142,-56.5"/>
<text text-anchor="start" x="150" y="-74.5" font-family="Helvetica,sans-Serif" font-size="10.00">include/a/cksum/hmac</text>
<text text-anchor="middle" x="205" y="-63.5" font-family="Helvetica,sans-Serif" font-size="10.00">_util.h</text>
</a>
</g>
</g>
<!-- Node5&#45;&gt;Node6 -->
<g id="edge5" class="edge">
<title>Node5&#45;&gt;Node6</title>
<path fill="none" stroke="midnightblue" d="M207.13,-118.74C206.66,-108.49 206.08,-96 205.65,-86.59"/>
<polygon fill="midnightblue" stroke="midnightblue" points="203.64,-118.91 207.6,-128.73 210.63,-118.58 203.64,-118.91"/>
</g>
<!-- Node8 -->
<g id="node8" class="node">
<title>Node8</title>
<g id="a_node8"><a xlink:href="hmac_8c.html" target="_top" xlink:title="RFC 2104 compliant HMAC implementation.">
<polygon fill="white" stroke="black" points="286,-62 286,-81 390,-81 390,-62 286,-62"/>
<text text-anchor="middle" x="338" y="-69" font-family="Helvetica,sans-Serif" font-size="10.00">src/cksum/hmac.c</text>
</a>
</g>
</g>
<!-- Node5&#45;&gt;Node8 -->
<g id="edge7" class="edge">
<title>Node5&#45;&gt;Node8</title>
<path fill="none" stroke="midnightblue" d="M234.45,-124.27C260.2,-111.4 298.58,-92.21 320.67,-81.17"/>
<polygon fill="midnightblue" stroke="midnightblue" points="232.64,-121.27 225.26,-128.87 235.77,-127.53 232.64,-121.27"/>
</g>
<!-- Node7 -->
<g id="node7" class="node">
<title>Node7</title>
<g id="a_node7"><a xlink:href="hmac__util_8c.html" target="_top" xlink:title="hmac library utils">
<polygon fill="white" stroke="black" points="142.5,-0.5 142.5,-19.5 267.5,-19.5 267.5,-0.5 142.5,-0.5"/>
<text text-anchor="middle" x="205" y="-7.5" font-family="Helvetica,sans-Serif" font-size="10.00">src/cksum/hmac_util.c</text>
</a>
</g>
</g>
<!-- Node6&#45;&gt;Node7 -->
<g id="edge6" class="edge">
<title>Node6&#45;&gt;Node7</title>
<path fill="none" stroke="midnightblue" d="M205,-46.29C205,-36.86 205,-26.65 205,-19.66"/>
<polygon fill="midnightblue" stroke="midnightblue" points="201.5,-46.4 205,-56.4 208.5,-46.4 201.5,-46.4"/>
</g>
</g>
</svg>
        <g id="navigator" transform="translate(0 0)" fill="#404254">
                <rect fill="#f2f5e9" fill-opacity="0.5" stroke="#606060" stroke-width=".5" x="0" y="0" width="60" height="60"/>
                <use id="zoomplus" xlink:href="#zoomPlus" x="17" y="9" onmousedown="handleZoom(evt,'in')"/>
                <use id="zoomminus" xlink:href="#zoomMin" x="42" y="9" onmousedown="handleZoom(evt,'out')"/>
                <use id="reset" xlink:href="#resetDef" x="30" y="36" onmousedown="handleReset()"/>
                <g id="arrowUp" xlink:href="#dirArrow" transform="translate(30 24)" onmousedown="handlePan(0,-1)">
                  <use xlink:href="#rim" fill="#404040">
                        <set attributeName="fill" to="#808080" begin="arrowUp.mouseover" end="arrowUp.mouseout"/>
                  </use>
                  <path fill="none" stroke="white" stroke-width="1.5" d="M0,-3.0v7 M-2.5,-0.5L0,-3.0L2.5,-0.5"/>
                </g>
                <g id="arrowRight" xlink:href="#dirArrow" transform="rotate(90) translate(36 -43)" onmousedown="handlePan(1,0)">
                  <use xlink:href="#rim" fill="#404040">
                        <set attributeName="fill" to="#808080" begin="arrowRight.mouseover" end="arrowRight.mouseout"/>
                  </use>
                  <path fill="none" stroke="white" stroke-width="1.5" d="M0,-3.0v7 M-2.5,-0.5L0,-3.0L2.5,-0.5"/>
                </g>
                <g id="arrowDown" xlink:href="#dirArrow" transform="rotate(180) translate(-30 -48)" onmousedown="handlePan(0,1)">
                  <use xlink:href="#rim" fill="#404040">
                        <set attributeName="fill" to="#808080" begin="arrowDown.mouseover" end="arrowDown.mouseout"/>
                  </use>
                  <path fill="none" stroke="white" stroke-width="1.5" d="M0,-3.0v7 M-2.5,-0.5L0,-3.0L2.5,-0.5"/>
                </g>
                <g id="arrowLeft" xlink:href="#dirArrow" transform="rotate(270) translate(-36 17)" onmousedown="handlePan(-1,0)">
                  <use xlink:href="#rim" fill="#404040">
                        <set attributeName="fill" to="#808080" begin="arrowLeft.mouseover" end="arrowLeft.mouseout"/>
                  </use>
                  <path fill="none" stroke="white" stroke-width="1.5" d="M0,-3.0v7 M-2.5,-0.5L0,-3.0L2.5,-0.5"/>
                </g>
        </g>
        <svg viewBox="0 0 15 15" width="100%" height="30px" preserveAspectRatio="xMaxYMin meet">
         <g id="arrow_out" transform="scale(0.3 0.3)">
          <a xlink:href="whirl_8h__dep__incl_org.svg" target="_base">
           <rect id="button" ry="5" rx="5" y="6" x="6" height="38" width="38"
                fill="#f2f5e9" fill-opacity="0.5" stroke="#606060" stroke-width="1.0"/>
           <path id="arrow"
             d="M 11.500037,31.436501 C 11.940474,20.09759 22.043105,11.32322 32.158766,21.979434 L 37.068811,17.246167 C 37.068811,17.246167 37.088388,32 37.088388,32 L 22.160133,31.978069 C 22.160133,31.978069 26.997745,27.140456 26.997745,27.140456 C 18.528582,18.264221 13.291696,25.230495 11.500037,31.436501 z"
             style="fill:#404040;"/>
          </a>
         </g>
        </svg>
</svg>
