<?xml version="1.0" encoding="UTF-8" standalone="no"?>
<!DOCTYPE svg PUBLIC "-//W3C//DTD SVG 1.1//EN"
 "http://www.w3.org/Graphics/SVG/1.1/DTD/svg11.dtd">
<!-- Generated by graphviz version 2.43.0 (0)
 -->
<!-- Title: src/misc/zyx.c Pages: 1 -->
<svg width="264pt" height="252pt"
 viewBox="0.00 0.00 264.00 252.00" xmlns="http://www.w3.org/2000/svg" xmlns:xlink="http://www.w3.org/1999/xlink">
<g id="graph0" class="graph" transform="scale(1 1) rotate(0) translate(4 248)">
<title>src/misc/zyx.c</title>
<polygon fill="white" stroke="transparent" points="-4,4 -4,-248 260,-248 260,4 -4,4"/>
<!-- Node1 -->
<g id="node1" class="node">
<title>Node1</title>
<g id="a_node1"><a xlink:title="yaw (Z), pitch (Y), roll (X)">
<polygon fill="#bfbfbf" stroke="black" points="96,-224.5 96,-243.5 182,-243.5 182,-224.5 96,-224.5"/>
<text text-anchor="middle" x="139" y="-231.5" font-family="Helvetica,sans-Serif" font-size="10.00">src/misc/zyx.c</text>
</a>
</g>
</g>
<!-- Node2 -->
<g id="node2" class="node">
<title>Node2</title>
<g id="a_node2"><a xlink:href="zyx_8h.html" target="_top" xlink:title="yaw (Z), pitch (Y), roll (X)">
<polygon fill="white" stroke="black" points="0,-168.5 0,-187.5 78,-187.5 78,-168.5 0,-168.5"/>
<text text-anchor="middle" x="39" y="-175.5" font-family="Helvetica,sans-Serif" font-size="10.00">a/misc/zyx.h</text>
</a>
</g>
</g>
<!-- Node1&#45;&gt;Node2 -->
<g id="edge1" class="edge">
<title>Node1&#45;&gt;Node2</title>
<path fill="none" stroke="midnightblue" d="M122.93,-224.32C107.04,-215.74 82.49,-202.49 64.04,-192.52"/>
<polygon fill="midnightblue" stroke="midnightblue" points="65.49,-189.33 55.03,-187.65 62.16,-195.49 65.49,-189.33"/>
</g>
<!-- Node7 -->
<g id="node7" class="node">
<title>Node7</title>
<g id="a_node7"><a xlink:href="math_8h.html" target="_top" xlink:title="Calculate math library.">
<polygon fill="white" stroke="black" points="96,-168.5 96,-187.5 182,-187.5 182,-168.5 96,-168.5"/>
<text text-anchor="middle" x="139" y="-175.5" font-family="Helvetica,sans-Serif" font-size="10.00">a/misc/math.h</text>
</a>
</g>
</g>
<!-- Node1&#45;&gt;Node7 -->
<g id="edge6" class="edge">
<title>Node1&#45;&gt;Node7</title>
<path fill="none" stroke="midnightblue" d="M139,-224.08C139,-217.01 139,-206.86 139,-197.99"/>
<polygon fill="midnightblue" stroke="midnightblue" points="142.5,-197.75 139,-187.75 135.5,-197.75 142.5,-197.75"/>
</g>
<!-- Node9 -->
<g id="node9" class="node">
<title>Node9</title>
<g id="a_node9"><a xlink:title=" ">
<polygon fill="white" stroke="#bfbfbf" points="200,-168.5 200,-187.5 256,-187.5 256,-168.5 200,-168.5"/>
<text text-anchor="middle" x="228" y="-175.5" font-family="Helvetica,sans-Serif" font-size="10.00">assert.h</text>
</a>
</g>
</g>
<!-- Node1&#45;&gt;Node9 -->
<g id="edge9" class="edge">
<title>Node1&#45;&gt;Node9</title>
<path fill="none" stroke="midnightblue" d="M153.3,-224.32C167.18,-215.9 188.49,-202.97 204.8,-193.07"/>
<polygon fill="midnightblue" stroke="midnightblue" points="207,-195.83 213.74,-187.65 203.37,-189.85 207,-195.83"/>
</g>
<!-- Node3 -->
<g id="node3" class="node">
<title>Node3</title>
<g id="a_node3"><a xlink:href="real_8h.html" target="_top" xlink:title="real number">
<polygon fill="white" stroke="black" points="12.5,-112.5 12.5,-131.5 65.5,-131.5 65.5,-112.5 12.5,-112.5"/>
<text text-anchor="middle" x="39" y="-119.5" font-family="Helvetica,sans-Serif" font-size="10.00">../real.h</text>
</a>
</g>
</g>
<!-- Node2&#45;&gt;Node3 -->
<g id="edge2" class="edge">
<title>Node2&#45;&gt;Node3</title>
<path fill="none" stroke="midnightblue" d="M39,-168.08C39,-161.01 39,-150.86 39,-141.99"/>
<polygon fill="midnightblue" stroke="midnightblue" points="42.5,-141.75 39,-131.75 35.5,-141.75 42.5,-141.75"/>
</g>
<!-- Node4 -->
<g id="node4" class="node">
<title>Node4</title>
<g id="a_node4"><a xlink:href="def_8h.html" target="_top" xlink:title="algorithm library definition">
<polygon fill="white" stroke="black" points="45.5,-56.5 45.5,-75.5 86.5,-75.5 86.5,-56.5 45.5,-56.5"/>
<text text-anchor="middle" x="66" y="-63.5" font-family="Helvetica,sans-Serif" font-size="10.00">def.h</text>
</a>
</g>
</g>
<!-- Node3&#45;&gt;Node4 -->
<g id="edge3" class="edge">
<title>Node3&#45;&gt;Node4</title>
<path fill="none" stroke="midnightblue" d="M43.46,-112.08C47.15,-104.69 52.52,-93.95 57.09,-84.81"/>
<polygon fill="midnightblue" stroke="midnightblue" points="60.28,-86.26 61.62,-75.75 54.02,-83.13 60.28,-86.26"/>
</g>
<!-- Node5 -->
<g id="node5" class="node">
<title>Node5</title>
<g id="a_node5"><a xlink:title=" ">
<polygon fill="white" stroke="#bfbfbf" points="2,-0.5 2,-19.5 58,-19.5 58,-0.5 2,-0.5"/>
<text text-anchor="middle" x="30" y="-7.5" font-family="Helvetica,sans-Serif" font-size="10.00">stddef.h</text>
</a>
</g>
</g>
<!-- Node4&#45;&gt;Node5 -->
<g id="edge4" class="edge">
<title>Node4&#45;&gt;Node5</title>
<path fill="none" stroke="midnightblue" d="M60.06,-56.08C55.02,-48.53 47.66,-37.49 41.49,-28.23"/>
<polygon fill="midnightblue" stroke="midnightblue" points="44.29,-26.13 35.83,-19.75 38.47,-30.01 44.29,-26.13"/>
</g>
<!-- Node6 -->
<g id="node6" class="node">
<title>Node6</title>
<g id="a_node6"><a xlink:title=" ">
<polygon fill="white" stroke="#bfbfbf" points="76.5,-0.5 76.5,-19.5 129.5,-19.5 129.5,-0.5 76.5,-0.5"/>
<text text-anchor="middle" x="103" y="-7.5" font-family="Helvetica,sans-Serif" font-size="10.00">stdint.h</text>
</a>
</g>
</g>
<!-- Node4&#45;&gt;Node6 -->
<g id="edge5" class="edge">
<title>Node4&#45;&gt;Node6</title>
<path fill="none" stroke="midnightblue" d="M72.11,-56.08C77.28,-48.53 84.85,-37.49 91.19,-28.23"/>
<polygon fill="midnightblue" stroke="midnightblue" points="94.24,-29.98 97,-19.75 88.46,-26.02 94.24,-29.98"/>
</g>
<!-- Node7&#45;&gt;Node4 -->
<g id="edge7" class="edge">
<title>Node7&#45;&gt;Node4</title>
<path fill="none" stroke="midnightblue" d="M133.27,-168.37C121.22,-150.22 93.08,-107.8 77.28,-83.99"/>
<polygon fill="midnightblue" stroke="midnightblue" points="80.15,-81.99 71.7,-75.59 74.31,-85.86 80.15,-81.99"/>
</g>
<!-- Node8 -->
<g id="node8" class="node">
<title>Node8</title>
<g id="a_node8"><a xlink:title=" ">
<polygon fill="white" stroke="#bfbfbf" points="122.5,-112.5 122.5,-131.5 169.5,-131.5 169.5,-112.5 122.5,-112.5"/>
<text text-anchor="middle" x="146" y="-119.5" font-family="Helvetica,sans-Serif" font-size="10.00">float.h</text>
</a>
</g>
</g>
<!-- Node7&#45;&gt;Node8 -->
<g id="edge8" class="edge">
<title>Node7&#45;&gt;Node8</title>
<path fill="none" stroke="midnightblue" d="M140.16,-168.08C141.08,-160.93 142.42,-150.64 143.58,-141.69"/>
<polygon fill="midnightblue" stroke="midnightblue" points="147.05,-142.12 144.87,-131.75 140.11,-141.22 147.05,-142.12"/>
</g>
</g>
</svg>
